<?xml version="1.0" encoding="UTF-8" standalone="no"?>
<!-- Created with Inkscape (http://www.inkscape.org/) -->
<svg
   xmlns:dc="http://purl.org/dc/elements/1.1/"
   xmlns:cc="http://web.resource.org/cc/"
   xmlns:rdf="http://www.w3.org/1999/02/22-rdf-syntax-ns#"
   xmlns:svg="http://www.w3.org/2000/svg"
   xmlns="http://www.w3.org/2000/svg"
   xmlns:sodipodi="http://inkscape.sourceforge.net/DTD/sodipodi-0.dtd"
   xmlns:inkscape="http://www.inkscape.org/namespaces/inkscape"
   width="360"
   height="360"
   id="svg1407"
   sodipodi:version="0.32"
   inkscape:version="0.43"
   version="1.0"
   sodipodi:docbase="/orig/my/proj/xpcs"
   sodipodi:docname="circles.svg">
  <defs
     id="defs1409">
    <marker
       inkscape:stockid="Dot_s"
       orient="auto"
       refY="0.0"
       refX="0.0"
       id="Dot_s"
       style="overflow:visible">
      <path
         id="path2392"
         d="M -2.5,-1.0 C -2.5,1.7600000 -4.7400000,4.0 -7.5,4.0 C -10.260000,4.0 -12.5,1.7600000 -12.5,-1.0 C -12.5,-3.7600000 -10.260000,-6.0 -7.5,-6.0 C -4.7400000,-6.0 -2.5,-3.7600000 -2.5,-1.0 z "
         style="fill-rule:evenodd;stroke:#000000;stroke-width:1.0pt;marker-start:none;marker-end:none"
         transform="scale(0.2) translate(7.125493, 1)" />
    </marker>
  </defs>
  <sodipodi:namedview
     id="base"
     pagecolor="#ffffff"
     bordercolor="#666666"
     borderopacity="1.0"
     inkscape:pageopacity="0.0"
     inkscape:pageshadow="2"
     inkscape:zoom="1.4"
     inkscape:cx="230.66833"
     inkscape:cy="195.57659"
     inkscape:document-units="px"
     inkscape:current-layer="layer1"
     inkscape:window-width="1145"
     inkscape:window-height="946"
     inkscape:window-x="2063"
     inkscape:window-y="317" />
  <metadata
     id="metadata1412">
    <rdf:RDF>
      <cc:Work
         rdf:about="">
        <dc:format>image/svg+xml</dc:format>
        <dc:type
           rdf:resource="http://purl.org/dc/dcmitype/StillImage" />
      </cc:Work>
    </rdf:RDF>
  </metadata>
  <g
     inkscape:label="Layer 1"
     inkscape:groupmode="layer"
     id="layer1">
    <path
       style="fill:none;stroke:#000000;marker-start:url(#Dot_s);marker-mid:none;stroke-opacity:1"
       d="M 100.07743,56.642274 C 100.07743,78.879783 82.029612,96.927603 59.792116,96.927603 C 37.554604,96.927603 19.506783,78.879783 19.506783,56.642274 C 19.506783,34.404773 37.554604,16.356946 59.792116,16.356946 C 82.029612,16.356946 100.07743,34.404773 100.07743,56.642274 z "
       id="path1415" />
    <path
       id="use2503"
       d="M 100.07743,56.642274 C 100.07743,78.879783 82.029612,96.927603 59.792116,96.927603 C 37.554604,96.927603 19.506783,78.879783 19.506783,56.642274 C 19.506783,34.404773 37.554604,16.356946 59.792116,16.356946 C 82.029612,16.356946 100.07743,34.404773 100.07743,56.642274 z "
       style="fill:none;stroke:#000000;marker-start:url(#Dot_s);marker-mid:none;stroke-opacity:1" />
    <path
       id="use2505"
       d="M 96.099766,138.84071 C 96.099766,158.85446 79.856729,175.0975 59.842982,175.0975 C 39.829221,175.0975 23.586182,158.85446 23.586182,138.84071 C 23.586182,118.82696 39.829221,102.58392 59.842982,102.58392 C 79.856729,102.58392 96.099766,118.82696 96.099766,138.84071 z "
       style="fill:none;stroke:#000000;marker-start:url(#Dot_s);marker-mid:none;stroke-opacity:1" />
    <path
       id="use2507"
       d="M 92.122103,221.03912 C 92.122103,238.82912 77.683847,253.26738 59.89385,253.26738 C 42.10384,253.26738 27.665583,238.82912 27.665583,221.03912 C 27.665583,203.24912 42.10384,188.81086 59.89385,188.81086 C 77.683847,188.81086 92.122103,203.24912 92.122103,221.03912 z "
       style="fill:none;stroke:#000000;marker-start:url(#Dot_s);marker-mid:none;stroke-opacity:1" />
    <path
       id="use2509"
       d="M 88.144439,303.23762 C 88.144439,318.80387 75.510965,331.43734 59.944718,331.43734 C 44.37846,331.43734 31.744984,318.80387 31.744984,303.23762 C 31.744984,287.67137 44.37846,275.03789 59.944718,275.03789 C 75.510965,275.03789 88.144439,287.67137 88.144439,303.23762 z "
       style="fill:none;stroke:#000000;marker-start:url(#Dot_s);marker-mid:none;stroke-opacity:1" />
    <path
       id="use2511"
       d="M 179.31554,56.642274 C 179.31554,76.656033 163.0725,92.899071 143.05876,92.899071 C 123.04499,92.899071 106.80196,76.656033 106.80196,56.642274 C 106.80196,36.628525 123.04499,20.385479 143.05876,20.385479 C 163.0725,20.385479 179.31554,36.628525 179.31554,56.642274 z "
       style="fill:none;stroke:#000000;marker-start:url(#Dot_s);marker-mid:none;stroke-opacity:1" />
    <path
       id="use2513"
       d="M 175.33788,138.84071 C 175.33788,156.63071 160.89963,171.06898 143.10964,171.06898 C 125.31963,171.06898 110.88137,156.63071 110.88137,138.84071 C 110.88137,121.05071 125.31963,106.61245 143.10964,106.61245 C 160.89963,106.61245 175.33788,121.05071 175.33788,138.84071 z "
       style="fill:none;stroke:#000000;marker-start:url(#Dot_s);marker-mid:none;stroke-opacity:1" />
    <path
       id="use2515"
       d="M 171.36022,221.03915 C 171.36022,236.6054 158.72675,249.23887 143.1605,249.23887 C 127.59424,249.23887 114.96076,236.6054 114.96076,221.03915 C 114.96076,205.47291 127.59424,192.83942 143.1605,192.83942 C 158.72675,192.83942 171.36022,205.47291 171.36022,221.03915 z "
       style="fill:none;stroke:#000000;marker-start:url(#Dot_s);marker-mid:none;stroke-opacity:1" />
    <path
       id="use2517"
       d="M 167.38255,303.23749 C 167.38255,316.57999 156.55385,327.40868 143.21136,327.40868 C 129.86885,327.40868 119.04016,316.57999 119.04016,303.23749 C 119.04016,289.89499 129.86885,279.0663 143.21136,279.0663 C 156.55385,279.0663 167.38255,289.89499 167.38255,303.23749 z "
       style="fill:none;stroke:#000000;marker-start:url(#Dot_s);marker-mid:none;stroke-opacity:1" />
    <path
       id="use2519"
       d="M 258.55371,56.642274 C 258.55371,74.432281 244.11546,88.870536 226.32546,88.870536 C 208.53545,88.870536 194.0972,74.432281 194.0972,56.642274 C 194.0972,38.852272 208.53545,24.41401 226.32546,24.41401 C 244.11546,24.41401 258.55371,38.852272 258.55371,56.642274 z "
       style="fill:none;stroke:#000000;marker-start:url(#Dot_s);marker-mid:none;stroke-opacity:1" />
    <path
       id="use2521"
       d="M 254.57603,138.84071 C 254.57603,154.40696 241.94256,167.04043 226.37631,167.04043 C 210.81005,167.04043 198.17658,154.40696 198.17658,138.84071 C 198.17658,123.27446 210.81005,110.64098 226.37631,110.64098 C 241.94256,110.64098 254.57603,123.27446 254.57603,138.84071 z "
       style="fill:none;stroke:#000000;marker-start:url(#Dot_s);marker-mid:none;stroke-opacity:1" />
    <path
       id="use2523"
       d="M 250.59834,221.03918 C 250.59834,234.38168 239.76965,245.21038 226.42715,245.21038 C 213.08465,245.21038 202.25596,234.38168 202.25596,221.03918 C 202.25596,207.69669 213.08465,196.86799 226.42715,196.86799 C 239.76965,196.86799 250.59834,207.69669 250.59834,221.03918 z "
       style="fill:none;stroke:#000000;marker-start:url(#Dot_s);marker-mid:none;stroke-opacity:1" />
    <path
       id="use2525"
       d="M 246.62065,303.23752 C 246.62065,314.35627 237.59675,323.38019 226.478,323.38019 C 215.35924,323.38019 206.33534,314.35627 206.33534,303.23752 C 206.33534,292.11878 215.35924,283.09486 226.478,283.09486 C 237.59675,283.09486 246.62065,292.11878 246.62065,303.23752 z "
       style="fill:none;stroke:#000000;marker-start:url(#Dot_s);marker-mid:none;stroke-opacity:1" />
    <path
       id="use2527"
       d="M 337.79186,56.642276 C 337.79186,72.208531 325.15839,84.842006 309.59214,84.842006 C 294.02588,84.842006 281.39241,72.208531 281.39241,56.642276 C 281.39241,41.076025 294.02588,28.442545 309.59214,28.442545 C 325.15839,28.442545 337.79186,41.076025 337.79186,56.642276 z "
       style="fill:none;stroke:#000000;marker-start:url(#Dot_s);marker-mid:none;stroke-opacity:1" />
    <path
       id="use2529"
       d="M 333.81417,138.8407 C 333.81417,152.1832 322.98547,163.01189 309.64298,163.01189 C 296.30048,163.01189 285.47178,152.1832 285.47178,138.8407 C 285.47178,125.4982 296.30048,114.6695 309.64298,114.6695 C 322.98547,114.6695 333.81417,125.4982 333.81417,138.8407 z "
       style="fill:none;stroke:#000000;marker-start:url(#Dot_s);marker-mid:none;stroke-opacity:1" />
    <path
       id="use2531"
       d="M 329.83648,221.03922 C 329.83648,232.15797 320.81258,241.18188 309.69383,241.18188 C 298.57506,241.18188 289.55116,232.15797 289.55116,221.03922 C 289.55116,209.92047 298.57506,200.89655 309.69383,200.89655 C 320.81258,200.89655 329.83648,209.92047 329.83648,221.03922 z "
       style="fill:none;stroke:#000000;marker-start:url(#Dot_s);marker-mid:none;stroke-opacity:1" />
    <path
       id="use2533"
       d="M 325.8588,303.23756 C 325.8588,312.13255 318.63966,319.35168 309.74466,319.35168 C 300.84967,319.35168 293.63054,312.13255 293.63054,303.23756 C 293.63054,294.34256 300.84967,287.12342 309.74466,287.12342 C 318.63966,287.12342 325.8588,294.34256 325.8588,303.23756 z "
       style="fill:none;stroke:#000000;marker-start:url(#Dot_s);marker-mid:none;stroke-opacity:1" />
  </g>
</svg>
