<?xml version="1.0" encoding="UTF-8" standalone="no"?>
<!-- Created with Inkscape (http://www.inkscape.org/) -->
<svg
   xmlns:dc="http://purl.org/dc/elements/1.1/"
   xmlns:cc="http://web.resource.org/cc/"
   xmlns:rdf="http://www.w3.org/1999/02/22-rdf-syntax-ns#"
   xmlns:svg="http://www.w3.org/2000/svg"
   xmlns="http://www.w3.org/2000/svg"
   xmlns:sodipodi="http://inkscape.sourceforge.net/DTD/sodipodi-0.dtd"
   xmlns:inkscape="http://www.inkscape.org/namespaces/inkscape"
   width="360"
   height="360"
   id="svg1407"
   sodipodi:version="0.32"
   inkscape:version="0.43"
   version="1.0"
   sodipodi:docbase="/home/drewp/projects/xpcs"
   sodipodi:docname="circles.svg">
  <defs
     id="defs1409">
    <marker
       inkscape:stockid="Dot_s"
       orient="auto"
       refY="0.0"
       refX="0.0"
       id="Dot_s"
       style="overflow:visible">
      <path
         id="path2392"
         d="M -2.5,-1.0 C -2.5,1.7600000 -4.7400000,4.0 -7.5,4.0 C -10.260000,4.0 -12.5,1.7600000 -12.5,-1.0 C -12.5,-3.7600000 -10.260000,-6.0 -7.5,-6.0 C -4.7400000,-6.0 -2.5,-3.7600000 -2.5,-1.0 z "
         style="fill-rule:evenodd;stroke:#000000;stroke-width:1.0pt;marker-start:none;marker-end:none"
         transform="scale(0.2) translate(7.125493, 1)" />
    </marker>
  </defs>
  <sodipodi:namedview
     id="base"
     pagecolor="#ffffff"
     bordercolor="#666666"
     borderopacity="1.0"
     inkscape:pageopacity="0.0"
     inkscape:pageshadow="2"
     inkscape:zoom="0.7"
     inkscape:cx="265.38522"
     inkscape:cy="111.19894"
     inkscape:document-units="px"
     inkscape:current-layer="layer1"
     inkscape:window-width="754"
     inkscape:window-height="578"
     inkscape:window-x="9"
     inkscape:window-y="83" />
  <metadata
     id="metadata1412">
    <rdf:RDF>
      <cc:Work
         rdf:about="">
        <dc:format>image/svg+xml</dc:format>
        <dc:type
           rdf:resource="http://purl.org/dc/dcmitype/StillImage" />
      </cc:Work>
    </rdf:RDF>
  </metadata>
  <g
     inkscape:label="Layer 1"
     inkscape:groupmode="layer"
     id="layer1">
    <path
       style="fill:none;stroke:#000000;stroke-opacity:1;marker-start:url(#Dot_s);marker-mid:none"
       d="M 68.690367,40.791797 C 68.690367,54.453105 57.602937,65.540535 43.941637,65.540535 C 30.280327,65.540535 19.192896,54.453105 19.192896,40.791797 C 19.192896,27.130494 30.280327,16.043059 43.941637,16.043059 C 57.602937,16.043059 68.690367,27.130494 68.690367,40.791797 z "
       id="path1415" />
    <path
       id="use2503"
       d="M 68.690367,40.791797 C 68.690367,54.453105 57.602937,65.540535 43.941637,65.540535 C 30.280327,65.540535 19.192896,54.453105 19.192896,40.791797 C 19.192896,27.130494 30.280327,16.043059 43.941637,16.043059 C 57.602937,16.043059 68.690367,27.130494 68.690367,40.791797 z "
       style="fill:none;stroke:#000000;marker-start:url(#Dot_s);marker-mid:none;stroke-opacity:1" />
    <path
       id="use2505"
       d="M 66.246743,91.289277 C 66.246743,103.58445 56.268056,113.56314 43.972886,113.56314 C 31.677707,113.56314 21.699019,103.58445 21.699019,91.289277 C 21.699019,78.994105 31.677707,69.015413 43.972886,69.015413 C 56.268056,69.015413 66.246743,78.994105 66.246743,91.289277 z "
       style="fill:none;stroke:#000000;marker-start:url(#Dot_s);marker-mid:none;stroke-opacity:1" />
    <path
       id="use2507"
       d="M 63.80312,141.78674 C 63.80312,152.71578 54.933176,161.58573 44.004136,161.58573 C 33.075088,161.58573 24.205143,152.71578 24.205143,141.78674 C 24.205143,130.8577 33.075088,121.98775 44.004136,121.98775 C 54.933176,121.98775 63.80312,130.8577 63.80312,141.78674 z "
       style="fill:none;stroke:#000000;marker-start:url(#Dot_s);marker-mid:none;stroke-opacity:1" />
    <path
       id="use2509"
       d="M 61.359497,192.28426 C 61.359497,201.84717 53.598296,209.60837 44.035386,209.60837 C 34.472469,209.60837 26.711267,201.84717 26.711267,192.28426 C 26.711267,182.72135 34.472469,174.96014 44.035386,174.96014 C 53.598296,174.96014 61.359497,182.72135 61.359497,192.28426 z "
       style="fill:none;stroke:#000000;marker-start:url(#Dot_s);marker-mid:none;stroke-opacity:1" />
    <path
       id="use2511"
       d="M 117.36921,40.791797 C 117.36921,53.086975 107.39052,63.065662 95.095353,63.065662 C 82.800174,63.065662 72.821486,53.086975 72.821486,40.791797 C 72.821486,28.496625 82.800174,18.517933 95.095353,18.517933 C 107.39052,18.517933 117.36921,28.496625 117.36921,40.791797 z "
       style="fill:none;stroke:#000000;marker-start:url(#Dot_s);marker-mid:none;stroke-opacity:1" />
    <path
       id="use2513"
       d="M 114.92559,91.289278 C 114.92559,102.21832 106.05565,111.08827 95.12661,111.08827 C 84.197562,111.08827 75.327617,102.21832 75.327617,91.289278 C 75.327617,80.360235 84.197562,71.490287 95.12661,71.490287 C 106.05565,71.490287 114.92559,80.360235 114.92559,91.289278 z "
       style="fill:none;stroke:#000000;marker-start:url(#Dot_s);marker-mid:none;stroke-opacity:1" />
    <path
       id="use2515"
       d="M 112.48197,141.78676 C 112.48197,151.34967 104.72077,159.11087 95.157856,159.11087 C 85.594939,159.11087 77.833737,151.34967 77.833737,141.78676 C 77.833737,132.22385 85.594939,124.46264 95.157856,124.46264 C 104.72077,124.46264 112.48197,132.22385 112.48197,141.78676 z "
       style="fill:none;stroke:#000000;marker-start:url(#Dot_s);marker-mid:none;stroke-opacity:1" />
    <path
       id="use2517"
       d="M 110.03834,192.28418 C 110.03834,200.48096 103.38588,207.13342 95.189102,207.13342 C 86.992316,207.13342 80.339858,200.48096 80.339858,192.28418 C 80.339858,184.0874 86.992316,177.43494 95.189102,177.43494 C 103.38588,177.43494 110.03834,184.0874 110.03834,192.28418 z "
       style="fill:none;stroke:#000000;marker-start:url(#Dot_s);marker-mid:none;stroke-opacity:1" />
    <path
       id="use2519"
       d="M 166.04809,40.791797 C 166.04809,51.720843 157.17815,60.590787 146.24911,60.590787 C 135.32006,60.590787 126.45012,51.720843 126.45012,40.791797 C 126.45012,29.862754 135.32006,20.992806 146.24911,20.992806 C 157.17815,20.992806 166.04809,29.862754 166.04809,40.791797 z "
       style="fill:none;stroke:#000000;marker-start:url(#Dot_s);marker-mid:none;stroke-opacity:1" />
    <path
       id="use2521"
       d="M 163.60446,91.289278 C 163.60446,100.85219 155.84326,108.61339 146.28035,108.61339 C 136.71743,108.61339 128.95623,100.85219 128.95623,91.289278 C 128.95623,81.726366 136.71743,73.965161 146.28035,73.965161 C 155.84326,73.965161 163.60446,81.726366 163.60446,91.289278 z "
       style="fill:none;stroke:#000000;marker-start:url(#Dot_s);marker-mid:none;stroke-opacity:1" />
    <path
       id="use2523"
       d="M 161.16082,141.78678 C 161.16082,149.98356 154.50836,156.63602 146.31158,156.63602 C 138.1148,156.63602 131.46234,149.98356 131.46234,141.78678 C 131.46234,133.59 138.1148,126.93754 146.31158,126.93754 C 154.50836,126.93754 161.16082,133.59 161.16082,141.78678 z "
       style="fill:none;stroke:#000000;marker-start:url(#Dot_s);marker-mid:none;stroke-opacity:1" />
    <path
       id="use2525"
       d="M 158.71718,192.2842 C 158.71718,199.11485 153.17347,204.65857 146.34282,204.65857 C 139.51216,204.65857 133.96845,199.11485 133.96845,192.2842 C 133.96845,185.45355 139.51216,179.90983 146.34282,179.90983 C 153.17347,179.90983 158.71718,185.45355 158.71718,192.2842 z "
       style="fill:none;stroke:#000000;marker-start:url(#Dot_s);marker-mid:none;stroke-opacity:1" />
    <path
       id="use2527"
       d="M 214.72696,40.791798 C 214.72696,50.354713 206.96576,58.115915 197.40285,58.115915 C 187.83993,58.115915 180.07873,50.354713 180.07873,40.791798 C 180.07873,31.228886 187.83993,23.467681 197.40285,23.467681 C 206.96576,23.467681 214.72696,31.228886 214.72696,40.791798 z "
       style="fill:none;stroke:#000000;marker-start:url(#Dot_s);marker-mid:none;stroke-opacity:1" />
    <path
       id="use2529"
       d="M 212.28332,91.289268 C 212.28332,99.486053 205.63086,106.13851 197.43408,106.13851 C 189.2373,106.13851 182.58484,99.486053 182.58484,91.289268 C 182.58484,83.092486 189.2373,76.440025 197.43408,76.440025 C 205.63086,76.440025 212.28332,83.092486 212.28332,91.289268 z "
       style="fill:none;stroke:#000000;marker-start:url(#Dot_s);marker-mid:none;stroke-opacity:1" />
    <path
       id="use2531"
       d="M 209.83968,141.7868 C 209.83968,148.61745 204.29597,154.16117 197.46532,154.16117 C 190.63466,154.16117 185.09095,148.61745 185.09095,141.7868 C 185.09095,134.95615 190.63466,129.41243 197.46532,129.41243 C 204.29597,129.41243 209.83968,134.95615 209.83968,141.7868 z "
       style="fill:none;stroke:#000000;marker-start:url(#Dot_s);marker-mid:none;stroke-opacity:1" />
    <path
       id="use2533"
       d="M 207.39605,192.28422 C 207.39605,197.74874 202.96107,202.18371 197.49655,202.18371 C 192.03203,202.18371 187.59706,197.74874 187.59706,192.28422 C 187.59706,186.8197 192.03203,182.38472 197.49655,182.38472 C 202.96107,182.38472 207.39605,186.8197 207.39605,192.28422 z "
       style="fill:none;stroke:#000000;marker-start:url(#Dot_s);marker-mid:none;stroke-opacity:1" />
  </g>
</svg>
