<?xml version="1.0" encoding="UTF-8" standalone="no"?>
<svg
   xmlns:dc="http://purl.org/dc/elements/1.1/"
   xmlns:cc="http://web.resource.org/cc/"
   xmlns:rdf="http://www.w3.org/1999/02/22-rdf-syntax-ns#"
   xmlns:svg="http://www.w3.org/2000/svg"
   xmlns="http://www.w3.org/2000/svg"
   xmlns:sodipodi="http://inkscape.sourceforge.net/DTD/sodipodi-0.dtd"
   xmlns:inkscape="http://www.inkscape.org/namespaces/inkscape"
   width="360"
   height="360"
   id="svg1376"
   sodipodi:version="0.32"
   inkscape:version="0.43"
   sodipodi:docname="egret-sill.svg"
   sodipodi:docbase="/orig/my/proj/xpcs"
   version="1.0">
  <metadata
     id="metadata1401">
    <rdf:RDF>
      <cc:Work
         rdf:about="">
        <dc:format>image/svg+xml</dc:format>
        <dc:type
           rdf:resource="http://purl.org/dc/dcmitype/StillImage" />
      </cc:Work>
    </rdf:RDF>
  </metadata>
  <defs
     id="defs1399" />
  <sodipodi:namedview
     inkscape:window-height="905"
     inkscape:window-width="1027"
     inkscape:pageshadow="2"
     inkscape:pageopacity="0.0"
     borderopacity="1.0"
     bordercolor="#666666"
     pagecolor="#ffffff"
     id="base"
     inkscape:zoom="2.1011236"
     inkscape:cx="83.524004"
     inkscape:cy="204.68863"
     inkscape:window-x="2189"
     inkscape:window-y="341"
     inkscape:current-layer="svg1376" />
  <path
     style="fill:none;stroke:#000000;stroke-opacity:1;stroke-width:0.3;stroke-miterlimit:4;stroke-dasharray:none"
     d="M 168.72555,47.621528 C 171.64898,47.587935 174.43434,47.980331 176.9264,49.164906 C 179.41845,50.349481 181.6172,52.326234 183.3674,55.461353 C 184.35709,57.234148 184.97685,59.1823 185.36029,61.166484 C 185.84072,63.651819 186.24189,66.441628 186.08695,68.973505 C 185.84733,72.884523 183.75235,77.297591 180.74604,79.872107 C 179.05312,81.321811 176.53926,82.190792 175.06343,83.81225 C 172.43096,86.704752 171.45989,93.887511 172.75285,97.51087 C 174.87156,103.44871 178.32106,106.60455 184.7006,105.82084 C 188.01348,105.41368 192.96283,103.16586 195.81059,105.90672 C 199.63813,105.69593 203.02908,110.08228 205.7195,112.27124 C 206.93229,113.25793 208.55795,114.26564 209.02247,115.81563 C 212.37739,117.30437 221.68486,128.20027 223.19972,130.27994 C 226.19762,134.39484 228.87573,138.75656 231.81147,142.86696 C 233.87192,145.75165 234.57035,149.2462 236.92837,152.01018 C 240.61929,156.33647 245.03566,159.0308 247.45704,164.45938 L 245.35515,164.45938 C 247.01474,168.44546 248.35785,171.17222 248.35785,175.56937 L 246.8565,175.56937 L 248.65812,182.47558 L 247.75731,182.17531 C 247.89093,183.37129 248.32362,187.22736 246.81206,187.64263 C 245.50708,188.00085 243.9637,186.40732 242.95299,185.77855 L 242.05218,190.2826 L 236.64732,187.2799 C 233.38158,185.58458 233.64402,182.51131 231.45925,180.1635 C 226.75552,175.10876 221.98093,171.94331 215.93319,168.87155 C 214.53303,168.16021 211.81748,164.25486 211.05082,165.71152 C 210.73532,166.31098 214.07297,171.76945 215.98629,175.56937 C 216.7706,177.12717 218.19418,178.86033 218.20288,180.67396 C 218.2197,184.07692 215.81333,186.99314 214.59154,189.98233 C 211.93355,196.48618 207.44455,203.19782 206.01977,210.10043 L 221.93408,210.4007 L 253.76271,210.4007 L 355.25398,210.4007 L 355.25398,4.4154458 L 3.9380326,4.4154458 L 3.9380326,210.4007 L 149.26873,210.4007 L 187.40303,210.4007 L 197.31194,210.4007 C 198.42534,210.4007 200.40712,210.77393 201.36138,210.09202 C 202.80238,209.06239 201.53304,204.53162 201.69669,202.89394 C 202.40382,195.82319 202.12788,189.15329 201.7144,182.17531 C 201.61351,180.46828 202.81339,178.77656 203.05721,177.07072 C 203.55596,173.58128 202.929,169.74173 202.5978,166.261 C 202.43625,164.56447 203.78696,162.73253 202.96783,161.15641 C 201.31424,157.97445 197.59269,154.89998 194.60951,153.01609 C 193.09495,152.05943 191.71851,151.78528 190.46879,150.34549 C 186.97094,146.31556 186.16742,140.58731 183.28242,136.24571 C 176.33988,125.79811 164.3489,117.93884 162.56529,104.70564 C 161.81942,99.170763 161.76597,93.718159 162.49413,88.190788 C 162.73134,86.389768 162.40164,84.11192 163.27603,82.485657 C 164.6819,79.870305 166.56849,76.829771 168.9136,75.007132 C 170.53896,73.744196 172.75526,73.729482 174.46319,72.468649 C 177.56348,70.180291 177.68269,65.114435 175.67778,62.094319 C 173.11138,58.228642 166.82823,58.434928 162.78089,57.851803 C 157.0133,57.020656 151.37783,55.609987 145.66549,54.692662 C 140.77439,53.906855 136.06766,53.998438 131.25253,52.458653"
     id="path1382"
     sodipodi:nodetypes="csssssssscscsssccccccscccsscsssccccccccccsssssssssssssssssc" />
  <path
     style="fill:#141414;stroke:none"
     d="M 137.5582,50.957303 L 137.85847,51.257573 L 137.5582,50.957303 z "
     id="path1384" />
  <path
     style="fill:#fcfcfc;stroke:none"
     d="M 137.85847,52.758923 L 138.15874,53.059193 L 137.85847,52.758923 z "
     id="path1386" />
  <path
     style="fill:#000000;stroke:none"
     d="M 222.83489,130.22859 L 223.13516,130.52886 L 222.83489,130.22859 M 224.93678,133.53156 L 225.23706,133.83183 L 224.93678,133.53156 z "
     id="path1388" />
  <path
     style="fill:#ffffff;stroke:none"
     d="M 234.8457,148.54507 L 235.14597,148.84534 L 234.8457,148.54507 M 235.44624,148.84534 L 235.74651,149.14561 L 235.44624,148.84534 M 235.74651,149.44588 L 236.04678,149.74615 L 235.74651,149.44588 z "
     id="path1390" />
  <path
     style="fill:#000000;stroke:none"
     d="M 238.14867,153.64966 L 238.44894,153.94993 L 238.14867,153.64966 z "
     id="path1392" />
  <path
     style="fill:#ffffff;stroke:none"
     d="M 240.45084,154.35019 L 240.65082,154.45048 L 240.45084,154.35019 z "
     id="path1394" />
  <path
     style="fill:none;fill-opacity:0.75;fill-rule:evenodd;stroke:#000000;stroke-width:1.0662998px;stroke-linecap:butt;stroke-linejoin:miter;stroke-opacity:1"
     d="M 209.09205,180.60027 L 205.78079,199.35841"
     id="path3155" />
  <path
     style="fill:none;fill-opacity:0.75;fill-rule:evenodd;stroke:#000000;stroke-width:1.0662998px;stroke-linecap:butt;stroke-linejoin:miter;stroke-opacity:1"
     d="M 209.16563,180.98308 L 207.62037,175.78768 L 206.07513,166.92815"
     id="path3157"
     sodipodi:nodetypes="ccc" />
  <path
     style="fill:none;fill-opacity:0.75;fill-rule:evenodd;stroke:#000000;stroke-width:1.0662998px;stroke-linecap:butt;stroke-linejoin:miter;stroke-opacity:1"
     d="M 212.62404,180.98308 C 212.78734,178.46046 211.21518,176.14571 210.3319,173.77071 C 209.29174,171.70461 208.34992,169.59834 206.98522,167.63442 C 206.69926,167.26355 206.39263,166.90168 206.07513,166.54533"
     id="path3159" />
  <path
     style="fill:none;fill-opacity:0.75;fill-rule:evenodd;stroke:#000000;stroke-width:1.0662998px;stroke-linecap:butt;stroke-linejoin:miter;stroke-opacity:1"
     d="M 212.55045,180.70965 C 212.45809,183.32186 212.0565,185.96971 210.70429,188.40426 C 209.75422,190.2209 208.97118,192.08377 207.90879,193.86714 C 207.25753,194.98225 206.8345,196.15751 206.50485,197.34421 C 206.28962,197.94302 206.05696,198.53836 205.85438,199.13966"
     id="path3161" />
  <path
     style="fill:none;fill-opacity:0.75;fill-rule:evenodd;stroke:#000000;stroke-width:0.99565744px;stroke-linecap:butt;stroke-linejoin:miter;stroke-opacity:1"
     d="M 169.64409,47.399385 C 167.70215,47.672933 165.73781,47.809578 163.8049,48.135855 C 164.89162,48.096968 167.20628,47.724329 167.52992,47.69295 C 162.82162,48.325886 158.04063,48.59481 153.40468,49.60205 C 146.00152,50.165968 138.33525,49.692476 131.26635,52.099278"
     id="path3190" />
</svg>
