<?xml version="1.0" encoding="UTF-8" standalone="no"?>
<!-- Created with Inkscape (http://www.inkscape.org/) -->
<svg
   xmlns:dc="http://purl.org/dc/elements/1.1/"
   xmlns:cc="http://web.resource.org/cc/"
   xmlns:rdf="http://www.w3.org/1999/02/22-rdf-syntax-ns#"
   xmlns:svg="http://www.w3.org/2000/svg"
   xmlns="http://www.w3.org/2000/svg"
   xmlns:sodipodi="http://inkscape.sourceforge.net/DTD/sodipodi-0.dtd"
   xmlns:inkscape="http://www.inkscape.org/namespaces/inkscape"
   width="360"
   height="360"
   id="svg1378"
   sodipodi:version="0.32"
   inkscape:version="0.43"
   version="1.0"
   sodipodi:docbase="/home/drewp/projects/xpcs"
   sodipodi:docname="inchcurve.svg">
  <defs
     id="defs1380" />
  <sodipodi:namedview
     id="base"
     pagecolor="#ffffff"
     bordercolor="#666666"
     borderopacity="1.0"
     inkscape:pageopacity="0.0"
     inkscape:pageshadow="2"
     inkscape:zoom="1.4"
     inkscape:cx="197.38265"
     inkscape:cy="188.60503"
     inkscape:document-units="px"
     inkscape:current-layer="layer1"
     inkscape:window-width="754"
     inkscape:window-height="700"
     inkscape:window-x="12"
     inkscape:window-y="43" />
  <metadata
     id="metadata1383">
    <rdf:RDF>
      <cc:Work
         rdf:about="">
        <dc:format>image/svg+xml</dc:format>
        <dc:type
           rdf:resource="http://purl.org/dc/dcmitype/StillImage" />
      </cc:Work>
    </rdf:RDF>
  </metadata>
  <g
     inkscape:label="Layer 1"
     inkscape:groupmode="layer"
     id="layer1">
    <path
       style="font-size:32.57946777px;font-style:normal;font-weight:normal;line-height:125%;fill:#000000;fill-opacity:1;stroke:none;stroke-width:1px;stroke-linecap:butt;stroke-linejoin:miter;stroke-opacity:1;font-family:Bitstream Vera Sans"
       d="M 54.279464,118.99874 C 45.583093,118.99873 38.329078,116.36862 32.517398,111.1084 C 26.408738,105.59365 23.354416,98.318429 23.354422,89.282701 C 23.354416,80.671235 26.217843,71.784006 31.944712,62.620988 C 38.307867,52.439967 45.47704,47.34943 53.452251,47.349362 C 57.609486,47.34943 62.254601,48.325116 67.387609,50.276424 C 73.877993,52.779336 77.12321,55.833658 77.123271,59.439399 C 77.12321,61.051458 76.592946,62.493777 75.532476,63.76636 C 74.471889,64.996624 73.156834,65.61173 71.587306,65.611681 C 70.357038,65.61173 69.275299,65.251151 68.342086,64.529941 C 67.45119,63.766411 66.581557,63.024041 65.733183,62.302829 C 63.230287,60.309088 59.136647,59.312191 53.452251,59.312135 C 49.125258,59.312191 44.840723,63.172515 40.598633,70.893118 C 36.738285,77.977493 34.808123,84.107347 34.808141,89.282701 C 34.808123,94.882317 36.717075,99.294115 40.535001,102.51811 C 44.098353,105.53002 48.679836,107.03597 54.279464,107.03597 C 56.824695,107.03597 59.539648,106.35723 62.424331,104.99975 L 69.805617,101.05458 C 71.078198,100.37585 71.990252,100.03649 72.541783,100.03647 C 74.111309,100.03649 75.468786,100.6728 76.614216,101.94542 C 77.759527,103.17565 78.332213,104.59676 78.332274,106.20875 C 78.332213,109.3055 75.065785,112.29619 68.532981,115.18083 C 62.806075,117.7261 58.054908,118.99873 54.279464,118.99874 M 144.38206,77.828981 C 144.382,80.883341 144.40321,85.464824 144.44569,91.573444 C 144.48805,97.682112 144.50926,102.26359 144.50932,105.31791 C 144.50926,106.25118 144.57289,107.67229 144.70022,109.58124 C 144.86984,111.49019 144.95468,112.9113 144.95474,113.84456 C 144.95468,115.66868 144.33958,117.15341 143.10942,118.29879 C 141.87915,119.48658 140.3732,120.08047 138.59157,120.08048 C 135.32508,120.08047 133.24645,118.06547 132.35565,114.03546 C 127.05296,116.79284 120.94432,118.17152 114.0297,118.17153 C 108.4725,118.17152 103.86981,116.94131 100.22161,114.48088 C 96.191582,111.76593 93.794788,107.79955 93.031217,102.58174 C 91.376783,91.340152 90.549571,81.328763 90.549577,72.547544 C 90.549571,66.735891 91.185888,60.118193 92.458531,52.694431 C 93.052418,49.003854 95.067422,47.158535 98.503549,47.158467 C 100.32764,47.158535 101.8548,47.752431 103.08504,48.940156 C 104.31523,50.085593 104.93034,51.570333 104.93036,53.394381 C 104.93034,55.345815 104.61218,58.463768 103.97588,62.748251 C 103.38197,67.032839 103.08502,70.299266 103.08504,72.547544 C 103.08502,79.631917 103.31833,85.69814 103.78499,90.746231 C 104.2516,95.794371 104.95155,99.84559 105.88483,102.8999 C 107.28471,103.66349 108.6634,104.25739 110.0209,104.68159 C 111.37835,105.06339 112.71462,105.25429 114.0297,105.25428 C 119.7141,105.25429 125.7167,104.34223 132.03749,102.51811 L 131.97386,89.600859 L 131.8466,77.256295 C 131.84655,68.093367 132.24955,60.139403 133.0556,53.394381 C 133.52218,49.491697 135.57961,47.540325 139.22788,47.540257 C 141.05194,47.540325 142.5791,48.134221 143.80937,49.321947 C 145.03952,50.509805 145.61221,51.994545 145.52743,53.776171 L 144.38206,77.828981 M 209.66826,67.966057 C 209.37125,73.268746 207.2502,75.920067 203.30508,75.920028 C 199.65681,75.920067 197.8327,73.820221 197.83275,69.620483 C 197.8327,68.814526 197.76907,67.329787 197.64185,65.166259 L 197.45096,59.82119 C 190.74837,60.627246 185.3821,62.514987 181.35212,65.484417 C 177.57661,68.241841 174.43744,72.399113 171.93462,77.956245 L 172.06188,112.82646 C 172.06186,117.11099 169.96201,119.25326 165.76234,119.25327 C 162.02926,119.25326 160.16273,117.11099 160.16274,112.82646 L 160.16274,68.156952 C 160.16273,66.757101 160.20515,64.657255 160.29,61.857406 C 160.41726,59.057664 160.48089,56.957818 160.4809,55.557861 C 160.48089,51.273385 162.34742,49.131118 166.08049,49.131052 C 170.23775,49.131118 172.3376,52.652072 172.38004,59.693926 C 180.52488,51.846071 189.56058,47.922115 199.48717,47.922048 C 202.92324,47.922115 205.48972,49.21596 207.18662,51.803586 C 208.88341,54.391339 209.73183,58.294084 209.73189,63.511832 C 209.73183,65.717783 209.71062,67.202523 209.66826,67.966057 M 252.36518,111.68108 C 252.23788,115.58383 250.30772,117.53521 246.57469,117.53521 C 243.47791,117.53521 241.22959,115.7111 239.82972,112.06288 L 230.09406,86.228375 L 218.7676,57.021392 C 218.34339,55.9185 218.13128,54.942814 218.13129,54.09433 C 218.13128,52.355124 218.78881,50.870384 220.10387,49.640106 C 221.41892,48.409958 222.94608,47.794852 224.68536,47.794785 C 227.23062,47.794852 229.05473,49.088696 230.15769,51.676323 L 246.32016,96.154932 C 249.50172,89.367569 253.51051,79.525864 258.34657,66.629789 C 259.49189,63.236147 261.29479,58.442558 263.75527,52.249009 C 265.07027,49.534118 266.9368,48.176642 269.35486,48.176575 C 271.09408,48.176642 272.62124,48.791749 273.93635,50.021897 C 275.25135,51.252175 275.90888,52.715704 275.90894,54.412489 C 275.90888,56.024553 272.40913,65.102677 265.40969,81.646888 L 252.36518,111.68108 M 316.1242,117.917 C 306.53698,117.917 298.77391,115.5202 292.83497,110.72661 C 286.34452,105.42397 283.0993,98.00027 283.09931,88.455487 C 283.0993,77.426018 285.77184,68.178209 291.11691,60.712034 C 296.9286,52.56723 304.69166,48.494801 314.40614,48.494734 C 321.44801,48.494801 327.19608,49.682592 331.65035,52.058113 C 337.12262,54.985235 339.85879,59.481876 339.85885,65.548049 C 339.85879,69.790213 337.46199,73.650536 332.66846,77.129032 C 330.54735,78.656231 326.05071,81.031815 319.17852,84.25579 L 294.87119,95.773141 C 297.24675,99.294115 300.19502,101.94544 303.716,103.72711 C 307.27935,105.50881 311.41541,106.39966 316.1242,106.39965 C 319.05122,106.39966 322.48733,105.84818 326.43255,104.74522 C 331.43819,103.34533 334.6622,101.52123 336.10458,99.272889 C 337.54684,96.982163 339.09521,95.836792 340.7497,95.836773 C 342.23437,95.836792 343.54943,96.409478 344.69487,97.554831 C 345.88259,98.657798 346.47649,99.951643 346.47656,101.43637 C 346.47649,106.14513 342.67979,110.19635 335.08647,113.59004 C 328.59598,116.47468 322.27523,117.917 316.1242,117.917 M 314.40614,59.948453 C 309.23073,59.948508 304.92498,61.963512 301.48889,65.993472 C 298.05276,69.981108 295.48628,76.00491 293.78945,84.064895 L 313.3244,74.774656 C 321.00259,71.041636 326.47492,67.796419 329.7414,65.038995 C 326.09313,61.645354 320.98138,59.948508 314.40614,59.948453 M 68.087559,223.67301 C 67.196663,223.67306 66.136135,223.63064 64.90597,223.54574 C 63.71813,223.46095 62.678812,223.41853 61.788013,223.41848 C 60.812282,223.41853 57.927644,223.73669 53.134092,224.37295 L 54.343096,261.97933 L 54.406728,264.77913 L 54.470359,268.02435 C 54.640006,277.31459 52.412896,281.95971 47.789023,281.95971 C 46.092146,281.95971 44.607407,281.40823 43.334799,280.30528 C 42.104559,279.20233 41.489453,277.82364 41.489478,276.16922 C 41.489453,274.55722 41.553085,272.13921 41.680373,268.9152 C 41.807611,265.6912 41.871243,263.27319 41.871268,261.66117 L 40.598633,224.50022 C 37.501866,224.37301 32.793119,224.01243 26.472379,223.41848 C 22.696888,222.90948 20.809147,220.80963 20.809151,217.11893 C 20.809147,215.25246 21.381833,213.70409 22.527209,212.47381 C 23.672574,211.24367 25.136104,210.62856 26.917802,210.62849 L 40.280474,211.71023 C 40.28045,209.54682 40.174397,206.66218 39.962315,203.05631 C 39.792607,199.40817 39.707765,196.77806 39.707788,195.16597 C 39.707765,193.38437 40.322871,191.92084 41.553109,190.77538 C 42.783298,189.58767 44.289248,188.99378 46.070965,188.99369 C 49.888838,188.99378 52.115948,192.11173 52.752301,198.34756 C 52.879529,199.91722 52.943161,201.80496 52.943197,204.01079 L 52.815933,207.70143 L 52.752301,211.6466 C 58.012487,210.96793 61.024388,210.62856 61.788013,210.62849 C 66.199767,210.62856 69.084404,210.84066 70.441934,211.26481 C 73.02957,212.1133 74.323415,214.10709 74.323472,217.2462 C 74.323415,219.11279 73.729519,220.66116 72.541783,221.89132 C 71.396356,223.07916 69.911616,223.67306 68.087559,223.67301 M 116.57497,280.81434 C 106.98775,280.81433 99.224686,278.41754 93.285742,273.62395 C 86.795292,268.32131 83.550075,260.89761 83.550081,251.35283 C 83.550075,240.32336 86.222607,231.07555 91.567684,223.60937 C 97.379367,215.46457 105.14244,211.39214 114.85691,211.39207 C 121.89879,211.39214 127.64685,212.57993 132.10112,214.95545 C 137.5734,217.88257 140.30956,222.37921 140.30962,228.44539 C 140.30956,232.68755 137.91277,236.54788 133.11923,240.02637 C 130.99812,241.55357 126.50148,243.92915 119.6293,247.15313 L 95.321959,258.67048 C 97.697525,262.19145 100.64579,264.84278 104.16677,266.62445 C 107.73012,268.40615 111.86619,269.29699 116.57497,269.29699 C 119.50199,269.29699 122.9381,268.74552 126.88332,267.64256 C 131.88896,266.24267 135.11297,264.41856 136.55535,262.17023 C 137.99761,259.8795 139.54598,258.73413 141.20047,258.73411 C 142.68514,258.73413 144.0002,259.30682 145.14564,260.45217 C 146.33336,261.55514 146.92726,262.84898 146.92733,264.33371 C 146.92726,269.04247 143.13057,273.09369 135.53724,276.48738 C 129.04675,279.37202 122.726,280.81433 116.57497,280.81434 M 114.85691,222.84579 C 109.6815,222.84585 105.37575,224.86085 101.93966,228.89081 C 98.503527,232.87845 95.937048,238.90225 94.240218,246.96223 L 113.77517,237.672 C 121.45336,233.93898 126.92569,230.69376 130.19217,227.93633 C 126.5439,224.54269 121.43215,222.84585 114.85691,222.84579 M 201.33249,228.89081 C 198.99928,228.89086 197.36606,228.10607 196.43285,226.53643 C 195.79648,225.43354 195.24501,223.1428 194.77842,219.6642 C 191.59679,220.47026 186.69715,221.955 180.07948,224.11843 C 173.24965,226.83343 169.81353,230.1847 169.77113,234.17225 C 171.04375,234.63892 172.29517,234.97829 173.52541,235.19036 C 183.28225,236.92967 190.53626,239.32646 195.28747,242.38075 C 202.20207,246.835 205.6594,253.28301 205.65945,261.72481 C 205.6594,268.63947 202.66871,273.85727 196.68737,277.37822 C 191.72405,280.26286 185.44572,281.70518 177.85237,281.70518 C 172.29517,281.70518 166.99253,280.77191 161.94443,278.90538 C 155.41156,276.5298 152.14513,273.22095 152.14513,268.97883 C 152.14513,267.28199 152.80266,265.79725 154.11772,264.5246 C 155.47519,263.25198 157.00235,262.61567 158.69921,262.61565 C 160.01425,262.61567 161.7111,263.63377 163.78975,265.66998 C 164.80784,266.64567 167.09858,267.45168 170.66198,268.08798 C 173.50417,268.59705 175.90097,268.85157 177.85237,268.85156 C 181.41572,268.85157 184.55488,268.42736 187.26987,267.57893 C 191.215,266.34873 193.18758,264.39735 193.18763,261.72481 C 193.18758,255.95555 189.15757,252.0528 181.09759,250.01656 L 174.47989,248.55303 C 168.83785,247.32284 164.82905,245.88053 162.45348,244.22607 C 159.01735,241.85052 157.2993,238.26593 157.29931,233.4723 C 157.2993,224.60632 161.47778,218.28557 169.83477,214.51003 C 172.38001,213.36472 176.45244,212.00725 182.05207,210.4376 C 187.65162,208.82566 191.66042,207.46818 194.07847,206.36516 C 195.81769,205.60165 197.70543,205.21986 199.7417,205.21979 C 201.56576,205.21986 203.0505,205.81376 204.19592,207.00148 C 205.38366,208.18934 205.97756,209.73771 205.97761,211.6466 C 205.97756,212.87688 206.23208,214.67978 206.74119,217.0553 C 207.29261,219.43095 207.56835,221.23384 207.56841,222.464 C 207.56835,224.37301 206.97445,225.92138 205.78672,227.10912 C 204.64129,228.29696 203.15655,228.89086 201.33249,228.89081 M 264.32795,223.67301 C 263.43705,223.67306 262.37652,223.63064 261.14636,223.54574 C 259.95852,223.46095 258.9192,223.41853 258.0284,223.41848 C 257.05267,223.41853 254.16803,223.73669 249.37448,224.37295 L 250.58348,261.97933 L 250.64711,264.77913 L 250.71075,268.02435 C 250.88039,277.31459 248.65328,281.95971 244.02941,281.95971 C 242.33253,281.95971 240.84779,281.40823 239.57519,280.30528 C 238.34495,279.20233 237.72984,277.82364 237.72986,276.16922 C 237.72984,274.55722 237.79347,272.13921 237.92076,268.9152 C 238.048,265.6912 238.11163,263.27319 238.11166,261.66117 L 236.83902,224.50022 C 233.74225,224.37301 229.03351,224.01243 222.71277,223.41848 C 218.93727,222.90948 217.04953,220.80963 217.04954,217.11893 C 217.04953,215.25246 217.62222,213.70409 218.7676,212.47381 C 219.91296,211.24367 221.37649,210.62856 223.15819,210.62849 L 236.52086,211.71023 C 236.52084,209.54682 236.41478,206.66218 236.2027,203.05631 C 236.03299,199.40817 235.94815,196.77806 235.94817,195.16597 C 235.94815,193.38437 236.56326,191.92084 237.7935,190.77538 C 239.02368,189.58767 240.52963,188.99378 242.31135,188.99369 C 246.12923,188.99378 248.35634,192.11173 248.99269,198.34756 C 249.11992,199.91722 249.18355,201.80496 249.18358,204.01079 L 249.05632,207.70143 L 248.99269,211.6466 C 254.25287,210.96793 257.26477,210.62856 258.0284,210.62849 C 262.44015,210.62856 265.32479,210.84066 266.68232,211.26481 C 269.26996,212.1133 270.5638,214.10709 270.56386,217.2462 C 270.5638,219.11279 269.96991,220.66116 268.78217,221.89132 C 267.63674,223.07916 266.152,223.67306 264.32795,223.67301"
       id="text1400" />
  </g>
</svg>
