<?xml version="1.0" encoding="UTF-8" standalone="no"?>
<!-- Created with Inkscape (http://www.inkscape.org/) -->
<svg
   xmlns:dc="http://purl.org/dc/elements/1.1/"
   xmlns:cc="http://web.resource.org/cc/"
   xmlns:rdf="http://www.w3.org/1999/02/22-rdf-syntax-ns#"
   xmlns:svg="http://www.w3.org/2000/svg"
   xmlns="http://www.w3.org/2000/svg"
   xmlns:sodipodi="http://inkscape.sourceforge.net/DTD/sodipodi-0.dtd"
   xmlns:inkscape="http://www.inkscape.org/namespaces/inkscape"
   width="744.09448819"
   height="1052.3622047"
   id="svg2"
   sodipodi:version="0.32"
   inkscape:version="0.43"
   sodipodi:docbase="/home/drewp/projects/xpcs"
   sodipodi:docname="inks.svg">
  <defs
     id="defs4" />
  <sodipodi:namedview
     id="base"
     pagecolor="#ffffff"
     bordercolor="#666666"
     borderopacity="1.0"
     inkscape:pageopacity="0.0"
     inkscape:pageshadow="2"
     inkscape:zoom="2.8"
     inkscape:cx="359.4547"
     inkscape:cy="964.89514"
     inkscape:document-units="px"
     inkscape:current-layer="layer1"
     inkscape:window-width="754"
     inkscape:window-height="707"
     inkscape:window-x="0"
     inkscape:window-y="27" />
  <metadata
     id="metadata7">
    <rdf:RDF>
      <cc:Work
         rdf:about="">
        <dc:format>image/svg+xml</dc:format>
        <dc:type
           rdf:resource="http://purl.org/dc/dcmitype/StillImage" />
      </cc:Work>
    </rdf:RDF>
  </metadata>
  <g
     inkscape:label="Layer 1"
     inkscape:groupmode="layer"
     id="layer1">
    <path
       sodipodi:type="spiral"
       style="fill:none;fill-opacity:0.75;fill-rule:evenodd;stroke:#000000;stroke-width:1px;stroke-linecap:butt;stroke-linejoin:miter;stroke-opacity:1"
       id="path1307"
       sodipodi:cx="220.21326"
       sodipodi:cy="260.40259"
       sodipodi:expansion="1"
       sodipodi:revolution="1.7014222"
       sodipodi:radius="85.881287"
       sodipodi:argument="-18.064157"
       sodipodi:t0="0"
       d="M 220.21326,260.40259 C 225.58188,265.77122 215.62514,270.28808 211.29024,269.3256 C 199.54293,266.71733 197.65448,251.67048 202.36724,242.55656 C 210.79726,226.25389 232.68818,224.34404 246.9823,233.63356 C 267.95949,247.26631 269.90723,276.79216 255.90529,296.09464 C 237.24292,321.82182 199.84805,323.78978 175.59819,305.01763 C 145.08221,281.39481 143.10295,236.03268 166.6752,206.8645 C 188.83376,179.44563 227.62886,171.09089 259.88479,184.23327" />
    <path
       style="fill:none;fill-opacity:0.75;fill-rule:evenodd;stroke:#000000;stroke-width:1.74435437px;stroke-linecap:butt;stroke-linejoin:miter;stroke-opacity:1"
       d="M 138.35273,500.57246 C 134.74119,514.79514 139.96993,541.79117 149.71293,562.8875 C 160.48651,586.2154 208.57555,566.91426 225.44749,559.60777 C 269.46289,540.54658 293.91636,522.4644 304.96879,484.17378 C 313.6222,454.19436 339.04933,456.33122 339.04933,484.17378 C 339.04933,508.91841 364.93498,543.4834 383.73919,510.91024 C 413.5869,459.20718 466.84159,416.54192 505.66538,366.1032 C 531.60395,332.40455 544.58885,356.64342 551.10612,379.22216"
       id="path1309"
       sodipodi:nodetypes="cssssssc" />
    <path
       style="fill:#000000;fill-opacity:1;fill-rule:nonzero;stroke:none;stroke-width:1px;stroke-linecap:butt;stroke-linejoin:miter;stroke-opacity:1"
       id="path1311"
       d="M 213.15151,625.72305 C 204.87564,646.80585 196.15901,668.01777 191.8522,690.3814 C 182.68643,744.09451 222.99535,700.0645 245.86597,681.40937 C 294.55739,647.65406 350.97424,551.31366 350.47993,664.76493 C 356.57931,701.07306 334.25205,708.00252 348.4507,693.40194 C 372.41942,671.75809 424.97863,582.42908 420.64499,666.26179 C 417.58585,685.55636 434.47494,678.99889 414.38119,686.65824 C 412.5119,687.37078 417.56952,684.23996 419.12337,682.97999 C 432.90644,671.80378 439.76311,663.21947 455.96313,653.72563 C 459.30441,663.90197 463.21353,673.16545 468.13359,682.81433 C 442.4971,712.43135 483.23202,648.44862 487.14138,694.12229 C 487.67914,706.9435 489.96364,719.90572 493.06262,732.20474 C 502.43376,736.80455 510.93995,729.74928 505.96507,745.7528 C 484.97358,773.50991 483.57708,778.07448 512.77193,800.58945 C 528.33597,810.70026 538.04852,819.68438 540.07433,838.11543 C 542.8276,853.43143 525.74429,862.65619 518.84071,874.2502 C 519.7219,878.69513 523.21742,881.64972 525.99288,885.00211 L 508.87383,895.36438 C 505.73355,891.70621 502.19366,888.27972 501.03496,883.44831 C 504.47534,869.5578 525.18952,863.29262 522.42358,847.24562 C 520.82726,829.65132 511.37761,820.69407 496.87569,810.59596 C 468.06535,787.62811 465.21766,782.36486 488.22118,753.8692 C 493.31381,739.63538 483.45924,750.4223 475.59169,742.10771 C 472.49451,729.48592 470.09327,716.19184 469.94859,703.02831 C 462.96026,620.03382 514.00846,744.09518 450.63094,692.46522 C 445.57625,684.11327 442.15492,675.29399 440.26308,666.30392 C 485.02908,639.47146 392.21303,726.01775 404.10289,674.56954 C 405.32219,655.75217 397.03519,641.08782 414.80295,632.17296 C 417.49149,630.82401 363.70694,683.62109 366.13794,685.96996 C 338.57301,716.17926 328.25907,709.10942 333.69259,673.28983 C 333.99284,660.08365 334.67034,646.52321 332.41409,633.44002 C 331.48003,628.02378 321.11586,623.71232 324.18409,619.15227 C 326.28265,616.03336 335.22578,609.32958 333.35666,612.59117 C 318.53507,638.45461 275.45551,650.20208 259.4222,675.95016 C 236.37095,694.95188 161.77397,767.50262 174.58146,698.835 C 178.73564,676.84957 187.20004,655.7105 194.95012,634.99712 L 213.15151,625.72305 z " />
    <path
       style="fill:none;fill-opacity:0.75;fill-rule:evenodd;stroke:#000000;stroke-width:1px;stroke-linecap:butt;stroke-linejoin:miter;stroke-opacity:1"
       d="M 206.07112,391.72242 L 410.12193,248.28076"
       id="path1313" />
    <path
       transform="scale(0.978228,1.022256)"
       style="font-size:69.67844391px;font-style:normal;font-weight:normal;fill:#000000;fill-opacity:1;stroke:none;stroke-width:1px;stroke-linecap:butt;stroke-linejoin:miter;stroke-opacity:1;font-family:Bitstream Vera Sans"
       d="M 325.13769,56.764156 L 325.13769,67.583367 L 338.03228,67.583367 L 338.03228,72.44861 L 325.13769,72.44861 L 325.13769,93.134398 C 325.13767,96.241812 325.55728,98.237808 326.39652,99.12239 C 327.25842,100.00698 328.99357,100.44928 331.60199,100.44927 L 338.03228,100.44927 L 338.03228,105.68877 L 331.60199,105.68877 C 326.77076,105.68877 323.43654,104.79284 321.59933,103.00097 C 319.76209,101.18644 318.84348,97.897581 318.84349,93.134398 L 318.84349,72.44861 L 314.25043,72.44861 L 314.25043,67.583367 L 318.84349,67.583367 L 318.84349,56.764156 L 325.13769,56.764156 M 378.89352,85.071024 L 378.89352,88.133065 L 350.11033,88.133065 C 350.3825,92.442617 351.67536,95.731473 353.98892,97.999641 C 356.32512,100.24514 359.56861,101.36789 363.7194,101.36789 C 366.12364,101.36789 368.44852,101.07303 370.69405,100.4833 C 372.9622,99.893576 375.20769,99.008987 377.43054,97.829528 L 377.43054,103.74947 C 375.18501,104.70211 372.88281,105.42793 370.52394,105.92693 C 368.165,106.42592 365.77208,106.67542 363.34515,106.67542 C 357.26642,106.67542 352.44654,104.90625 348.88551,101.36789 C 345.34715,97.829536 343.57797,93.043684 343.57798,87.010316 C 343.57797,80.77285 345.25642,75.828226 348.61333,72.176429 C 351.99291,68.502017 356.5406,66.664794 362.25643,66.664755 C 367.38248,66.664794 371.43118,68.320563 374.40252,71.632066 C 377.39648,74.920956 378.89348,79.400604 378.89352,85.071024 M 372.63334,83.233799 C 372.58795,79.808876 371.62397,77.075723 369.74142,75.034334 C 367.88148,72.993006 365.40917,71.972327 362.32447,71.972293 C 358.83146,71.972327 356.03026,72.958983 353.92087,74.932266 C 351.83413,76.90561 350.632,79.684126 350.31447,83.267822 L 372.63334,83.233799 M 413.46056,68.706116 L 413.46056,74.626062 C 411.69135,73.718822 409.85413,73.038369 407.94888,72.584701 C 406.04359,72.131099 404.07028,71.904281 402.02894,71.904248 C 398.92152,71.904281 399.14094,73.778067 397.57591,74.730669 C 396.03353,75.683335 392.70671,75.714817 392.70673,77.620057 C 392.70671,79.071718 393.26242,80.217147 394.37384,81.056348 C 395.48523,81.872916 397.71938,82.655437 401.0763,83.403913 L 403.21973,83.88023 C 407.66534,84.832886 410.8181,86.182451 412.67804,87.928929 C 414.56059,89.65276 415.50189,92.068368 415.50192,95.175759 C 415.50189,98.714125 414.09562,101.51532 411.28311,103.57936 C 408.49322,105.6434 404.64866,106.67542 399.74942,106.67542 C 397.70804,106.67542 395.57596,106.47129 393.35316,106.06302 C 391.15301,105.67743 388.82813,105.0877 386.37851,104.29384 L 386.37851,97.829528 C 388.69204,99.031669 390.97156,99.93894 393.21707,100.55134 C 395.46255,101.14107 397.68536,101.43594 399.88551,101.43593 C 402.83412,101.43594 405.1023,100.93694 406.69005,99.938934 C 408.27774,98.91826 409.07161,97.489309 409.07163,95.652077 C 409.07161,93.950954 408.49322,92.646753 407.33648,91.739469 C 406.20236,90.832212 403.69603,89.958964 399.81746,89.119722 L 397.64001,88.609382 C 393.76142,87.792856 390.96022,86.545359 389.23641,84.866888 C 387.51259,83.165776 386.65068,80.840896 386.65069,77.892239 C 386.65068,74.308548 387.92086,71.541373 390.46123,69.590705 C 393.00158,67.64011 396.60798,66.664794 401.28044,66.664755 C 403.59396,66.664794 405.77141,66.834907 407.81279,67.175095 C 409.85413,67.51536 411.73671,68.0257 413.46056,68.706116 M 431.69671,56.764156 L 431.69671,67.583367 L 444.5913,67.583367 L 444.5913,72.44861 L 433.52217,74.894181 L 431.69671,93.134398 C 431.69669,96.241812 432.11631,98.237808 432.95555,99.12239 C 433.81744,100.00698 435.55259,100.44928 438.16101,100.44927 L 444.5913,100.44927 L 444.5913,105.68877 L 438.16101,105.68877 C 433.32978,105.68877 429.99556,104.79284 428.15835,103.00097 C 426.32112,101.18644 425.4025,97.897581 425.40251,93.134398 L 425.40251,72.44861 L 420.80945,72.44861 L 420.80945,67.583367 L 425.40251,67.583367 L 425.40251,56.764156 L 431.69671,56.764156"
       id="text1340"
       sodipodi:nodetypes="cccccccccccccccccccccccscccsscsssccccscccccsscsccccscsccccscsccccsssscccccccccccccccccccc" />
  </g>
</svg>
