<?xml version="1.0" encoding="UTF-8" standalone="no"?>
<svg
   xmlns:dc="http://purl.org/dc/elements/1.1/"
   xmlns:cc="http://web.resource.org/cc/"
   xmlns:rdf="http://www.w3.org/1999/02/22-rdf-syntax-ns#"
   xmlns:svg="http://www.w3.org/2000/svg"
   xmlns="http://www.w3.org/2000/svg"
   xmlns:sodipodi="http://inkscape.sourceforge.net/DTD/sodipodi-0.dtd"
   xmlns:inkscape="http://www.inkscape.org/namespaces/inkscape"
   version="1.0"
   width="4in"
   height="4in"
   viewBox="0 0 468 468"
   preserveAspectRatio="xMidYMid meet"
   id="svg2"
   sodipodi:version="0.32"
   inkscape:version="0.43"
   sodipodi:docname="out2.svg"
   sodipodi:docbase="/my/proj/xpcs">
  <defs
     id="defs89" />
  <sodipodi:namedview
     inkscape:window-height="1149"
     inkscape:window-width="1413"
     inkscape:pageshadow="2"
     inkscape:pageopacity="0.0"
     borderopacity="1.0"
     bordercolor="#666666"
     pagecolor="#ffffff"
     id="base"
     inkscape:zoom="2.7555556"
     inkscape:cx="185.21179"
     inkscape:cy="165.17493"
     inkscape:window-x="1985"
     inkscape:window-y="222"
     inkscape:current-layer="svg2"
     inkscape:document-units="cm" />
  <metadata
     id="metadata4">
Created by potrace 1.7, written by Peter Selinger 2001-2005
<rdf:RDF>
  <cc:Work
     rdf:about="">
    <dc:format>image/svg+xml</dc:format>
    <dc:type
       rdf:resource="http://purl.org/dc/dcmitype/StillImage" />
  </cc:Work>
</rdf:RDF>
</metadata>
  <g
     transform="matrix(5.85e-2,0,0,-5.85e-2,0,468)"
     id="g6"
     style="fill:#000000;stroke:#00f600;stroke-width:13.67521381;stroke-miterlimit:4;stroke-dasharray:none;stroke-opacity:1">
    <path
       style="stroke:#00f600;stroke-width:13.67521381;stroke-miterlimit:4;stroke-dasharray:none;stroke-opacity:1"
       d="M 1017,7274 C 1015.5237,7246.7152 1035.4797,7223.6372 1043.5007,7198.3977 C 1058.2058,7163.9183 1064.5526,7124.4007 1092.7656,7097.3125 C 1116.7521,7075.9284 1140.5401,7053.689 1156.9773,7025.6511 C 1197.6986,6958.8921 1224.6305,6882.4549 1229.6838,6804.1599 C 1229.865,6777.3535 1229.9708,6741.5405 1203.6133,6726.3125 C 1172.3673,6716.9976 1140.3566,6731.2924 1109,6728 C 1102.2904,6667.1286 1099.7693,6605.4975 1086.3867,6545.6016 C 1095.3677,6512.885 1124.2281,6491.0913 1144.6011,6465.3653 C 1194.7422,6406.4064 1216.8891,6330.246 1237.0898,6257.1003 C 1245.3787,6230.4473 1217.8373,6207.0122 1192.3073,6211.1449 C 1133.8021,6215.7071 1082.4272,6249.578 1025,6258 C 1023.4477,6229.957 1040.9749,6204.5848 1044.683,6176.9312 C 1055.3184,6121.3354 1060.6162,6061.6618 1040.75,6007.5 C 1032.3449,5980.7274 997.97847,5960.3134 972.7688,5978.207 C 937.97764,6008.7397 917.01359,6051.3811 887.37207,6086.5037 C 875.58787,6115.4111 845.36529,6105.037 823.36768,6096.4154 C 798.8537,6087.0773 769.33724,6104.8232 771.89062,6132.3613 C 772.7833,6157.5461 778.77059,6182.4177 785.88672,6206.4551 C 782.26023,6235.1594 757.14093,6254.1051 739.38046,6275.0441 C 733.25364,6281.696 727.12682,6288.348 721,6295 C 719.60303,6245.6963 721.84578,6196.1914 716.83594,6147.082 C 707.35933,6092.2907 679.56104,6042.9338 655.45142,5993.5232 C 637.36816,5956.4981 614.67648,5922.1338 589,5890 C 607.88985,5856.7741 629.84669,5824.2215 636.36157,5785.7825 C 643.67441,5751.3149 669.71857,5723.2025 702.91992,5711.9434 C 792.13237,5680.8838 876.94831,5637.8218 957.59164,5588.8492 C 987.73755,5571.9244 1012.8982,5538.0953 1050.8828,5541.7441 C 1088.8321,5548.1516 1126.5543,5562.6246 1157.2874,5586.0986 C 1194.8887,5615.8085 1205.9852,5665.8883 1239.3308,5698.9812 C 1258.2935,5720.3982 1287.6634,5703.0158 1297.284,5681.4297 C 1307.6554,5655.4835 1331.4588,5638.2523 1360.0171,5642.2307 C 1418.4998,5642.6383 1482.3037,5642.3483 1531.4167,5605.8097 C 1571.0637,5575.7396 1604.1778,5536.5757 1628.349,5493.1686 C 1642.8783,5467.5119 1647.2789,5429.1742 1619.5342,5410.4021 C 1583.0157,5385.7497 1536.3376,5385.0217 1493.8262,5383.9434 C 1465.7851,5391.4487 1438.9002,5385.1541 1413.9048,5370.9238 C 1387.995,5360.2329 1361.4349,5351.2733 1335,5342 C 1372.1743,5334.2393 1413.6964,5328.9423 1440.8635,5299.8567 C 1458.6776,5277.9368 1437.3261,5251.3191 1418.3938,5238.8402 C 1363.3425,5202.2961 1310.603,5162.1994 1254.4688,5127.3906 C 1248.8201,5105.0982 1270.3985,5081.1237 1285.4062,5065.2188 C 1312.3207,5048.6322 1345.6816,5058.576 1374.9143,5061.9022 C 1445.1311,5072.7946 1513.8996,5093.8122 1585.0918,5097.6211 C 1615.3076,5087.9219 1630.8763,5122.0768 1640.7812,5144.25 C 1661.7124,5188.3505 1670.9823,5239.2856 1703.7616,5276.8691 C 1723.3612,5299.7045 1762.5698,5291.0632 1770.9297,5262.209 C 1792.0091,5209.8174 1793.829,5152.275 1799.5031,5096.7148 C 1804.8915,5024.8693 1808.4908,4952.9041 1813,4881 C 1795.1809,4827.7255 1773.2982,4775.6264 1760.5449,4720.8125 C 1752.9238,4670.3377 1706.4343,4635.0757 1699.8242,4584.1328 C 1703.8367,4550.8864 1733.1579,4588.6435 1743.158,4599.9574 C 1830.4185,4679.2109 1925.0741,4749.9004 2019.8381,4819.8408 C 2056.431,4845.3111 2091.8816,4873.226 2132,4893 C 2160.7057,4900.8262 2179.5355,4870.098 2178.777,4844.7974 C 2181.8475,4791.1515 2173.6066,4735.6339 2150.5466,4686.832 C 2138.9414,4663.1804 2109.0456,4657.9597 2097.375,4633.3594 C 2077.1756,4600.9423 2055.1419,4568.0972 2022.3411,4547.1206 C 1961.0143,4498.241 1910.6513,4436.2614 1843.7689,4394.2394 C 1792.5397,4360.2319 1747.2253,4314.6894 1686.6671,4297.3545 C 1654.5459,4292.2492 1658.4537,4258.8179 1677.9414,4241.5273 C 1692.6638,4221.1594 1685.6347,4193.6412 1701.75,4174 C 1728.7836,4134.6855 1766.7423,4104.5389 1796.3472,4067.2533 C 1821.751,4038.9469 1841.3939,4003.4056 1839.7971,3964.2677 C 1841.5307,3928.459 1836.5011,3890.9378 1848.9783,3856.6294 C 1863.3104,3831.8016 1896.096,3844.3839 1919.366,3839.1536 C 1995.3538,3832.1629 2071.1997,3822.686 2147.601,3821.3471 C 2193.7977,3819.9473 2241.3182,3821.2061 2286,3808 C 2316.7527,3785.0486 2338.5274,3752.2276 2361.2062,3721.6938 C 2372.4016,3701.5694 2395.6644,3681.2308 2387.375,3656.375 C 2383.4761,3628.2481 2361.0327,3607.0766 2333.8947,3601.006 C 2265.9303,3583.2196 2195.0247,3590.2918 2125.5235,3589.805 C 2118.3412,3589.1965 2099.5962,3592.9214 2113.5851,3584.3786 C 2147.1469,3556.2867 2182.9564,3527.5728 2199.2578,3485.4401 C 2209.2428,3456.9327 2222.5863,3425.0954 2212.4676,3394.9139 C 2198.8312,3368.3401 2163.8412,3371.3907 2138.5,3373.5 C 2049.8967,3385.6432 1965.2893,3416.4229 1880.6598,3444.1051 C 1780.2858,3477.492 1681.9179,3516.6321 1581.5082,3549.856 C 1565.7852,3555.3643 1516.987,3570.71 1534.7734,3538.8164 C 1556.8219,3513.652 1560.5189,3479.0351 1560.1846,3446.8945 C 1559.605,3400.0422 1597.6672,3367.1095 1623.2652,3332.1905 C 1658.5359,3289.2428 1685.366,3239.492 1699.4045,3185.5861 C 1721.1284,3109.042 1739.2371,3028.9995 1731.2808,2949.0035 C 1734.1484,2916.138 1699.1823,2902.5716 1674.5098,2919.864 C 1618.3312,2947.0875 1577.5259,2996.1809 1527.1684,3031.635 C 1491.3892,3051.3258 1450.2983,3024.0877 1413.0625,3036.969 C 1385.9362,3052.1565 1385.7358,3087.8513 1371.7179,3112.5752 C 1359.305,3139.7717 1333.3092,3170.1316 1300,3163 C 1263.4244,3157.1793 1226.6123,3191.6212 1229.9238,3228.5723 C 1222.1724,3253.6605 1198.3798,3197.9518 1177.6445,3213.1914 C 1156.392,3219.5902 1140.9446,3260.7698 1117.0703,3241.5293 C 1101.2981,3224.6909 1071.821,3213.7355 1051.4941,3228.4863 C 1041.0315,3249.8397 1046.2299,3275.1141 1045.29,3298.2197 C 1045.4578,3335.8582 1051.4677,3373.3144 1050.8703,3410.8875 C 1051.2106,3439.1786 1029.6605,3420.7023 1029.9023,3403.8008 C 1016.2117,3318.1211 990.76047,3234.1446 953.7168,3155.625 C 929.384,3104.2379 884.52057,3066.7921 842.57136,3030.0651 C 819.96244,3013.1343 798.16604,2991.594 769.98242,2984.9873 C 739.09448,2982.9015 725.82796,3017.18 718.36719,3041.3867 C 704.12067,3094.2924 700.54393,3151.1591 673.15625,3199.7656 C 653.39065,3228.2941 645.61983,3175.2392 638.78549,3162.2045 C 594.14468,3020.7653 562.14939,2875.6603 532.10519,2730.5335 C 489.5645,2528.3524 469.18266,2322.2804 458.02949,2116.1971 C 441.59335,1806.7045 433.82009,1496.8155 427.41137,1186.9759 C 425.09371,1024.0054 420.88117,860.94948 425.17188,697.98312 C 416.40121,664.21094 451.41411,666.90117 474.31596,666.38854 C 667.03229,660.09129 859.91092,662.14772 1052.7012,661.30755 C 1636.4691,661.5549 2220.2339,663.68473 2804,665 C 2811.6337,704.73369 2821.3873,746.5235 2806.9119,785.95077 C 2795.7419,869.98483 2795.1782,955.02875 2791.7454,1039.6389 C 2785.7013,1239.0503 2785.2612,1438.5949 2788.5375,1638.0575 C 2787.2706,1810.9452 2780.087,1983.964 2762.8185,2156.0299 C 2757.0735,2209.4809 2744.5908,2262.0193 2741.8557,2315.8414 C 2728.9492,2497.1596 2730.3393,2679.6664 2747.3935,2860.668 C 2753.2382,2939.4677 2782.6027,3014.5862 2821.7812,3082.5312 C 2840.1236,3113.1241 2875.2123,3127.107 2905.1086,3143.8608 C 2945.778,3165.2171 2989.3268,3180.1151 3031.4844,3198 C 3065.426,3214.5184 3080.2026,3251.6694 3095.3308,3283.8079 C 3108.2776,3310.853 3083.1929,3334.8217 3082.3521,3361.6393 C 3072.7181,3438.9189 3075.0391,3517.5598 3084.9387,3594.7037 C 3087.8721,3623.7615 3098.0257,3652.405 3119.5469,3672.9688 C 3154.1839,3710.2457 3208.2221,3718.8996 3256.7793,3718.1094 C 3289.744,3712.4548 3315.8131,3688.8833 3341.5433,3669.0856 C 3374.9797,3642.5609 3400.7116,3608.4113 3428,3576 C 3505.3021,3615.332 3583.7963,3652.3414 3660.3567,3693.1006 C 3686.3366,3707.9836 3720.1943,3726.0133 3719.6894,3760.5121 C 3721.4368,3788.3511 3719.4109,3821.2081 3695.1671,3839.5336 C 3663.7186,3865.0627 3654.5732,3906.5142 3653.6244,3945.0914 C 3652.2419,4006.3328 3651.3834,4068.1173 3659.8381,4128.9165 C 3664.7466,4169.2303 3693.1832,4200.6318 3723.73,4224.9075 C 3753.5534,4252.2653 3789.2816,4275.1612 3830.3289,4279.8245 C 3870.015,4287.3092 3914.0093,4287.2671 3948.25,4262.8594 C 3981.7195,4239.1496 4016.6582,4214.4228 4039.1016,4179.3672 C 4063.6561,4133.546 4058.2627,4079.4694 4059.9947,4029.2913 C 4058.4903,3979.6373 4063.8372,3927.9312 4046.9853,3880.2612 C 4036.9613,3853.4936 4012.2894,3825.727 4025.5859,3795.8301 C 4041.6349,3769.5658 4065.2138,3747.7971 4090.4897,3730.4712 C 4134.4828,3707.6609 4185.3003,3704.9688 4232.8237,3693.622 C 4290.8695,3680.1184 4352.7312,3669.2672 4401.6172,3632.8828 C 4431.5499,3609.4319 4436.1189,3568.7293 4445.3452,3534.335 C 4467.2277,3431.8694 4473.8982,3326.6683 4500,3225 C 4528.2884,3089.3793 4531.259,2950.3092 4551.426,2813.5311 C 4570.3611,2683.4141 4575.2451,2551.7303 4578.9524,2420.4404 C 4580.0179,2337.8809 4582.4697,2254.9238 4573.3436,2172.7219 C 4566.2544,2126.0114 4529.8,2088.5779 4490.6719,2065.1094 C 4471.5344,2046.5995 4433.2052,2062.3303 4423.4016,2035.1274 C 4417.1389,1986.8025 4424.1065,1937.8502 4425.3379,1889.3477 C 4431.5606,1778.2361 4435.5895,1666.57 4453.4668,1556.5762 C 4467.8873,1490.57 4470.6105,1422.6729 4476.6348,1355.5261 C 4491.1903,1157.0657 4497.3381,958.04317 4513.9648,759.73087 C 4516.5674,731.86177 4519.3785,702.28143 4537.6132,679.67315 C 4543.1394,673.90379 4545.1095,661.69325 4552.8861,660 C 5171.3398,660.25739 5789.7955,659.2513 6408.247,661.13862 C 6550.7279,662.52159 6693.3282,661.33813 6835.689,668.08691 C 6863.9892,662.55943 6877.0255,684.76342 6881.825,709.12134 C 6888.2178,743.4975 6912.8179,772.48931 6945.6973,784.40186 C 7014.1043,812.01995 7089.7253,811.31798 7159.3906,834.82047 C 7240.909,860.45738 7322.5018,897.33348 7381.8625,960.57608 C 7420.4775,1000.4434 7425.3178,1058.227 7435.4385,1109.9333 C 7461.9792,1280.1918 7473.8028,1452.4606 7479.8255,1624.5595 C 7484.8904,1762.0104 7479.2751,1899.9084 7459.952,2036.1499 C 7452.9077,2081.2516 7447.9762,2127.3512 7432.2861,2170.4456 C 7416.1182,2191.2751 7383.9498,2173.2807 7361.8702,2171.3679 C 7261.3027,2141.8179 7155.7622,2153.7656 7052.615,2153.2816 C 7034.6914,2150.3391 6997.3643,2161.0061 6996,2135 C 7008.182,2012.6425 7028.0455,1891.078 7036.5701,1768.3677 C 7037.1782,1736.3438 7041.8184,1702.2008 7028.9023,1671.9382 C 7008.7361,1646.1558 6977.4402,1677.3315 6961.7056,1693.3399 C 6910.1618,1748.8006 6881.5678,1820.5422 6854.1926,1889.955 C 6826.1136,1962.8519 6825.377,2041.7447 6818.5703,2118.4766 C 6815.4197,2138.7087 6818.3441,2175.9027 6787.0421,2166.9974 C 6750.2795,2163.9663 6712.9881,2158.6189 6678.4609,2145.1758 C 6660.6365,2123.7201 6643.7372,2096.3551 6615.1221,2086.1304 C 6604.2681,2063.118 6633.4071,2041.8567 6644.8205,2023.2096 C 6722.2752,1928.9074 6813.2188,1846.1481 6885.8544,1747.8568 C 6899.3747,1727.6127 6918.6848,1699.4409 6901.0469,1676.0938 C 6877.915,1664.018 6849.548,1674.329 6825.0163,1677.4445 C 6771.037,1688.2054 6723.7865,1718.4462 6682.4883,1753.7552 C 6608.2472,1817.5194 6542.4026,1892.6862 6495.5828,1978.9665 C 6489.6818,1995.1983 6462.1751,2042.8468 6453.3445,2005.055 C 6446.5122,1963.5874 6455.5969,1917.5401 6431.5266,1880.3374 C 6411.4949,1853.7435 6429.959,1821.6278 6435.6426,1793.4629 C 6442.857,1759.4582 6454.5305,1722.2598 6440.8105,1688.5215 C 6421.1461,1668.0333 6420.2578,1638.711 6420.0037,1611.9705 C 6418.0784,1535.9319 6425.495,1459.8463 6421.75,1383.875 C 6422.3449,1351.7127 6381.5847,1360.5088 6368.8761,1379.101 C 6320.2396,1428.5806 6290.023,1493.2593 6267.2028,1557.9808 C 6239.5757,1645.6033 6226.9443,1738.4185 6231.4302,1830.228 C 6231.4395,1854.7698 6241.5461,1877.779 6242.9219,1902.0156 C 6229.0476,1916.4971 6211.9992,1875.6916 6202.0016,1863.8895 C 6173.6095,1818.8099 6149.775,1769.5425 6111.5487,1731.7127 C 6089.5446,1706.649 6057.8857,1727.2273 6041.8906,1747.7656 C 6019.5168,1777.27 6011.5545,1726.7383 5999.2098,1711.3237 C 5925.2554,1567.1412 5857.3201,1419.7397 5776.8982,1278.9526 C 5761.532,1255.4314 5748.8436,1227.714 5724.44,1212.1666 C 5699.5091,1204.1581 5689.1603,1237.2144 5679.8033,1254.3122 C 5635.8089,1343.3829 5627.8087,1447.0935 5649.4729,1543.3892 C 5670.1672,1644.2365 5718.5324,1736.264 5764.363,1827.491 C 5790.677,1878.7052 5819.3824,1928.7255 5852.2719,1976.0019 C 5869.0681,2008.7137 5824.8181,1973.2328 5815.1961,1963.5915 C 5778.8282,1934.4357 5748.5836,1896.7403 5706.8926,1874.8164 C 5677.8846,1862.4483 5673.2791,1902.4639 5672.6594,1922.4042 C 5668.8681,1942.7204 5674.3657,1977.5403 5659.4463,1988.6594 C 5611.7106,1942.6253 5570.8757,1889.8751 5529.2576,1838.36 C 5508.0456,1813.9884 5492.7507,1778.3211 5458.5585,1770.3281 C 5429.0374,1767.3084 5410.7536,1797.8143 5401.0047,1821.4438 C 5380.4454,1881.3916 5397.117,1946.2911 5415.7738,2004.4742 C 5453.1399,2120.2277 5530.1748,2218.3585 5616.411,2302.1014 C 5657.9153,2343.9165 5707.9762,2375.6383 5751.5358,2415.0112 C 5774.5578,2432.3517 5767.2629,2462.3557 5773.4277,2486.6777 C 5779.8668,2520.6561 5811.0718,2547.8122 5804.6448,2584.4255 C 5800.6376,2619.9787 5812.0749,2655.3128 5821.7678,2689.1552 C 5835.6224,2736.2761 5864.6967,2776.8916 5899.7286,2810.6758 C 5920.471,2831.7984 5941.2452,2852.8896 5962,2874 C 5954.8551,2947.3953 5945.5404,3020.903 5950.0234,3094.8027 C 5953.7691,3135.4868 5947.6399,3176.2288 5935.6685,3215.1333 C 5924.6555,3255.9877 5945.7068,3295.8609 5960.9661,3332.6009 C 5976.4196,3362.2033 5994.0732,3396.0999 6026.9473,3408.8835 C 6057.4317,3415.6467 6063.544,3377.1049 6069.9976,3355.8845 C 6102.3467,3249.4577 6127.3263,3140.7172 6165.219,3036.0359 C 6168.5521,3000.501 6202.3454,3017.3904 6223.637,3025.2014 C 6274.7289,3045.0596 6326.4668,3064.4171 6374.4343,3091.1648 C 6413.7082,3114.5281 6430.9878,3159.1322 6458.0091,3193.8937 C 6472.8583,3217.5108 6492.9305,3238.1412 6503.7883,3264.0039 C 6509.984,3294.7933 6497.4668,3325.3552 6493.7078,3355.8159 C 6487.3061,3381.9056 6487.848,3410.459 6474.75,3434.375 C 6460.7924,3453.2607 6421.1902,3455.7398 6432.2471,3488.0149 C 6445.0841,3530.9374 6471.6319,3568.107 6494.4584,3606.189 C 6543.2058,3684.5441 6627.0958,3728.9148 6696.0581,3786.7039 C 6718.548,3803.0908 6732.5219,3828.3057 6736.6782,3855.5979 C 6750.9344,3915.6786 6763.3154,3978.935 6799.3589,4030.4214 C 6824.1995,4062.2882 6867.5126,4067.6231 6904.048,4077.8286 C 6941.0091,4087.6686 6979.5808,4091.3802 7015.8778,4103.3797 C 7043.6317,4113.3343 7053.8781,4145.8391 7047.4122,4172.6359 C 7041.3732,4202.3723 7023.8211,4235.833 7042.5209,4264.7528 C 7058.3826,4289.4602 7086.3764,4301.2255 7110,4317 C 7093.4119,4333.9207 7071.4627,4347.4752 7061.75,4369.625 C 7064.7844,4396.665 7096.3373,4407.464 7119.9805,4409.082 C 7146.5791,4410.5497 7178.256,4413.2092 7200,4395 C 7219.715,4372.6231 7245.0201,4356.3682 7269,4339 C 7266.6267,4407.0065 7257.4645,4475.3182 7266.4121,4543.1758 C 7276.4039,4601.4456 7293.2196,4659.0829 7318.8586,4712.4355 C 7329.9736,4728.9646 7354.1287,4765.652 7319.2647,4770.5776 C 7287.2251,4774.9175 7254.5854,4786.2028 7233.2832,4811.8613 C 7194.0078,4852.6704 7140.0309,4878.9433 7110.5305,4928.853 C 7103.7703,4958.2624 7073.1246,4967.1768 7046.9072,4969.8035 C 7010.0819,4975.6874 6971.5585,4981.8644 6935.4271,4968.798 C 6887.7022,4951.5228 6839.5253,4935.4061 6790.1329,4923.447 C 6713.685,4904.7289 6636.9834,4884.8313 6558.4979,4877.0141 C 6551.4587,4874.5838 6537.3448,4878.9246 6534.8799,4872.1164 C 6532.1107,4828.8801 6533.8168,4785.1429 6526.375,4742.375 C 6522.4089,4711.9263 6483.0191,4710.1726 6466,4731 C 6442.9436,4743.925 6479.0498,4700.9714 6483.9297,4693.0862 C 6504.0718,4665.5502 6525.8854,4638.0324 6537.6602,4605.6758 C 6537.6875,4574.6223 6496.9417,4578.1852 6476.2764,4584.5706 C 6405.8115,4604.9543 6342.6509,4646.4387 6289.0566,4695.824 C 6266.0745,4716.6828 6248.1881,4742.1581 6231.8438,4768.2812 C 6213.526,4787.3559 6183.07,4776.3878 6161.0039,4770.6719 C 6140.5287,4763.0108 6108.4975,4748.117 6114.5481,4721.3943 C 6130.9056,4676.7919 6154.8889,4635.3128 6171.7812,4590.8438 C 6193.5031,4535.4044 6217.8598,4480.1844 6229.861,4421.6469 C 6233.8171,4389.8745 6193.5018,4385.4903 6173,4399 C 6157.6475,4407.653 6136.5017,4414.0397 6146.4749,4388.6868 C 6154.5912,4333.0413 6166.2918,4277.801 6167.9401,4221.378 C 6169.7072,4169.3277 6172.8405,4116.1441 6161.3322,4064.952 C 6155.5325,4039.4282 6121.9976,4035.6476 6103.8211,4050.6136 C 6044.6841,4091.5816 6020.8388,4163.5145 6000.7985,4229.1977 C 5973.7183,4320.4963 5960.5006,4414.9654 5947,4509 C 5921.2656,4502.8162 5890.3,4503.0942 5872.2073,4481.2231 C 5852.2305,4430.026 5843.7325,4375.1566 5831.4914,4321.7598 C 5824.6913,4296.1492 5823.9559,4268.5275 5812.5354,4244.3926 C 5795.8542,4221.6668 5762.1189,4232.6775 5745.7528,4250.1618 C 5721.7249,4271.6931 5713.4754,4303.773 5708.5703,4334.3594 C 5708.1107,4358.7735 5687.3686,4360.568 5677.5767,4339.6348 C 5629.1446,4272.3781 5593.6461,4196.8673 5558.4285,4122.1381 C 5526.997,4055.8773 5503.4629,3986.4075 5479.1271,3917.3598 C 5465.1809,3884.268 5454.7215,3846.2031 5425.6125,3822.8865 C 5404.6727,3807.7238 5370.5976,3801.7844 5354.0735,3826.5852 C 5326.7405,3864.8563 5314.7403,3911.6001 5301.4062,3956.0625 C 5287.2661,4009.4258 5302.8055,4064.484 5311.8103,4117.3242 C 5336.3154,4228.6008 5375.2435,4341.4168 5452.8459,4427.3909 C 5516.1533,4499.0205 5585.3422,4566.3288 5663.4829,4621.7017 C 5696.5862,4643.7277 5733.644,4661.5752 5761,4691 C 5778.42,4730.9496 5768.3914,4777.8132 5749.7999,4815.5653 C 5739.3976,4840.8381 5711.6637,4859.1094 5685.0377,4845.3898 C 5595.5823,4816.8875 5510.6107,4775.8963 5427.3043,4732.9523 C 5378.0179,4707.4561 5328.1141,4678.7194 5295.4272,4632.4109 C 5275.861,4607.8605 5256.7249,4580.7692 5229,4565 C 5198.9602,4558.2537 5168.9856,4578.4191 5151.0177,4601.0718 C 5132.4559,4625.5009 5146.8675,4657.198 5152.2494,4683.6448 C 5170.2047,4743.5709 5190.4575,4804.0072 5223.7014,4857.379 C 5241.5882,4875.041 5255.1732,4896.678 5262.6484,4920.8145 C 5270.9059,4943.8321 5291.2839,4957.205 5309.1016,4971.9375 C 5331.756,4995.1126 5344.0486,5026.3795 5369.1367,5047.5898 C 5416.8102,5094.8532 5470.5122,5135.3421 5523,5177 C 5508.1748,5236.3822 5492.1637,5295.8729 5489.5137,5357.3848 C 5485.7087,5418.4973 5484.872,5481.1403 5502.1602,5540.4438 C 5512.7329,5577.8861 5471.2981,5544.7684 5455.8447,5540.8951 C 5337.0084,5486.0101 5219.596,5427.9202 5100.8428,5372.9658 C 5062.5195,5354.307 5027.3131,5323.4422 4983.1975,5320.6147 C 4950.8975,5321.7341 4949.8272,5360.9546 4950.8203,5384.941 C 4952.8688,5432.029 4969.7198,5477.1399 4993.4043,5517.4595 C 5011.9005,5541.473 4994.3314,5567.3736 4993.166,5592.7715 C 4995.0044,5647.2067 5003.8636,5701.521 5017.0312,5754.3281 C 5024.985,5789.1936 5051.0472,5816.7916 5083.0101,5831.5482 C 5117.4035,5850.908 5157.5201,5860.251 5188.625,5885.125 C 5207.0644,5906.2725 5207.1221,5936.0823 5214.3537,5962.0558 C 5217.581,5968.741 5230.88,5962.013 5238.0374,5963.4642 C 5326.6148,5957.7328 5415.7391,5951.9402 5504.3419,5959.6069 C 5531.116,5958.2657 5516.0213,5979.4439 5498.4473,5979.6074 C 5414.6804,5997.9654 5327.9375,5993.1022 5243.5208,6006.6227 C 5214.4012,6009.5036 5218.5615,6047.292 5231.8999,6064.4465 C 5265.6898,6111.8108 5319.1162,6140.1113 5371.1857,6163.1208 C 5427.7823,6186.4549 5490.0646,6202.7013 5551.4853,6191.8535 C 5579.535,6185.6779 5601.8196,6205.8306 5619.6331,6224.4756 C 5641.0055,6241.1515 5649.696,6268.43 5647.1331,6294.7952 C 5640.5582,6394.1515 5615.563,6491.4475 5611.4341,6591.0923 C 5608.6083,6664.7652 5606.6323,6743.3799 5642.1922,6810.429 C 5670.213,6864.5624 5702.8399,6918.1404 5748.4599,6959.284 C 5764.7292,6976.0744 5802.2826,6989.5647 5809.0117,6956.9023 C 5821.9756,6910.138 5820.5994,6861.0094 5825.4887,6813.0062 C 5826.992,6801.8289 5825.9737,6789.4327 5829.0596,6779.0204 C 5880.9984,6730.6994 5935.4699,6684.1536 5976.8027,6625.9453 C 5990.7299,6603.7855 6023.7551,6590.4949 6041.5795,6616.3839 C 6061.6502,6636.9759 6091.9456,6651.9298 6121.125,6646.75 C 6141.8213,6637.1079 6160.8486,6612.5175 6150.1311,6588.9082 C 6136.3606,6544.6071 6118.1164,6499.5108 6120.7902,6452.3248 C 6127.7333,6413.2704 6146.3651,6372.8008 6180,6350 C 6202.7188,6331.8207 6233.9359,6342.9555 6242.8735,6369.9475 C 6261.1807,6408.3962 6277.8592,6448.3794 6304.9133,6481.7522 C 6340.1949,6544.9611 6365.4372,6613.352 6388.9974,6681.6397 C 6401.4703,6712.8712 6399.6441,6746.9657 6409.5,6778.875 C 6429.1349,6851.1473 6450.7642,6923.5568 6483.2898,6991.2039 C 6518.0401,7050.6856 6574.6507,7094.2239 6633.3691,7128.3848 C 6664.1965,7147.4501 6707.3525,7154.2415 6722.7708,7191.2928 C 6732.8998,7216.2243 6742.7656,7242.2017 6744.7148,7269.2227 C 6712.1014,7278.4075 6668.6718,7271.2708 6632.4026,7274.3775 C 5685.5158,7280.5628 4738.5968,7279.3965 3791.6945,7280.0127 C 3036.0691,7279.1856 2280.4235,7280.6478 1524.8149,7274.8473 C 1503.8257,7270.1261 1468.5413,7282.4211 1455.8201,7266.885 C 1453.5471,7208.7186 1469.2399,7150.7643 1462,7092.75 C 1457.5772,7061.4098 1417.2616,7055.8515 1393.9562,7069.5058 C 1343.1546,7094.3231 1313.8824,7146.034 1267.4531,7176.5 C 1241.5912,7187.2523 1230.6534,7148.1431 1219.9841,7131.3726 C 1209.5324,7108.3341 1177.5761,7104.2581 1157.4805,7115.6953 C 1133.6394,7140.918 1127.0763,7177.0332 1111.4771,7207.2801 C 1100.6249,7229.2719 1091.5308,7252.8249 1076,7272 C 1058.5011,7280.3915 1034.6359,7283.1705 1017,7274 z "
       id="path8" />
    <path
       style="stroke:#00f600;stroke-width:13.67521381;stroke-miterlimit:4;stroke-dasharray:none;stroke-opacity:1"
       d="M 6937,7273 C 6933.2298,7248.9422 6934.7187,7220.7148 6950.3352,7200.6626 C 6966.6005,7183.7694 6991.1855,7176.2945 7003.0957,7154.627 C 7019.1727,7131.9154 7030.2142,7104.879 7030.4863,7076.7812 C 7043.8251,7049.4413 7082.5562,7060.2989 7105.25,7044.875 C 7137.7818,7031.1454 7162.5323,7002.2742 7198.2305,6995.239 C 7220.2023,6994.0283 7247.3495,6971.9594 7264.8889,6993.7351 C 7278.0878,7010.877 7286.0045,7038.9296 7311.8701,7039.8936 C 7341.8458,7033.4306 7341.5505,7067.4128 7340,7087.8861 C 7340,7101.924 7340,7115.962 7340,7130 C 7275.0215,7163.293 7205.2409,7193.4791 7157.3654,7250.7843 C 7148.5769,7260.5229 7139.7885,7270.2614 7131,7280 C 7068.1488,7279.0369 7004.9309,7282.9556 6942.4229,7275.1313 L 6939.6953,7274.4492 L 6937,7273 z "
       id="path10" />
    <path
       style="stroke:#00f600;stroke-width:13.67521381;stroke-miterlimit:4;stroke-dasharray:none;stroke-opacity:1"
       d="M 390,7167 C 387.75179,7144.6598 414.38341,7119.9485 434.19531,7138.458 C 449.92033,7157.7979 403.35913,7180.5537 390.29492,7170.2832 L 390,7167 z "
       id="path12" />
    <path
       style="stroke:#00f600;stroke-width:13.67521381;stroke-miterlimit:4;stroke-dasharray:none;stroke-opacity:1"
       d="M 6685,6757 C 6676.9048,6730.7353 6693.2549,6704.6943 6706.5,6683.25 C 6710.6969,6703.2084 6706.3071,6726.8406 6700.9138,6747.2852 C 6697.7262,6756.9328 6693.1046,6781.8185 6685,6757 z "
       id="path14" />
    <path
       style="stroke:#00f600;stroke-width:13.67521381;stroke-miterlimit:4;stroke-dasharray:none;stroke-opacity:1"
       d="M 306,6614 C 299.25234,6547.4645 300.69923,6480.2915 300,6413.4557 C 300,6359.6372 300,6305.8186 300,6252 C 329.19951,6227.2307 355.14703,6197.2036 390.28516,6180.7266 C 413.932,6187.6655 425.25175,6218.2431 441.07642,6236.6292 C 478.75648,6295.0919 514.39913,6358.7791 574.77539,6396.9883 C 600.20366,6408.749 613.57089,6439.8443 585.89828,6457.9433 C 534.55496,6509.9373 476.80336,6555.8807 414.86942,6594.6377 C 387.11206,6609.5142 358.62244,6628.1401 326.19727,6628.7129 C 317.18687,6628.4494 308.78394,6622.7073 306,6614 z "
       id="path16" />
    <path
       style="stroke:#00f600;stroke-width:13.67521381;stroke-miterlimit:4;stroke-dasharray:none;stroke-opacity:1"
       d="M 7293,5985 C 7294.0203,5955.5502 7309.5262,5928.6103 7321,5902 C 7335.0426,5877.7377 7345.818,5847.6682 7371.6953,5833.5723 C 7389.914,5824.7448 7408.6552,5836.0581 7397.1796,5856.4719 C 7387.6984,5897.7585 7376.3778,5939.353 7356.8018,5977.1086 C 7344.379,5996.651 7306.0704,6012.1499 7293,5985 z "
       id="path18" />
    <path
       style="stroke:#00f600;stroke-width:13.67521381;stroke-miterlimit:4;stroke-dasharray:none;stroke-opacity:1"
       d="M 6467,5983 C 6460.5202,5965.8493 6453.5221,5931.7507 6467.4067,5920.6194 C 6487.1261,5934.8351 6502.2786,5955.5745 6512.8242,5977.3262 C 6512.2983,5995.0445 6476.6834,5991.2264 6467,5983 z "
       id="path20" />
    <path
       style="stroke:#00f600;stroke-width:13.67521381;stroke-miterlimit:4;stroke-dasharray:none;stroke-opacity:1"
       d="M 5595,5593 C 5623.9211,5507.0049 5638.6857,5415.794 5679.625,5334.125 C 5684.2373,5310.7081 5718.346,5300.9993 5716.9688,5331.8594 C 5714.5689,5359.3677 5696.9177,5382.2441 5690.375,5408.75 C 5669.3281,5471.8548 5661.3337,5541.0537 5622.6325,5596.9037 C 5616.0617,5611.9161 5583.6583,5617.3517 5595,5593 z "
       id="path22" />
    <path
       style="stroke:#00f600;stroke-width:13.67521381;stroke-miterlimit:4;stroke-dasharray:none;stroke-opacity:1"
       d="M 303,5564 C 297.26284,5536.5819 311.50171,5509.7662 318.77513,5483.8705 C 333.92511,5443.8617 343.8342,5396.7655 382.25659,5371.8379 C 405.92271,5356.7974 430.37513,5339.7399 458,5334 C 459.28515,5364.4762 450.02161,5394.7417 444.63184,5424.6899 C 436.38903,5457.8304 430.95623,5492.461 415.79688,5523.2788 C 393.6728,5553.2366 355.30111,5563.028 322.63867,5577.0859 C 311.73469,5582.4906 305.4665,5573.6133 303,5564 z "
       id="path24" />
    <path
       style="stroke:#00f600;stroke-width:13.67521381;stroke-miterlimit:4;stroke-dasharray:none;stroke-opacity:1"
       d="M 727,5383 C 717.05166,5357.8755 712.96099,5329.7002 715.67969,5302.8281 C 735.08725,5302.1298 753.67377,5331.4075 769.67773,5345.2188 C 788.37697,5357.3503 792.22241,5384.0578 764.96875,5386.9375 C 752.95631,5389.9445 736.50542,5393.2217 727,5383 z "
       id="path26" />
    <path
       style="stroke:#00f600;stroke-width:13.67521381;stroke-miterlimit:4;stroke-dasharray:none;stroke-opacity:1"
       d="M 6480,5320 C 6487.1987,5296.771 6523.3067,5319.9429 6493.6094,5329.2812 C 6487.1439,5332.1888 6479.428,5327.2087 6480,5320 z "
       id="path28" />
    <path
       style="stroke:#00f600;stroke-width:13.67521381;stroke-miterlimit:4;stroke-dasharray:none;stroke-opacity:1"
       d="M 6914,5274 C 6898.6358,5256.337 6881.3054,5239.5973 6870,5219 C 6883.2406,5196.0921 6907.6327,5181.8411 6927.927,5165.4309 C 6947.3607,5152.3724 6966.1211,5136.2971 6989,5130 C 7017.6682,5134.7578 7038.891,5161.1661 7048.3633,5187.3262 C 7058.8202,5214.9608 7025.4726,5225.921 7029.4282,5253.5442 C 7024.0808,5273.9078 7034.7952,5310.8912 7006.4116,5316.1279 C 6980.77,5322.7891 6952.6999,5317.4039 6935.4099,5296.154 C 6928.0177,5289.0214 6920.9902,5281.5232 6914,5274 z "
       id="path30" />
    <path
       style="stroke:#00f600;stroke-width:13.67521381;stroke-miterlimit:4;stroke-dasharray:none;stroke-opacity:1"
       d="M 6553,5166 C 6533.1871,5152.0091 6485.1276,5151.364 6494.7193,5117.4631 C 6501.6219,5078.9415 6511.1046,5040.2308 6528.2227,5004.8906 C 6549.0315,4989.9667 6581.4459,5003.2784 6606.4274,5002.4704 C 6672.8776,5011.2899 6740.3398,5020.4469 6803.5023,5043.7691 C 6834.0694,5058.7106 6783.8707,5080.6725 6770.8274,5090.1487 C 6735.7185,5111.7291 6710.1967,5145.452 6674.75,5166.75 C 6653.5171,5181.6661 6627.0361,5196.6126 6601.1069,5183.521 C 6584.793,5178.487 6568.7834,5172.4979 6553,5166 z "
       id="path32" />
    <path
       style="stroke:#00f600;stroke-width:13.67521381;stroke-miterlimit:4;stroke-dasharray:none;stroke-opacity:1"
       d="M 465,5070 C 485.07012,5038.7897 480.16399,5098.1223 463.65625,5074.0938 L 465,5070 z "
       id="path34" />
    <path
       style="stroke:#00f600;stroke-width:13.67521381;stroke-miterlimit:4;stroke-dasharray:none;stroke-opacity:1"
       d="M 1027,5046 C 1014.3216,5005.3496 1080.6545,5029.7245 1042.8594,5051.9062 C 1036.3044,5058.0113 1028.4568,5054.3755 1027,5046 z "
       id="path36" />
    <path
       style="stroke:#00f600;stroke-width:13.67521381;stroke-miterlimit:4;stroke-dasharray:none;stroke-opacity:1"
       d="M 6115,4966 C 6102.4887,4944.7102 6096.5556,4916.8915 6106.8867,4893.6113 C 6120.4121,4880.9651 6166.5963,4869.0935 6168.8789,4896.1309 C 6165.1924,4924.56 6158.9408,4953.2804 6147.4656,4979.6426 C 6137.2292,5000.8373 6121.6214,4976.2645 6115,4966 z "
       id="path38" />
    <path
       style="stroke:#00f600;stroke-width:13.67521381;stroke-miterlimit:4;stroke-dasharray:none;stroke-opacity:1"
       d="M 6300,4935 C 6312.3955,4915.3448 6312.5138,4954.1792 6300,4935 z "
       id="path40" />
    <path
       style="stroke:#00f600;stroke-width:13.67521381;stroke-miterlimit:4;stroke-dasharray:none;stroke-opacity:1"
       d="M 1425,4866 C 1400.0224,4863.3553 1378.7774,4844.1544 1386.2094,4817.6766 C 1388.2189,4767.503 1386.7065,4716.9256 1393.5938,4667.1094 C 1405.5869,4649.4153 1421.4,4694.24 1430.6233,4703.7415 C 1460.0082,4755.3521 1489.9707,4807.5231 1508.907,4864.0271 C 1510.2547,4890.8892 1467.3379,4874.8064 1450.6685,4873.0598 C 1442.0279,4871.0286 1433.4718,4868.6459 1425,4866 z "
       id="path42" />
    <path
       style="stroke:#00f600;stroke-width:13.67521381;stroke-miterlimit:4;stroke-dasharray:none;stroke-opacity:1"
       d="M 7354,4856 C 7345.3527,4837.5431 7350.2911,4782.3699 7380.4258,4799.9043 C 7395.1972,4814.0371 7425.6543,4835.5636 7414.2129,4857.0977 C 7398.3246,4869.2184 7365.6136,4878.0767 7354,4856 z "
       id="path44" />
    <path
       style="stroke:#00f600;stroke-width:13.67521381;stroke-miterlimit:4;stroke-dasharray:none;stroke-opacity:1"
       d="M 7526,4844 C 7514.1133,4822.0028 7535.6596,4807.4837 7554.5229,4822.5188 C 7572.643,4826.4425 7609.8674,4857.6111 7571.5957,4860.0547 C 7556.0398,4859.8279 7535.3495,4858.3063 7526,4844 z "
       id="path46" />
    <path
       style="stroke:#00f600;stroke-width:13.67521381;stroke-miterlimit:4;stroke-dasharray:none;stroke-opacity:1"
       d="M 580,4790 C 583.68082,4762.0528 625.37857,4802.5667 592.72852,4799.8164 C 587.31583,4799.2057 580.1893,4796.5139 580,4790 z "
       id="path48" />
    <path
       style="stroke:#00f600;stroke-width:13.67521381;stroke-miterlimit:4;stroke-dasharray:none;stroke-opacity:1"
       d="M 5940,4650 C 5925.7955,4635.1826 5940.1861,4585.9084 5962.2256,4599.5342 C 5972.4274,4619.5207 5984.1924,4647.5223 5974.1719,4668.5156 C 5960.2716,4674.3251 5946.4324,4661.0242 5940,4650 z "
       id="path50" />
    <path
       style="stroke:#00f600;stroke-width:13.67521381;stroke-miterlimit:4;stroke-dasharray:none;stroke-opacity:1"
       d="M 7462,4348 C 7437.8564,4330.6086 7458.8487,4302.189 7483.4175,4303.5327 C 7507.9979,4290.9488 7544.8933,4307.8923 7524.9524,4337.4897 C 7513.2956,4361.5228 7480.7804,4367.564 7462,4348 z "
       id="path52" />
    <path
       style="stroke:#00f600;stroke-width:13.67521381;stroke-miterlimit:4;stroke-dasharray:none;stroke-opacity:1"
       d="M 798,4038 C 827.97614,3986.5237 854.81164,3933.2079 886.02661,3882.4828 C 900.5564,3852.6451 929.63813,3879.2018 944.48199,3894.2256 C 965.83254,3918.8629 985.93981,3947.9293 990,3981 C 975.23805,4000.6785 949.19616,4008.4257 928.1774,4020.1412 C 883.84953,4039.9103 838.96923,4060.6332 791.01364,4069.705 C 774.8105,4072.2246 796.19525,4042.2655 798,4038 z "
       id="path54" />
    <path
       style="stroke:#00f600;stroke-width:13.67521381;stroke-miterlimit:4;stroke-dasharray:none;stroke-opacity:1"
       d="M 1495,3968 C 1489.7622,3940.0802 1497.4653,3908.5932 1516.676,3887.4592 C 1540.7874,3877.1041 1534.9663,3826.9496 1567.5078,3837.4434 C 1589.1546,3846.3799 1612.448,3849.8621 1635.6562,3851.0625 C 1668.4058,3860.1628 1635.9139,3900.8557 1612.4536,3896.2524 C 1586.5582,3886.484 1564.0552,3901.2283 1555.5594,3926.3718 C 1542.36,3947.5468 1533.3107,3977.6133 1508.2715,3986.9316 C 1499.3973,3985.8327 1497.0613,3975.1453 1495,3968 z "
       id="path56" />
    <path
       style="stroke:#00f600;stroke-width:13.67521381;stroke-miterlimit:4;stroke-dasharray:none;stroke-opacity:1"
       d="M 661,3853 C 650.9722,3843.2576 631.35185,3813.5225 660.39062,3823.1562 C 684.1066,3828.8611 708.90772,3835.0272 729.11108,3849.1255 C 723.75706,3866.8242 686.96763,3892.9575 673.2168,3868.1348 C 668.9129,3863.2829 664.83859,3858.2275 661,3853 z "
       id="path58" />
    <path
       style="stroke:#00f600;stroke-width:13.67521381;stroke-miterlimit:4;stroke-dasharray:none;stroke-opacity:1"
       d="M 1057,3779 C 1023.5421,3758.4456 1077.1465,3738.3834 1094.4238,3756.1172 C 1110.8794,3764.4495 1118.5444,3799.4874 1090.25,3789.25 C 1078.7604,3787.5449 1067.2899,3784.4966 1057,3779 z "
       id="path60" />
    <path
       style="stroke:#00f600;stroke-width:13.67521381;stroke-miterlimit:4;stroke-dasharray:none;stroke-opacity:1"
       d="M 827,3463 C 812.20696,3439.8756 824.49252,3411.0465 830.51538,3386.927 C 835.92278,3374.0354 847.06975,3321.169 863.47363,3351.2366 C 878.78593,3385.3208 886.61311,3422.9029 889.00586,3460.0391 C 881.07869,3478.3012 841.15624,3469.1037 827,3463 z "
       id="path62" />
    <path
       style="stroke:#00f600;stroke-width:13.67521381;stroke-miterlimit:4;stroke-dasharray:none;stroke-opacity:1"
       d="M 3358,3204 C 3344.8359,3182.6037 3353.0813,3152.4994 3375.9863,3142.0664 C 3397.4806,3152.8144 3388.2754,3187.6293 3388.5894,3208.2117 C 3385.3627,3243.4749 3366.1027,3226.1804 3358,3204 z "
       id="path64" />
    <path
       style="stroke:#00f600;stroke-width:13.67521381;stroke-miterlimit:4;stroke-dasharray:none;stroke-opacity:1"
       d="M 7240,2921 C 7204.3673,2915.8109 7208.6263,2877.5515 7234.6953,2863.0615 C 7263.9058,2838.8263 7298.3642,2816.2739 7336.8242,2812.1641 C 7359.7688,2817.864 7372.2257,2841.2178 7388.4091,2856.6968 C 7411.4157,2873.1127 7407.0425,2911.0508 7378.1836,2917.3633 C 7348.3711,2922.4349 7317.5762,2919.4457 7287.6602,2924.8965 C 7271.7418,2926.2407 7255.4673,2925.052 7240,2921 z "
       id="path66" />
    <path
       style="stroke:#00f600;stroke-width:13.67521381;stroke-miterlimit:4;stroke-dasharray:none;stroke-opacity:1"
       d="M 6585,2886 C 6575.7475,2883.2698 6554.5319,2871.6226 6577.5469,2875.3125 C 6606.794,2879.0312 6637.9985,2877.8569 6665,2891 C 6661.915,2909.1874 6622.2037,2895.3547 6606.208,2893.2312 C 6598.9851,2891.3139 6591.8476,2889.0083 6585,2886 z "
       id="path68" />
    <path
       style="stroke:#00f600;stroke-width:13.67521381;stroke-miterlimit:4;stroke-dasharray:none;stroke-opacity:1"
       d="M 7130,2795 C 7136.9289,2774.4154 7143.3956,2735.4307 7173.0469,2741.9531 C 7191.312,2744.7462 7210.3657,2763.5687 7185,2774 C 7169.2636,2783.0844 7147.8226,2799.2221 7130,2795 z "
       id="path70" />
    <path
       style="stroke:#00f600;stroke-width:13.67521381;stroke-miterlimit:4;stroke-dasharray:none;stroke-opacity:1"
       d="M 6333,2783 C 6305.1004,2770.7876 6333.691,2740.7009 6347.0762,2727.8711 C 6357.3415,2715.7476 6385.7692,2688.6827 6379.8066,2722.4338 C 6377.1543,2745.1521 6371.7713,2769.309 6357.0312,2787.3418 C 6349.8753,2792.0535 6339.9592,2785.2764 6333,2783 z "
       id="path72" />
    <path
       style="stroke:#00f600;stroke-width:13.67521381;stroke-miterlimit:4;stroke-dasharray:none;stroke-opacity:1"
       d="M 7196,2601 C 7219.4526,2585.309 7249.659,2582.6277 7277.2812,2582.4375 C 7309.0543,2588.5602 7264.7714,2608.908 7250.8877,2607.3145 C 7237.5529,2607.0878 7195.1773,2618.3297 7196,2601 z "
       id="path74" />
    <path
       style="stroke:#00f600;stroke-width:13.67521381;stroke-miterlimit:4;stroke-dasharray:none;stroke-opacity:1"
       d="M 6150,2513 C 6135.7888,2509.8321 6094.3355,2496.1006 6130,2490 C 6160.2435,2481.6759 6193.0703,2477.3269 6223.9421,2484.5156 C 6242.1308,2503.9981 6197.5773,2518.8566 6180.2448,2517.3778 C 6170.0186,2517.682 6159.6764,2516.3992 6150,2513 z "
       id="path76" />
    <path
       style="stroke:#00f600;stroke-width:13.67521381;stroke-miterlimit:4;stroke-dasharray:none;stroke-opacity:1"
       d="M 7080,2502 C 7099.0187,2465.8589 7130.5943,2438.1233 7156.5713,2406.9875 C 7192.5151,2367.4037 7226.0463,2325.6965 7260.8933,2285.2239 C 7282.7988,2261.5714 7316.7803,2277.5519 7343.6653,2280.1833 C 7366.5465,2282.2518 7403.8816,2292.6304 7384.6211,2322.4238 C 7367.322,2367.1476 7350.5983,2413.258 7322.541,2452.5215 C 7305.6599,2471.3656 7276.7926,2467.1674 7254.2849,2474.7788 C 7200.7796,2485.6818 7147.5341,2498.1475 7093.9219,2508.3281 C 7089.199,2508.4333 7080.4502,2508.3975 7080,2502 z "
       id="path78" />
    <path
       style="stroke:#00f600;stroke-width:13.67521381;stroke-miterlimit:4;stroke-dasharray:none;stroke-opacity:1"
       d="M 6691,2443 C 6678.1936,2425.3962 6652.8741,2399.8744 6668.5325,2377.6033 C 6693.0878,2362.9183 6710.1803,2397.6818 6723.0422,2413.5634 C 6733.0871,2429.2628 6752.193,2461.5899 6729.7598,2473.6123 C 6712.9838,2470.6432 6701.9313,2454.7138 6691,2443 z "
       id="path80" />
    <path
       style="stroke:#00f600;stroke-width:13.67521381;stroke-miterlimit:4;stroke-dasharray:none;stroke-opacity:1"
       d="M 3591,1956 C 3567.156,1924.188 3569.9401,1881.7568 3567.6431,1844.0851 C 3565.5556,1710.9536 3578.2062,1578.0308 3576.0428,1444.9176 C 3574.7808,1419.0502 3573.6293,1384.0607 3544.5222,1373.9068 C 3519.1284,1370.3404 3505.0006,1349.9057 3516.9141,1326.125 C 3529.1031,1162.6012 3527.1264,998.43989 3533.185,834.64397 C 3535.9575,780.59403 3535.2642,725.94137 3544.6995,672.552 C 3562.9402,657.67988 3591.3027,663.47071 3613.8945,661.39575 C 3650.9439,662.02756 3687.9646,663.81209 3725,665 C 3727.4928,730.02886 3733.4807,796.06039 3716.9109,859.89056 C 3690.71,951.20788 3687.4243,1046.8014 3679.6436,1140.9289 C 3663.3646,1389.059 3650.6916,1637.5857 3623.9351,1884.8831 C 3619.9811,1910.9527 3619.2539,1938.1894 3610,1963 C 3603.5761,1968.0989 3594.8952,1961.1308 3591,1956 z "
       id="path82" />
    <path
       style="stroke:#00f600;stroke-width:13.67521381;stroke-miterlimit:4;stroke-dasharray:none;stroke-opacity:1"
       d="M 4002,1668 C 3993.1861,1585.5398 3990.0878,1502.6463 3988.5263,1419.7834 C 3984.2082,1274.7606 3962.4477,1129.4208 3979.5739,984.46213 C 3989.9616,892.01757 3997.5098,799.26942 4008.25,706.875 C 4007.5173,681.43705 4017.0997,659.07521 4046.3713,663.92147 C 4105.3085,659.85293 4164.8247,656.76361 4223.7251,662.57477 C 4244.1034,676.41996 4226.7518,712.85144 4228.4344,735.39223 C 4215.6732,840.12232 4194.1696,943.54429 4168.8212,1045.8876 C 4143.6344,1153.2265 4124.1718,1261.7506 4102.9024,1369.8931 C 4080.7415,1478.691 4051.3337,1586.0821 4036.585,1696.3118 C 4030.2116,1717.6153 4033.129,1755.7461 4016.7178,1766.2786 C 4006.5789,1734.8285 4006.2377,1700.6061 4002,1668 z "
       id="path84" />
    <path
       style="stroke:#00f600;stroke-width:13.67521381;stroke-miterlimit:4;stroke-dasharray:none;stroke-opacity:1"
       d="M 3204,1305 C 3156.0451,1272.4389 3088.9238,1274.1262 3049.6252,1228.0073 C 3035.4028,1205.9445 3038.6752,1177.4387 3028.7449,1153.1885 C 2994.0273,1045.053 2974.9213,931.45462 2976.8896,817.74246 C 2978.4439,769.87171 2986.1459,721.85557 3000.6191,676.20117 C 3017.7887,657.70274 3048.445,664.93515 3071.8187,661.82742 C 3159.5566,660.58726 3247.2763,663.76002 3335,665 C 3341.2308,703.03209 3349.1889,740.78594 3355.8765,778.70239 C 3354.2194,841.39872 3338.23,902.76824 3323.9909,963.55085 C 3311.8575,1014.3298 3291.0981,1062.8466 3284.7655,1114.9989 C 3272.9889,1174.0742 3276.792,1235.4293 3261.2363,1293.7891 C 3255.6721,1327.5881 3224.281,1325.0626 3204,1305 z "
       id="path86" />
  </g>
</svg>
