<?xml version="1.0" encoding="UTF-8" standalone="no"?>
<svg
   xmlns:dc="http://purl.org/dc/elements/1.1/"
   xmlns:cc="http://web.resource.org/cc/"
   xmlns:rdf="http://www.w3.org/1999/02/22-rdf-syntax-ns#"
   xmlns:svg="http://www.w3.org/2000/svg"
   xmlns="http://www.w3.org/2000/svg"
   xmlns:sodipodi="http://inkscape.sourceforge.net/DTD/sodipodi-0.dtd"
   xmlns:inkscape="http://www.inkscape.org/namespaces/inkscape"
   version="1.0"
   width="4in"
   height="4in"
   viewBox="0 0 468 468"
   preserveAspectRatio="xMidYMid meet"
   id="svg4289"
   sodipodi:version="0.32"
   inkscape:version="0.43"
   sodipodi:docbase="/my/proj/xpcs"
   sodipodi:docname="out4.svg">
  <defs
     id="defs4424" />
  <sodipodi:namedview
     inkscape:window-height="1201"
     inkscape:window-width="1284"
     inkscape:pageshadow="2"
     inkscape:pageopacity="0.0"
     borderopacity="1.0"
     bordercolor="#666666"
     pagecolor="#ffffff"
     id="base"
     inkscape:zoom="2.7555556"
     inkscape:cx="182.29128"
     inkscape:cy="164.24604"
     inkscape:window-x="2190"
     inkscape:window-y="142"
     inkscape:current-layer="svg4289" />
  <metadata
     id="metadata4291">
Created by potrace 1.7, written by Peter Selinger 2001-2005
<rdf:RDF>
  <cc:Work
     rdf:about="">
    <dc:format>image/svg+xml</dc:format>
    <dc:type
       rdf:resource="http://purl.org/dc/dcmitype/StillImage" />
  </cc:Work>
</rdf:RDF>
</metadata>
  <path
     style="fill:#000000;stroke:none"
     id="path4295"
     d="M 8.19,21.0015 L 8.19,31.59 L 9.828,30.8295 C 10.7055,30.4785 11.5245,30.0105 11.7,29.7765 C 11.8755,29.601 13.221,29.133 14.742,28.7235 C 17.316,28.0215 21.06,25.389 21.06,24.2775 C 21.06,23.985 20.6505,23.3415 20.124,22.7565 C 19.305,21.8205 19.3635,21.528 20.7675,19.3635 C 22.347,16.7895 24.57,15.561 26.793,15.9705 C 27.495,16.0875 28.2555,15.9705 28.431,15.678 C 28.6065,15.3855 29.3085,15.327 29.952,15.561 C 31.8825,16.146 30.888,14.508 28.1385,12.5775 C 25.6815,10.8225 25.5645,10.8225 16.9065,10.647 L 8.19,10.4715 L 8.19,21.0015 z " />
  <path
     style="fill:#000000;stroke:none"
     id="path4297"
     d="M 148.6485,11.0565 C 148.239,11.349 148.0635,11.8755 148.239,12.2265 C 148.473,12.5775 148.239,12.87 147.771,12.87 C 147.2445,12.87 146.835,13.338 146.835,13.923 C 146.835,15.2685 145.548,18.135 144.9045,18.135 C 144.4365,18.135 140.517,22.0545 138.645,24.453 C 137.7675,25.506 137.709,26.1495 138.177,27.963 C 138.4695,29.133 138.996,31.239 139.2885,32.5845 C 139.6395,33.9885 140.1075,35.1 140.3415,35.1 C 140.5755,35.1 143.7345,35.802 147.42,36.621 C 151.1055,37.44 157.599,38.9025 161.7525,39.78 C 165.9645,40.716 172.3995,42.1785 176.085,42.9975 C 179.7705,43.8165 183.456,44.7525 184.275,45.045 C 185.094,45.3375 187.9605,46.0395 190.71,46.5075 C 193.4595,47.034 196.7355,47.6775 198.0225,47.97 C 199.3095,48.2625 202.761,49.0815 205.6275,49.725 C 208.5525,50.3685 212.472,51.1875 214.344,51.5385 C 216.2745,51.831 218.088,52.299 218.3805,52.4745 C 218.8485,52.767 226.3365,54.4635 242.775,57.9735 C 252.0765,59.904 251.9595,59.904 258.336,64.233 C 261.0855,66.0465 264.8295,68.5035 266.7015,69.615 C 268.515,70.7265 270.972,72.306 272.025,73.125 C 275.5935,75.699 280.0395,77.9805 292.7925,83.655 C 294.4305,84.4155 297.3555,85.761 299.403,86.6385 C 301.392,87.5745 303.147,88.335 303.3225,88.335 C 303.4395,88.335 305.604,89.271 308.1195,90.441 C 317.0115,94.5945 320.0535,95.94 320.229,95.94 C 320.2875,95.94 320.58,92.547 320.7555,88.3935 C 320.9895,84.1815 321.399,80.145 321.6915,79.3845 C 322.0425,78.5655 322.686,75.933 323.154,73.476 C 323.6805,71.019 324.7335,68.1525 325.5525,66.924 C 326.3715,65.754 327.015,64.5255 327.015,64.2915 C 327.015,63.999 327.4245,63.765 327.8925,63.765 C 328.3605,63.765 328.77,63.3555 328.77,62.8875 C 328.77,62.4195 329.004,62.01 329.2965,62.01 C 329.589,62.01 330.057,61.4835 330.2325,60.84 C 330.408,60.1965 331.0515,59.67 331.578,59.67 C 332.1045,59.67 333.216,58.734 333.9765,57.6225 C 334.737,56.511 335.556,55.575 335.8485,55.575 C 336.141,55.575 336.375,55.2825 336.375,54.9315 C 336.375,54.4635 334.4445,54.3465 329.823,54.522 C 323.7975,54.8145 322.803,54.99 318.7665,56.862 C 316.3095,58.032 314.145,59.2605 313.911,59.6115 C 313.677,59.9625 313.0335,60.255 312.507,60.255 C 311.9805,60.255 310.635,61.0155 309.5235,61.9515 C 308.178,63.1215 306.54,63.8235 304.668,64.0575 C 303.147,64.2915 301.86,64.701 301.86,64.9935 C 301.86,65.286 300.6315,65.52 299.169,65.52 L 296.478,65.52 L 296.7705,61.542 C 297.2385,55.341 298.935,48.3795 300.2805,47.034 C 300.5145,46.8 300.69,46.098 300.69,45.513 C 300.69,44.928 301.0995,44.2845 301.5675,44.109 C 302.7375,43.641 302.679,42.354 301.509,41.886 C 300.573,41.535 292.5585,44.0505 291.9735,44.8695 C 291.5055,45.513 283.725,47.97 282.204,47.97 C 281.5605,47.97 280.1565,48.6135 279.162,49.374 C 278.109,50.1345 276.237,50.895 274.95,51.129 C 273.663,51.3045 272.61,51.714 272.61,52.0065 C 272.61,52.65 269.3925,53.82 267.579,53.82 C 266.8185,53.82 265.356,54.3465 264.303,54.99 C 262.2555,56.2185 258.8625,56.5695 258.2775,55.575 C 257.634,54.522 258.6285,48.555 259.4475,48.555 C 260.3835,48.555 260.9685,47.0925 260.559,45.981 C 260.3835,45.5715 261.2025,44.226 262.314,42.9975 C 263.484,41.769 264.42,40.599 264.42,40.365 C 264.42,40.131 265.122,39.4875 265.941,38.9025 C 266.8185,38.376 268.281,37.0305 269.217,35.919 C 270.2115,34.8075 271.2645,33.93 271.674,33.93 C 272.376,33.93 274.365,31.8825 274.365,31.122 C 274.365,30.8295 276.4125,30.186 278.8695,29.601 C 281.5605,28.9575 283.9005,27.963 284.778,27.2025 C 286.416,25.6815 291.5055,23.9265 295.074,23.5755 C 296.4195,23.4585 297.5895,23.1075 297.648,22.815 C 297.765,22.464 299.1105,22.23 300.6315,22.23 C 302.1525,22.23 303.615,22.0545 303.849,21.8205 C 304.0245,21.5865 305.604,21.3525 307.242,21.2355 C 310.401,21.06 314.145,18.8955 314.145,17.199 C 314.145,16.7895 314.379,16.38 314.6715,16.38 C 314.964,16.38 315.315,15.5025 315.432,14.4495 C 315.6075,13.455 315.9,12.1095 316.1925,11.5245 C 316.602,10.5885 312.39,10.53 233.064,10.53 C 186.4395,10.53 149.1165,10.764 148.6485,11.0565 z " />
  <path
     style="fill:#000000;stroke:none"
     id="path4299"
     d="M 122.85,37.44 C 122.85,37.8495 123.0255,38.025 123.2595,37.8495 C 123.435,37.6155 123.435,37.2645 123.2595,37.0305 C 123.0255,36.855 122.85,37.0305 122.85,37.44 z " />
  <path
     style="fill:#000000;stroke:none"
     id="path4301"
     d="M 139.5225,38.3175 C 139.347,39.1365 139.0545,40.482 138.8205,41.3595 C 138.645,42.2955 138.528,43.3485 138.5865,43.6995 C 138.645,44.109 138.411,44.46 138.1185,44.46 C 137.7675,44.46 137.0655,45.4545 136.539,46.6245 C 135.954,47.853 135.135,49.0815 134.7255,49.3155 C 134.316,49.5495 133.965,50.1345 133.965,50.544 C 133.965,50.9535 133.4385,52.0065 132.795,52.8255 C 131.274,54.756 131.3325,55.0485 133.0875,54.2295 C 133.9065,53.82 134.55,53.352 134.55,53.0595 C 134.55,52.8255 134.901,52.65 135.369,52.65 C 135.7785,52.65 136.4805,52.2405 136.89,51.7725 C 137.2995,51.3045 138.1185,50.895 138.762,50.895 C 139.347,50.895 139.9905,50.4855 140.166,50.0175 C 140.4,49.5495 140.868,49.14 141.2775,49.14 C 142.0965,49.14 141.9795,52.182 141.1605,54.405 C 140.4,56.4525 140.283,57.33 140.166,63.765 C 139.9905,70.0245 139.8735,70.785 138.1185,74.295 C 137.124,76.401 136.1295,79.092 135.954,80.262 C 135.603,82.3095 135.4275,82.485 133.6725,82.485 C 132.6195,82.485 130.9815,82.0755 130.104,81.6075 C 129.168,81.1395 127.647,80.73 126.6525,80.73 L 124.8975,80.7885 L 126.6525,81.7245 C 127.647,82.251 128.583,82.953 128.817,83.2455 C 128.9925,83.5965 130.338,83.8305 131.742,83.8305 C 136.656,83.772 152.3925,82.368 153.27,81.9 C 153.738,81.666 156.663,81.315 159.705,81.081 C 169.065,80.4375 195.4485,77.8635 199.1925,77.2785 C 201.123,76.986 203.9895,76.6935 205.569,76.6935 C 208.26,76.635 208.377,76.6935 208.026,78.039 C 207.792,78.975 208.026,79.794 208.5525,80.379 C 209.0205,80.847 209.43,81.3735 209.43,81.549 C 209.43,81.783 210.3075,83.187 211.3605,84.708 C 212.355,86.229 213.525,87.9255 213.8175,88.452 C 214.1685,88.92 215.6895,91.3185 217.3275,93.6585 C 218.907,96.057 220.3695,98.2215 220.545,98.5725 C 220.779,99.099 222.9435,102.375 229.2615,112.0275 C 230.0805,113.3145 231.0165,114.6015 231.2505,114.9525 C 232.362,116.3565 236.925,123.6105 236.925,123.9615 C 236.925,124.254 237.5685,125.1315 238.3875,126.009 C 239.2065,126.8865 239.85,127.7055 239.85,127.8225 C 239.85,127.998 241.02,129.8115 242.4825,131.976 C 243.945,134.082 245.115,136.0125 245.115,136.2465 C 245.115,136.539 245.5245,137.0655 245.9925,137.475 C 246.4605,137.8845 247.689,139.6395 248.6835,141.3945 C 249.795,143.325 251.1405,144.7875 252.0765,145.1385 C 252.8955,145.4895 255.7035,146.7765 258.2775,148.005 C 266.526,151.866 267.579,152.1 278.1675,152.1 C 283.608,152.1 287.82,151.866 287.82,151.5735 C 287.82,150.8715 280.566,148.122 277.3485,147.654 C 274.6575,147.2445 273.0195,145.9575 268.8075,140.9265 C 267.813,139.7565 263.367,134.784 258.921,129.8115 C 254.4165,124.839 249.0345,118.872 246.9285,116.532 C 244.8225,114.1335 242.424,111.501 241.605,110.6235 C 237.5685,106.1775 233.1225,101.0295 232.947,100.62 C 232.596,99.7425 234.936,99.333 243.36,98.865 C 273.3705,96.993 279.162,96.5835 294.5475,95.1795 C 304.317,94.302 303.5565,94.068 305.721,98.2215 C 306.306,99.3915 307.944,102.258 309.4065,104.5395 L 311.9805,108.81 L 314.7885,108.81 C 316.3095,108.81 318.24,108.576 319.1175,108.225 C 320.58,107.64 320.6385,107.523 320.463,103.1355 L 320.2875,98.5725 L 317.07,96.993 C 315.315,96.1155 311.6295,94.4775 308.88,93.249 C 303.264,90.792 299.637,89.154 298.35,88.3935 C 297.882,88.101 296.01,87.282 294.255,86.58 C 292.5,85.8195 289.341,84.474 287.235,83.538 C 285.129,82.5435 282.087,81.1395 280.3905,80.379 C 278.7525,79.6185 277.1145,78.975 276.822,78.975 C 276.5295,78.975 275.8275,78.4485 275.2425,77.805 C 274.6575,77.1615 273.7215,76.518 273.078,76.284 C 272.4345,76.1085 269.451,74.2365 266.409,72.189 C 263.367,70.1415 260.6175,68.445 260.3835,68.445 C 260.091,68.445 259.74,68.2695 259.623,67.977 C 259.389,67.4505 255.8205,64.935 255.3525,64.935 C 255.1185,64.935 254.124,64.2915 253.071,63.4725 C 251.1405,62.01 247.3965,60.957 233.415,57.915 C 221.364,55.2825 212.2965,53.2935 209.7225,52.5915 C 206.739,51.831 202.9365,51.012 199.1925,50.3685 C 197.613,50.076 195.0975,49.491 193.635,49.14 C 192.1725,48.7305 187.6095,47.6775 183.3975,46.8 C 179.244,45.864 174.096,44.7525 171.99,44.226 C 160.758,41.535 153.153,39.78 149.76,39.1365 C 147.654,38.7855 144.963,38.0835 143.7345,37.674 C 140.634,36.504 139.8735,36.621 139.5225,38.3175 z " />
  <path
     style="fill:#000000;stroke:none"
     id="path4303"
     d="M 120.2175,39.195 C 120.042,39.4875 120.276,39.78 120.744,39.78 C 121.212,39.78 121.797,39.4875 121.9725,39.195 C 122.148,38.844 121.914,38.61 121.446,38.61 C 120.978,38.61 120.393,38.844 120.2175,39.195 z " />
  <path
     style="fill:#000000;stroke:none"
     id="path4305"
     d="M 116.415,40.7745 C 115.011,41.301 111.501,42.7635 110.565,43.29 C 109.2195,43.9335 105.7095,44.694 104.598,44.5185 C 104.013,44.46 103.1355,44.6355 102.5505,44.9865 C 101.088,45.747 97.11,46.2735 91.611,46.449 C 88.0425,46.566 86.931,46.8 86.463,47.619 C 86.1705,48.1455 85.7025,48.438 85.41,48.2625 C 84.357,47.619 80.73,51.0705 80.73,52.7085 C 80.73,54.6975 81.666,55.3995 84.708,55.926 C 86.0535,56.16 87.3405,56.5695 87.516,56.8035 C 87.9255,57.5055 90.4995,57.5055 90.909,56.8035 C 91.0845,56.5695 92.4885,55.9845 94.0095,55.575 C 95.589,55.107 96.9345,54.5805 97.11,54.405 C 97.2855,54.171 98.1045,53.6445 98.982,53.1765 C 104.832,50.076 105.885,49.491 105.885,49.023 C 105.885,48.789 106.2945,48.555 106.821,48.555 C 107.3475,48.555 109.746,47.385 112.203,45.9225 C 114.6015,44.46 116.649,43.29 116.766,43.29 C 117.234,43.29 119.34,41.2425 119.34,40.833 C 119.34,40.3065 117.7605,40.3065 116.415,40.7745 z " />
  <path
     style="fill:#000000;stroke:none"
     id="path4307"
     d="M 413.946,46.8 C 412.542,48.2625 407.043,50.895 405.522,50.895 C 404.82,50.895 403.767,51.4215 403.2405,52.065 C 402.6555,52.767 401.4855,53.9955 400.608,54.873 C 399.672,55.692 398.97,56.862 398.97,57.447 C 398.97,57.9735 398.2095,59.7285 397.215,61.2495 C 396.279,62.7705 395.46,64.35 395.46,64.7595 C 395.46,65.169 395.226,65.52 394.875,65.52 C 394.5825,65.52 394.29,65.1105 394.29,64.6425 C 394.29,63.9405 393.1785,63.765 387.972,63.765 C 382.707,63.765 381.303,63.9405 379.3725,64.9935 L 377.0325,66.222 L 378.144,64.9935 L 379.2555,63.765 L 377.1495,63.765 C 374.2245,63.765 372.06,64.8765 372.06,66.339 C 372.0015,67.275 371.0655,68.0355 368.3745,69.3225 C 366.3855,70.2585 364.455,71.019 364.0455,70.902 C 363.6945,70.8435 362.7585,71.604 361.998,72.5985 C 361.296,73.593 360.0675,75.0555 359.3655,75.816 C 358.605,76.635 358.02,77.688 358.02,78.156 C 358.02,78.624 357.2595,79.7355 356.265,80.5545 C 355.329,81.315 354.51,82.1925 354.51,82.485 C 354.51,83.07 349.83,91.4355 349.245,91.845 C 348.309,92.4885 346.905,95.9985 346.905,97.695 C 346.905,98.865 346.6125,99.45 346.0275,99.45 C 345.033,99.45 344.8575,100.9125 345.735,101.4975 C 346.086,101.673 346.32,102.9015 346.32,104.1885 L 346.32,106.5285 L 351.1755,106.1775 C 353.808,105.9435 358.722,105.5925 362.115,105.3585 C 369.486,104.7735 369.252,104.598 372.762,113.022 C 373.9905,116.0055 375.921,120.4515 377.091,122.85 C 381.2445,131.625 382.473,134.316 384.0525,138.06 C 384.93,140.166 385.866,142.0965 386.1585,142.389 C 386.451,142.74 386.685,143.559 386.685,144.261 C 386.685,145.3725 387.27,145.665 391.6575,146.5425 C 394.407,147.1275 396.8055,147.4785 396.981,147.2445 C 397.1565,147.069 397.8,147.3615 398.4435,147.888 C 399.6135,148.941 408.9735,152.451 412.425,153.2115 C 413.5365,153.4455 415.0575,153.972 415.7595,154.323 C 416.4615,154.7325 417.1635,155.025 417.339,155.025 C 417.573,155.025 417.6315,153.036 417.573,150.6375 C 417.456,147.4785 417.222,146.25 416.637,146.25 C 416.2275,146.25 414.9405,145.782 413.712,145.1385 C 412.542,144.5535 410.1435,143.8515 408.5055,143.6175 C 406.809,143.3835 405.288,142.974 405.054,142.6815 C 404.8785,142.389 404.1765,142.155 403.4745,142.155 C 401.193,142.155 396.4545,138.5865 395.928,136.422 C 395.6355,135.369 395.0505,134.55 394.524,134.55 C 393.237,134.55 389.025,132.2685 389.025,131.5665 C 389.025,130.7475 384.345,124.605 383.7015,124.605 C 383.409,124.605 383.175,123.7275 383.175,122.6745 C 383.1165,121.095 382.707,120.5685 380.601,119.1645 C 379.197,118.287 377.6175,117.585 377.091,117.585 C 376.5645,117.585 376.155,117.1755 376.155,116.766 C 376.155,115.479 378.7875,112.905 380.0745,112.905 C 380.6595,112.905 381.42,112.671 381.771,112.3785 C 382.7655,111.501 388.4985,109.9215 389.61,110.2725 C 390.2535,110.448 391.599,110.448 392.7105,110.2725 C 394.3485,109.98 394.9335,109.395 395.928,107.289 C 396.63,105.8265 397.215,104.3055 397.215,103.8375 C 397.215,103.3695 397.7415,102.6675 398.385,102.258 C 399.0285,101.8485 399.555,101.205 399.555,100.7955 C 399.555,100.386 400.1985,99.45 401.0175,98.631 C 401.8365,97.812 402.6555,96.291 402.8895,95.2965 C 403.1235,94.185 403.65,93.3075 404.352,93.132 C 405.5805,92.8395 407.16,90.1485 407.16,88.452 C 407.16,87.75 407.8035,87.048 408.915,86.58 C 409.9095,86.1705 411.255,85.0005 411.957,84.006 C 412.659,83.0115 413.595,81.9585 414.0045,81.7245 C 414.414,81.4905 415.1745,80.496 415.6425,79.56 C 416.4615,78.039 416.4615,77.805 415.701,77.805 C 415.233,77.805 414.648,78.039 414.4725,78.39 C 414.297,78.6825 412.776,78.975 411.138,78.975 L 408.213,78.975 L 408.447,70.434 C 408.6225,63.1215 408.798,61.8345 409.6755,61.191 C 410.202,60.7815 410.67,60.021 410.67,59.553 C 410.67,59.0265 411.0795,58.3245 411.5475,57.915 C 412.0155,57.5055 412.425,56.6865 412.425,56.043 C 412.425,54.4635 414.414,50.8365 416.4615,48.6135 C 417.456,47.5605 418.275,46.449 418.275,46.1565 C 418.275,45.2205 415.0575,45.6885 413.946,46.8 z " />
  <path
     style="fill:#000000;stroke:none"
     id="path4309"
     d="M 8.5995,48.3795 C 7.839,49.0815 8.1315,54.99 8.9505,54.99 C 9.945,54.99 10.7055,54.3465 11.583,52.8255 C 12.636,50.895 12.4605,49.14 11.232,49.14 C 10.647,49.14 9.8865,48.8475 9.594,48.555 C 9.243,48.204 8.8335,48.1455 8.5995,48.3795 z " />
  <path
     style="fill:#000000;stroke:none"
     id="path4311"
     d="M 24.453,54.873 L 19.305,55.0485 L 19.305,56.9205 C 19.305,57.9735 18.8955,59.3775 18.4275,60.0795 C 17.9595,60.7815 17.4915,62.01 17.433,62.8875 C 17.3745,63.7065 16.965,64.701 16.5555,64.9935 C 15.912,65.5785 17.4915,67.275 22.698,71.487 C 23.985,72.4815 24.57,72.306 24.57,70.902 C 24.57,70.3755 24.9795,69.5565 25.506,68.9715 C 25.974,68.445 26.442,67.5675 26.559,67.0995 C 26.6175,66.6315 26.9685,65.871 27.3195,65.4615 C 27.6705,64.9935 28.314,63.4725 28.7235,62.01 C 29.133,60.5475 29.6595,59.1435 29.952,58.7925 C 30.537,58.149 30.5955,55.107 30.0105,54.873 C 29.718,54.756 27.261,54.756 24.453,54.873 z " />
  <path
     style="fill:#000000;stroke:none"
     id="path4313"
     d="M 107.172,73.593 C 106.6455,73.944 106.8795,74.295 107.9325,74.763 C 108.7515,75.1725 109.6875,75.465 109.98,75.465 C 110.331,75.465 111.15,75.9915 111.852,76.635 C 112.6125,77.22 113.373,77.7465 113.6655,77.7465 C 113.8995,77.805 114.894,78.2145 115.8885,78.741 C 116.9415,79.2675 117.936,79.443 118.2285,79.1505 C 118.6965,78.6825 115.713,76.752 111.3255,74.646 C 110.565,74.295 109.98,73.827 109.98,73.5345 C 109.98,73.008 108.108,73.008 107.172,73.593 z " />
  <path
     style="fill:#000000;stroke:none"
     id="path4315"
     d="M 192.7575,79.6185 C 189.891,79.911 185.5035,80.4375 183.105,80.73 C 177.3135,81.4905 164.3265,82.7775 154.1475,83.655 C 146.484,84.2985 140.2245,85.0005 134.901,85.8195 C 133.5555,85.995 132.093,86.697 131.274,87.5745 C 129.9285,89.037 129.9285,89.037 130.9815,90.558 C 132.2685,92.3715 150.1695,121.2705 153.5625,126.945 C 154.791,129.051 156.0195,130.8645 156.195,131.04 C 156.429,131.2155 157.3065,132.561 158.1255,134.0235 C 159.003,135.486 160.173,137.124 160.758,137.6505 C 161.7525,138.5865 161.9865,138.411 164.385,134.667 C 165.789,132.5025 167.076,130.6305 167.31,130.455 C 167.4855,130.2795 168.6555,128.583 169.9425,126.6525 C 171.2295,124.722 172.5165,122.85 172.8675,122.5575 C 173.16,122.2065 174.7395,119.9835 176.3775,117.585 C 177.957,115.1865 179.5365,112.905 179.8875,112.6125 C 180.18,112.2615 181.5255,110.448 182.8125,108.576 C 184.0995,106.6455 185.445,104.832 185.796,104.481 C 186.147,104.13 187.1415,102.7845 188.019,101.4975 C 188.838,100.2105 190.476,97.812 191.5875,96.2325 C 192.699,94.5945 194.337,92.2545 195.2145,90.9675 C 196.0335,89.6805 196.911,88.5105 197.145,88.335 C 197.379,88.1595 198.783,86.229 200.304,83.9475 C 201.825,81.7245 203.4045,79.677 203.7555,79.443 C 204.633,78.858 199.602,78.975 192.7575,79.6185 z " />
  <path
     style="fill:#000000;stroke:none"
     id="path4317"
     d="M 82.017,88.803 C 83.5965,90.9675 85.176,92.7225 85.41,92.7225 C 85.7025,92.7225 86.463,92.3715 87.1065,91.9035 C 88.1595,91.0845 88.1595,91.026 86.229,89.6805 C 85.1175,88.9785 83.9475,88.335 83.655,88.335 C 83.304,88.335 83.07,87.984 83.07,87.5745 C 83.07,87.2235 82.134,86.4045 81.081,85.878 L 79.092,84.8835 L 82.017,88.803 z " />
  <path
     style="fill:#000000;stroke:none"
     id="path4319"
     d="M 128.115,91.5525 C 128.115,92.7225 125.892,96.3495 123.903,98.514 C 123.318,99.1575 122.85,99.9765 122.85,100.3275 C 122.85,100.6785 121.797,101.907 120.51,103.0185 C 119.223,104.13 117.468,105.5925 116.649,106.2945 C 115.83,107.055 114.8355,107.64 114.4845,107.64 C 114.075,107.64 112.905,108.4005 111.852,109.395 C 110.799,110.331 109.4535,111.15 108.8685,111.15 C 107.874,111.15 106.5285,112.2615 104.598,114.6015 C 103.3695,116.064 103.311,116.649 104.3055,117.702 C 104.715,118.1115 106.0605,119.925 107.289,121.68 C 108.5175,123.435 109.6875,125.0145 109.9215,125.19 C 110.097,125.3655 111.2085,126.6525 112.32,128.115 C 113.4315,129.5775 114.8355,131.274 115.4205,131.9175 C 116.3565,132.912 118.287,135.7785 120.2175,138.879 C 120.744,139.7565 125.424,141.57 136.8315,145.3725 C 141.0435,146.7765 141.57,146.835 158.4765,146.835 C 178.2495,146.7765 178.659,146.484 163.8,142.74 C 161.0505,142.038 159.237,139.815 152.802,129.2265 C 149.8185,124.254 145.782,117.819 143.8515,114.9525 C 141.921,112.0275 140.2245,109.2195 139.9905,108.6345 C 139.815,108.108 139.464,107.64 139.23,107.64 C 138.996,107.64 138.645,107.172 138.411,106.587 C 138.2355,106.0605 137.5335,104.7735 136.89,103.8375 C 136.2465,102.843 135.486,101.556 135.135,100.9125 C 133.731,98.28 132.8535,96.9345 132.3855,96.5835 C 132.093,96.408 131.04,94.887 129.987,93.3075 C 128.7,91.26 128.115,90.7335 128.115,91.5525 z " />
  <path
     style="fill:#000000;stroke:none"
     id="path4321"
     d="M 203.7555,97.812 C 202.8195,99.1575 201.6495,100.737 201.123,101.322 C 200.538,101.907 200.07,102.6675 200.07,103.0185 C 200.07,103.428 199.1925,104.7735 198.1395,106.119 C 195.975,108.693 189.774,117.6435 186.849,122.382 C 185.796,123.9615 184.3335,126.009 183.456,126.8865 C 182.637,127.764 181.935,128.6415 181.935,128.817 C 181.935,129.285 177.84,135.3105 177.3135,135.72 C 176.319,136.3635 172.575,142.857 172.8675,143.325 C 173.043,143.6175 174.681,144.261 176.553,144.7875 C 178.3665,145.2555 180.3555,145.9575 180.882,146.25 C 181.467,146.601 182.403,146.835 182.988,146.835 C 184.9185,146.835 186.147,148.824 185.913,151.5735 C 185.7375,153.9135 185.562,154.206 183.8655,154.7325 C 182.286,155.142 181.935,155.5515 181.935,156.8385 L 181.935,158.418 L 191.4705,158.769 C 207.8505,159.354 255.5865,159.705 255.8205,159.237 C 255.996,159.003 256.23,157.5405 256.2885,155.961 L 256.5225,153.0945 L 253.5975,152.1 C 252.018,151.515 249.3855,150.6375 247.7475,150.0525 C 246.168,149.526 244.296,148.8825 243.6525,148.59 C 243.009,148.356 241.254,147.7125 239.7915,147.186 C 238.2705,146.6595 236.8665,145.7235 236.691,145.197 C 236.5155,144.6705 235.8135,143.3835 235.17,142.4475 C 234.5265,141.453 233.766,140.166 233.415,139.5225 C 232.128,137.124 231.2505,135.72 230.373,134.7255 C 229.905,134.1405 229.32,133.263 229.086,132.795 C 228.9105,132.327 228.2085,131.0985 227.565,130.1625 C 226.9215,129.168 226.161,127.881 225.81,127.2375 C 225.459,126.594 224.6985,125.2485 224.055,124.3125 C 223.4115,123.318 222.7095,122.0895 222.534,121.5045 C 222.3,120.978 221.949,120.51 221.715,120.51 C 221.481,120.51 220.662,119.2815 219.843,117.702 C 217.62,113.373 206.271,95.355 205.803,95.355 C 205.569,95.355 204.633,96.4665 203.7555,97.812 z " />
  <path
     style="fill:#000000;stroke:none"
     id="path4323"
     d="M 281.385,97.812 C 274.131,98.3385 263.4255,99.2745 259.155,99.684 C 257.6925,99.8595 252.0765,100.269 246.5775,100.6785 C 241.137,101.0295 236.5155,101.439 236.457,101.4975 C 236.2815,101.673 246.9285,113.841 251.8425,119.0475 C 253.2465,120.5685 259.857,127.9395 263.016,131.5665 C 264.303,132.9705 266.409,135.369 267.7545,136.8315 C 269.1,138.294 271.206,140.634 272.4345,142.038 C 274.248,144.0855 274.833,144.4365 275.3595,143.793 C 275.7105,143.3835 277.758,139.6395 279.9225,135.486 C 282.0285,131.391 284.1345,127.5885 284.6025,127.1205 C 285.0705,126.6525 285.48,125.892 285.48,125.3655 C 285.48,124.8975 286.0065,123.786 286.5915,122.9085 C 287.235,122.0895 289.692,117.5265 292.032,112.905 C 294.4305,108.225 297.2385,102.9015 298.233,101.088 C 299.286,99.216 300.105,97.578 300.105,97.4025 C 300.105,96.993 289.2825,97.1685 281.385,97.812 z " />
  <path
     style="fill:#000000;stroke:none"
     id="path4325"
     d="M 58.5,107.64 C 57.0375,109.2195 55.575,110.5065 55.1655,110.565 C 54.8145,110.565 53.7615,111.3255 52.884,112.2615 C 52.0065,113.1975 50.9535,113.841 50.544,113.6655 C 50.1345,113.49 49.023,113.8995 48.1455,114.4845 C 44.811,116.7075 43.29,117.2925 42.237,116.5905 C 41.0085,115.83 38.61,116.649 38.61,117.7605 C 38.61,118.2285 39.2535,119.2815 40.0725,120.159 C 40.8915,121.0365 41.535,121.914 41.535,122.0895 C 41.535,122.733 43.5825,123.9615 44.6355,124.02 C 46.5075,124.02 51.948,121.1535 54.054,118.989 C 54.756,118.3455 56.1015,117.4095 57.096,117 C 59.67,115.8885 61.4835,112.9635 61.3665,110.214 C 61.308,108.927 61.4835,107.2305 61.7175,106.2945 C 62.3025,104.013 61.4835,104.364 58.5,107.64 z " />
  <path
     style="fill:#000000;stroke:none"
     id="path4327"
     d="M 330.525,106.1775 C 330.525,106.7625 331.11,107.055 332.4555,107.055 C 334.2105,106.9965 334.269,106.9965 333.216,106.1775 C 331.7535,105.066 330.525,105.066 330.525,106.1775 z " />
  <path
     style="fill:#000000;stroke:none"
     id="path4329"
     d="M 363.285,107.172 C 362.1735,107.406 357.6105,107.8155 353.223,107.991 L 345.15,108.342 L 345.15,111.0915 C 345.2085,112.554 345.5595,114.8355 346.0275,116.1225 C 346.4955,117.4095 346.905,119.457 346.905,120.627 C 346.905,122.7915 346.8465,122.85 344.8575,122.85 C 343.746,122.85 342.81,122.5575 342.81,122.265 C 342.81,121.914 342.4005,121.68 341.874,121.68 C 341.289,121.68 341.055,121.329 341.2305,120.861 C 341.64,119.808 340.587,115.83 339.9435,115.83 C 339.651,115.83 339.2415,115.1865 339.066,114.3675 C 338.832,113.5485 337.779,111.9105 336.726,110.799 C 334.854,108.81 334.62,108.693 332.4555,109.2195 L 330.2325,109.746 L 330.3495,114.309 C 330.408,117.468 330.7005,119.0475 331.2855,119.5155 C 332.163,120.2175 332.6895,122.0895 333.2745,126.7695 L 333.567,129.285 L 331.11,129.285 C 329.0625,129.285 328.3605,128.934 326.7225,127.179 C 325.611,126.009 324.7335,124.488 324.7335,123.786 C 324.792,122.4405 322.92,116.883 322.2765,116.415 C 322.101,116.2395 321.516,114.777 321.048,113.1975 L 320.229,110.2725 L 316.602,110.097 C 312.5655,109.9215 312.273,110.214 314.145,113.1975 C 314.7885,114.1335 315.666,115.713 316.134,116.7075 C 316.602,117.6435 317.8305,119.7495 318.7665,121.3875 C 319.761,122.967 320.8725,125.0145 321.2235,125.892 C 321.5745,126.828 322.101,127.53 322.3935,127.53 C 322.686,127.53 322.92,127.881 322.92,128.2905 C 322.92,128.7 323.7975,129.519 324.8505,130.0455 C 325.845,130.6305 328.7115,132.5025 331.11,134.2575 C 333.5085,136.071 336.843,138.411 338.4225,139.5225 C 340.0605,140.634 343.2195,142.857 345.4425,144.495 C 350.0055,147.7125 350.415,147.888 350.415,146.367 C 350.415,145.8405 350.8245,144.846 351.2925,144.261 C 351.7605,143.6175 352.17,142.74 352.17,142.3305 C 352.17,141.5115 353.9835,137.0655 355.095,135.018 C 355.446,134.433 355.68,133.6725 355.68,133.3215 C 355.68,132.9705 356.031,131.859 356.499,130.8645 C 356.967,129.8115 357.903,127.647 358.605,126.0675 C 359.307,124.4295 360.0675,122.616 360.36,121.9725 C 360.6525,121.329 361.8225,118.404 362.9925,115.5375 C 364.1625,112.6125 365.391,109.6875 365.742,108.927 C 366.6195,107.172 365.8005,106.587 363.285,107.172 z " />
  <path
     style="fill:#000000;stroke:none"
     id="path4331"
     d="M 299.8125,113.022 C 291.9735,128.0565 282.555,146.484 282.555,146.8935 C 282.555,147.1275 283.7835,147.771 285.363,148.2975 C 286.884,148.8825 288.639,149.526 289.2825,149.76 C 289.926,150.0525 291.681,150.696 293.2605,151.281 C 294.7815,151.8075 296.01,152.6265 296.01,153.036 C 296.01,153.4455 294.957,154.674 293.67,155.7855 C 292.3245,156.897 291.33,158.301 291.33,159.003 C 291.33,160.2315 291.447,160.2315 313.1505,160.407 C 325.0845,160.524 335.088,160.4655 335.322,160.29 C 335.556,160.1145 335.79,159.003 335.907,157.7745 C 336.0825,155.61 335.9655,155.493 333.45,154.44 C 331.9875,153.855 329.1795,152.802 327.249,152.1 L 323.6805,150.813 L 320.6385,144.9045 C 319.0005,141.6285 317.0115,137.8845 316.251,136.5975 C 315.549,135.3105 313.9695,132.561 312.858,130.455 C 311.7465,128.349 310.1085,125.4825 309.348,124.02 C 308.529,122.5575 306.4815,118.872 304.785,115.83 C 303.0885,112.788 301.6845,110.214 301.5675,110.097 C 301.509,110.0385 300.7485,111.3255 299.8125,113.022 z " />
  <path
     style="fill:#000000;stroke:none"
     id="path4333"
     d="M 17.667,123.669 C 16.6725,124.137 16.4385,124.605 16.731,125.4825 C 16.9065,126.126 17.1405,127.5885 17.2575,128.7 C 17.316,129.8115 17.3745,131.3325 17.433,132.0345 C 17.55,133.3215 19.305,134.0235 19.305,132.8535 C 19.305,132.561 19.773,132.21 20.2995,132.093 C 20.826,131.976 21.3525,131.391 21.4695,130.7475 C 22.23,126.126 22.2885,124.605 21.7035,124.605 C 21.3525,124.605 21.06,124.1955 21.06,123.7275 C 21.06,122.733 19.656,122.6745 17.667,123.669 z " />
  <path
     style="fill:#000000;stroke:none"
     id="path4335"
     d="M 368.2575,127.062 C 368.0235,127.8225 367.0875,130.104 366.093,132.21 C 364.1625,136.422 363.5775,137.826 361.2375,143.325 C 360.36,145.431 359.424,147.537 359.19,148.005 C 358.839,148.707 359.4825,148.941 362.7585,149.058 C 366.093,149.2335 366.795,149.1165 366.795,148.356 C 366.795,147.3615 367.6725,147.186 372.411,147.42 C 376.506,147.537 378.261,145.7235 376.7985,142.857 C 376.506,142.3305 375.804,140.6925 375.2775,139.23 C 374.751,137.7675 373.932,135.837 373.464,134.9595 C 372.996,134.0235 372.645,132.9705 372.645,132.6195 C 372.645,132.21 372.294,131.2155 371.826,130.3965 C 371.4165,129.5775 370.89,128.232 370.656,127.3545 C 370.188,125.424 368.784,125.307 368.2575,127.062 z " />
  <path
     style="fill:#000000;stroke:none"
     id="path4337"
     d="M 90.3825,128.934 C 89.739,129.6945 89.037,130.221 88.7445,130.0455 C 88.5105,129.9285 88.1595,130.221 87.984,130.689 C 87.8085,131.2155 87.1065,131.625 86.5215,131.625 C 85.9365,131.625 85.41,131.859 85.41,132.21 C 85.41,132.5025 85.059,132.795 84.591,132.795 C 84.1815,132.795 83.421,133.38 82.953,134.082 C 82.1925,135.252 81.783,136.5975 80.964,140.9265 C 80.847,141.6285 80.2035,144.027 79.8525,145.08 C 79.794,145.2555 79.56,146.4255 79.2675,147.7125 C 79.0335,148.9995 78.507,150.462 78.0975,150.93 C 77.688,151.398 76.986,153.036 76.518,154.4985 L 75.582,157.1895 L 91.7865,157.5405 C 100.6785,157.7745 111.267,157.95 115.3035,157.95 C 123.318,157.95 123.435,157.8915 123.435,154.557 C 123.435,153.738 123.8445,151.866 124.4295,150.462 C 124.956,148.9995 125.1315,147.771 124.839,147.42 C 124.5465,147.186 120.51,145.431 115.83,143.6175 C 111.15,141.7455 106.938,139.932 106.4115,139.464 C 105.9435,138.996 104.5395,138.645 103.3695,138.645 C 101.6145,138.645 100.971,138.2355 99.2745,136.1295 C 98.163,134.784 96.408,132.2685 95.355,130.572 C 93.3075,127.2375 92.1375,126.828 90.3825,128.934 z " />
  <path
     style="fill:#000000;stroke:none"
     id="path4339"
     d="M 326.4885,134.9595 C 327.132,136.188 328.419,138.4695 329.4135,140.1075 C 330.3495,141.687 331.5195,143.8515 331.9875,144.9045 C 332.748,146.601 336.141,149.76 337.194,149.76 C 337.428,149.76 338.3055,150.2865 339.183,150.93 C 341.289,152.5095 350.3565,153.4455 351.936,152.2755 C 353.0475,151.4565 353.0475,151.4565 351,150.462 C 348.8355,149.409 347.49,148.5315 344.5065,146.0745 C 342.9855,144.9045 341.1135,143.559 340.353,143.1495 C 339.5925,142.7985 337.662,141.453 336.0825,140.2245 C 330.759,136.188 325.962,132.795 325.611,132.795 C 325.4355,132.795 325.845,133.7895 326.4885,134.9595 z " />
  <path
     style="fill:#000000;stroke:none"
     id="path4341"
     d="M 12.87,141.0435 C 12.87,141.336 13.1625,141.453 13.455,141.2775 C 13.806,141.102 14.04,140.8095 14.04,140.634 C 14.04,140.517 13.806,140.4 13.455,140.4 C 13.1625,140.4 12.87,140.6925 12.87,141.0435 z " />
  <path
     style="fill:#000000;stroke:none"
     id="path4343"
     d="M 14.742,141.6285 C 14.9175,142.0965 15.327,142.4475 15.678,142.4475 C 16.029,142.4475 16.6725,142.7985 17.082,143.1495 C 17.433,143.559 18.1935,143.91 18.72,143.91 C 19.7145,143.91 27.378,147.654 28.3725,148.6485 C 28.665,148.941 29.367,149.175 29.952,149.175 C 30.537,149.175 31.9995,149.8185 33.228,150.579 C 35.802,152.2755 39.7215,153.5625 40.248,152.9775 C 40.482,152.7435 40.3065,152.3925 39.9555,152.2755 C 39.546,152.1 39.195,151.515 39.195,150.93 C 39.195,149.4675 35.568,145.665 34.164,145.665 C 33.5205,145.665 31.7655,145.2555 30.1275,144.7875 C 27.378,143.91 23.283,143.325 19.773,143.208 C 18.837,143.1495 18.135,142.974 18.135,142.74 C 18.135,142.506 17.667,142.155 17.1405,141.921 C 16.5555,141.7455 15.7365,141.3945 15.2685,141.219 C 14.742,140.985 14.5665,141.102 14.742,141.6285 z " />
  <path
     style="fill:#000000;stroke:none"
     id="path4345"
     d="M 127.9395,148.941 C 127.7055,149.5845 127.3545,150.462 127.062,150.93 C 125.5995,153.387 125.19,154.557 125.19,156.078 L 125.19,157.7745 L 139.347,158.1255 C 157.248,158.652 174.213,158.652 176.6115,158.184 C 178.074,157.8915 178.7175,157.3065 179.478,155.5515 C 180.18,153.9135 180.8235,153.27 181.701,153.27 C 182.9295,153.27 184.5675,150.7545 183.9825,149.76 C 183.8655,149.526 175.0905,149.1165 164.5605,148.941 C 153.972,148.7655 141.5115,148.4145 136.8315,148.239 C 128.8755,147.888 128.232,147.9465 127.9395,148.941 z " />
  <path
     style="fill:#000000;stroke:none"
     id="path4347"
     d="M 258.9795,153.6795 C 258.7455,153.855 258.57,155.3175 258.57,156.897 L 258.57,159.705 L 271.089,159.705 C 277.9335,159.705 284.778,159.8805 286.299,160.056 C 288.9315,160.4655 288.99,160.407 289.341,158.652 C 289.5165,157.6575 290.3355,156.2535 291.096,155.5515 C 291.8565,154.8495 292.3245,154.0305 292.149,153.7965 C 291.798,153.2115 259.5645,153.0945 258.9795,153.6795 z " />
  <path
     style="fill:#000000;stroke:none"
     id="path4349"
     d="M 341.3475,155.025 C 338.5395,156.0195 338.4225,156.195 338.247,158.4765 C 338.0715,160.875 338.0715,160.875 340.0605,160.875 C 341.757,160.875 342.2835,160.524 343.278,158.9445 C 343.863,157.8915 345.267,156.6045 346.2615,156.078 L 348.192,155.2005 L 346.2615,154.4985 C 345.267,154.1475 344.3895,153.9135 344.331,153.9135 C 344.2725,153.972 342.9855,154.4985 341.3475,155.025 z " />
  <path
     style="fill:#000000;stroke:none"
     id="path4351"
     d="M 341.172,165.555 C 341.172,166.6665 341.289,167.1345 341.4645,166.5495 C 341.5815,166.023 341.5815,165.087 341.4645,164.502 C 341.289,163.9755 341.172,164.4435 341.172,165.555 z " />
  <path
     style="fill:#000000;stroke:none"
     id="path4353"
     d="M 74.295,164.97 C 74.295,165.2625 74.529,165.555 74.763,165.555 C 74.997,165.555 75.699,166.842 76.3425,168.48 C 76.986,170.0595 77.6295,171.405 77.8635,171.405 C 78.0975,171.405 78.5655,172.692 78.975,174.33 C 79.3845,175.9095 79.911,177.255 80.2035,177.255 C 80.496,177.255 80.73,177.5475 80.73,177.8985 C 80.73,178.191 81.198,179.595 81.8415,180.9405 C 82.4265,182.286 83.1285,184.275 83.3625,185.2695 C 83.538,186.3225 83.9475,187.2 84.24,187.2 C 84.5325,187.2 84.825,187.6095 84.942,188.136 C 85.059,188.955 85.4685,188.7795 87.048,187.317 C 89.037,185.445 90.909,184.5675 91.728,185.094 C 92.4885,185.562 91.377,192.5235 90.441,193.284 C 89.856,193.8105 88.7445,197.613 87.399,203.697 C 87.3405,203.9895 87.2235,204.3405 87.165,204.5745 C 87.1065,204.867 87.1065,205.686 87.1065,206.505 C 87.165,207.324 86.58,209.1375 85.761,210.6 C 84.942,212.0625 83.8305,214.11 83.2455,215.1045 C 82.719,216.1575 82.0755,217.035 81.783,217.035 C 81.549,217.035 81.315,217.4445 81.315,217.9125 C 81.315,218.439 80.9055,218.9655 80.4375,219.141 C 79.9695,219.375 79.56,219.7845 79.56,220.194 C 79.56,220.6035 78.7995,221.5395 77.805,222.3 C 76.869,223.119 76.1085,224.2305 76.05,224.8155 C 76.05,225.4005 75.6405,225.9855 75.1725,226.161 C 74.7045,226.395 74.295,226.8045 74.295,227.214 C 74.2365,227.565 73.476,228.501 72.54,229.32 C 71.5455,230.0805 70.785,231.075 70.785,231.4845 C 70.785,231.9525 70.3755,232.4205 69.9075,232.596 C 69.4395,232.83 69.03,233.3565 69.03,233.766 C 69.03,234.234 68.6205,234.7605 68.1525,234.936 C 67.6845,235.17 67.275,235.5795 67.275,235.989 C 67.275,236.34 66.573,237.276 65.8125,238.0365 C 64.701,239.0895 64.4085,239.733 64.7595,240.669 C 64.9935,241.3125 65.2275,244.1205 65.286,246.87 C 65.403,253.9485 65.871,260.325 66.339,260.7345 C 66.5145,260.91 66.3975,261.4365 66.0465,261.9045 C 65.6955,262.314 65.52,262.665 65.754,262.665 C 65.9295,262.665 65.754,263.5425 65.286,264.654 C 64.8765,265.707 64.584,267.228 64.7595,268.047 C 64.935,268.866 64.7595,269.7435 64.4085,269.919 C 64.0575,270.153 63.765,270.738 63.765,271.2645 C 63.765,272.4345 58.3245,277.5825 57.0375,277.5825 C 56.511,277.641 53.2935,279.513 52.65,280.215 C 52.1235,280.7415 49.491,281.9115 46.5075,282.906 C 44.928,283.4325 43.2315,284.3685 42.7635,285.012 C 42.237,285.831 41.5935,286.065 40.599,285.831 C 39.897,285.6555 39.078,285.714 38.9025,286.065 C 38.4345,286.8255 39.6045,286.8255 46.8,285.7725 C 56.745,284.3685 70.8435,282.438 73.71,282.1455 C 75.1725,282.0285 81.3735,281.2095 87.4575,280.3905 C 93.6,279.63 101.4975,278.577 105.0075,278.1675 C 108.576,277.6995 111.501,277.3485 111.618,277.29 C 111.6765,277.29 111.735,251.901 111.735,220.8375 L 111.735,164.385 L 93.015,164.385 C 80.9055,164.385 74.295,164.619 74.295,164.97 z " />
  <path
     style="fill:#000000;stroke:none"
     id="path4355"
     d="M 114.0165,164.7945 C 113.6655,169.5915 114.309,256.113 114.7185,256.5225 C 115.4205,257.2245 115.4205,263.6595 114.66,264.1275 C 114.309,264.303 114.075,267.1695 114.075,270.621 L 114.075,276.705 L 116.298,276.705 C 117.468,276.705 118.8135,276.471 119.223,276.1785 C 119.8665,275.8275 119.691,268.1055 118.4625,233.4735 C 117.6435,210.1905 116.8245,189.657 116.5905,187.785 C 116.298,184.5675 116.3565,184.3335 117.819,183.3975 C 119.1645,182.52 120.159,182.403 124.6635,182.754 C 127.53,182.988 130.2795,183.2805 130.7475,183.456 C 131.508,183.7485 131.625,182.4615 131.625,174.096 L 131.625,164.385 L 122.85,164.385 C 118.053,164.385 114.075,164.5605 114.0165,164.7945 z " />
  <path
     style="fill:#000000;stroke:none"
     id="path4357"
     d="M 133.38,173.979 L 133.38,183.573 L 135.3105,183.924 C 136.9485,184.2165 158.184,186.2055 165.438,186.732 L 167.895,186.966 L 167.895,175.6755 L 167.895,164.385 L 150.6375,164.385 L 133.38,164.385 L 133.38,173.979 z " />
  <path
     style="fill:#000000;stroke:none"
     id="path4359"
     d="M 170.0595,168.3045 C 169.8255,170.5275 169.65,175.617 169.65,179.6535 L 169.65,187.0245 L 175.383,187.434 C 191.295,188.487 205.1595,188.955 223.0605,188.955 L 242.775,188.955 L 242.775,185.8545 C 242.775,184.2165 242.5995,178.659 242.3655,173.5695 L 242.0145,164.385 L 206.2125,164.385 L 170.4105,164.385 L 170.0595,168.3045 z " />
  <path
     style="fill:#000000;stroke:none"
     id="path4361"
     d="M 245.115,176.3775 L 245.115,188.4285 L 252.603,188.253 L 260.0325,188.0775 L 260.208,176.202 L 260.325,164.385 L 252.72,164.385 L 245.115,164.385 L 245.115,176.3775 z " />
  <path
     style="fill:#000000;stroke:none"
     id="path4363"
     d="M 262.08,176.0265 L 262.08,187.785 L 264.888,187.785 C 268.8075,187.785 293.085,186.2055 310.4595,184.86 C 318.5325,184.2165 325.5525,183.69 326.079,183.69 C 326.898,183.69 327.015,182.4615 327.015,174.0375 L 327.015,164.385 L 304.785,164.385 C 285.4215,164.385 282.555,164.502 282.555,165.2625 C 282.555,165.7305 282.1455,166.14 281.6775,166.14 C 281.2095,166.14 280.8,165.789 280.8,165.3795 C 280.8,164.7945 278.694,164.5605 271.44,164.4435 L 262.08,164.3265 L 262.08,176.0265 z " />
  <path
     style="fill:#000000;stroke:none"
     id="path4365"
     d="M 329.004,167.427 C 329.1795,169.1235 329.355,172.1655 329.355,174.1545 C 329.355,177.606 329.472,177.84 330.7005,177.84 C 331.9875,177.84 334.035,175.149 334.035,173.394 C 334.035,172.9845 335.205,171.4635 336.6675,170.118 C 338.5395,168.3045 339.3,167.193 339.3,166.023 L 339.3,164.385 L 333.9765,164.385 L 328.5945,164.385 L 329.004,167.427 z " />
  <path
     style="fill:#000000;stroke:none"
     id="path4367"
     d="M 369.3105,176.1435 C 368.9595,176.4945 365.157,176.8455 360.36,176.9625 C 354.744,177.138 351.819,177.4305 351.5265,177.8985 C 351.2925,178.308 349.479,178.659 347.4315,178.776 C 344.916,178.893 343.512,179.244 343.044,179.8875 C 342.693,180.3555 342.108,180.765 341.6985,180.765 C 341.3475,180.765 341.055,180.999 341.055,181.35 C 341.055,181.701 343.044,181.8765 346.086,181.7595 C 350.9415,181.6425 351.117,181.701 352.521,183.2805 C 353.808,184.8015 353.925,185.445 353.925,191.061 C 353.925,194.3955 354.159,197.145 354.4515,197.145 C 354.744,197.145 355.563,195.9165 356.265,194.337 C 359.775,186.6735 360.594,185.328 362.8755,183.807 C 364.1625,182.9295 366.093,181.2915 367.2045,180.1215 C 368.4915,178.776 369.603,178.074 370.2465,178.2495 C 371.4165,178.542 373.4055,176.8455 372.9375,176.0265 C 372.4695,175.3245 370.071,175.383 369.3105,176.1435 z " />
  <path
     style="fill:#000000;stroke:none"
     id="path4369"
     d="M 337.2525,181.935 C 336.1995,182.403 336.258,182.4615 337.7205,182.4615 C 338.598,182.52 339.3,182.2275 339.3,181.935 C 339.3,181.233 338.832,181.233 337.2525,181.935 z " />
  <path
     style="fill:#000000;stroke:none"
     id="path4371"
     d="M 390.4875,187.0245 C 389.2005,187.7265 387.7965,188.487 387.4455,188.721 C 387.036,188.8965 386.685,189.5985 386.685,190.3005 C 386.685,191.4705 386.685,191.4705 388.0305,190.242 C 388.791,189.54 389.6685,188.955 389.961,188.955 C 390.663,188.955 393.471,186.147 393.0615,185.8545 C 392.9445,185.7375 391.7745,186.264 390.4875,187.0245 z " />
  <path
     style="fill:#000000;stroke:none"
     id="path4373"
     d="M 36.27,187.0245 C 35.1585,187.2 33.8715,187.6095 33.462,187.9605 C 32.526,188.721 27.7875,188.5455 26.208,187.7265 C 25.3305,187.2585 24.804,187.3755 23.8095,188.3115 C 19.5975,192.114 18.369,193.05 17.433,193.05 C 16.848,193.05 16.38,193.284 16.38,193.635 C 16.38,194.454 14.2155,194.337 13.806,193.4595 C 13.6305,193.1085 13.572,193.6935 13.6305,194.805 C 13.806,198.081 15.444,198.081 25.74,194.8635 C 27.846,194.1615 30.0105,193.635 30.5955,193.635 C 31.122,193.635 31.9995,193.167 32.526,192.5235 C 33.1695,191.763 34.1055,191.529 35.685,191.5875 C 37.4985,191.7045 38.259,191.412 39.546,190.0665 C 40.482,189.072 40.95,188.0775 40.7745,187.551 C 40.4235,186.615 40.131,186.5565 36.27,187.0245 z " />
  <path
     style="fill:#000000;stroke:none"
     id="path4375"
     d="M 381.0105,192.348 C 379.665,193.2255 378.378,194.337 378.2025,194.8635 C 378.027,195.39 376.4475,196.7355 374.6925,197.7885 C 372.9375,198.9 371.475,200.1285 371.475,200.4795 C 371.475,200.889 371.0655,201.24 370.5975,201.24 C 370.071,201.24 369.5445,201.6495 369.369,202.1175 C 369.135,202.5855 368.55,202.995 368.0235,202.995 C 366.8535,203.0535 365.04,204.399 365.04,205.2765 C 365.04,205.6275 364.6305,205.92 364.1625,205.92 C 363.6945,205.92 363.285,206.0955 363.285,206.388 C 363.285,206.9145 360.8865,207.9675 357.7275,208.7865 C 353.1645,210.0735 353.3985,209.0205 352.9305,228.384 C 352.638,237.9195 352.6965,245.7 352.9305,245.7 C 353.6325,245.7 380.0745,242.2485 382.473,241.8975 L 384.345,241.5465 L 384.2865,231.192 C 384.228,225.5175 383.994,220.0185 383.76,219.0825 C 383.526,218.088 383.292,217.737 383.2335,218.2635 C 383.2335,218.79 382.7655,219.375 382.2975,219.609 C 381.8295,219.7845 381.42,220.4865 381.42,221.13 C 381.42,221.7735 381.069,222.4755 380.601,222.651 C 380.133,222.8265 379.6065,224.1135 379.3725,225.576 C 379.197,226.98 378.7875,228.15 378.5535,228.15 C 378.3195,228.15 377.7345,228.7935 377.325,229.6125 C 376.6815,230.841 376.0965,231.075 373.9905,231.075 C 371.7675,231.075 371.475,230.8995 371.475,229.7295 C 371.475,228.3255 372.996,220.779 373.8735,217.854 C 374.166,216.8595 374.283,215.631 374.1075,215.163 C 373.8735,214.6365 374.166,214.11 374.634,213.9345 C 375.1605,213.7005 375.57,212.8815 375.57,212.0625 C 375.57,211.2435 375.8625,210.6 376.155,210.6 C 376.506,210.6 376.74,210.3075 376.74,209.9565 C 376.74,209.6055 377.1495,208.962 377.6175,208.4355 C 378.144,207.9675 378.729,206.7975 378.9045,205.92 C 379.08,204.8085 379.665,204.165 380.601,203.931 C 381.42,203.697 382.005,203.112 382.005,202.4685 C 382.005,201.8835 382.1805,201.24 382.356,201.0645 C 383.994,199.485 385.2225,190.6515 383.8185,190.71 C 383.643,190.71 382.356,191.4705 381.0105,192.348 z " />
  <path
     style="fill:#000000;stroke:none"
     id="path4377"
     d="M 411.84,204.399 C 410.3775,205.0425 409.149,205.803 409.032,206.037 C 408.915,206.3295 408.447,206.505 407.979,206.505 C 407.511,206.505 406.575,207.0315 405.873,207.675 C 405.171,208.3185 404.2935,208.845 403.9425,208.845 C 403.533,208.845 402.1875,210.366 400.9005,212.1795 C 397.9755,216.333 396.513,217.6785 394.1145,218.4975 C 392.8275,218.907 392.184,219.492 392.067,220.4865 C 391.599,223.7625 387.738,224.64 387.387,221.5395 C 387.27,220.662 386.919,219.96 386.6265,219.96 C 386.334,219.96 386.1,224.8155 386.1,231.6015 C 386.1,238.68 385.866,243.4185 385.515,243.6525 C 384.813,244.062 372.177,245.7 366.5025,246.1095 C 364.2795,246.285 362.115,246.636 361.764,246.9285 C 361.413,247.221 359.1315,247.6305 356.616,247.806 L 352.17,248.2155 L 352.17,253.8315 C 352.17,256.932 351.234,294.84 350.1225,338.13 C 349.011,381.42 348.075,417.924 348.075,419.328 L 348.075,421.902 L 349.83,420.147 C 350.8245,419.1525 351.585,418.041 351.585,417.69 C 351.585,417.339 351.9945,416.637 352.4625,416.169 C 352.9305,415.701 353.1645,414.999 352.989,414.5895 C 352.872,414.18 353.574,412.893 354.6855,411.7815 C 357.2595,409.149 359.775,403.7085 359.775,400.7835 C 359.775,399.4965 360.0675,398.268 360.36,398.0925 C 360.711,397.917 360.945,397.098 360.945,396.3375 C 360.945,395.577 361.413,394.641 361.998,394.3485 C 362.5245,393.9975 362.6415,393.705 362.2905,393.705 C 361.881,393.705 361.53,393.4125 361.53,393.12 C 361.53,392.769 361.881,392.535 362.2905,392.535 C 363.051,392.4765 365.04,388.6155 365.04,387.036 C 365.04,386.5095 365.391,385.9245 365.859,385.749 C 366.327,385.5735 366.795,384.696 366.9705,383.8185 C 367.146,382.8825 367.731,381.7125 368.2575,381.2445 C 368.7255,380.718 369.135,379.9575 369.135,379.431 C 369.135,378.963 369.6615,378.261 370.305,377.91 C 370.9485,377.559 371.475,376.9155 371.475,376.4475 C 371.475,375.9795 371.8845,375.57 372.3525,375.57 C 372.8205,375.57 373.23,375.219 373.23,374.8095 C 373.23,374.4 374.166,373.581 375.2775,373.0545 C 376.4475,372.528 377.5005,371.6505 377.676,371.1825 C 377.91,370.7145 378.6705,370.305 379.3725,370.305 C 380.133,370.305 380.835,370.071 380.952,369.837 C 381.303,368.9595 389.727,365.04 391.3065,365.04 C 392.769,365.04 396.045,364.0455 402.363,361.764 C 404.0595,361.1205 404.82,360.477 404.82,359.775 C 404.82,359.19 405.2295,358.3125 405.6975,357.786 C 406.1655,357.318 406.575,356.4405 406.575,355.8555 C 406.575,354.1005 409.968,350.415 411.606,350.415 C 412.425,350.415 413.01,350.064 413.01,349.596 C 413.01,349.128 414.0045,348.1335 415.233,347.4315 C 416.403,346.671 417.6315,345.735 417.8655,345.3255 C 418.0995,344.916 418.86,344.565 419.445,344.565 C 420.0885,344.565 420.615,344.214 420.615,343.746 C 420.615,342.6345 423.54,342.1665 425.295,342.9855 C 426.8745,343.746 429.9165,349.245 429.975,351.4095 C 429.975,352.1115 430.2675,352.755 430.6185,352.872 C 430.9695,352.989 431.379,354.393 431.5545,355.9725 C 432.0225,359.9505 432.4905,360.477 434.9475,359.424 C 436.059,358.956 437.1705,358.605 437.463,358.605 C 438.2235,358.605 441.675,361.881 441.675,362.583 C 441.675,362.9925 441.909,363.285 442.2015,363.285 C 443.079,363.285 444.015,366.795 444.015,370.071 C 444.015,373.698 444.6585,374.166 447.408,372.528 C 449.3385,371.358 450.6255,371.2995 455.598,372.3525 L 457.47,372.762 L 457.47,355.797 C 457.47,340.6455 457.353,338.7735 456.534,339.1245 C 456.066,339.3 455.481,340.1775 455.3055,341.1135 C 455.0715,342.5175 454.662,342.81 453.375,342.81 C 452.0295,342.81 451.6785,342.5175 451.386,340.9965 C 450.8595,338.3055 450.9765,336.375 451.62,336.375 C 451.971,336.375 452.205,333.9765 452.205,330.291 C 452.205,326.8395 452.439,323.973 452.79,323.7975 C 453.141,323.622 453.375,322.92 453.375,322.335 C 453.375,321.165 456.2415,316.485 457.002,316.485 C 457.236,316.485 457.47,312.4485 457.4115,307.5345 C 457.4115,302.679 457.236,299.052 457.0605,299.52 C 456.9435,299.988 456.651,300.807 456.4755,301.275 C 455.949,302.9715 454.545,299.988 454.545,297.063 C 454.545,295.542 454.3695,294.255 454.1355,294.255 C 453.024,294.1965 445.8285,298.116 445.77,298.7595 C 445.77,299.169 445.1265,299.637 444.366,299.871 C 443.547,300.0465 442.494,300.69 441.909,301.3335 C 441.3825,301.9185 440.622,302.445 440.271,302.445 C 439.92,302.5035 438.5745,303.5565 437.2875,304.785 C 435.708,306.3645 434.4795,307.125 433.368,307.125 C 432.315,307.125 431.73,307.4175 431.73,308.0025 C 431.73,308.7045 430.794,308.88 426.699,308.88 L 421.6095,308.88 L 421.902,304.668 C 422.136,301.743 422.487,300.2805 423.189,299.8125 C 423.7155,299.403 424.125,298.2915 424.125,297.2385 C 424.125,296.244 424.4175,295.425 424.7685,295.425 C 425.88,295.425 428.805,293.0265 428.805,292.149 C 428.805,290.9205 425.88,291.1545 424.125,292.5 C 423.306,293.1435 422.37,293.67 422.019,293.67 C 421.6095,293.67 421.2,294.0795 420.966,294.5475 C 420.7905,295.0155 419.9715,295.425 419.094,295.425 C 418.041,295.425 416.6955,296.361 414.648,298.35 C 412.659,300.2805 411.372,301.2165 410.7285,300.9825 C 410.1435,300.807 408.447,301.3335 406.809,302.1525 C 405.2295,302.9715 403.65,303.615 403.2405,303.615 C 402.8895,303.615 402.4215,303.966 402.3045,304.317 C 402.129,304.7265 401.9535,303.966 401.9535,302.562 C 401.895,301.0995 402.1875,300.105 402.5385,300.105 C 403.0065,300.105 403.1235,298.935 402.948,296.3025 C 402.6555,292.9095 402.7725,292.383 403.767,291.8565 C 404.352,291.5055 404.82,290.8035 404.703,290.277 C 404.5275,288.873 407.6865,283.257 408.915,282.8475 C 410.6115,282.321 415.116,277.6995 415.5255,276.0615 C 415.7595,275.2425 416.5785,274.248 417.3975,273.897 C 418.2165,273.546 418.86,272.844 418.86,272.3175 C 418.86,271.8495 419.094,271.44 419.3865,271.44 C 419.679,271.44 420.0885,270.972 420.264,270.387 C 420.4395,269.8605 421.317,269.0415 422.1945,268.6905 C 423.1305,268.281 424.5345,267.2865 425.412,266.4675 C 426.2895,265.6485 427.401,265.005 427.869,265.005 C 428.3955,265.005 428.6295,264.654 428.454,264.186 C 428.22,263.5425 428.454,263.4255 429.3315,263.6595 C 430.0335,263.835 430.56,263.718 430.56,263.3085 C 430.56,262.9575 430.8525,262.665 431.2035,262.665 C 432.0225,262.665 433.1925,261.261 434.421,258.687 C 434.9475,257.6925 435.708,256.815 436.176,256.815 C 436.5855,256.815 437.1705,256.464 437.4045,256.0545 C 438.048,255.0015 443.1375,251.55 444.132,251.55 C 444.5415,251.4915 445.9455,251.0235 447.2325,250.38 C 448.5195,249.7365 449.9235,249.2685 450.333,249.21 C 451.3275,249.21 451.2105,246.8115 450.216,245.349 C 449.748,244.647 449.28,242.424 449.163,240.3765 L 448.9875,236.6325 L 446.94,236.457 C 443.3715,236.1645 440.5635,234.2925 440.505,232.128 C 440.505,231.6015 439.9785,231.0165 439.3935,230.7825 C 438.1065,230.373 438.3405,228.15 439.686,228.15 C 440.7975,228.15 440.739,225.8685 439.6275,225.459 C 439.101,225.225 438.633,223.938 438.399,222.2415 C 437.9895,219.375 437.4045,218.6145 436.761,220.2525 C 436.5855,220.7205 436.1175,221.13 435.708,221.13 C 434.421,221.13 431.145,224.4645 431.145,225.7515 C 431.145,226.5705 430.794,226.98 429.975,226.98 C 429.3315,226.98 428.805,227.214 428.805,227.5065 C 428.805,227.8575 428.0445,228.969 427.05,230.022 C 426.114,231.075 425.295,232.245 425.295,232.596 C 425.295,232.947 424.6515,233.883 423.891,234.702 C 421.785,237.042 421.6095,237.8025 421.2585,246.5775 C 420.966,253.773 420.7905,254.7675 419.8545,254.943 C 418.2165,255.294 415.35,253.7145 415.35,252.486 C 415.35,251.901 414.765,250.38 414.063,249.093 C 412.542,246.402 411.0795,246.3435 409.617,248.9175 C 409.0905,249.8535 408.447,250.731 408.213,250.848 C 407.9205,250.965 407.745,251.316 407.745,251.667 C 407.745,252.018 406.9845,253.2465 406.0485,254.4165 C 404.118,256.8735 401.895,261.0855 401.895,262.314 C 401.895,262.782 400.959,264.771 399.8475,266.7015 C 398.151,269.5095 397.449,270.27 396.3375,270.27 C 394.9335,270.27 394.875,270.153 394.875,265.5315 C 394.875,262.9575 394.5825,260.325 394.29,259.74 C 393.8805,258.9795 393.8805,258.5115 394.29,258.2775 C 394.641,258.0435 394.875,253.4805 394.875,246.402 C 394.875,236.106 394.992,234.5265 396.1035,231.66 C 396.747,229.905 397.449,227.916 397.683,227.2725 C 397.8585,226.629 398.6775,225.4005 399.4965,224.5815 C 402.012,222.066 402.948,220.4865 403.3575,218.1465 C 403.5915,216.684 404.2935,215.4555 405.4635,214.578 C 406.3995,213.8175 407.16,212.8815 407.16,212.472 C 407.16,212.121 407.4525,211.77 407.745,211.77 C 408.096,211.77 408.33,211.3605 408.33,210.8925 C 408.33,210.4245 408.564,210.015 408.8565,210.015 C 409.149,210.015 409.617,209.4885 409.7925,208.845 C 409.968,208.2015 410.6115,207.675 411.138,207.675 C 412.074,207.675 415.233,203.814 414.7065,203.346 C 414.5895,203.229 413.3025,203.697 411.84,204.399 z " />
  <path
     style="fill:#000000;stroke:none"
     id="path4379"
     d="M 216.45,205.6275 C 209.079,206.4465 195.039,207.324 178.6005,208.026 L 169.65,208.377 L 169.7085,236.574 C 169.767,252.0765 170.001,263.7765 170.235,262.665 C 170.9955,259.506 173.16,253.2465 174.33,250.965 C 174.915,249.8535 176.6115,248.04 178.1325,246.987 C 180.5895,245.349 181.35,245.115 184.86,245.115 C 188.6625,245.115 188.8965,245.232 190.5345,247.104 C 192.2895,249.093 195.975,257.049 195.975,258.8625 C 195.975,259.389 196.3845,261.261 196.911,263.016 C 197.6715,265.7655 197.964,266.1165 199.0755,265.8825 C 199.7775,265.7655 205.92,264.9465 212.6475,264.069 C 219.4335,263.25 225.0495,262.3725 225.225,262.1385 C 225.4005,261.963 226.98,261.7875 228.735,261.729 C 230.49,261.729 234.234,261.378 237.042,260.9685 L 242.1315,260.208 L 242.307,234.117 C 242.424,219.726 242.424,207.8505 242.3655,207.792 C 242.19,207.441 229.905,205.335 226.6875,205.101 C 225.108,204.9255 220.4865,205.218 216.45,205.6275 z " />
  <path
     style="fill:#000000;stroke:none"
     id="path4381"
     d="M 342.0495,206.3295 C 341.8155,206.505 341.64,215.8065 341.64,226.98 L 341.64,247.2795 L 343.044,247.0455 C 344.3895,246.753 344.5065,246.402 344.799,242.541 C 344.9745,240.2595 345.267,231.075 345.501,222.1245 L 345.852,205.92 L 344.097,205.92 C 343.161,205.92 342.225,206.0955 342.0495,206.3295 z " />
  <path
     style="fill:#000000;stroke:none"
     id="path4383"
     d="M 334.503,207.0315 C 332.6895,207.207 331.11,207.4995 330.9345,207.675 C 330.8175,207.8505 330.525,217.152 330.291,228.384 L 329.94,248.8005 L 332.982,248.391 C 334.6785,248.157 336.96,247.8645 338.013,247.689 L 339.885,247.338 L 339.885,226.9215 C 339.885,207.8505 339.8265,206.505 338.8905,206.5635 C 338.3055,206.622 336.3165,206.856 334.503,207.0315 z " />
  <path
     style="fill:#000000;stroke:none"
     id="path4385"
     d="M 125.4825,214.812 C 125.892,223.2945 127.53,269.568 127.53,272.727 C 127.53,274.8915 127.5885,274.95 129.5775,274.95 L 131.625,274.95 L 131.625,241.3125 L 131.625,207.675 L 128.4075,207.675 L 125.1315,207.675 L 125.4825,214.812 z " />
  <path
     style="fill:#000000;stroke:none"
     id="path4387"
     d="M 133.38,241.254 L 133.38,274.5405 L 135.8955,274.1895 C 137.241,274.014 145.0215,272.961 153.153,271.908 L 167.895,269.9775 L 167.895,239.148 L 167.895,208.3185 L 150.6375,208.143 L 133.38,207.9675 L 133.38,241.254 z " />
  <path
     style="fill:#000000;stroke:none"
     id="path4389"
     d="M 245.115,233.8245 L 245.115,259.7985 L 248.8005,259.389 C 250.7895,259.2135 252.603,258.8625 252.837,258.6285 C 253.071,258.453 253.422,256.698 253.5975,254.7675 C 254.1825,249.327 254.7675,248.3325 258.0435,246.9285 L 260.9685,245.7585 L 260.793,227.916 C 260.676,218.1465 260.5005,209.9565 260.325,209.781 C 260.1495,209.6055 256.6395,209.1375 252.5445,208.6695 L 245.115,207.909 L 245.115,233.8245 z " />
  <path
     style="fill:#000000;stroke:none"
     id="path4391"
     d="M 318.24,208.6695 C 313.2675,209.0205 305.604,209.547 301.158,209.7225 L 293.202,210.132 L 294.021,212.121 C 294.8985,214.227 295.1325,221.481 294.3135,221.949 C 294.0795,222.1245 293.67,223.587 293.436,225.1665 C 293.085,228.033 291.7395,231.3675 290.6865,231.9525 C 289.692,232.596 290.1015,234.585 291.2715,234.585 C 291.8565,234.585 293.1435,235.4625 294.0795,236.5155 C 296.3025,239.0895 296.127,238.9725 303.615,241.605 C 309.9915,243.828 315.9,247.0455 315.9,248.274 C 315.9585,250.3215 316.7775,250.497 322.569,249.7365 L 328.185,249.0345 L 328.1265,240.201 C 328.068,235.3455 327.834,226.1025 327.6585,219.6675 L 327.3075,207.9675 L 318.24,208.6695 z " />
  <path
     style="fill:#000000;stroke:none"
     id="path4393"
     d="M 262.314,210.717 C 262.4895,211.4775 262.665,219.375 262.665,228.267 C 262.665,239.733 262.8405,244.53 263.3085,244.53 C 264.3615,244.53 273.6045,240.084 274.014,239.3235 C 274.248,238.9725 273.897,237.9195 273.2535,236.9835 C 272.5515,236.0475 272.025,234.8775 272.025,234.4095 C 272.025,233.883 271.7325,233.298 271.3815,233.064 C 271.0305,232.8885 270.9135,232.011 271.089,231.1335 C 271.2645,230.3145 270.855,227.331 270.153,224.4645 C 268.983,219.843 268.9245,219.024 269.6265,215.6895 C 270.036,213.7005 270.738,211.653 271.206,211.1265 C 271.9665,210.249 271.7325,210.132 268.4565,209.781 C 262.3725,209.196 261.9045,209.2545 262.314,210.717 z " />
  <path
     style="fill:#000000;stroke:none"
     id="path4395"
     d="M 50.31,217.9125 C 50.31,218.088 50.427,218.205 50.6025,218.205 C 50.778,218.205 50.895,218.088 50.895,217.9125 C 50.895,217.737 50.778,217.62 50.6025,217.62 C 50.427,217.62 50.31,217.737 50.31,217.9125 z " />
  <path
     style="fill:#000000;stroke:none"
     id="path4397"
     d="M 47.3265,218.439 C 46.8,218.9655 37.323,220.6035 36.972,220.2525 C 36.27,219.5505 34.632,221.3055 33.9885,223.5285 C 33.1695,226.278 33.813,227.2725 35.9775,226.5705 C 36.621,226.395 37.557,226.2195 38.025,226.2195 C 38.493,226.2195 39.429,225.576 40.131,224.8155 C 40.833,224.055 41.652,223.47 41.9445,223.47 C 42.2955,223.47 42.8805,223.0605 43.29,222.5925 C 43.6995,222.1245 44.6355,221.715 45.396,221.715 C 46.2735,221.715 46.8,221.364 46.8,220.8375 C 46.8,220.3695 47.151,219.96 47.619,219.96 C 48.0285,219.96 48.7305,219.5505 49.14,219.0825 C 49.725,218.3805 49.6665,218.205 48.7305,218.205 C 48.087,218.205 47.4435,218.322 47.3265,218.439 z " />
  <path
     style="fill:#000000;stroke:none"
     id="path4399"
     d="M 53.5275,244.296 C 50.9535,245.232 48.555,247.455 48.555,248.9175 C 48.555,250.146 49.1985,249.9705 50.8365,248.274 C 51.597,247.455 53.118,246.4605 54.2295,245.9925 C 55.2825,245.5245 56.16,244.764 56.16,244.296 C 56.16,243.7695 56.1015,243.36 56.043,243.4185 C 55.926,243.4185 54.8145,243.828 53.5275,244.296 z " />
  <path
     style="fill:#000000;stroke:none"
     id="path4401"
     d="M 331.695,250.4385 C 327.6585,251.082 322.803,251.784 320.8725,252.018 C 316.719,252.486 316.4265,253.1295 317.889,258.2775 C 318.6495,260.7345 318.825,264.3615 318.8835,274.7745 C 318.8835,282.087 318.591,288.873 318.2985,289.8675 C 318.006,290.8035 317.5965,294.6645 317.421,298.35 C 317.304,302.0355 316.602,307.71 315.9,310.9275 C 313.9695,320.112 312.9165,326.898 312.5655,332.28 C 312.273,337.2525 311.3955,339.3 309.6405,339.3 C 309.0555,339.3 308.88,341.874 308.88,352.5795 C 308.8215,372.645 308.295,392.9445 307.71,397.215 C 307.4175,399.321 307.008,404.82 306.8325,409.5 C 306.5985,414.18 306.189,419.1525 305.838,420.615 C 305.5455,422.0775 305.253,426.2895 305.253,429.975 C 305.253,435.357 305.0775,436.9365 304.317,437.7555 C 303.849,438.3405 303.2055,440.0955 303.03,441.675 L 302.679,444.6 L 312.507,444.6 C 323.3295,444.6 322.5105,444.834 327.132,440.271 C 329.2965,438.1065 329.5305,438.048 332.28,438.3405 C 334.7955,438.633 335.205,438.516 335.4975,437.5215 C 335.7315,436.9365 336.0825,436.41 336.375,436.41 C 336.6675,436.41 337.077,435.8835 337.2525,435.24 C 337.428,434.5965 337.9545,434.07 338.4225,434.07 C 339.417,434.07 340.2945,429.2145 339.3585,428.922 C 339.0075,428.805 338.715,428.454 338.715,428.103 C 338.715,427.752 339.066,427.635 339.534,427.8105 C 340.1775,428.103 340.353,426.816 340.4115,421.0245 C 340.47,417.105 341.406,378.495 342.5175,335.205 C 343.629,291.915 344.565,254.8845 344.565,252.837 L 344.565,249.21 L 341.8155,249.2685 C 340.236,249.327 335.7315,249.8535 331.695,250.4385 z " />
  <path
     style="fill:#000000;stroke:none"
     id="path4403"
     d="M 243.6525,262.1385 C 241.4295,262.431 236.1645,263.016 231.9525,263.5425 C 227.799,264.069 222.885,264.7125 221.13,265.005 C 218.2635,265.5315 212.472,266.2335 204.75,267.0525 C 198.315,267.7545 198.198,267.813 198.6075,269.8605 C 199.4265,273.9555 201.0645,276.5295 203.697,277.8165 C 207.2655,279.513 208.494,281.7945 210.6,290.16 C 213.174,300.5145 215.2215,305.604 219.375,311.805 C 221.4225,314.9055 226.395,324.7335 227.214,327.4245 C 227.8575,329.5305 231.426,329.2965 233.883,326.9565 C 236.3985,324.6165 237.3345,322.569 239.0895,316.251 C 239.9085,313.326 241.137,309.582 241.8975,308.0025 C 243.243,305.0775 246.87,293.085 246.87,291.5055 C 246.87,291.0375 247.5135,288.639 248.3325,286.182 C 250.3215,280.0395 251.55,273.78 251.55,269.802 C 251.6085,267.9885 251.9595,265.4145 252.4275,264.1275 C 252.8955,262.8405 253.305,261.729 253.305,261.612 C 253.305,261.378 247.689,261.6705 243.6525,262.1385 z " />
  <path
     style="fill:#000000;stroke:none"
     id="path4405"
     d="M 162.045,272.727 C 159.6465,273.0195 152.919,273.9555 147.1275,274.7745 C 141.336,275.5935 134.7255,276.4125 132.3855,276.588 C 130.104,276.822 128.115,277.1145 127.9395,277.29 C 127.7055,277.524 128.817,311.1615 131.9175,395.4015 C 132.3855,409.032 132.795,420.4395 132.795,420.849 C 132.795,421.2 133.5555,421.8435 134.4915,422.253 C 137.4165,423.54 139.23,425.8215 139.23,428.22 C 139.23,429.4485 139.9905,431.7885 140.985,433.836 C 141.9795,435.708 143.208,438.9255 143.7345,440.973 L 144.612,444.6 L 153.621,444.6 C 159.6465,444.6 162.6885,444.366 162.981,443.9565 C 163.566,442.962 164.2095,421.434 164.619,389.61 L 165.0285,361.8225 L 162.8055,360.7695 C 158.886,358.956 158.2425,357.435 158.3595,350.7075 C 158.418,347.49 158.2425,341.6985 157.8915,337.8375 C 157.599,333.9765 157.3065,321.5745 157.248,310.3425 C 157.131,287.5275 156.897,289.107 161.5185,283.9005 C 163.0395,282.204 164.7945,279.6885 165.438,278.343 C 166.7835,275.418 167.6025,271.9665 166.9005,272.0835 C 166.6665,272.142 164.4435,272.4345 162.045,272.727 z " />
  <path
     style="fill:#000000;stroke:none"
     id="path4407"
     d="M 112.905,279.1035 C 111.15,279.396 103.3695,280.449 95.6475,281.385 C 60.489,285.8895 37.323,288.99 36.9135,289.224 C 36.621,289.3995 36.0945,290.394 35.685,291.3885 C 35.0415,292.851 35.0415,293.2605 35.685,293.67 C 36.6795,294.255 37.206,299.8125 36.3285,300.339 C 35.2755,300.9825 35.568,301.86 36.855,301.86 C 37.4985,301.86 38.025,302.094 38.025,302.3865 C 38.025,302.679 38.6685,303.0885 39.4875,303.264 C 40.3065,303.498 41.184,304.2585 41.4765,304.9605 C 42.0615,306.54 41.5935,311.22 40.8915,311.22 C 40.599,311.22 40.365,311.688 40.365,312.2145 C 40.3065,312.7995 39.546,313.911 38.61,314.73 C 37.6155,315.4905 36.855,316.485 36.855,316.8945 C 36.855,317.304 36.504,317.655 36.153,317.655 C 35.7435,317.655 35.1,318.2985 34.749,319.059 C 34.2225,320.229 34.3395,320.7555 35.451,322.218 C 36.621,323.6805 37.1475,323.9145 39.195,323.7975 C 40.833,323.6805 42.003,324.0315 42.8805,324.7335 L 44.1675,325.7865 L 42.4125,327.249 C 40.131,329.121 35.334,331.461 32.877,331.929 C 31.4145,332.163 30.069,331.812 27.027,330.174 C 22.7565,327.8925 20.943,326.898 20.475,326.43 C 20.2995,326.2545 19.1295,325.611 17.8425,324.9675 C 16.5555,324.324 14.5665,322.9785 13.455,321.9255 C 12.3435,320.8725 11.115,319.995 10.7055,319.995 C 10.296,319.995 9.945,319.5855 9.945,319.1175 C 9.945,318.6495 9.5355,318.24 9.0675,318.24 C 7.722,318.24 7.8975,323.388 9.36,325.26 C 10.3545,326.547 10.647,326.664 11.7,325.962 C 12.6945,325.377 13.1625,325.3185 13.806,325.9035 C 14.274,326.313 14.5665,326.9565 14.391,327.366 C 14.274,327.717 14.274,328.2435 14.508,328.419 C 14.6835,328.653 14.9175,329.4135 15.0345,330.1155 C 15.1515,330.8175 15.7365,331.812 16.38,332.397 C 17.1405,333.0405 17.55,334.035 17.55,335.4975 C 17.55,337.1355 17.9595,338.0715 19.1295,339.1245 C 20.007,340.002 20.4165,340.7625 20.0655,340.938 C 19.7145,341.172 19.539,341.991 19.656,342.81 C 19.7145,343.629 19.8315,344.8575 19.8315,345.5595 C 19.89,346.2615 20.2995,347.1975 20.7675,347.6655 C 21.177,348.1335 21.762,349.1865 21.9375,350.0055 C 22.1715,350.8245 22.6395,351.6435 23.049,351.7605 C 23.4585,351.936 23.985,353.574 24.219,355.446 C 24.453,357.318 24.921,359.19 25.272,359.658 C 25.6815,360.126 26.091,361.179 26.208,362.0565 C 26.325,362.8755 26.793,364.1625 27.261,364.8645 C 27.729,365.5665 28.08,366.444 28.08,366.7365 C 28.08,367.0875 28.8405,369.018 29.835,371.007 C 30.771,372.996 31.59,374.985 31.59,375.3945 C 31.59,375.8625 32.2335,377.208 33.0525,378.378 C 33.8715,379.548 34.515,380.952 34.515,381.42 C 34.515,381.9465 35.0415,382.941 35.685,383.643 C 36.3285,384.345 36.855,385.164 36.855,385.515 C 36.855,385.866 37.1475,386.7435 37.4985,387.387 C 38.025,388.3815 38.259,388.44 38.6685,387.7965 C 38.9025,387.3285 39.3705,386.9775 39.6045,386.9775 C 39.8385,386.919 41.301,386.7435 42.822,386.451 C 44.46,386.217 46.5075,386.2755 47.97,386.685 C 50.3685,387.3285 50.427,387.387 50.076,389.3175 C 49.842,390.3705 49.257,392.1255 48.7305,393.1785 C 48.204,394.2315 47.4435,396.4545 47.0925,398.0925 C 46.449,400.608 46.5075,401.3685 47.3265,403.0065 C 49.14,406.809 59.1435,410.4945 59.8455,407.628 C 60.1965,406.2825 58.4415,401.1345 57.1545,399.672 C 56.628,399.087 56.16,398.151 56.16,397.6245 C 56.16,397.098 55.926,396.5715 55.6335,396.3375 C 55.341,396.162 54.639,394.641 54.054,392.9445 C 53.5275,391.3065 52.8255,389.7855 52.5915,389.61 C 51.7725,389.0835 50.1345,378.5535 49.959,372.645 C 49.842,369.603 49.6665,365.8005 49.5495,364.1625 C 49.4325,362.583 49.608,360.4185 49.9005,359.3655 C 50.31,358.137 50.2515,356.733 49.9005,355.212 C 49.5495,353.925 49.491,352.638 49.725,352.3455 C 50.0175,352.1115 50.3685,348.7185 50.6025,344.8575 C 50.778,340.9965 51.1875,336.7845 51.48,335.556 C 51.7725,334.269 51.8895,333.0405 51.714,332.8065 C 51.597,332.5725 51.948,332.046 52.4745,331.6365 C 53.001,331.1685 53.937,329.706 54.522,328.302 C 55.107,326.9565 55.809,325.845 56.043,325.845 C 56.277,325.845 56.979,324.792 57.564,323.4465 C 58.9095,320.6385 60.3135,319.7025 61.542,320.7555 C 63.18,322.0425 65.52,326.079 64.9935,326.6055 C 64.701,326.898 64.701,327.8925 64.9935,328.887 C 65.2275,329.8815 65.754,332.6895 66.1635,335.1465 C 66.9825,340.6455 67.0995,341.5815 67.5675,343.395 C 67.8015,344.214 67.9185,346.086 67.9185,347.607 C 67.9185,349.128 68.1525,351.1755 68.445,352.1115 C 68.7375,353.106 68.7375,354.042 68.445,354.2175 C 68.1525,354.393 68.211,355.329 68.445,356.382 C 68.7375,357.3765 68.8545,358.371 68.7375,358.6635 C 68.562,358.8975 68.328,362.7 68.1525,367.0875 C 67.977,371.5335 67.6845,375.336 67.509,375.6285 C 67.3335,375.921 67.392,376.389 67.5675,376.74 C 67.977,377.442 70.785,374.5755 70.785,373.464 C 70.785,372.294 73.827,368.1405 75.1725,367.38 C 75.816,367.029 76.869,365.976 77.5125,365.04 C 78.156,364.0455 78.9165,363.3435 79.209,363.4605 C 80.145,363.753 80.73,366.912 80.3205,369.4275 C 80.0865,370.7145 79.9695,372.0015 80.028,372.2355 C 80.0865,372.528 79.911,373.7565 79.56,375.0435 C 79.209,376.3305 78.858,378.2025 78.741,379.2555 C 78.4485,382.239 76.752,390.897 75.9915,393.12 C 75.6405,394.2315 75.2895,395.694 75.1725,396.3375 C 75.0555,396.981 74.7045,398.6775 74.3535,400.14 C 73.944,401.6025 73.5345,403.299 73.4175,403.9425 C 73.242,404.586 72.8325,406.341 72.423,407.862 C 71.6625,411.021 72.4815,413.595 74.3535,413.595 C 74.9385,413.595 75.6405,413.946 75.8745,414.3555 C 76.752,415.8765 79.326,417.105 81.666,417.105 C 82.8945,417.105 85.5855,417.222 87.5745,417.456 L 91.143,417.807 L 92.1375,415.5255 C 92.664,414.297 93.6,412.308 94.2435,411.0795 C 94.8285,409.7925 95.355,408.447 95.355,407.979 C 95.355,407.511 95.6475,407.16 95.94,407.16 C 96.291,407.16 96.525,406.809 96.525,406.341 C 96.525,405.4635 97.4025,403.7085 99.1575,401.0175 C 100.4445,399.087 105.885,393.354 105.885,393.939 C 105.885,394.173 106.6455,393.588 107.523,392.652 C 108.4005,391.7745 109.512,390.8385 109.98,390.6045 C 110.448,390.3705 111.6765,389.6685 112.6125,389.0835 C 113.607,388.44 115.947,387.0945 117.8775,386.1 C 124.371,382.6485 123.903,388.674 122.0895,334.6785 C 121.212,308.763 120.3345,285.48 120.159,282.9645 L 119.808,278.46 L 117.936,278.5185 C 116.9415,278.577 114.66,278.811 112.905,279.1035 z " />
  <path
     style="fill:#000000;stroke:none"
     id="path4409"
     d="M 23.985,294.6645 C 24.804,294.84 25.5645,295.1325 25.74,295.425 C 25.9155,295.659 26.676,296.0685 27.495,296.3025 L 28.9575,296.712 L 27.378,295.4835 C 26.559,294.7815 25.0965,294.3135 24.1605,294.3135 C 22.581,294.4305 22.581,294.4305 23.985,294.6645 z " />
  <path
     style="fill:#000000;stroke:none"
     id="path4411"
     d="M 29.835,297.4725 C 29.835,297.648 29.952,297.765 30.1275,297.765 C 30.303,297.765 30.42,297.648 30.42,297.4725 C 30.42,297.297 30.303,297.18 30.1275,297.18 C 29.952,297.18 29.835,297.297 29.835,297.4725 z " />
  <path
     style="fill:#000000;stroke:none"
     id="path4413"
     d="M 258.687,302.8545 C 255.996,311.454 255.762,312.0975 251.0235,321.867 C 249.093,325.9035 247.455,329.5305 247.455,329.823 C 247.455,330.993 245.1735,332.397 243.828,332.1045 C 242.658,331.812 242.2485,332.163 240.8445,334.7955 C 239.967,336.492 239.265,338.3055 239.265,338.832 C 239.265,341.289 238.68,341.6985 235.6965,341.289 C 233.2395,340.938 232.8885,341.055 233.1225,341.8155 C 233.766,343.3365 232.4205,343.4535 229.8465,342.108 C 227.799,341.055 226.863,339.9435 225.0495,336.6675 C 223.821,334.386 221.715,331.5195 220.3695,330.2325 C 217.62,327.6 211.8285,320.8725 210.7755,319.1175 C 210.4245,318.474 208.3185,314.4375 206.0955,310.2255 C 202.4685,303.0885 202.059,302.562 201.6495,304.083 C 200.8305,307.008 199.5435,315.6075 199.719,317.07 C 200.0115,319.0005 200.655,320.58 201.24,320.58 C 201.5325,320.58 201.942,321.399 202.1175,322.452 C 202.3515,323.505 202.761,324.7335 203.0535,325.26 C 203.58,326.2545 206.388,337.662 207.09,341.757 C 207.3825,343.278 207.8505,344.9745 208.143,345.5595 C 208.4355,346.1445 208.845,348.192 209.079,350.1225 C 209.2545,352.053 209.8395,356.6745 210.3075,360.36 C 210.834,364.0455 211.3605,370.773 211.536,375.2775 C 211.7115,379.782 212.0625,385.6905 212.4135,388.44 C 212.706,391.1895 213.408,396.6885 213.876,400.725 C 214.344,404.7615 214.9875,411.0795 215.2215,414.765 C 215.514,418.4505 216.0405,423.306 216.3915,425.5875 C 216.7425,427.8105 217.2105,433.017 217.386,437.1705 L 217.737,444.6 L 234.6435,444.6 C 243.945,444.6 251.55,444.4245 251.55,444.249 C 251.55,444.0735 251.1405,442.6695 250.614,441.0315 C 249.7365,438.399 249.7365,438.048 250.614,436.7025 C 251.667,435.0645 254.241,434.7135 256.1715,435.942 C 257.049,436.4685 257.634,436.4685 258.8625,435.942 C 260.091,435.357 260.2665,435.0645 259.74,434.1285 C 258.804,432.315 259.038,430.326 260.6175,427.518 C 262.4895,424.125 263.0745,415.9935 262.08,406.575 C 261.729,402.8895 261.261,398.502 261.0855,396.8055 C 260.8515,394.524 261.0855,392.769 262.1385,389.9025 L 263.484,386.0415 L 262.4895,379.197 C 261.963,375.453 261.495,370.2465 261.495,367.614 C 261.495,365.04 260.9685,357.786 260.325,351.5265 C 259.155,339.3585 258.804,318.474 259.6815,305.955 C 259.974,302.2695 260.091,299.169 260.0325,299.052 C 259.974,298.9935 259.389,300.69 258.687,302.8545 z " />
  <path
     style="fill:#000000;stroke:none"
     id="path4415"
     d="M 167.895,312.39 C 167.895,316.0755 167.6025,321.4575 167.31,324.3825 C 165.9645,336.258 164.97,344.3895 164.619,345.852 C 164.385,346.8465 164.502,347.49 164.853,347.49 C 165.4965,347.49 165.6135,347.1975 167.31,337.8375 C 168.714,330.3495 169.8255,325.9035 171.2295,321.867 C 172.224,319.2345 172.0485,314.0865 170.8785,312.039 C 170.586,311.3955 170.1765,310.284 170.001,309.465 C 169.8255,308.646 169.299,307.476 168.831,306.8325 C 168.012,305.7795 167.9535,306.2475 167.895,312.39 z " />
  <path
     style="fill:#000000;stroke:none"
     id="path4417"
     d="M 283.725,359.775 C 283.6665,359.9505 283.374,364.3965 283.14,369.72 C 282.8475,375.0435 282.3795,381.888 282.0285,384.93 C 281.6775,387.972 281.0925,393.7635 280.7415,397.8 C 280.3905,401.8365 279.747,406.2825 279.3375,407.745 C 278.1675,411.8985 277.2315,419.562 277.2315,425.1195 C 277.2315,427.9275 276.9975,431.73 276.705,433.485 C 276.4125,435.24 276.0615,438.4575 275.886,440.6805 L 275.5935,444.6 L 283.14,444.6 C 291.7395,444.6 292.2075,444.249 288.2295,441.3825 C 285.012,439.0425 284.895,437.463 287.235,432.432 C 288.8145,429.0975 289.1655,427.6935 289.3995,422.6625 C 289.575,418.3335 289.3995,415.935 288.756,413.595 C 286.65,406.3995 285.831,400.725 286.533,397.8585 C 288.288,390.4875 288.5805,384.8715 287.586,377.91 C 287.001,374.2245 286.299,370.1295 286.0065,368.8425 C 284.4855,362.115 283.7835,359.4825 283.725,359.775 z " />
  <path
     style="fill:#000000;stroke:none"
     id="path4419"
     d="M 398.97,386.9775 C 398.97,387.4455 398.619,387.855 398.268,387.855 C 397.7415,387.855 397.8,388.089 398.385,388.44 C 398.97,388.791 399.0285,389.025 398.5605,389.025 C 398.151,389.025 397.6245,389.727 397.449,390.6045 C 397.215,391.482 396.6885,392.535 396.3375,392.9445 C 395.928,393.2955 395.46,395.226 395.226,397.1565 C 394.8165,400.491 395.1675,401.9535 396.6885,403.884 C 396.981,404.235 397.8585,405.3465 398.6775,406.341 C 399.4965,407.394 400.14,408.3885 400.14,408.564 C 400.14,409.149 410.319,419.2695 411.723,419.9715 C 412.8345,420.5565 413.0685,420.498 413.361,419.7375 C 413.829,418.626 412.7175,415.935 411.84,415.935 C 411.5475,415.935 411.255,415.5255 411.255,415.0575 C 411.255,414.5895 410.904,414.18 410.436,414.18 C 409.968,414.18 409.4415,413.361 409.2075,412.425 C 408.9735,411.4305 408.564,410.67 408.2715,410.67 C 407.979,410.67 407.394,409.968 406.9845,409.032 C 406.6335,408.1545 405.99,407.1015 405.5805,406.692 C 405.171,406.2825 404.82,405.522 404.82,405.054 C 404.82,404.586 404.586,404.235 404.2935,404.235 C 404.001,404.235 403.533,402.714 403.299,400.842 C 403.065,399.0285 402.6555,397.3905 402.4215,397.1565 C 401.661,396.6885 400.7835,391.3065 401.1345,389.4345 C 401.427,387.9135 400.5495,386.1 399.4965,386.1 C 399.204,386.1 398.97,386.5095 398.97,386.9775 z " />
  <path
     style="fill:#000000;stroke:none"
     id="path4421"
     d="M 123.201,389.3175 C 122.9085,390.2535 122.2065,391.7745 121.6215,392.652 C 120.978,393.471 120.51,394.5825 120.51,395.109 C 120.51,395.6355 120.3345,396.045 120.1005,396.045 C 119.808,396.045 118.872,397.215 117.9945,398.6775 C 117.0585,400.14 116.064,401.31 115.7715,401.31 C 115.479,401.31 115.245,401.778 115.1865,402.3045 C 115.1865,402.8895 114.66,404.118 114.0165,405.1125 C 113.4315,406.0485 112.671,407.4525 112.3785,408.1545 C 112.086,408.798 111.501,409.5585 111.2085,409.7925 C 110.6235,410.1435 107.64,416.1105 107.64,416.871 C 107.64,417.0465 107.1135,417.8655 106.47,418.6845 C 104.949,420.615 105.417,421.2 108.459,421.1415 C 110.565,421.0245 111.15,420.732 112.437,418.9185 C 114.777,415.6425 116.4735,412.425 116.1225,411.84 C 115.947,411.5475 116.5905,410.904 117.5265,410.436 C 118.638,409.851 119.691,408.447 120.5685,406.575 C 121.2705,404.9955 122.0895,403.65 122.382,403.65 C 122.6745,403.65 122.85,403.299 122.733,402.831 C 122.616,402.363 122.967,401.6025 123.4935,401.193 C 124.3125,400.5495 124.371,399.4965 124.0785,393.9975 C 123.786,389.025 123.552,387.972 123.201,389.3175 z " />
</svg>
