<?xml version="1.0" encoding="UTF-8" standalone="no"?>
<svg
   xmlns:dc="http://purl.org/dc/elements/1.1/"
   xmlns:cc="http://web.resource.org/cc/"
   xmlns:rdf="http://www.w3.org/1999/02/22-rdf-syntax-ns#"
   xmlns:svg="http://www.w3.org/2000/svg"
   xmlns="http://www.w3.org/2000/svg"
   xmlns:sodipodi="http://inkscape.sourceforge.net/DTD/sodipodi-0.dtd"
   xmlns:inkscape="http://www.inkscape.org/namespaces/inkscape"
   version="1.0"
   width="4in"
   height="4in"
   viewBox="0 0 468 468"
   preserveAspectRatio="xMidYMid meet"
   id="svg4613"
   sodipodi:version="0.32"
   inkscape:version="0.43"
   sodipodi:docbase="/my/proj/xpcs"
   sodipodi:docname="out5.svg">
  <defs
     id="defs4716" />
  <sodipodi:namedview
     inkscape:window-height="1239"
     inkscape:window-width="1132"
     inkscape:pageshadow="2"
     inkscape:pageopacity="0.0"
     borderopacity="1.0"
     bordercolor="#666666"
     pagecolor="#ffffff"
     id="base"
     inkscape:zoom="2.7555556"
     inkscape:cx="177.26086"
     inkscape:cy="181.80171"
     inkscape:window-x="2306"
     inkscape:window-y="174"
     inkscape:current-layer="svg4613" />
  <metadata
     id="metadata4615">
Created by potrace 1.7, written by Peter Selinger 2001-2005
<rdf:RDF>
  <cc:Work
     rdf:about="">
    <dc:format>image/svg+xml</dc:format>
    <dc:type
       rdf:resource="http://purl.org/dc/dcmitype/StillImage" />
  </cc:Work>
</rdf:RDF>
</metadata>
  <path
     style="fill:#000000;stroke:none"
     id="path4619"
     d="M 138.5865,30.537 C 139.113,31.941 139.23,32.409 139.23,33.228 C 139.23,33.5205 140.751,34.047 142.623,34.4565 C 148.941,35.7435 164.9115,39.312 174.915,41.535 C 177.6645,42.1785 185.445,43.875 192.1725,45.3375 C 198.9585,46.8585 210.366,49.374 217.62,50.9535 C 224.874,52.533 232.479,54.2295 234.585,54.6975 C 252.4275,58.5585 251.784,58.383 257.868,62.478 C 259.9155,63.8235 261.6705,64.935 261.846,64.935 C 261.963,64.935 263.718,66.0465 265.7655,67.4505 C 267.7545,68.8545 269.802,70.2 270.27,70.434 C 271.6155,71.0775 273.1365,72.0135 277.056,74.646 C 278.9865,75.933 282.9645,78.039 285.831,79.209 C 288.6975,80.4375 292.0905,81.9585 293.436,82.5435 C 294.723,83.1285 295.9515,83.655 296.1855,83.655 C 296.4195,83.655 298.2915,84.4155 300.3975,85.41 C 302.5035,86.346 304.3755,87.165 304.4925,87.165 C 304.6095,87.165 306.423,87.9255 308.412,88.8615 C 310.4595,89.739 312.741,90.7335 313.56,90.9675 C 314.379,91.2015 315.9585,91.9035 317.07,92.4885 C 318.1815,93.132 319.41,93.6 319.761,93.6 C 320.1705,93.6 320.58,91.377 320.814,87.282 C 321.2235,81.315 321.984,77.0445 322.9785,75.7575 C 323.271,75.4065 323.622,73.944 323.856,72.54 C 324.3825,68.8545 327.015,63.765 328.302,63.765 C 328.887,63.765 329.355,63.3555 329.355,62.8875 C 329.355,62.4195 329.589,62.01 329.8815,62.01 C 330.174,62.01 330.642,61.4835 330.8175,60.84 C 330.993,60.1965 331.5195,59.67 331.8705,59.67 C 332.28,59.67 333.099,58.851 333.7425,57.915 C 334.386,56.9205 335.3805,55.9845 335.9655,55.809 C 336.5505,55.6335 336.9015,55.1655 336.7845,54.8145 C 336.609,54.3465 334.503,54.1125 329.8815,54.171 L 323.2125,54.2295 L 318.24,56.979 C 315.4905,58.4415 312.741,59.904 312.039,60.1965 C 311.3955,60.489 310.4595,61.074 309.9915,61.542 C 308.412,63.0045 306.54,63.765 303.9075,64.1745 C 302.445,64.35 301.275,64.7595 301.275,64.9935 C 301.275,65.286 300.222,65.52 298.8765,65.52 L 296.478,65.52 L 296.829,61.542 C 297.297,55.1655 297.8235,52.416 298.935,51.0705 C 299.52,50.31 300.1635,48.7305 300.3975,47.5605 C 300.6315,46.332 301.3335,44.8695 301.9185,44.2845 C 303.3225,42.939 303.0885,41.886 301.3335,41.652 C 299.8125,41.418 291.915,43.875 291.915,44.5185 C 291.915,44.811 290.979,45.162 289.8675,45.396 C 288.756,45.5715 287.6445,45.981 287.5275,46.2735 C 287.352,46.5075 285.6555,47.034 283.725,47.4435 C 281.7945,47.7945 279.396,48.7305 278.343,49.491 C 277.29,50.31 275.652,50.895 274.599,50.895 C 273.4875,50.895 272.4345,51.246 272.2005,51.7725 C 271.908,52.2405 270.387,52.8255 268.8075,53.001 C 267.1695,53.235 264.9465,54.054 263.835,54.8145 C 259.74,57.564 257.4,55.9845 258.921,51.4215 C 259.4475,50.0175 260.091,48.6135 260.3835,48.2625 C 260.676,47.97 260.91,47.151 260.91,46.449 C 260.91,45.8055 261.6705,44.4015 262.6065,43.4655 C 263.5425,42.471 264.4785,41.1255 264.654,40.482 C 264.888,39.8385 265.707,39.1365 266.4675,38.961 C 267.228,38.7855 268.3395,37.8495 268.866,36.9135 C 269.451,35.9775 270.5625,34.866 271.3815,34.398 C 272.2005,33.9885 273.546,32.9355 274.365,32.058 C 275.184,31.239 276.7635,30.2445 277.875,29.952 C 279.279,29.5425 256.8735,29.367 209.0205,29.3085 L 138.06,29.25 L 138.5865,30.537 z " />
  <path
     style="fill:#000000;stroke:none"
     id="path4621"
     d="M 122.265,37.323 C 122.265,37.8495 119.5155,39.195 114.9525,40.8915 C 111.384,42.237 110.331,42.6465 107.4645,43.8165 C 106.5285,44.1675 105.534,44.343 105.2415,44.1675 C 104.949,43.992 102.96,44.343 100.7955,44.9865 C 98.514,45.63 95.0625,46.098 92.7225,46.098 C 88.3935,46.098 85.995,46.566 85.995,47.4435 C 85.995,47.736 85.527,47.97 84.942,47.97 C 83.421,47.97 80.145,51.363 80.145,52.9425 C 80.145,54.5805 81.9,56.16 83.7135,56.16 C 84.474,56.16 85.878,56.5695 86.814,57.0375 C 88.7445,58.0905 89.739,58.149 91.143,57.33 C 92.8395,56.3355 95.589,55.3995 96.408,55.5165 C 96.759,55.575 97.11,55.3995 97.11,55.0485 C 97.11,54.756 98.514,53.82 100.2105,52.9425 C 105.5925,50.193 106.47,49.6665 106.47,49.0815 C 106.47,48.7305 106.821,48.555 107.2305,48.7305 C 107.5815,48.8475 108.576,48.4965 109.395,47.97 C 110.214,47.4435 111.7935,46.5075 112.905,45.981 C 114.0165,45.4545 115.6545,44.4015 116.532,43.5825 C 117.4095,42.7635 118.3455,42.12 118.638,42.12 C 118.989,42.12 119.34,41.7105 119.574,41.2425 C 119.7495,40.7745 120.276,40.365 120.6855,40.365 C 121.6215,40.365 123.435,38.493 123.435,37.557 C 123.435,37.1475 123.201,36.855 122.85,36.855 C 122.5575,36.855 122.265,37.0305 122.265,37.323 z " />
  <path
     style="fill:#000000;stroke:none"
     id="path4623"
     d="M 138.5865,41.1255 C 138.177,42.7635 137.5335,44.5185 137.0655,44.928 C 136.5975,45.396 136.071,46.5075 135.8955,47.4435 C 135.72,48.3795 135.252,49.14 134.901,49.14 C 134.4915,49.14 133.731,50.0175 133.2045,51.012 C 132.678,52.065 131.9175,53.4105 131.508,53.937 C 131.0985,54.4635 130.923,55.107 131.157,55.2825 C 131.5665,55.7505 134.082,54.405 134.7255,53.352 C 134.9595,53.001 135.5445,52.65 135.954,52.65 C 136.422,52.65 137.0655,52.2405 137.475,51.7725 C 137.8845,51.3045 138.7035,50.895 139.23,50.895 C 139.815,50.895 140.4,50.544 140.5755,50.1345 C 140.6925,49.7835 140.985,49.608 141.219,49.842 C 141.453,50.0175 141.219,51.948 140.6925,54.1125 C 140.166,56.2185 139.8735,58.617 140.049,59.3775 C 140.283,60.1965 140.166,60.84 139.932,60.84 C 139.6395,60.84 139.464,63.0045 139.5225,65.637 C 139.6395,70.4925 139.5225,70.902 136.305,77.22 C 136.071,77.7465 135.6615,79.2675 135.4275,80.6715 L 135.018,83.187 L 137.5335,82.836 C 138.9375,82.602 146.3085,81.783 153.855,81.0225 C 161.4015,80.2035 172.224,79.0335 177.84,78.39 C 208.26,75.0555 205.452,75.231 206.3295,76.401 C 206.739,76.986 207.09,77.805 207.09,78.2145 C 207.09,78.6825 208.3185,80.9055 209.898,83.187 C 211.419,85.4685 213.057,87.9255 213.525,88.6275 C 213.993,89.388 215.2215,91.377 216.2745,93.132 C 217.3275,94.887 218.7315,96.8175 219.375,97.4025 C 220.0185,97.9875 220.545,98.6895 220.545,98.9235 C 220.545,99.45 229.7295,113.841 230.958,115.245 C 232.128,116.649 236.34,123.435 236.34,123.9615 C 236.34,124.1955 236.9835,125.1315 237.8025,126.009 C 238.6215,126.8865 239.265,127.998 239.265,128.466 C 239.265,128.8755 239.499,129.285 239.7915,129.285 C 240.2595,129.285 241.488,131.04 244.2375,135.6615 C 244.5885,136.188 245.1735,137.007 245.583,137.475 C 245.9925,137.943 247.338,139.9905 248.625,141.9795 C 249.912,144.027 251.2575,145.665 251.667,145.665 C 252.0765,145.665 254.8845,146.835 257.8095,148.2975 C 265.239,151.866 266.4675,152.1 276.12,152.1 C 285.129,152.1 285.246,151.983 279.63,149.76 C 273.663,147.4785 272.7855,146.835 267.6375,140.868 C 264.7125,137.592 260.5005,132.8535 258.219,130.455 C 255.9375,128.0565 253.5975,125.3655 252.954,124.5465 C 252.369,123.669 248.976,119.808 245.4075,116.0055 C 241.8975,112.1445 237.5685,107.406 235.9305,105.417 C 233.0055,102.0825 232.128,99.918 233.3565,99.216 C 233.649,99.0405 245.7,97.929 260.091,96.8175 C 274.5405,95.706 289.3995,94.536 293.085,94.185 C 303.615,93.3075 302.445,92.8395 305.604,99.0405 C 307.0665,102.024 308.88,105.183 309.6405,106.0605 C 310.9275,107.64 310.986,107.64 315.783,107.289 L 320.58,106.8795 L 320.58,102.96 L 320.58,99.0405 L 314.028,96.2325 C 310.401,94.7115 306.3645,92.9565 305.019,92.3715 C 303.732,91.7865 302.5035,91.26 302.2695,91.26 C 302.0355,91.26 300.1635,90.441 298.0575,89.505 C 295.9515,88.5105 294.0795,87.75 293.9625,87.75 C 293.8455,87.75 291.9735,86.931 289.8675,85.995 C 287.7615,85.0005 285.8895,84.24 285.7725,84.24 C 284.895,84.24 277.173,80.3205 274.248,78.39 C 272.3175,77.103 270.6795,76.05 270.5625,76.05 C 270.4455,76.05 268.6905,74.9385 266.643,73.593 C 264.5955,72.189 262.4895,70.8435 261.963,70.4925 C 261.4365,70.2 259.0965,68.7375 256.815,67.275 C 249.561,62.712 248.391,62.127 245.9925,61.7175 C 244.7055,61.4835 242.073,60.957 240.1425,60.5475 C 238.212,60.0795 232.947,58.9095 228.4425,57.915 C 223.938,56.9205 218.0295,55.575 215.28,54.99 C 212.5305,54.3465 204.8085,52.65 198.0225,51.1875 C 191.295,49.6665 179.946,47.2095 172.8675,45.63 C 165.789,44.0505 155.6685,41.8275 150.345,40.6575 C 145.0215,39.546 140.4,38.493 139.9905,38.3175 C 139.581,38.2005 139.0545,39.312 138.5865,41.1255 z " />
  <path
     style="fill:#000000;stroke:none"
     id="path4625"
     d="M 414.18,46.098 C 413.0685,47.4435 407.16,50.31 405.4635,50.31 C 404.82,50.31 403.767,50.895 403.182,51.597 C 402.6555,52.299 401.31,53.7615 400.3155,54.8145 C 399.2625,55.8675 398.385,57.1545 398.385,57.6225 C 398.385,58.7925 395.2845,64.8765 394.6995,64.935 C 394.407,64.935 394.407,64.6425 394.5825,64.35 C 395.109,63.4725 374.517,63.648 373.113,64.5255 C 372.528,64.935 372.06,65.8125 372.06,66.5145 C 372.06,67.275 371.826,67.86 371.475,67.86 C 370.4805,67.86 366.21,69.849 366.21,70.317 C 366.21,70.6095 365.4495,70.785 364.455,70.785 C 363.285,70.785 362.466,71.253 361.7055,72.306 C 361.1205,73.1835 360.0675,74.4705 359.3655,75.2895 C 358.605,76.05 358.02,77.0445 358.02,77.5125 C 358.02,77.9805 357.2595,79.1505 356.265,80.028 C 355.329,80.964 354.51,82.0755 354.51,82.485 C 354.51,82.8945 353.457,84.708 352.2285,86.58 C 348.9525,91.377 346.905,95.6475 346.905,97.695 C 346.905,98.8065 346.6125,99.45 346.086,99.45 C 344.7405,99.45 344.3895,100.62 345.384,101.7315 C 345.9105,102.3165 346.32,103.3695 346.32,104.13 C 346.32,105.4755 346.3785,105.4755 351.468,105.1245 C 368.667,103.896 368.4915,103.896 368.901,105.066 C 369.3105,106.353 370.2465,108.5175 372.0015,112.3785 C 372.7035,113.841 373.23,115.245 373.23,115.479 C 373.23,115.8885 374.4585,118.5795 380.367,131.04 C 382.473,135.5445 383.175,137.124 385.281,142.2135 C 387.0945,146.5425 386.1,146.0745 394.875,147.2445 C 396.3375,147.42 398.034,148.0635 398.6775,148.6485 C 399.321,149.2335 400.959,149.877 402.3045,150.111 C 403.7085,150.2865 405.1125,150.8715 405.4635,151.281 C 405.8145,151.749 406.6335,152.1 407.277,152.1 C 407.862,152.1 409.2075,152.5095 410.1435,153.036 C 411.138,153.504 412.2495,153.7965 412.6005,153.6795 C 413.01,153.5625 414.297,153.9135 415.5255,154.557 C 418.2165,155.9025 418.392,155.5515 417.807,150.1695 L 417.3975,146.133 L 415.0575,145.2555 C 413.7705,144.7875 411.7815,144.261 410.67,144.0855 C 409.5585,143.91 408.3885,143.559 408.0375,143.3835 C 407.745,143.1495 406.2825,142.623 404.82,142.2135 C 400.023,140.8095 396.63,138.645 396.63,136.89 C 396.63,135.7785 394.875,133.965 393.822,133.965 C 392.1255,133.965 390.0195,132.3855 388.4985,129.9285 C 387.621,128.4075 386.0415,126.36 384.9885,125.3655 C 383.9355,124.3125 383.175,122.9085 383.175,122.0895 C 383.175,120.978 382.473,120.159 380.4255,118.8135 C 378.963,117.819 377.3835,117 376.9155,117 C 375.804,117 375.9795,116.532 377.91,114.66 C 378.9045,113.724 380.016,113.0805 380.4255,113.256 C 380.8935,113.4315 381.5955,113.139 382.005,112.6125 C 382.4145,112.1445 383.76,111.5595 384.9885,111.384 C 386.2755,111.15 387.27,110.799 387.27,110.5065 C 387.27,110.2725 388.908,110.1555 390.9555,110.331 L 394.5825,110.6235 L 396.513,106.5285 C 397.566,104.247 398.6775,102.375 398.97,102.375 C 399.321,102.375 399.555,101.8485 399.555,101.205 C 399.555,100.5615 399.789,100.035 400.14,100.035 C 400.9005,100.035 403.65,95.6475 403.65,94.4775 C 403.65,93.951 404.0595,93.4245 404.5275,93.1905 C 405.639,92.781 407.16,89.973 407.16,88.3935 C 407.16,87.633 407.8035,87.048 409.2075,86.58 C 410.436,86.1705 411.606,85.2345 412.1325,84.2985 C 412.542,83.421 413.946,81.666 415.116,80.496 C 416.754,78.858 417.105,78.156 416.5785,77.6295 C 416.052,77.103 415.6425,77.103 414.765,77.688 C 414.1215,78.039 412.425,78.39 410.904,78.39 L 408.213,78.39 L 408.447,70.434 C 408.6225,63.297 408.7395,62.361 409.7925,61.542 C 410.436,60.957 411.3135,59.3775 411.7815,57.915 C 413.127,53.2935 414.8235,49.959 416.1105,49.4325 C 416.754,49.0815 417.69,47.97 418.0995,46.917 L 418.86,45.045 L 416.988,45.045 C 415.8765,45.045 414.7065,45.513 414.18,46.098 z " />
  <path
     style="fill:#000000;stroke:none"
     id="path4627"
     d="M 19.2465,55.2825 C 19.188,55.575 19.071,56.4525 19.0125,57.213 C 18.954,57.9735 18.603,58.851 18.1935,59.2605 C 17.8425,59.6115 17.55,60.489 17.55,61.191 C 17.55,61.9515 17.2575,62.712 16.965,62.8875 C 16.614,63.1215 16.497,63.4725 16.6725,63.765 C 16.848,63.999 16.5555,64.5255 16.146,64.8765 C 15.444,65.4615 15.7365,65.988 17.784,67.9185 C 19.188,69.147 20.592,70.2 20.8845,70.2 C 21.177,70.2 21.996,70.7265 22.698,71.4285 C 23.985,72.5985 25.4475,72.4815 24.9795,71.1945 C 24.8625,70.785 25.2135,69.849 25.7985,69.0885 C 26.442,68.328 26.91,67.392 26.91,66.9825 C 26.91,66.573 27.261,65.9295 27.729,65.5785 C 28.197,65.169 28.782,63.999 29.016,63.0045 C 29.1915,61.9515 29.7765,59.9625 30.2445,58.5585 C 30.771,56.9205 30.888,55.809 30.537,55.458 C 29.7765,54.6975 19.305,54.522 19.2465,55.2825 z " />
  <path
     style="fill:#000000;stroke:none"
     id="path4629"
     d="M 104.598,72.891 C 104.3055,73.125 104.13,73.827 104.13,74.412 C 104.13,75.231 104.598,75.465 106.1775,75.465 C 107.523,75.465 108.81,75.9915 110.097,77.103 C 112.4955,79.092 116.0055,80.73 117.8775,80.73 C 119.106,80.73 119.34,80.4375 119.34,78.975 C 119.34,77.5125 118.8135,76.869 116.1225,75.114 C 113.4315,73.3005 112.2615,72.9495 108.9855,72.7155 C 106.7625,72.54 104.832,72.5985 104.598,72.891 z " />
  <path
     style="fill:#000000;stroke:none"
     id="path4631"
     d="M 74.88,80.613 C 74.88,80.847 76.1085,82.5435 77.688,84.2985 C 79.209,85.995 81.6075,88.9785 82.953,90.792 C 85.7025,94.536 86.8725,94.887 88.803,92.8395 C 91.3185,90.1485 90.4995,89.0955 82.485,84.6495 C 80.73,83.655 78.6825,82.251 77.922,81.4905 C 76.635,80.2035 74.88,79.677 74.88,80.613 z " />
  <path
     style="fill:#000000;stroke:none"
     id="path4633"
     d="M 187.2,84.006 C 182.52,84.474 168.363,85.7025 155.727,86.814 C 143.091,87.867 132.6195,88.92 132.444,89.0955 C 132.2685,89.2125 133.3215,91.026 134.7255,93.0735 C 136.1295,95.121 137.4165,97.227 137.6505,97.695 C 138.2355,98.8065 139.0545,100.152 141.8625,104.4225 C 143.1495,106.353 144.4365,108.4005 144.7875,108.927 C 145.08,109.4535 146.484,111.735 147.888,113.8995 C 149.292,116.064 150.696,118.404 151.1055,119.0475 C 151.515,119.691 152.7435,121.68 153.9135,123.435 C 155.025,125.2485 156.1365,127.062 156.429,127.53 C 157.248,129.285 162.5715,137.475 162.864,137.475 C 162.9225,137.475 164.034,135.954 165.321,134.082 C 166.5495,132.2685 167.7195,130.6305 167.895,130.455 C 168.0705,130.2795 169.2405,128.583 170.5275,126.6525 C 171.8145,124.722 173.1015,122.85 173.4525,122.5575 C 173.8035,122.2065 175.3245,120.1005 176.904,117.8775 C 178.425,115.596 180.8235,112.203 182.2275,110.2725 C 183.69,108.342 185.796,105.3 186.966,103.545 C 188.136,101.79 189.423,100.035 189.774,99.7425 C 190.1835,99.3915 191.1195,98.1045 191.88,96.8175 C 192.6405,95.5305 194.805,92.3715 196.7355,89.856 C 201.825,82.8945 201.825,83.07 198.4905,83.1285 C 196.9695,83.187 191.88,83.5965 187.2,84.006 z " />
  <path
     style="fill:#000000;stroke:none"
     id="path4635"
     d="M 127.296,93.834 C 126.7695,94.887 125.541,96.642 124.605,97.7535 C 123.6105,98.8065 122.85,100.035 122.85,100.386 C 122.85,100.6785 121.797,101.907 120.51,103.0185 C 119.223,104.13 117.468,105.5925 116.649,106.2945 C 115.83,107.055 114.8355,107.64 114.4845,107.64 C 114.075,107.64 112.905,108.4005 111.852,109.395 C 110.799,110.331 109.4535,111.15 108.81,111.15 C 107.289,111.15 102.726,116.1225 103.3695,117.1755 C 104.0715,118.287 109.5705,125.4825 109.9215,125.775 C 110.1555,125.9505 110.9745,127.0035 111.735,128.115 C 112.437,129.2265 113.373,130.3965 113.7825,130.7475 C 114.1335,131.04 115.5375,132.795 116.9415,134.667 C 119.6325,138.294 118.9305,137.8845 133.497,143.3835 L 142.6815,146.835 L 152.6265,146.835 C 158.1255,146.835 162.63,146.6595 162.5715,146.367 C 162.5715,146.133 161.4015,144.378 159.9975,142.4475 C 158.535,140.517 156.9555,138.0015 156.3705,136.89 C 155.844,135.7785 154.7325,133.7895 153.9135,132.5025 C 151.632,128.8755 150.9885,127.881 150.579,126.945 C 150.345,126.477 149.5845,125.2485 148.8825,124.3125 C 148.1805,123.318 147.42,122.148 147.186,121.68 C 146.6595,120.51 145.8405,119.1645 143.0325,114.9525 C 140.283,110.7405 139.4055,109.395 138.879,108.225 C 138.645,107.757 137.358,105.768 136.071,103.8375 C 132.678,98.748 132.2685,98.1045 131.8005,97.11 C 131.5665,96.642 130.689,95.2965 129.87,94.068 L 128.349,91.962 L 127.296,93.834 z " />
  <path
     style="fill:#000000;stroke:none"
     id="path4637"
     d="M 202.5855,98.397 C 201.357,100.0935 199.7775,102.5505 199.017,103.8375 C 198.2565,105.1245 197.262,106.587 196.794,107.055 C 196.2675,107.523 194.8635,109.512 193.5765,111.4425 C 185.796,123.1425 184.0995,125.4825 183.6315,125.658 C 183.339,125.775 183.105,126.243 183.105,126.6525 C 183.105,127.062 182.6955,127.53 182.2275,127.764 C 181.7595,127.9395 181.35,128.349 181.35,128.6415 C 181.35,129.285 177.723,134.784 176.3775,136.071 C 175.9095,136.5975 174.915,138.06 174.2715,139.2885 L 173.1015,141.57 L 175.9095,142.7985 C 177.4305,143.5005 180.18,144.6705 181.935,145.3725 L 185.1525,146.718 L 185.1525,150.462 L 185.1525,154.1475 L 183.2805,154.323 C 181.5255,154.4985 181.35,154.674 181.35,156.4875 L 181.35,158.418 L 191.4705,158.769 C 196.9695,158.9445 213.8175,159.237 228.9105,159.4125 L 256.23,159.705 L 256.23,157.0725 C 256.23,155.025 255.996,154.323 255.2355,154.0305 C 254.124,153.6795 250.7895,152.217 246.753,150.345 C 245.349,149.76 243.126,148.824 241.722,148.356 C 240.3765,147.8295 238.5045,146.601 237.627,145.6065 C 236.106,143.793 232.83,138.8205 232.83,138.3525 C 232.83,138.2355 231.8355,136.5975 230.5485,134.7255 C 229.32,132.8535 227.799,130.3965 227.214,129.285 C 226.5705,128.1735 225.108,125.7165 223.8795,123.786 C 222.651,121.914 221.1885,119.574 220.662,118.521 C 220.077,117.5265 218.673,115.1865 217.4445,113.3145 C 216.2745,111.501 215.28,109.863 215.28,109.746 C 215.28,109.5705 214.2855,107.9325 213.057,106.0605 C 211.8285,104.1885 210.6,102.258 210.366,101.79 C 208.962,98.748 206.4465,95.355 205.6275,95.355 C 205.218,95.355 203.8725,96.759 202.5855,98.397 z " />
  <path
     style="fill:#000000;stroke:none"
     id="path4639"
     d="M 273.195,100.6785 C 259.506,101.556 246.5775,102.3165 244.413,102.3165 C 242.19,102.375 240.435,102.609 240.435,102.9015 C 240.435,103.7205 242.541,106.2945 249.795,114.192 C 253.4805,118.2285 259.0965,124.4295 262.197,127.9395 C 265.2975,131.391 269.6265,136.2465 271.791,138.645 C 273.897,141.0435 275.886,143.091 276.0615,143.208 C 276.2955,143.2665 276.9975,142.2135 277.6995,140.868 C 279.63,136.8315 284.6025,127.413 285.948,125.19 C 287.352,122.9085 288.405,120.9195 293.4945,111.15 C 295.3665,107.4645 297.3555,103.779 297.882,102.96 C 299.286,100.737 299.754,98.865 298.818,98.9235 C 298.4085,98.982 286.884,99.7425 273.195,100.6785 z " />
  <path
     style="fill:#000000;stroke:none"
     id="path4641"
     d="M 59.787,105.7095 C 59.085,106.5285 58.5,107.406 58.5,107.64 C 58.5,107.9325 57.564,108.6345 56.394,109.161 C 55.224,109.6875 53.7615,110.916 53.0595,111.852 C 52.299,112.905 51.3045,113.49 50.3685,113.49 C 49.5495,113.49 48.321,113.8995 47.736,114.3675 C 47.0925,114.8355 46.098,115.245 45.513,115.245 C 44.928,115.245 44.46,115.5375 44.46,115.8885 C 44.46,116.298 43.6995,116.415 42.237,116.1225 C 40.482,115.83 39.8385,116.0055 38.961,116.9415 C 37.908,118.053 37.9665,118.17 39.195,119.8665 C 39.897,120.861 40.716,121.68 41.0085,121.68 C 41.301,121.68 41.535,122.031 41.535,122.4405 C 41.535,123.201 43.875,124.605 45.1035,124.605 C 46.1565,124.605 50.661,122.3235 51.48,121.3875 C 51.8895,120.9195 52.533,120.51 52.9425,120.51 C 53.4105,120.51 53.82,120.3345 53.937,120.042 C 54.171,119.457 58.3245,116.415 58.9095,116.415 C 60.138,116.3565 61.542,113.139 61.776,110.097 C 61.893,108.2835 62.127,106.353 62.3025,105.8265 C 62.829,104.247 61.191,104.13 59.787,105.7095 z " />
  <path
     style="fill:#000000;stroke:none"
     id="path4643"
     d="M 354.51,109.044 L 344.8575,109.6875 L 344.682,111.6765 C 344.565,112.788 344.682,113.841 344.9745,114.0165 C 345.7935,114.6015 346.905,118.4625 346.905,120.6855 C 346.905,122.616 346.7295,122.85 345.4425,122.85 C 343.8045,122.85 341.406,120.8025 341.9325,119.925 C 342.1665,119.574 341.991,119.34 341.6985,119.34 C 341.3475,119.34 341.055,118.8135 341.055,118.2285 C 341.055,117.585 340.704,116.7075 340.353,116.298 C 339.9435,115.8885 339.0075,114.2505 338.247,112.671 C 337.1355,110.2725 336.726,109.9215 335.6145,110.214 C 334.9125,110.3895 333.2745,110.565 331.929,110.565 L 329.589,110.565 L 330.1155,114.777 C 330.408,117.117 330.876,119.2815 331.1685,119.574 C 331.461,119.925 331.695,120.861 331.695,121.68 C 331.695,122.499 332.1045,123.7275 332.5725,124.371 C 333.0405,124.956 333.45,126.36 333.45,127.3545 C 333.45,129.2265 333.3915,129.285 331.11,129.285 C 328.419,129.285 326.079,127.3545 325.494,124.6635 C 324.558,120.276 323.2125,116.415 322.569,116.415 C 322.218,116.415 321.5745,115.245 321.2235,113.7825 C 320.5215,110.916 319.995,110.7405 315.198,111.618 C 313.0335,112.0275 313.0335,112.086 313.8525,113.49 C 314.262,114.309 315.081,115.713 315.549,116.7075 C 316.0755,117.6435 317.2455,119.7495 318.24,121.3875 C 319.176,122.967 320.346,125.19 320.814,126.243 C 321.282,127.296 322.1595,128.2905 322.7445,128.466 C 324.792,129.168 326.781,130.221 330.174,132.5025 C 332.046,133.7895 334.035,135.0765 334.503,135.4275 C 335.0295,135.72 337.1355,137.124 339.183,138.4695 C 341.2305,139.8735 343.1025,140.985 343.3365,140.985 C 343.5705,140.985 344.2725,141.5115 344.8575,142.155 C 345.4425,142.7985 346.1445,143.325 346.437,143.325 C 346.7295,143.325 347.724,143.91 348.7185,144.612 L 350.4735,145.9575 L 351.585,144.495 C 352.17,143.7345 352.8135,142.3305 352.989,141.3945 C 353.1645,140.517 354.1005,138.06 355.095,135.954 C 356.031,133.848 356.85,131.859 356.85,131.508 C 356.85,131.157 357.4935,129.519 358.254,127.881 C 359.073,126.243 360.7695,122.265 362.115,119.0475 C 363.402,115.83 364.8645,112.32 365.3325,111.267 C 366.444,108.81 366.444,108.225 365.2155,108.342 C 364.6305,108.4005 359.8335,108.693 354.51,109.044 z " />
  <path
     style="fill:#000000;stroke:none"
     id="path4645"
     d="M 296.478,118.3455 C 290.511,130.221 285.597,139.698 284.31,141.8625 C 282.204,145.431 282.2625,145.8405 285.948,147.5955 C 287.7615,148.473 290.628,149.7015 292.2075,150.2865 C 294.7815,151.281 295.1325,151.632 295.308,153.2115 C 295.4835,154.791 295.2495,155.142 293.7285,155.6685 C 292.5,156.1365 291.8565,156.78 291.6225,158.0085 C 291.3885,159.003 291.33,159.8805 291.447,159.9975 C 291.564,160.1145 301.626,160.29 313.8525,160.3485 L 336.0825,160.4655 L 336.4335,158.769 C 337.1355,155.727 336.96,155.0835 335.673,154.7325 C 334.9125,154.4985 333.567,153.972 332.5725,153.5625 C 331.6365,153.0945 329.121,152.1585 327.132,151.4565 C 325.026,150.696 323.271,149.76 323.154,149.2335 C 322.803,147.9465 317.07,136.656 315.6075,134.316 C 315.0225,133.3215 313.7355,131.04 312.7995,129.285 C 311.8635,127.53 310.6935,125.424 310.2255,124.605 C 306.423,117.936 303.966,113.4315 303.147,111.618 C 302.6205,110.3895 301.9185,109.395 301.5675,109.4535 C 301.275,109.4535 298.9935,113.4315 296.478,118.3455 z " />
  <path
     style="fill:#000000;stroke:none"
     id="path4647"
     d="M 18.135,123.1425 C 17.7255,123.6105 17.0235,124.02 16.614,124.02 C 15.7365,124.02 15.561,124.722 16.263,125.424 C 16.497,125.658 16.731,126.828 16.7895,127.998 C 16.965,131.6835 17.3745,133.614 18.018,133.848 C 19.188,134.199 21.645,131.4495 21.9375,129.3435 C 22.1715,128.1735 22.4055,126.711 22.5225,126.009 C 22.815,124.722 20.943,122.265 19.656,122.265 C 19.188,122.265 18.5445,122.6745 18.135,123.1425 z " />
  <path
     style="fill:#000000;stroke:none"
     id="path4649"
     d="M 367.9065,126.7695 C 367.497,127.647 366.444,130.104 365.4495,132.21 C 363.4605,136.656 362.817,138.177 360.6525,143.325 C 359.775,145.431 358.839,147.537 358.605,148.0635 C 358.254,148.7655 358.488,148.9995 359.658,148.9995 C 360.5355,148.9995 362.1735,149.175 363.402,149.409 C 364.8645,149.643 365.742,149.526 366.327,148.9995 C 367.5555,147.7125 369.72,147.2445 372.996,147.3615 C 375.102,147.4785 376.272,147.186 377.208,146.4255 C 378.4365,145.431 378.4365,145.2555 377.6175,143.676 C 377.1495,142.7985 376.74,141.687 376.74,141.2775 C 376.74,140.8095 376.389,139.7565 375.921,138.8205 C 375.5115,137.943 374.751,136.2465 374.283,135.135 C 373.7565,134.0235 373.113,132.444 372.762,131.625 C 372.3525,130.806 371.7675,129.1095 371.358,127.8225 C 370.422,124.956 368.8425,124.4295 367.9065,126.7695 z " />
  <path
     style="fill:#000000;stroke:none"
     id="path4651"
     d="M 90.3825,128.4075 C 89.739,129.2265 88.8615,129.87 88.5105,129.87 C 88.101,129.87 87.75,130.104 87.75,130.455 C 87.75,130.7475 87.2235,131.04 86.58,131.04 C 85.9365,131.04 85.41,131.274 85.41,131.508 C 85.41,131.8005 84.7665,132.327 84.006,132.678 C 82.5435,133.3215 80.847,137.2995 81.0225,139.6395 C 81.081,140.4 80.964,140.985 80.7885,140.985 C 80.379,140.985 78.975,146.484 78.975,148.005 C 78.975,148.473 78.4485,149.526 77.805,150.345 C 77.1615,151.164 76.635,152.217 76.635,152.7435 C 76.635,153.27 76.2255,154.4985 75.7575,155.376 L 74.88,157.0725 L 87.633,157.4235 C 94.5945,157.6575 105.5925,157.833 111.969,157.8915 L 123.6105,157.95 L 123.2595,153.738 C 122.967,150.579 122.616,149.2335 121.68,148.356 C 121.0365,147.654 116.2395,145.4895 110.9745,143.559 L 101.4975,139.932 L 97.578,134.784 C 95.472,131.9175 93.249,128.9925 92.6055,128.2905 L 91.5525,127.0035 L 90.3825,128.4075 z " />
  <path
     style="fill:#000000;stroke:none"
     id="path4653"
     d="M 326.43,136.2465 C 326.43,136.539 326.781,137.1825 327.249,137.592 C 327.6585,138.06 329.004,140.3415 330.2325,142.6815 C 332.514,147.069 334.62,149.526 336.6675,150.111 C 337.311,150.345 338.598,150.9885 339.4755,151.632 C 340.6455,152.451 342.459,152.919 345.735,153.0945 C 352.053,153.5625 352.9305,153.0945 350.064,151.047 C 348.777,150.111 347.373,149.2335 346.905,148.9995 C 345.9105,148.5315 344.331,147.4785 339.3,144.027 C 337.311,142.6815 335.556,141.57 335.439,141.57 C 335.322,141.57 333.567,140.4585 331.5195,139.0545 C 326.781,135.72 326.43,135.5445 326.43,136.2465 z " />
  <path
     style="fill:#000000;stroke:none"
     id="path4655"
     d="M 12.87,140.985 C 12.87,141.6285 13.0455,142.0965 13.338,142.038 C 13.923,141.921 15.912,142.7985 16.965,143.6175 C 17.433,144.027 18.72,144.495 19.773,144.729 C 20.8845,144.9045 22.464,145.6065 23.4,146.25 C 24.2775,146.8935 25.389,147.42 25.857,147.42 C 26.2665,147.42 27.261,147.9465 28.08,148.59 C 28.899,149.2335 29.8935,149.76 30.303,149.76 C 30.771,149.76 31.824,150.2865 32.76,150.93 C 33.6375,151.5735 34.515,151.9245 34.749,151.6905 C 34.9245,151.515 35.1,151.632 35.1,151.983 C 35.1,152.3925 35.6265,152.685 36.27,152.685 C 36.9135,152.685 37.9665,153.036 38.61,153.387 C 39.4875,153.972 39.897,153.972 40.482,153.387 C 41.1255,152.7435 41.067,152.451 40.131,151.8075 C 39.546,151.3395 39.2535,150.7545 39.4875,150.4035 C 39.663,150.0525 39.195,149.1165 38.376,148.2975 C 37.4985,147.4785 36.855,146.601 36.855,146.367 C 36.855,145.7235 28.782,143.7345 25.155,143.442 C 23.4,143.325 21.645,142.974 21.2355,142.623 C 20.826,142.3305 20.007,142.2135 19.422,142.389 C 18.7785,142.623 18.018,142.389 17.55,141.8625 C 17.1405,141.3945 16.3215,140.985 15.7365,140.985 C 15.093,140.985 14.625,140.6925 14.625,140.4 C 14.625,140.049 14.2155,139.815 13.7475,139.815 C 13.2795,139.815 12.87,140.3415 12.87,140.985 z " />
  <path
     style="fill:#000000;stroke:none"
     id="path4657"
     d="M 73.71,164.736 C 73.71,164.9115 74.178,165.789 74.8215,166.608 C 75.4065,167.4855 76.1085,168.831 76.3425,169.65 C 76.5765,170.469 77.22,171.756 77.7465,172.575 C 78.3315,173.394 78.7995,174.681 78.858,175.4415 C 78.858,176.2605 79.326,177.138 79.8525,177.372 C 80.3205,177.6645 80.73,178.308 80.73,178.776 C 80.73,179.244 81.2565,180.5895 81.9,181.7595 C 82.5435,182.988 83.07,184.6845 83.07,185.562 C 83.07,186.4395 83.421,187.3755 83.889,187.6095 C 84.2985,187.8435 84.7665,188.4285 84.8835,188.838 C 85.059,189.306 85.761,188.955 87.048,187.785 C 88.101,186.849 89.6805,185.8545 90.4995,185.679 C 91.9035,185.328 92.0205,185.3865 91.6695,186.6735 C 91.4355,187.434 91.26,188.8965 91.26,189.9495 C 91.26,190.944 90.909,192.1725 90.558,192.582 C 89.622,193.5765 88.2765,197.379 87.9255,200.0115 C 87.75,201.1815 87.4575,202.2345 87.2235,202.41 C 86.9895,202.5855 86.7555,203.931 86.7555,205.452 C 86.697,207.207 86.1705,209.079 85.176,210.717 C 84.357,212.0625 83.1285,214.4025 82.368,215.8065 C 81.666,217.2105 80.73,218.4975 80.3205,218.6145 C 79.911,218.79 79.56,219.258 79.56,219.726 C 79.56,220.1355 79.209,220.7205 78.741,220.9545 C 78.3315,221.1885 77.1615,222.5925 76.167,224.055 C 75.231,225.5175 73.476,227.682 72.306,228.852 C 71.136,230.022 70.2,231.2505 70.2,231.543 C 70.2,231.8355 69.4395,232.83 68.445,233.766 C 67.509,234.702 66.69,235.8135 66.69,236.1645 C 66.69,236.574 66.456,236.925 66.1635,236.925 C 65.871,236.925 65.2275,237.627 64.6425,238.446 C 63.8235,239.733 63.765,240.084 64.5255,241.1955 C 65.169,242.2485 65.2275,243.3015 64.8765,246.285 C 64.5255,248.8005 64.5255,250.6725 64.9935,251.9595 C 65.3445,253.071 65.4615,254.358 65.286,254.8845 C 65.052,255.3525 65.169,256.113 65.52,256.5225 C 65.9295,257.049 65.988,257.4 65.5785,257.634 C 65.2275,257.868 65.169,258.5115 65.4615,259.3305 C 65.988,260.676 64.9935,266.175 64.233,266.175 C 63.999,266.175 63.999,267.111 64.1745,268.2225 C 64.4085,269.568 64.2915,270.27 63.8235,270.27 C 63.4725,270.27 63.18,270.7965 63.18,271.44 C 63.18,272.2005 62.1855,273.312 60.5475,274.482 C 59.085,275.535 57.915,276.5295 57.915,276.822 C 57.915,277.056 57.447,277.29 56.8035,277.29 C 56.2185,277.29 55.3995,277.6995 54.99,278.1675 C 54.5805,278.6355 53.937,279.045 53.5275,279.045 C 53.0595,279.045 52.65,279.279 52.533,279.513 C 52.2405,280.2735 47.97,282.555 46.8,282.555 C 45.1035,282.555 43.875,283.1985 43.875,284.076 C 43.875,285.3045 46.098,285.129 68.0355,282.204 C 79.0335,280.7415 91.4355,279.1035 95.6475,278.5185 L 103.2525,277.524 L 103.662,275.2425 C 103.896,273.9555 104.0715,248.508 104.0715,218.6145 L 104.13,164.385 L 88.92,164.385 C 80.5545,164.385 73.71,164.5605 73.71,164.736 z " />
  <path
     style="fill:#000000;stroke:none"
     id="path4659"
     d="M 108.342,220.311 C 108.459,250.965 108.6345,276.1785 108.81,276.2955 C 108.9855,276.471 111.5595,276.2955 114.543,276.003 C 118.872,275.4765 119.925,275.184 119.925,274.4235 C 119.925,269.5095 116.9415,191.2365 116.649,188.3115 C 116.298,184.509 116.3565,184.3335 117.819,183.3975 C 119.457,182.3445 120.861,182.3445 130.923,183.573 L 134.55,184.041 L 134.55,174.1545 L 134.55,164.3265 L 121.3875,164.502 L 108.225,164.6775 L 108.342,220.311 z " />
  <path
     style="fill:#000000;stroke:none"
     id="path4661"
     d="M 138.645,174.33 C 138.645,181.818 138.8205,184.392 139.4055,184.5675 C 139.7565,184.6845 145.1385,185.211 151.2225,185.7375 C 157.365,186.2055 163.332,186.7905 164.5605,186.9075 L 166.725,187.2 L 166.725,175.7925 L 166.725,164.385 L 152.685,164.385 L 138.645,164.385 L 138.645,174.33 z " />
  <path
     style="fill:#000000;stroke:none"
     id="path4663"
     d="M 170.82,175.734 L 170.82,187.1415 L 173.3355,187.434 C 181.8765,188.487 218.7315,189.54 232.128,189.072 L 241.605,188.7795 L 241.605,176.6115 L 241.605,164.385 L 206.2125,164.385 L 170.82,164.385 L 170.82,175.734 z " />
  <path
     style="fill:#000000;stroke:none"
     id="path4665"
     d="M 245.7,176.7285 L 245.7,189.1305 L 249.2685,188.721 C 251.2575,188.5455 254.4165,188.37 256.2885,188.37 L 259.74,188.37 L 259.74,176.3775 L 259.74,164.385 L 252.72,164.385 L 245.7,164.385 L 245.7,176.7285 z " />
  <path
     style="fill:#000000;stroke:none"
     id="path4667"
     d="M 263.835,176.085 L 263.835,187.785 L 267.5205,187.785 C 273.4875,187.785 317.187,184.8015 323.973,183.924 L 326.43,183.6315 L 326.43,173.979 L 326.43,164.385 L 295.1325,164.385 L 263.835,164.385 L 263.835,176.085 z " />
  <path
     style="fill:#000000;stroke:none"
     id="path4669"
     d="M 330.525,171.405 C 330.525,179.4195 331.227,180.4725 333.3915,175.5585 C 334.035,173.979 335.673,171.639 336.96,170.2935 C 338.6565,168.597 339.3,167.427 339.3,166.14 L 339.3,164.385 L 334.9125,164.385 L 330.525,164.385 L 330.525,171.405 z " />
  <path
     style="fill:#000000;stroke:none"
     id="path4671"
     d="M 368.199,176.085 C 367.5555,176.319 363.6945,176.67 359.5995,176.787 C 355.446,176.9625 351.936,177.3135 351.468,177.723 C 351.0585,178.074 349.3035,178.425 347.607,178.542 C 344.7405,178.7175 344.565,178.776 344.565,180.297 C 344.565,181.8765 344.6235,181.8765 347.8995,181.8765 C 350.8245,181.818 351.4095,181.9935 352.5795,183.339 C 353.808,184.8015 353.925,185.5035 353.925,191.295 C 353.925,196.5015 354.1005,197.613 354.744,197.379 C 355.1535,197.2035 355.9725,195.975 356.499,194.6295 C 358.137,190.593 361.1205,184.86 361.647,184.86 C 362.466,184.86 366.444,181.8765 367.848,180.18 C 368.667,179.1855 369.8955,178.425 370.656,178.425 C 372.411,178.425 374.2245,176.67 373.113,176.0265 C 372.177,175.383 369.7785,175.4415 368.199,176.085 z " />
  <path
     style="fill:#000000;stroke:none"
     id="path4673"
     d="M 35.1,186.147 C 33.9885,186.498 30.654,186.9075 27.6705,187.1415 C 22.932,187.434 22.113,187.668 20.6505,189.0135 C 18.369,191.178 16.7895,191.88 14.391,191.88 C 12.4605,191.88 12.285,192.0555 12.285,193.4595 C 12.285,194.3955 12.4605,195.741 12.6945,196.5015 C 13.0455,197.7885 13.221,197.847 16.614,197.5545 C 18.603,197.379 22.932,196.3845 26.325,195.39 C 29.718,194.337 33.696,193.3425 35.2755,193.167 C 38.961,192.6405 41.652,190.1835 41.418,187.551 C 41.2425,185.913 41.0085,185.7375 39.195,185.6205 C 38.0835,185.562 36.2115,185.796 35.1,186.147 z " />
  <path
     style="fill:#000000;stroke:none"
     id="path4675"
     d="M 381.654,191.529 C 381.4785,191.997 380.718,192.5235 379.9575,192.699 C 379.197,192.8745 378.378,193.5765 378.2025,194.22 C 377.9685,194.8635 377.0325,195.7995 376.0965,196.2675 C 375.1605,196.794 374.4,197.4375 374.4,197.73 C 374.4,198.081 373.7565,198.666 372.9375,199.017 C 372.1185,199.368 371.475,200.0115 371.475,200.4795 C 371.475,200.889 370.9485,201.24 370.305,201.24 C 369.72,201.24 368.9595,201.591 368.7255,202.0005 C 368.4915,202.3515 367.5555,203.0535 366.678,203.5215 C 365.742,203.9895 365.04,204.6915 365.04,205.1595 C 365.04,205.569 364.5135,205.92 363.87,205.92 C 363.2265,205.92 362.7,206.154 362.7,206.505 C 362.7,206.7975 362.2905,207.09 361.8225,207.09 C 361.3545,207.09 360.945,207.324 360.945,207.675 C 360.945,207.9675 359.658,208.377 358.02,208.611 C 353.2815,209.2545 353.3985,208.728 352.9305,227.799 L 352.5795,244.647 L 354.5685,244.296 C 355.68,244.1205 358.6635,243.711 361.2375,243.4185 C 372.2355,241.956 379.4895,240.9615 381.303,240.669 L 383.175,240.3765 L 383.175,229.6125 C 383.175,218.7315 382.824,216.918 381.2445,220.3695 C 380.8935,221.3055 380.4255,222.1245 380.1915,222.3 C 380.016,222.4755 379.665,223.821 379.431,225.342 C 379.197,226.9215 378.7875,228.15 378.5535,228.15 C 378.3195,228.15 377.7345,228.7935 377.325,229.6125 C 376.6815,230.841 376.0965,231.075 373.9905,231.075 C 371.592,231.075 371.475,230.958 371.475,229.437 C 371.475,228.501 371.8845,226.98 372.294,226.044 C 373.23,224.2305 374.4585,218.3805 374.517,215.6895 C 374.5755,214.812 374.8095,214.11 375.0435,214.11 C 375.336,214.11 375.57,213.5835 375.57,212.94 C 375.57,211.536 376.5645,209.781 378.378,207.909 C 379.08,207.1485 379.665,206.037 379.665,205.335 C 379.665,204.5745 380.0745,204.165 380.835,204.165 C 381.7125,204.165 382.005,203.7555 382.005,202.761 C 382.005,201.942 382.2975,201.123 382.59,200.9475 C 383.3505,200.4795 383.3505,190.71 382.59,190.71 C 382.239,190.71 381.8295,191.061 381.654,191.529 z " />
  <path
     style="fill:#000000;stroke:none"
     id="path4677"
     d="M 411.84,204.282 C 410.3775,204.984 409.149,205.803 409.032,206.037 C 408.915,206.271 408.33,206.505 407.6865,206.505 C 405.99,206.505 400.6665,211.3605 398.5605,214.812 C 397.566,216.3915 396.513,217.0935 393.588,218.205 C 392.4765,218.556 391.95,219.1995 391.95,219.96 C 391.95,221.7735 390.429,223.0605 388.7325,222.7095 L 387.27,222.4755 L 387.27,233.2395 C 387.27,241.3125 387.0945,244.062 386.568,244.2375 C 386.1585,244.413 378.3195,245.583 369.1935,246.87 C 360.0675,248.157 352.521,249.2685 352.4625,249.327 C 352.3455,249.561 348.0165,420.381 348.1335,422.37 C 348.192,423.657 348.2505,423.657 348.7185,421.9605 C 349.011,420.9075 349.7715,419.796 350.415,419.445 C 351.0585,419.094 351.585,418.392 351.585,417.924 C 351.585,417.3975 351.9945,416.637 352.4625,416.169 C 352.9305,415.701 353.1645,414.999 352.989,414.5895 C 352.872,414.18 353.574,412.893 354.6855,411.7815 C 357.2595,409.149 359.775,403.7085 359.775,400.7835 C 359.775,399.4965 360.0675,398.268 360.36,398.0925 C 360.711,397.917 360.945,397.098 360.945,396.3375 C 360.945,395.577 361.413,394.641 361.998,394.3485 C 362.5245,393.9975 362.6415,393.705 362.2905,393.705 C 361.881,393.705 361.53,393.4125 361.53,393.12 C 361.53,392.769 361.881,392.535 362.2905,392.535 C 363.051,392.4765 365.04,388.6155 365.04,387.036 C 365.04,386.5095 365.391,385.9245 365.859,385.749 C 366.327,385.5735 366.795,384.696 366.9705,383.8185 C 367.146,382.8825 367.731,381.7125 368.2575,381.2445 C 368.7255,380.718 369.135,379.9575 369.135,379.431 C 369.135,378.963 369.6615,378.261 370.305,377.91 C 370.9485,377.559 371.475,376.9155 371.475,376.4475 C 371.475,375.9795 371.709,375.57 372.0015,375.57 C 372.528,375.57 374.517,374.049 377.1495,371.592 C 377.91,370.89 379.0215,370.305 379.665,370.305 C 380.25,370.305 380.835,370.071 380.952,369.837 C 381.303,368.9595 389.9025,365.04 391.365,365.04 C 392.769,365.04 396.1035,364.0455 402.363,361.764 C 404.0595,361.1205 404.82,360.477 404.82,359.775 C 404.82,359.19 405.2295,358.3125 405.6975,357.786 C 406.1655,357.318 406.575,356.4405 406.575,355.8555 C 406.575,354.1005 409.968,350.415 411.606,350.415 C 412.425,350.415 413.01,350.064 413.01,349.596 C 413.01,349.128 414.0045,348.1335 415.233,347.4315 C 416.403,346.671 417.6315,345.735 417.8655,345.3255 C 418.0995,344.916 418.86,344.565 419.445,344.565 C 420.0885,344.565 420.615,344.1555 420.615,343.6875 C 420.615,342.8685 421.9605,342.5175 424.359,342.7515 C 426.0555,342.8685 427.518,344.448 427.986,346.4955 C 428.1615,347.49 428.7465,348.66 429.156,349.128 C 429.624,349.5375 429.975,350.532 429.975,351.2925 C 429.975,352.053 430.2675,352.755 430.6185,352.872 C 430.9695,352.989 431.379,354.393 431.5545,355.9725 C 432.0225,359.9505 432.4905,360.477 434.9475,359.424 C 436.059,358.956 437.1705,358.605 437.463,358.605 C 438.2235,358.605 441.675,361.881 441.675,362.583 C 441.675,362.9925 441.909,363.285 442.2015,363.285 C 443.079,363.285 444.015,366.795 444.015,370.071 C 444.015,373.698 444.6585,374.166 447.408,372.528 C 449.3385,371.358 450.6255,371.2995 455.598,372.3525 L 457.47,372.762 L 457.47,355.7385 C 457.47,339.768 457.4115,338.6565 456.4755,338.832 C 455.8905,338.949 455.1885,339.885 454.8375,340.938 C 454.311,342.81 452.673,343.512 451.9125,342.1665 C 451.2105,341.1135 451.2105,336.6675 451.854,336.258 C 452.1465,336.024 452.556,333.2745 452.673,330.1155 C 452.79,326.9565 453.141,324.1485 453.4335,323.856 C 453.726,323.505 453.96,322.803 453.96,322.218 C 453.96,320.7555 456.183,316.485 456.885,316.485 C 457.236,316.485 457.47,312.9165 457.4115,307.242 C 457.353,299.988 457.236,298.4085 456.7095,299.637 C 455.481,302.7375 454.779,301.392 455.0715,296.5365 C 455.247,293.787 454.3695,293.2605 452.2635,294.7815 C 451.3275,295.4835 450.2745,296.01 449.982,296.01 C 448.8705,296.01 445.77,298.0575 445.77,298.818 C 445.77,299.2275 445.0095,299.6955 444.015,299.871 C 443.079,300.105 441.9675,300.6315 441.6165,301.041 C 441.2655,301.509 440.6805,301.86 440.388,301.86 C 440.0955,301.86 438.75,302.913 437.463,304.2 C 435.7665,305.7795 434.4795,306.54 433.368,306.54 C 432.432,306.54 431.5545,306.9495 431.379,307.4175 C 431.0865,308.061 429.975,308.295 426.6405,308.295 L 422.253,308.295 L 422.487,304.3755 C 422.604,302.094 423.0135,300.3975 423.423,300.222 C 423.8325,300.105 424.125,299.52 424.125,298.8765 C 424.125,298.2915 424.4175,297.765 424.71,297.765 C 425.061,297.765 425.295,297.297 425.295,296.712 C 425.295,296.1855 426.231,295.1325 427.3425,294.372 C 429.507,292.968 430.1505,290.745 428.3955,290.745 C 426.933,290.745 420.615,293.8455 420.615,294.606 C 420.615,294.957 420.03,295.1325 419.2695,295.0155 C 417.807,294.723 414.18,297.297 414.18,298.584 C 414.18,299.52 411.6645,300.69 409.7925,300.69 C 409.032,300.69 407.4525,301.2165 406.2825,301.86 C 405.1125,302.5035 403.8255,303.03 403.299,303.03 C 401.9535,303.03 401.6025,301.3335 402.831,300.456 C 403.767,299.754 403.8255,299.286 403.299,296.361 C 402.714,293.2605 402.7725,293.0265 404.0595,292.149 C 404.82,291.681 405.405,290.8035 405.288,290.277 C 405.054,288.639 407.745,283.725 409.4415,282.906 C 411.84,281.619 415.935,277.407 415.935,276.237 C 415.935,275.652 416.5785,274.7745 417.3975,274.365 C 418.2165,273.9555 418.86,273.2535 418.86,272.7855 C 418.86,272.376 419.094,272.025 419.3865,272.025 C 419.679,272.025 420.147,271.4985 420.3225,270.855 C 420.498,270.2115 420.966,269.685 421.317,269.685 C 421.8435,269.685 422.955,268.866 426.2895,266.175 C 426.699,265.824 427.284,265.59 427.635,265.59 C 427.986,265.59 428.3955,265.1805 428.571,264.7125 C 428.805,264.2445 429.273,263.835 429.741,263.835 C 430.209,263.835 430.56,263.5425 430.56,263.25 C 430.56,262.899 430.794,262.665 431.145,262.665 C 431.7885,262.665 434.655,259.857 434.655,259.2135 C 434.655,258.5115 439.335,253.89 440.037,253.89 C 440.388,253.89 441.324,253.422 442.143,252.7785 C 443.0205,252.1935 444.366,251.4915 445.185,251.2575 C 449.397,250.029 451.035,248.976 451.035,247.455 C 451.035,246.636 450.6255,245.4075 450.1575,244.764 C 449.631,244.062 449.3385,242.307 449.28,239.967 L 449.28,236.34 L 446.706,236.34 C 444.7755,236.34 443.8395,235.989 442.611,234.819 C 441.792,233.9415 441.09,232.83 441.09,232.245 C 441.09,231.7185 440.505,231.0165 439.803,230.6655 L 438.516,230.0805 L 439.803,228.969 C 441.3825,227.6235 441.441,226.3365 439.92,224.9325 C 439.101,224.172 438.75,223.119 438.75,221.3055 C 438.75,219.4335 438.516,218.79 437.8725,218.79 C 437.346,218.79 436.8195,219.1995 436.644,219.6675 C 436.41,220.1355 436.0005,220.545 435.591,220.545 C 434.3625,220.545 430.56,224.406 430.56,225.693 C 430.56,226.4535 430.209,226.98 429.6825,226.98 C 429.2145,226.98 428.805,227.2725 428.805,227.565 C 428.805,227.916 427.9275,229.0275 426.933,230.022 C 425.88,231.075 424.6515,232.596 424.1835,233.415 C 423.774,234.234 422.955,235.638 422.4285,236.6325 C 421.785,237.861 421.434,240.669 421.2,246.285 L 420.9075,254.1825 L 419.2695,254.358 C 417.105,254.592 416.2275,253.773 415.2915,250.7895 C 414.531,248.2155 412.308,245.9925 411.021,246.4605 C 410.553,246.636 409.851,247.572 409.4415,248.5665 C 408.9735,249.561 408.447,250.38 408.213,250.38 C 407.9205,250.38 407.745,250.731 407.745,251.199 C 407.745,251.6085 407.3355,252.3105 406.809,252.7785 C 405.5805,253.8315 401.895,261.2025 401.895,262.665 C 401.895,263.3085 401.544,264.0105 401.076,264.186 C 400.6665,264.3615 399.7305,265.7655 398.97,267.4035 C 397.917,269.6265 397.2735,270.27 396.2205,270.27 C 394.6995,270.27 394.8165,271.908 394.875,247.1625 C 394.9335,234.585 395.46,231.0165 397.5075,228.9105 C 397.9755,228.4425 398.385,227.565 398.385,226.9215 C 398.385,226.278 398.7945,225.6345 399.2625,225.459 C 399.7305,225.2835 400.257,224.64 400.4325,224.055 C 400.608,223.47 401.3685,222.3 402.1875,221.364 C 402.948,220.4865 403.767,218.7315 403.9425,217.503 C 404.1765,216.2745 404.586,215.28 404.937,215.28 C 405.6975,215.28 407.16,213.759 407.16,212.9985 C 407.16,212.6475 407.4525,212.355 407.745,212.355 C 408.096,212.355 408.33,211.9455 408.33,211.4775 C 408.33,211.0095 408.6225,210.6 408.915,210.6 C 409.266,210.6 409.851,209.9565 410.202,209.1375 C 410.553,208.3185 411.0795,207.675 411.372,207.675 C 412.074,207.675 413.127,206.622 414.414,204.5745 C 415.701,202.644 415.2915,202.5855 411.84,204.282 z " />
  <path
     style="fill:#000000;stroke:none"
     id="path4679"
     d="M 216.45,205.6275 C 210.015,206.3295 196.2675,207.207 178.893,208.026 L 170.82,208.377 L 170.82,234.0585 C 170.82,248.157 170.937,259.74 171.054,259.74 C 171.171,259.74 171.756,258.219 172.2825,256.347 C 173.745,251.316 175.0905,249.093 178.1325,246.987 C 180.5895,245.349 181.35,245.115 184.8015,245.115 C 188.3115,245.115 188.8965,245.2905 190.3005,246.753 C 192.4065,248.9175 195.039,255.06 196.209,260.442 C 197.3205,265.5315 197.0865,265.356 202.4685,264.4785 C 204.2235,264.186 213.1155,262.9575 222.3,261.7875 C 231.4845,260.6175 239.5575,259.5645 240.318,259.389 L 241.605,259.155 L 241.605,233.2395 L 241.605,207.3825 L 234.9945,206.271 C 226.4535,204.8085 224.4645,204.6915 216.45,205.6275 z " />
  <path
     style="fill:#000000;stroke:none"
     id="path4681"
     d="M 335.4975,206.9145 C 334.2105,207.0315 332.5725,207.2655 331.8705,207.3825 L 330.525,207.675 L 330.525,227.6235 L 330.525,247.572 L 332.4555,247.2795 C 333.45,247.104 335.556,246.753 337.1355,246.519 L 339.885,246.168 L 339.885,226.3365 C 339.885,207.792 339.8265,206.505 338.8905,206.622 C 338.3055,206.6805 336.7845,206.7975 335.4975,206.9145 z " />
  <path
     style="fill:#000000;stroke:none"
     id="path4683"
     d="M 125.4825,214.812 C 125.892,222.8265 127.53,269.5095 127.53,272.4345 C 127.53,273.9555 127.764,274.365 128.6415,274.365 C 129.285,274.365 129.987,274.0725 130.1625,273.78 C 130.338,273.429 131.4495,273.195 132.561,273.195 L 134.55,273.195 L 134.55,240.435 L 134.55,207.675 L 129.87,207.675 L 125.1315,207.675 L 125.4825,214.812 z " />
  <path
     style="fill:#000000;stroke:none"
     id="path4685"
     d="M 138.645,240.435 C 138.645,270.504 138.7035,272.61 139.6395,272.61 C 140.8095,272.61 156.897,270.504 162.8055,269.6265 L 166.725,268.983 L 166.725,238.6215 L 166.725,208.26 L 152.685,208.26 L 138.645,208.26 L 138.645,240.435 z " />
  <path
     style="fill:#000000;stroke:none"
     id="path4687"
     d="M 245.7,233.415 L 245.7,258.687 L 249.3855,258.2775 C 251.3745,258.0435 253.071,257.8095 253.188,257.6925 C 253.2465,257.634 253.539,255.762 253.8315,253.5975 C 254.1825,250.3215 254.592,249.3855 255.879,248.2155 C 256.7565,247.5135 257.868,246.87 258.336,246.87 C 259.038,246.87 259.155,244.062 259.155,228.2085 L 259.155,209.547 L 257.868,209.2545 C 257.1075,209.079 254.0655,208.728 251.1405,208.494 L 245.7,208.0845 L 245.7,233.415 z " />
  <path
     style="fill:#000000;stroke:none"
     id="path4689"
     d="M 313.8525,208.9035 C 310.635,209.196 304.668,209.547 300.573,209.781 L 293.202,210.132 L 294.021,212.121 C 294.8985,214.227 295.1325,221.481 294.3135,221.949 C 294.0795,222.1245 293.67,223.587 293.436,225.1665 C 293.085,228.033 291.7395,231.3675 290.6865,231.9525 C 289.692,232.596 290.1015,234.585 291.2715,234.585 C 291.8565,234.585 293.202,235.521 294.138,236.6325 C 296.0685,238.797 298.2915,239.9085 305.604,242.3655 C 310.752,244.1205 315.081,246.636 315.6075,248.157 C 316.017,249.3855 316.953,249.444 322.3935,248.5665 L 326.43,247.8645 L 326.43,228.0915 L 326.43,208.26 L 323.0955,208.3185 C 321.2235,208.377 317.07,208.6695 313.8525,208.9035 z " />
  <path
     style="fill:#000000;stroke:none"
     id="path4691"
     d="M 263.601,211.185 C 263.3085,212.94 263.0745,244.53 263.4255,244.53 C 264.537,244.53 273.4875,240.201 274.014,239.382 C 274.131,239.148 273.4875,237.3345 272.5515,235.4625 C 271.4985,233.298 270.972,231.426 271.1475,230.607 C 271.323,229.8465 270.9135,227.097 270.2115,224.523 C 269.0415,220.2525 268.983,219.4335 269.6265,215.9235 C 270.036,213.8175 270.7965,211.5945 271.2645,211.068 C 272.142,210.0735 272.0835,210.015 270.738,210.015 C 269.919,210.015 268.1055,209.8395 266.643,209.664 C 264.069,209.313 264.0105,209.313 263.601,211.185 z " />
  <path
     style="fill:#000000;stroke:none"
     id="path4693"
     d="M 44.0505,217.503 C 41.301,218.8485 40.7745,218.9655 39.0195,218.322 C 36.7965,217.503 34.5735,217.4445 33.5205,218.088 C 32.5845,218.673 31.005,222.534 31.005,224.2305 C 31.005,226.746 33.7545,227.8575 37.323,226.8045 C 38.493,226.4535 40.0725,225.576 40.7745,224.8155 C 41.4765,224.055 42.2955,223.47 42.588,223.47 C 42.8805,223.47 43.4655,223.0605 43.875,222.5925 C 44.2845,222.1245 44.9865,221.715 45.396,221.715 C 46.7415,221.715 52.65,217.62 52.65,216.7425 C 52.65,215.28 47.5605,215.6895 44.0505,217.503 z " />
  <path
     style="fill:#000000;stroke:none"
     id="path4695"
     d="M 47.6775,246.1095 C 44.694,249.21 44.4015,249.678 44.577,251.8425 C 44.7525,254.1825 44.7525,254.1825 47.4435,254.358 C 50.0175,254.5335 50.1345,254.475 53.118,251.0235 C 54.8145,249.093 56.6865,247.338 57.33,247.1625 C 58.851,246.6945 58.851,244.179 57.3885,243.36 C 56.745,243.0675 55.0485,242.775 53.586,242.775 C 51.129,242.775 50.7195,243.009 47.6775,246.1095 z " />
  <path
     style="fill:#000000;stroke:none"
     id="path4697"
     d="M 329.6475,252.252 C 322.92,253.2465 317.2455,254.124 317.1285,254.241 C 317.0115,254.358 317.3625,256.23 317.889,258.3945 C 319.7025,265.8825 318.24,301.041 315.6075,312.6825 C 314.0865,319.3515 312.9165,326.9565 312.5655,332.28 C 312.273,337.2525 311.3955,339.3 309.6405,339.3 C 309.231,339.3 308.88,339.768 308.88,340.2945 C 309.114,347.8995 308.178,394.9335 307.7685,397.0395 C 307.476,398.5605 307.0665,403.9425 306.8325,408.915 C 306.657,413.8875 306.189,419.1525 305.838,420.615 C 305.5455,422.0775 305.253,426.2895 305.253,429.975 C 305.253,435.1815 305.019,436.9365 304.317,437.7555 C 303.7905,438.3405 303.2055,440.0955 303.03,441.675 L 302.679,444.6 L 312.507,444.6 C 323.3295,444.6 322.5105,444.834 327.132,440.271 C 329.2965,438.1065 329.589,438.048 332.2215,438.3405 C 334.971,438.6915 335.0295,438.633 336.4335,436.41 C 337.194,435.123 338.13,434.07 338.5395,434.07 C 339.417,434.07 340.236,429.2145 339.3585,428.922 C 339.0075,428.805 338.715,428.454 338.715,428.103 C 338.715,427.752 339.066,427.635 339.534,427.8105 C 340.1775,428.103 340.353,426.816 340.4115,421.0245 C 340.47,417.105 341.406,378.495 342.5175,335.205 C 343.629,291.915 344.565,255.1185 344.565,253.422 C 344.565,249.795 346.203,249.912 329.6475,252.252 z " />
  <path
     style="fill:#000000;stroke:none"
     id="path4699"
     d="M 224.2305,266.9355 C 208.611,269.1585 198.9,270.7965 198.9,271.1475 C 198.9,273.0195 201.4155,276.7635 203.1705,277.4655 C 206.739,278.9865 208.4355,281.736 210.249,288.756 C 213.525,301.6845 214.578,304.3755 219.6675,312.39 C 221.013,314.496 223.353,319.0005 224.991,322.452 C 227.8575,328.7115 227.8575,328.77 229.905,328.77 C 231.3675,328.77 232.479,328.302 233.883,326.9565 C 236.3985,324.6165 237.3345,322.569 239.0895,316.251 C 239.9085,313.326 241.137,309.582 241.8975,308.0025 C 242.658,306.3645 244.062,302.0355 245.0565,298.35 C 246.051,294.6645 247.689,288.873 248.625,285.48 C 250.7895,277.992 251.55,273.9555 251.55,270.036 C 251.55,268.398 251.784,266.175 252.0765,265.122 C 252.603,263.3085 252.5445,263.25 251.082,263.3085 C 250.2045,263.367 238.095,265.005 224.2305,266.9355 z " />
  <path
     style="fill:#000000;stroke:none"
     id="path4701"
     d="M 146.835,277.758 L 127.8225,280.449 L 129.402,324.6165 C 131.859,395.226 132.8535,421.434 132.9705,421.4925 C 136.8315,422.955 139.23,425.529 139.23,428.22 C 139.23,429.4485 139.9905,431.7885 140.985,433.836 C 141.9795,435.708 143.208,438.9255 143.7345,440.9145 L 144.612,444.6 L 153.621,444.6 C 159.6465,444.6 162.6885,444.366 162.981,443.9565 C 163.566,442.962 164.2095,421.434 164.619,389.61 L 165.0285,361.8225 L 162.8055,360.828 C 159.003,359.1315 158.2425,357.0255 158.3595,349.5375 C 158.4765,345.969 158.2425,340.353 157.95,336.96 C 157.599,333.567 157.3065,321.867 157.248,310.869 C 157.131,288.3465 157.014,288.8145 161.577,283.7835 C 163.1565,282.087 164.7945,279.981 165.204,279.1035 C 166.374,276.8805 166.9005,274.95 166.3155,275.0085 C 166.0815,275.067 157.3065,276.2955 146.835,277.758 z " />
  <path
     style="fill:#000000;stroke:none"
     id="path4703"
     d="M 118.17,281.853 C 117.351,281.9115 111.2085,282.789 104.4225,283.725 C 89.0955,285.8895 47.0925,291.681 40.248,292.617 C 35.5095,293.2605 34.1055,293.8455 35.7435,294.372 C 36.5625,294.6645 36.6795,297.297 36.0945,299.871 C 35.685,301.5675 35.802,301.743 38.3175,303.0885 C 39.78,303.849 40.95,304.7265 41.0085,305.0775 C 41.535,309.8745 40.482,313.326 38.025,314.847 C 37.3815,315.2565 36.855,315.9 36.855,316.3095 C 36.855,316.719 36.4455,317.07 35.9775,317.07 C 35.5095,317.07 35.1,317.538 35.1,318.123 C 35.1,318.708 34.8075,319.4685 34.4565,319.8195 C 33.93,320.346 33.9885,320.8725 34.749,322.0425 C 35.9775,323.9145 38.0835,324.7335 40.248,324.324 C 41.3595,324.09 42.12,324.2655 42.6465,324.8505 C 43.5825,326.0205 42.237,327.4245 38.4345,329.238 C 36.9135,329.94 35.685,330.759 35.685,330.993 C 35.685,331.2855 34.281,331.5195 32.5845,331.5195 C 30.42,331.578 29.1915,331.2855 28.3725,330.525 C 27.729,329.94 26.559,329.2965 25.74,329.0625 C 24.921,328.8285 23.517,328.0095 22.6395,327.249 C 21.7035,326.4885 20.475,325.845 19.8315,325.845 C 19.2465,325.845 18.72,325.611 18.72,325.377 C 18.72,325.0845 18.018,324.4995 17.1405,324.0315 C 16.263,323.5635 14.8005,322.5105 13.806,321.5745 C 12.8115,320.697 11.817,319.995 11.583,319.995 C 11.2905,319.995 10.53,319.41 9.828,318.6495 L 8.4825,317.3625 L 8.307,320.58 C 8.0145,325.143 10.0035,328.068 12.1095,326.3715 C 13.1625,325.4355 13.689,326.079 14.625,329.5305 C 15.0345,331.11 15.7365,332.514 16.0875,332.631 C 16.497,332.8065 16.965,334.0935 17.1405,335.4975 C 17.3745,336.96 18.018,338.598 18.6615,339.2415 C 19.5975,340.1775 19.7145,340.7625 19.305,342.1665 C 19.071,343.1025 18.954,344.0385 19.188,344.214 C 19.3635,344.3895 19.5975,345.267 19.656,346.1445 C 19.773,347.022 20.241,348.075 20.7675,348.426 C 21.2355,348.777 21.645,349.479 21.645,350.0055 C 21.645,350.532 21.996,351.2925 22.464,351.702 C 22.8735,352.17 23.4,353.808 23.634,355.3875 C 23.868,357.0255 24.453,358.8975 24.921,359.5995 C 25.389,360.3015 25.74,361.413 25.74,362.0565 C 25.74,362.7 26.091,363.9285 26.559,364.8645 C 27.378,366.444 28.314,368.667 30.0105,372.762 C 30.4785,373.815 31.5315,376.155 32.409,377.91 C 33.228,379.665 33.93,381.303 33.93,381.5955 C 33.93,382.122 36.972,386.8605 37.6155,387.3285 C 37.908,387.5625 39.897,387.855 42.003,388.089 C 47.502,388.674 48.204,390.0195 46.7415,397.449 C 45.8055,401.8365 46.6245,404.703 49.1985,406.1655 C 50.193,406.692 51.363,407.16 51.831,407.16 C 52.299,407.16 52.65,407.394 52.65,407.6865 C 52.65,407.979 53.6445,408.3885 54.873,408.564 C 56.043,408.798 57.7395,409.0905 58.617,409.266 C 59.904,409.5 60.1965,409.383 59.904,408.7395 C 59.7285,408.2715 59.8455,407.6865 60.138,407.511 C 60.7815,407.16 60.372,404.352 59.6115,403.884 C 59.319,403.7085 59.085,402.948 59.085,402.246 C 59.085,401.4855 58.383,400.1985 57.564,399.321 C 56.6865,398.502 56.16,397.8 56.3355,397.8 C 56.511,397.8 56.043,396.3375 55.224,394.5825 C 54.4635,392.769 53.82,391.014 53.82,390.6045 C 53.82,390.195 53.5275,389.5515 53.118,389.142 C 52.767,388.791 52.3575,387.972 52.299,387.4455 C 51.8895,384.5205 51.246,381.0105 51.012,380.25 C 50.8365,379.782 50.661,376.974 50.4855,374.1075 C 50.3685,371.1825 50.193,366.912 50.076,364.5135 C 49.9005,361.998 50.076,359.775 50.427,359.19 C 50.895,358.488 50.895,357.4935 50.4855,355.8555 C 50.193,354.627 50.076,353.0475 50.31,352.404 C 50.544,351.819 50.895,348.1335 51.129,344.2725 C 51.6555,334.035 51.831,332.865 53.1765,331.461 C 53.82,330.759 54.6975,329.355 55.0485,328.302 C 55.3995,327.249 56.043,326.43 56.511,326.43 C 56.979,326.43 57.33,325.962 57.3885,325.377 C 57.447,323.856 59.3775,320.8725 60.4305,320.697 C 61.776,320.4045 64.467,324.909 64.584,327.834 C 64.7595,330.291 64.9935,331.695 66.456,339.066 C 67.8015,345.9105 68.562,361.647 67.5675,362.583 C 67.392,362.7585 67.509,363.168 67.86,363.519 C 68.1525,363.9285 68.1525,365.157 67.86,366.5025 C 67.158,370.0125 67.4505,377.442 68.328,377.7345 C 68.679,377.91 69.03,377.559 69.03,377.091 C 69.03,376.5645 69.381,375.9795 69.849,375.804 C 70.317,375.6285 70.8435,374.751 71.0775,373.8735 C 71.253,372.996 72.072,371.592 72.8325,370.7145 C 73.6515,369.8955 74.295,368.901 74.295,368.6085 C 74.295,368.316 74.8215,367.9065 75.465,367.6725 C 76.1085,367.497 77.0445,366.561 77.6295,365.5665 C 78.156,364.6305 78.7995,363.87 79.0335,363.87 C 79.6185,363.87 80.262,367.614 79.8525,368.667 C 79.677,369.135 79.443,370.9485 79.326,372.7035 C 79.209,374.4585 79.0335,375.8625 78.975,375.8625 C 78.9165,375.8625 78.741,376.623 78.624,377.6175 C 78.507,378.5535 78.0975,381.069 77.688,383.175 C 77.337,385.281 76.986,387.387 76.9275,387.855 C 76.8105,388.908 75.5235,393.705 75.0555,394.875 C 74.88,395.343 74.646,395.9865 74.646,396.3375 C 74.412,397.8 72.9495,404.235 72.1305,407.043 C 71.0775,410.787 71.838,413.4195 74.061,413.946 C 74.8215,414.1215 75.465,414.4725 75.465,414.7065 C 75.465,415.584 79.443,417.3975 81.6075,417.456 C 82.8945,417.5145 85.1175,417.7485 86.5215,417.924 C 87.984,418.158 89.739,418.2165 90.441,418.041 C 91.728,417.69 93.6,414.8235 93.6,413.1855 C 93.6,412.776 93.8925,412.425 94.2435,412.425 C 94.5945,412.425 94.77,412.0155 94.5945,411.5475 C 94.3605,411.0795 94.4775,410.553 94.8285,410.319 C 95.4135,409.968 96.525,407.5695 96.759,406.107 C 96.8175,405.6975 97.227,405.054 97.578,404.703 C 97.9875,404.2935 98.28,403.767 98.28,403.533 C 98.28,402.363 103.194,396.6885 106.236,394.29 C 106.821,393.822 108.4005,392.5935 109.6875,391.599 C 110.9745,390.6045 112.6125,389.61 113.373,389.376 C 114.075,389.142 114.66,388.557 114.66,388.089 C 114.66,387.621 115.245,387.27 116.0055,387.27 C 116.7075,387.27 117.936,386.7435 118.755,386.1 C 119.574,385.4565 120.6855,384.93 121.2705,384.93 C 121.797,384.93 122.265,384.579 122.265,384.111 C 122.265,383.643 122.616,383.175 123.084,382.9995 C 123.552,382.824 123.786,382.0635 123.669,381.303 C 123.552,380.5425 122.7915,358.488 121.9725,332.28 C 121.095,306.072 120.276,283.959 120.042,283.14 C 119.7495,282.0285 119.2815,281.736 118.17,281.853 z " />
  <path
     style="fill:#000000;stroke:none"
     id="path4705"
     d="M 258.921,302.328 C 258.3945,304.1415 257.517,306.657 257.1075,307.827 C 256.6395,309.0555 255.8205,311.1615 255.294,312.507 C 254.7675,313.911 252.7785,318.24 250.9065,322.1595 C 248.976,326.079 247.455,329.5305 247.455,329.823 C 247.455,330.993 245.232,332.3385 243.8865,331.9875 C 242.658,331.695 242.2485,332.046 240.903,334.737 C 239.967,336.4335 239.265,338.3055 239.265,338.832 C 239.265,341.289 238.68,341.6985 235.5795,341.289 C 233.0055,340.938 232.713,340.9965 233.0055,341.8155 C 233.5905,343.395 232.479,343.4535 229.8465,342.108 C 227.799,341.055 226.863,339.9435 225.0495,336.6675 C 223.821,334.386 221.715,331.5195 220.3695,330.2325 C 217.5615,327.5415 211.8285,320.8725 210.7755,319.1175 C 210.4245,318.474 208.3185,314.4375 206.154,310.167 C 202.4685,303.03 202.059,302.562 201.6495,304.0245 C 200.8305,307.008 199.5435,315.6075 199.719,317.07 C 200.0115,319.0005 200.655,320.58 201.24,320.58 C 201.5325,320.58 201.942,321.399 202.1175,322.452 C 202.3515,323.505 202.761,324.7335 203.0535,325.26 C 203.58,326.2545 206.388,337.662 207.09,341.757 C 207.3825,343.278 207.8505,344.9745 208.143,345.5595 C 208.4355,346.1445 208.845,348.192 209.0205,350.1225 C 209.2545,352.053 209.547,354.6855 209.7225,355.9725 C 209.898,357.2595 210.3075,360.4185 210.6585,362.9925 C 210.951,365.5665 211.3605,371.241 211.536,375.57 C 211.7115,379.899 212.0625,385.6905 212.4135,388.44 C 212.706,391.1895 213.408,396.6885 213.876,400.725 C 214.344,404.7615 214.9875,411.3135 215.28,415.35 C 215.5725,419.3865 216.099,423.7155 216.45,425.0025 C 216.7425,426.2895 217.035,429.039 217.035,431.145 C 217.035,433.251 217.2105,437.112 217.4445,439.7445 L 217.7955,444.6 L 234.7605,444.6 C 253.539,444.6 251.8425,444.951 250.614,441.207 C 250.0875,439.452 252.1935,437.697 255.879,436.7025 C 259.9155,435.708 260.91,435.006 259.857,433.953 C 258.7455,432.8415 259.038,430.794 260.6175,427.5765 C 262.548,423.8325 263.0745,416.1105 262.08,406.575 C 261.729,402.8895 261.261,398.4435 261.0855,396.747 C 260.8515,394.407 261.0855,392.769 262.08,390.078 C 263.484,386.2755 263.484,384.7545 262.1385,376.155 C 261.7875,374.049 261.495,370.2465 261.495,367.6725 C 261.495,365.0985 261.027,359.0145 260.559,354.2175 C 259.4475,343.863 258.921,317.9475 259.6815,306.9495 C 259.9155,302.679 260.091,299.169 260.0325,299.1105 C 259.974,298.9935 259.506,300.456 258.921,302.328 z " />
  <path
     style="fill:#000000;stroke:none"
     id="path4707"
     d="M 166.491,311.6295 C 166.257,315.783 165.8475,322.686 165.555,327.015 C 164.4435,341.991 164.268,347.49 164.853,347.49 C 165.4965,347.49 165.6135,347.1975 167.31,337.8375 C 168.714,330.291 169.8255,325.728 171.171,322.1595 C 172.2825,319.1175 172.224,316.134 170.82,311.805 C 169.8255,308.646 167.6025,304.2 167.0175,304.2 C 166.9005,304.2 166.6665,307.5345 166.491,311.6295 z " />
  <path
     style="fill:#000000;stroke:none"
     id="path4709"
     d="M 283.725,359.775 C 283.6665,359.9505 283.374,364.2795 283.14,369.4275 C 282.906,374.5755 282.438,381.42 282.0285,384.6375 C 281.6775,387.855 281.0925,393.7635 280.7415,397.8 C 280.3905,401.8365 279.747,406.2825 279.3375,407.745 C 278.1675,411.7815 277.2315,419.445 277.2315,424.827 C 277.2315,427.518 276.9975,431.262 276.705,433.1925 C 276.4125,435.123 276.0615,438.4575 275.886,440.6805 L 275.5935,444.6 L 283.14,444.6 C 291.7395,444.6 292.2075,444.249 288.2295,441.3825 C 285.0705,439.101 284.895,437.58 287.235,432.4905 C 288.8145,429.0975 289.1655,427.6935 289.3995,422.6625 C 289.575,418.392 289.3995,415.935 288.756,413.595 C 286.65,406.3995 285.831,400.725 286.533,397.8585 C 288.3465,390.312 288.639,384.813 287.586,377.8515 C 287.001,374.166 286.299,370.1295 286.0065,368.8425 C 284.6025,362.5245 283.842,359.4825 283.725,359.775 z " />
  <path
     style="fill:#000000;stroke:none"
     id="path4711"
     d="M 398.97,386.9775 C 398.97,387.4455 398.619,387.855 398.268,387.855 C 397.7415,387.855 397.8,388.089 398.385,388.44 C 398.97,388.791 399.0285,389.025 398.5605,389.025 C 398.151,389.025 397.6245,389.727 397.449,390.6045 C 397.215,391.482 396.6885,392.5935 396.2205,393.003 C 395.811,393.4125 395.46,394.6995 395.46,395.811 C 395.46,396.9225 395.226,397.8 394.875,397.8 C 394.056,397.8 394.173,400.6665 395.0505,401.544 C 395.4015,402.012 396.162,402.948 396.63,403.65 C 397.098,404.4105 398.0925,405.6975 398.853,406.575 C 399.555,407.4525 400.14,408.3885 400.14,408.564 C 400.14,409.149 410.319,419.2695 411.723,419.9715 C 412.8345,420.5565 413.0685,420.498 413.361,419.7375 C 413.829,418.626 412.7175,415.935 411.84,415.935 C 411.5475,415.935 411.255,415.5255 411.255,415.0575 C 411.255,414.5895 410.904,414.18 410.436,414.18 C 409.968,414.18 409.4415,413.478 409.266,412.659 C 409.032,411.84 408.33,410.6115 407.745,409.9095 C 407.1015,409.266 406.575,408.33 406.575,407.9205 C 406.575,407.511 406.341,407.16 405.99,407.16 C 405.6975,407.16 405.288,406.5165 405.054,405.6975 C 404.8785,404.8785 404.469,404.235 404.235,404.235 C 403.9425,404.235 403.533,402.714 403.299,400.842 C 403.065,399.0285 402.6555,397.3905 402.4215,397.1565 C 401.661,396.6885 400.7835,391.3065 401.1345,389.4345 C 401.427,387.9135 400.5495,386.1 399.4965,386.1 C 399.204,386.1 398.97,386.5095 398.97,386.9775 z " />
  <path
     style="fill:#000000;stroke:none"
     id="path4713"
     d="M 122.6745,389.493 C 122.0895,391.131 121.212,392.769 120.744,393.1785 C 120.276,393.5295 119.925,394.3485 119.925,394.9335 C 119.925,395.577 119.691,396.045 119.457,396.045 C 119.223,396.045 118.521,396.8055 117.9945,397.8 C 117.4095,398.736 116.649,399.8475 116.2395,400.257 C 115.83,400.6665 114.7185,402.597 113.7825,404.469 C 112.8465,406.341 111.5595,408.6225 110.8575,409.4415 C 110.1555,410.2605 108.9855,412.4835 108.225,414.297 C 107.4645,416.169 106.6455,417.69 106.47,417.69 C 106.236,417.69 105.768,418.3335 105.417,419.094 C 104.5395,421.083 105.768,421.9605 108.81,421.6095 C 111.2085,421.317 112.1445,420.615 113.7825,417.5145 C 114.309,416.637 114.9525,415.935 115.3035,415.935 C 115.6545,415.935 115.83,415.5255 115.6545,415.0575 C 115.4205,414.5895 115.5375,414.063 115.83,413.8875 C 116.181,413.6535 116.415,413.0685 116.415,412.4835 C 116.415,411.8985 117.117,411.0795 117.936,410.6115 C 118.9305,410.085 120.159,408.33 121.446,405.639 C 122.499,403.299 123.669,401.31 123.903,401.193 C 124.1955,401.1345 124.254,397.7415 124.0785,393.7635 L 123.7275,386.5095 L 122.6745,389.493 z " />
</svg>
