<?xml version="1.0" encoding="UTF-8" standalone="no"?>
<svg
   xmlns:dc="http://purl.org/dc/elements/1.1/"
   xmlns:cc="http://web.resource.org/cc/"
   xmlns:rdf="http://www.w3.org/1999/02/22-rdf-syntax-ns#"
   xmlns:svg="http://www.w3.org/2000/svg"
   xmlns="http://www.w3.org/2000/svg"
   xmlns:sodipodi="http://inkscape.sourceforge.net/DTD/sodipodi-0.dtd"
   xmlns:inkscape="http://www.inkscape.org/namespaces/inkscape"
   version="1.0"
   width="4in"
   height="4in"
   viewBox="0 0 468 468"
   preserveAspectRatio="xMidYMid meet"
   id="svg5930"
   sodipodi:version="0.32"
   inkscape:version="0.43"
   sodipodi:docbase="/my/proj/xpcs"
   sodipodi:docname="out6.svg">
  <defs
     id="defs6033" />
  <sodipodi:namedview
     inkscape:window-height="589"
     inkscape:window-width="874"
     inkscape:pageshadow="2"
     inkscape:pageopacity="0.0"
     borderopacity="1.0"
     bordercolor="#666666"
     pagecolor="#ffffff"
     id="base"
     inkscape:zoom="0.68888889"
     inkscape:cx="292.5"
     inkscape:cy="112.32947"
     inkscape:window-x="2564"
     inkscape:window-y="643"
     inkscape:current-layer="svg5930" />
  <metadata
     id="metadata5932">
Created by potrace 1.7, written by Peter Selinger 2001-2005
<rdf:RDF>
  <cc:Work
     rdf:about="">
    <dc:format>image/svg+xml</dc:format>
    <dc:type
       rdf:resource="http://purl.org/dc/dcmitype/StillImage" />
  </cc:Work>
</rdf:RDF>
</metadata>
  <path
     style="fill:#000000;stroke:none"
     id="path5936"
     d="M 138.3525,31.122 C 138.5865,32.175 138.9375,33.228 139.1715,33.462 C 139.347,33.6375 141.5115,34.2225 143.91,34.749 C 152.451,36.504 160.173,38.2005 174.915,41.535 C 177.6645,42.1785 185.445,43.875 192.1725,45.3375 C 198.9585,46.8585 210.366,49.374 217.62,50.9535 C 224.874,52.533 232.479,54.2295 234.585,54.6975 C 252.4275,58.5585 251.784,58.383 257.868,62.478 C 259.9155,63.8235 261.6705,64.935 261.846,64.935 C 261.963,64.935 263.718,66.0465 265.7655,67.4505 C 267.7545,68.8545 269.802,70.2 270.27,70.434 C 271.6155,71.0775 273.1365,72.0135 277.056,74.646 C 278.9865,75.933 282.9645,78.039 285.831,79.209 C 288.6975,80.4375 292.0905,81.9585 293.436,82.5435 C 294.723,83.1285 295.9515,83.655 296.1855,83.655 C 296.4195,83.655 298.2915,84.4155 300.3975,85.41 C 302.5035,86.346 304.3755,87.165 304.4925,87.165 C 304.6095,87.165 306.423,87.9255 308.412,88.8615 C 310.4595,89.739 312.741,90.7335 313.56,90.9675 C 314.379,91.2015 315.9585,91.9035 317.07,92.4885 C 318.1815,93.132 319.41,93.6 319.761,93.6 C 320.112,93.6 320.58,90.792 320.931,86.229 C 321.282,82.134 321.8085,78.741 322.1595,78.507 C 322.5105,78.273 323.2125,76.167 323.6805,73.7685 C 324.7335,68.8545 326.781,64.5255 328.302,64.1745 C 328.887,63.999 329.355,63.4725 329.355,62.946 C 329.355,62.4195 329.589,62.01 329.8815,62.01 C 330.174,62.01 330.642,61.4835 330.8175,60.84 C 330.993,60.1965 331.4025,59.67 331.695,59.67 C 332.397,59.67 336.96,55.0485 336.96,54.288 C 336.96,53.8785 334.7955,53.7615 330.1155,53.937 C 323.739,54.2295 322.8615,54.405 318.825,56.277 C 316.368,57.447 314.0865,58.7925 313.6185,59.319 C 313.209,59.8455 312.507,60.255 312.156,60.255 C 311.7465,60.255 310.9275,60.723 310.284,61.2495 C 308.295,63.0045 306.5985,63.765 303.9075,64.1745 C 302.445,64.35 301.275,64.7595 301.275,64.9935 C 301.275,65.286 300.222,65.52 298.935,65.52 L 296.595,65.52 L 296.595,61.776 C 296.595,59.202 296.8875,57.7395 297.4725,57.096 C 297.9405,56.628 298.35,55.3995 298.35,54.405 C 298.35,53.4105 298.701,51.8895 299.169,51.012 C 299.5785,50.1345 300.1635,48.4965 300.3975,47.385 C 300.6315,46.2735 301.3335,44.8695 301.977,44.2845 C 303.3225,42.939 303.0885,41.886 301.3335,41.652 C 299.8125,41.418 291.915,43.6995 291.915,44.343 C 291.915,44.928 283.842,47.385 281.97,47.385 C 281.2095,47.385 279.981,47.97 279.279,48.6135 C 278.5185,49.3155 276.705,50.076 275.184,50.3685 C 273.663,50.661 272.142,51.3045 271.791,51.7725 C 271.44,52.299 269.802,52.884 268.2225,53.1765 C 266.5845,53.4105 264.42,54.171 263.367,54.8145 C 261.2025,56.16 258.7455,55.9845 258.453,54.4635 C 258.219,53.469 259.038,50.8365 260.208,48.7305 C 260.6175,48.0285 260.91,47.034 260.91,46.5075 C 260.91,45.981 261.6705,44.7525 262.665,43.6995 C 263.601,42.6465 264.42,41.4765 264.42,41.067 C 264.42,40.6575 265.0635,40.0725 265.824,39.7215 C 266.5845,39.3705 268.164,37.908 269.334,36.504 C 270.504,35.1 271.8495,33.93 272.3175,33.93 C 272.727,33.93 273.663,33.228 274.3065,32.409 C 275.0085,31.5315 276.6465,30.5955 278.2845,30.1275 C 280.6245,29.484 269.7435,29.367 209.547,29.3085 L 137.943,29.25 L 138.3525,31.122 z " />
  <path
     style="fill:#000000;stroke:none"
     id="path5938"
     d="M 122.499,37.089 C 122.3235,37.6155 121.797,38.025 121.3875,38.025 C 120.978,38.025 120.3345,38.4345 119.925,38.9025 C 119.5155,39.3705 118.6965,39.78 118.1115,39.78 C 117.117,39.78 113.256,41.2425 110.5065,42.705 C 109.98,42.9975 108.2835,43.3485 106.704,43.5825 C 105.1245,43.8165 102.375,44.46 100.62,45.045 C 98.397,45.747 95.94,45.981 92.547,45.9225 C 88.452,45.747 87.4575,45.9225 86.58,46.8 C 85.995,47.385 85.3515,47.736 85.176,47.5605 C 85.0005,47.385 83.8305,48.087 82.485,49.14 C 78.624,52.182 79.443,55.6335 84.24,56.4525 C 85.7025,56.6865 87.2235,57.1545 87.5745,57.447 C 88.92,58.5 95.004,56.394 101.088,52.767 C 103.3695,51.4215 105.4755,50.31 105.8265,50.31 C 106.1775,50.31 106.47,49.959 106.47,49.491 C 106.47,48.9645 106.8795,48.789 107.5815,48.9645 C 108.225,49.14 109.2195,48.7305 109.9215,48.0285 C 110.565,47.385 111.7935,46.683 112.554,46.449 C 113.3145,46.2735 114.426,45.63 115.011,44.9865 C 115.5375,44.4015 116.2395,43.875 116.532,43.875 C 116.8245,43.875 117.7605,43.173 118.638,42.354 C 119.5155,41.535 120.9195,40.482 121.797,39.9555 C 123.435,38.961 124.3125,37.089 123.3765,36.504 C 123.084,36.3285 122.6745,36.621 122.499,37.089 z " />
  <path
     style="fill:#000000;stroke:none"
     id="path5940"
     d="M 138.879,39.663 C 138.7035,40.5405 138.411,41.652 138.294,42.12 C 138.1185,42.588 138.06,43.056 138.177,43.056 C 138.294,43.1145 137.8845,43.6995 137.358,44.2845 C 136.773,44.928 136.1295,46.2735 135.954,47.268 C 135.72,48.321 135.1935,49.14 134.784,49.14 C 134.316,49.14 133.6725,49.842 133.3215,50.7195 C 132.9705,51.597 132.21,52.8255 131.5665,53.469 C 129.987,54.9315 130.923,55.8675 132.9705,54.9315 C 133.848,54.522 134.55,54.054 134.55,53.8785 C 134.55,53.6445 135.7785,52.8255 137.358,52.065 C 138.879,51.246 140.2245,50.427 140.283,50.1345 C 140.4,49.9005 140.6925,49.725 140.9265,49.725 C 141.3945,49.725 141.1605,52.884 140.5755,54.405 C 139.8735,56.1015 139.815,57.096 139.581,63.882 C 139.4055,70.1415 139.23,71.019 137.475,74.5875 C 136.422,76.6935 135.486,79.5015 135.3105,80.7885 L 134.9595,83.187 L 137.5335,82.836 C 138.9375,82.602 146.3085,81.783 153.855,81.0225 C 161.4015,80.2035 172.224,79.0335 177.84,78.39 C 208.26,75.0555 205.452,75.231 206.3295,76.401 C 206.739,76.986 207.09,77.805 207.09,78.273 C 207.09,79.326 211.77,87.165 212.4135,87.165 C 212.706,87.165 212.94,87.516 212.94,87.9255 C 212.94,88.335 213.9345,90.0315 215.163,91.6695 C 217.5615,95.0625 219.258,97.6365 224.172,105.4755 C 226.044,108.459 228.4425,112.1445 229.6125,113.7825 C 230.724,115.362 232.713,118.404 234.0585,120.51 C 235.404,122.616 236.9835,125.0145 237.5685,125.892 C 238.212,126.7695 238.68,127.7055 238.68,127.998 C 238.68,128.2905 239.0895,128.8755 239.5575,129.285 C 240.669,130.221 243.945,135.018 243.945,135.6615 C 243.945,135.954 244.296,136.4805 244.764,136.8315 C 245.1735,137.1825 246.519,139.1715 247.689,141.1605 C 249.9705,145.08 250.614,145.4895 260.6175,149.7015 C 262.2555,150.4035 264.0105,151.2225 264.537,151.515 C 265.122,151.866 269.8605,152.1 275.067,152.1 C 285.129,152.1 285.3045,151.983 279.63,149.76 C 273.663,147.4785 272.7855,146.835 267.6375,140.868 C 264.7125,137.592 260.5005,132.8535 258.219,130.455 C 255.9375,128.0565 253.5975,125.3655 252.954,124.5465 C 252.369,123.669 248.976,119.808 245.4075,116.0055 C 241.8975,112.1445 237.5685,107.406 235.9305,105.417 C 233.0055,102.0825 232.128,99.918 233.3565,99.216 C 233.649,99.0405 245.7,97.929 260.091,96.8175 C 274.5405,95.706 289.9845,94.4775 294.4305,94.1265 C 299.052,93.717 302.7375,93.6585 302.9715,93.951 C 303.264,94.2435 303.7905,95.4135 304.1415,96.525 C 304.4925,97.6365 306.072,100.62 307.593,103.1355 L 310.3425,107.757 L 313.2675,107.406 C 314.9055,107.2305 317.187,107.055 318.4155,107.055 L 320.58,107.055 L 320.58,103.0185 L 320.58,99.0405 L 314.028,96.2325 C 310.401,94.7115 306.3645,92.9565 305.019,92.3715 C 303.732,91.7865 302.5035,91.26 302.2695,91.26 C 302.0355,91.26 300.1635,90.441 298.0575,89.505 C 295.9515,88.5105 294.0795,87.75 293.9625,87.75 C 293.8455,87.75 291.9735,86.931 289.8675,85.995 C 287.7615,85.0005 285.8895,84.24 285.7725,84.24 C 284.895,84.24 277.173,80.3205 274.248,78.39 C 272.3175,77.103 270.6795,76.05 270.5625,76.05 C 270.4455,76.05 268.6905,74.9385 266.643,73.593 C 264.5955,72.189 262.4895,70.8435 261.963,70.4925 C 261.4365,70.2 259.0965,68.7375 256.815,67.275 C 249.561,62.712 248.391,62.127 245.9925,61.7175 C 244.7055,61.4835 242.073,60.957 240.1425,60.5475 C 238.212,60.0795 232.947,58.9095 228.4425,57.915 C 223.938,56.9205 218.0295,55.575 215.28,54.99 C 212.5305,54.3465 204.8085,52.65 198.0225,51.1875 C 191.295,49.6665 179.946,47.2095 172.8675,45.63 C 165.789,44.0505 155.6685,41.8275 150.345,40.6575 C 145.0215,39.546 140.3415,38.4345 139.9905,38.3175 C 139.5225,38.2005 139.113,38.727 138.879,39.663 z " />
  <path
     style="fill:#000000;stroke:none"
     id="path5942"
     d="M 413.946,46.215 C 412.4835,47.6775 407.043,50.31 405.4635,50.31 C 404.7615,50.31 403.5915,51.012 402.8895,51.831 C 402.1875,52.65 400.9005,53.9955 400.023,54.873 C 399.087,55.692 398.385,56.8035 398.385,57.3885 C 398.385,57.9735 397.6245,59.9625 396.63,61.8345 C 395.694,63.648 394.875,64.8765 394.875,64.467 C 394.875,63.9405 392.3595,63.765 384.579,63.8235 C 373.6395,63.8235 372.06,64.1745 372.06,66.5145 C 372.06,67.3335 371.709,67.86 371.124,67.86 C 370.071,67.86 366.6195,69.6735 366.327,70.317 C 366.21,70.6095 365.3325,70.785 364.455,70.785 C 363.285,70.785 362.4075,71.253 361.7055,72.3645 C 361.1205,73.1835 359.9505,74.5875 359.073,75.5235 C 358.137,76.401 357.435,77.454 357.435,77.922 C 357.435,78.3315 356.733,79.326 355.9725,80.0865 C 355.1535,80.847 354.51,81.666 354.51,81.9585 C 354.51,82.251 353.457,84.1815 352.17,86.229 C 348.543,92.196 346.905,95.7645 346.905,97.695 C 346.905,99.0405 346.671,99.45 345.735,99.45 C 344.331,99.45 344.097,101.4975 345.4425,102.024 C 345.9105,102.1995 346.32,103.0185 346.32,103.8375 L 346.32,105.417 L 353.808,104.8905 C 357.903,104.6565 362.934,104.4225 364.9815,104.4225 L 368.7255,104.4225 L 369.6615,107.406 C 370.188,109.044 371.0655,111.033 371.592,111.852 C 372.1185,112.6125 372.8205,114.3675 373.1715,115.6545 C 373.5225,116.9415 374.8095,119.9835 376.0965,122.3235 C 377.325,124.722 378.495,127.3545 378.729,128.232 C 378.9045,129.168 379.3725,129.87 379.665,129.87 C 380.016,129.87 380.25,130.2795 380.25,130.806 C 380.25,131.3325 380.601,132.444 381.069,133.263 C 381.537,134.1405 382.473,136.1295 383.175,137.7675 C 383.877,139.347 384.7545,141.453 385.2225,142.4475 C 385.632,143.3835 386.1585,144.6705 386.334,145.197 C 386.5095,145.782 387.27,146.25 387.972,146.3085 C 388.7325,146.3085 389.844,146.484 390.4875,146.6595 C 391.131,146.835 393.0615,147.1275 394.758,147.2445 C 396.6885,147.42 398.0925,147.888 398.5605,148.5315 C 398.9115,149.058 400.4325,149.877 401.895,150.2865 C 404.9955,151.2225 406.107,151.5735 409.0905,152.919 C 410.319,153.4455 411.8985,153.855 412.6005,153.855 C 413.3025,153.9135 414.531,154.2645 415.35,154.7325 C 417.7485,156.1365 418.275,155.844 418.2165,153.0945 C 418.2165,151.749 418.041,149.643 417.807,148.4145 C 417.456,146.4255 417.105,146.016 415.0575,145.2555 C 413.7705,144.7875 411.7815,144.2025 410.67,143.9685 C 403.533,142.3305 396.747,138.9375 396.63,136.89 C 396.5715,135.72 395.226,133.965 394.407,133.965 C 393.12,133.965 389.61,131.976 389.61,131.274 C 389.61,130.8645 389.4345,130.455 389.2005,130.338 C 388.908,130.221 387.972,129.051 387.036,127.647 C 386.1,126.243 384.813,124.839 384.228,124.5465 C 383.3505,124.0785 383.175,123.552 383.4675,122.2065 C 383.7015,121.212 383.5845,120.51 383.292,120.51 C 382.941,120.51 381.9465,119.8665 381.0105,119.106 C 380.0745,118.287 378.612,117.468 377.7345,117.2925 C 376.857,117.0585 376.155,116.766 376.155,116.5905 C 376.155,115.8885 379.548,113.5485 380.601,113.49 C 381.303,113.49 382.005,113.0805 382.1805,112.671 C 382.356,112.203 383.526,111.618 384.7545,111.384 C 385.983,111.15 387.153,110.682 387.387,110.3895 C 387.621,109.9215 388.2645,109.98 389.3175,110.448 C 391.599,111.501 394.6995,110.799 395.109,109.161 C 395.2845,108.459 395.9865,107.2305 396.63,106.47 C 397.2735,105.7095 397.8,104.598 397.8,104.013 C 397.8,103.428 398.2095,102.7845 398.6775,102.609 C 399.1455,102.375 399.555,101.907 399.555,101.4975 C 399.555,101.088 400.374,99.8595 401.3685,98.8065 C 402.3045,97.7535 403.299,96.174 403.4745,95.238 C 403.65,94.3605 404.0595,93.6 404.2935,93.6 C 405.1125,93.6 407.16,89.973 407.16,88.5105 C 407.16,87.5745 407.6865,87.048 409.266,86.58 C 410.67,86.112 411.606,85.293 412.2495,83.9475 C 412.776,82.8945 413.7705,81.666 414.4725,81.315 C 415.584,80.73 417.105,78.507 417.105,77.5125 C 417.105,76.986 414.8235,77.22 414.4725,77.805 C 414.297,78.0975 412.8345,78.39 411.1965,78.39 L 408.33,78.39 L 408.33,71.4285 C 408.33,67.392 408.564,64.2915 408.915,64.0575 C 409.266,63.882 409.5,63.18 409.5,62.595 C 409.5,62.01 409.851,61.2495 410.2605,61.0155 C 410.67,60.7815 411.372,59.3775 411.7815,57.915 C 413.127,53.2935 414.3555,50.778 415.818,49.842 C 416.988,49.0815 418.86,46.332 418.86,45.3375 C 418.86,44.577 414.9405,45.2205 413.946,46.215 z " />
  <path
     style="fill:#000000;stroke:none"
     id="path5944"
     d="M 19.188,55.575 C 19.188,56.043 19.071,56.6865 19.0125,57.0375 C 18.8955,57.681 17.667,60.606 16.9065,62.1855 C 16.5555,62.7705 16.497,63.4725 16.6725,63.765 C 16.848,64.0575 16.497,64.5255 15.9705,64.8765 C 15.0345,65.3445 15.21,65.6955 17.433,67.8015 C 18.837,69.147 20.2995,70.2 20.709,70.2 C 21.1185,70.2 22.1715,70.902 22.9905,71.721 L 24.5115,73.242 L 24.921,71.5455 C 25.155,70.668 25.74,69.264 26.325,68.445 C 27.6705,66.3975 29.0745,63.18 29.5425,61.1325 C 29.7765,60.138 30.2445,58.7925 30.5955,58.032 C 31.824,55.5165 30.7125,54.9315 24.687,54.8145 C 20.2995,54.6975 19.305,54.873 19.188,55.575 z " />
  <path
     style="fill:#000000;stroke:none"
     id="path5946"
     d="M 104.598,72.891 C 104.3055,73.125 104.13,73.827 104.13,74.412 C 104.13,75.231 104.598,75.465 106.1775,75.465 C 107.523,75.465 108.81,75.9915 110.097,77.103 C 112.4955,79.092 116.0055,80.73 117.8775,80.73 C 119.106,80.73 119.34,80.4375 119.34,78.975 C 119.34,77.5125 118.8135,76.869 116.1225,75.114 C 113.4315,73.3005 112.2615,72.9495 108.9855,72.7155 C 106.7625,72.54 104.832,72.5985 104.598,72.891 z " />
  <path
     style="fill:#000000;stroke:none"
     id="path5948"
     d="M 74.88,80.6715 C 74.88,81.198 76.4595,83.3625 79.209,86.6385 C 81.9585,89.7975 82.8945,91.026 83.9475,92.664 C 85.176,94.536 87.165,94.5945 88.803,92.8395 C 91.3185,90.1485 90.4995,89.0955 82.485,84.6495 C 80.73,83.655 78.6825,82.251 77.922,81.4905 C 76.5765,80.145 74.88,79.677 74.88,80.6715 z " />
  <path
     style="fill:#000000;stroke:none"
     id="path5950"
     d="M 194.5125,83.421 C 193.869,83.538 183.7485,84.4155 171.99,85.41 C 160.2315,86.4045 147.0105,87.516 142.5645,87.9255 L 134.55,88.6275 L 148.6485,111.4425 C 156.3705,123.9615 162.8055,134.316 162.9225,134.433 C 163.0395,134.55 198.315,86.0535 199.719,83.772 C 200.1285,83.07 197.5545,82.8945 194.5125,83.421 z " />
  <path
     style="fill:#000000;stroke:none"
     id="path5952"
     d="M 127.296,93.834 C 126.7695,94.887 125.541,96.642 124.605,97.7535 C 123.6105,98.8065 122.85,100.035 122.85,100.386 C 122.85,100.6785 121.797,101.907 120.51,103.0185 C 119.223,104.13 117.468,105.5925 116.649,106.2945 C 115.83,107.055 114.8355,107.64 114.4845,107.64 C 114.075,107.64 112.905,108.4005 111.852,109.395 C 110.799,110.331 109.4535,111.15 108.81,111.15 C 108.225,111.15 107.172,111.852 106.4115,112.671 C 105.651,113.49 104.481,114.777 103.779,115.479 L 102.5505,116.766 L 104.1885,118.8135 C 105.1245,119.925 106.236,121.212 106.6455,121.68 C 107.055,122.148 107.991,123.4935 108.81,124.605 C 109.5705,125.7165 110.3895,126.7695 110.6235,126.945 C 110.8575,127.1205 112.2615,128.934 113.841,131.04 C 115.362,133.146 116.9415,135.1935 117.4095,135.603 C 117.819,136.0125 118.3455,136.7145 118.5795,137.124 C 118.872,137.5335 124.0785,139.815 130.1625,142.2135 L 141.2775,146.5425 L 151.983,146.718 C 157.833,146.835 162.63,146.718 162.5715,146.4255 C 162.5715,146.1915 161.4015,144.378 159.9975,142.4475 C 158.535,140.517 156.9555,138.0015 156.3705,136.89 C 155.844,135.7785 154.7325,133.7895 153.9135,132.5025 C 151.632,128.8755 150.9885,127.881 150.579,126.945 C 150.345,126.477 149.5845,125.2485 148.8825,124.3125 C 148.1805,123.318 147.42,122.148 147.186,121.68 C 146.6595,120.51 145.8405,119.1645 143.0325,114.9525 C 140.283,110.7405 139.4055,109.395 138.879,108.225 C 138.645,107.757 137.358,105.768 136.071,103.8375 C 132.678,98.748 132.2685,98.1045 131.8005,97.11 C 131.5665,96.642 130.689,95.2965 129.87,94.068 L 128.349,91.962 L 127.296,93.834 z " />
  <path
     style="fill:#000000;stroke:none"
     id="path5954"
     d="M 204.165,95.94 C 203.5215,96.5835 202.995,97.344 202.995,97.695 C 202.995,97.9875 202.3515,98.982 201.5325,99.8595 C 200.7135,100.7955 198.4905,103.8375 196.56,106.7625 C 194.6295,109.629 192.0555,113.49 190.827,115.245 C 189.657,117 186.9075,120.9195 184.743,123.8445 C 182.52,126.828 180.765,129.4605 180.765,129.636 C 180.765,129.8115 180.1215,130.7475 179.3025,131.742 C 178.4835,132.678 177.84,133.7895 177.84,134.2575 C 177.84,134.667 177.489,135.135 177.021,135.3105 C 176.6115,135.486 175.4415,136.9485 174.447,138.528 L 172.692,141.453 L 178.893,144.0855 L 185.1525,146.7765 L 185.211,149.877 C 185.2695,153.387 184.6845,154.44 182.8125,154.44 C 181.467,154.44 180.765,155.4345 180.765,157.365 C 180.765,158.301 181.6425,158.418 191.4705,158.769 C 197.3205,158.9445 214.2855,159.237 229.203,159.4125 L 256.23,159.705 L 256.23,157.0725 C 256.23,155.025 255.996,154.323 255.2355,154.0305 C 254.124,153.6795 250.7895,152.217 246.753,150.345 C 245.349,149.76 243.126,148.824 241.722,148.356 C 240.3765,147.8295 238.5045,146.601 237.627,145.6065 C 236.106,143.793 232.83,138.8205 232.83,138.3525 C 232.83,138.2355 231.8355,136.5975 230.5485,134.7255 C 229.32,132.8535 227.799,130.3965 227.214,129.285 C 226.5705,128.1735 225.1665,125.775 223.9965,124.02 C 222.885,122.265 221.7735,120.393 221.481,119.925 C 220.9545,118.8135 220.1355,117.468 217.4445,113.3145 C 216.2745,111.501 215.28,109.863 215.28,109.746 C 215.28,109.5705 214.2855,107.9325 213.057,106.0605 C 211.8285,104.1885 210.6,102.258 210.4245,101.79 C 210.1905,101.322 209.4885,100.0935 208.845,99.1575 C 208.2015,98.163 207.3825,96.8175 207.0315,96.057 C 206.154,94.4775 205.686,94.419 204.165,95.94 z " />
  <path
     style="fill:#000000;stroke:none"
     id="path5956"
     d="M 269.5095,102.375 C 255.1185,103.2525 243.1845,104.13 243.009,104.3055 C 242.7165,104.5395 275.2425,141.102 276.0615,141.3945 C 276.237,141.5115 278.8695,136.89 281.7945,131.157 C 284.778,125.4825 289.6335,116.2395 292.5585,110.682 C 296.7705,102.6675 297.648,100.62 296.7705,100.6785 C 296.1855,100.737 283.9005,101.4975 269.5095,102.375 z " />
  <path
     style="fill:#000000;stroke:none"
     id="path5958"
     d="M 59.553,105.5925 C 58.968,106.353 58.5,107.289 58.5,107.5815 C 58.5,107.9325 57.9735,108.225 57.33,108.225 C 56.6865,108.225 56.16,108.459 56.16,108.81 C 56.16,109.1025 55.3995,109.746 54.405,110.2725 C 53.469,110.799 52.65,111.5595 52.65,112.0275 C 52.65,112.905 52.0065,113.139 50.427,112.9635 C 50.0175,112.905 48.9645,113.373 48.0285,114.075 C 47.0925,114.7185 45.9225,115.245 45.396,115.245 C 44.8695,115.245 44.46,115.479 44.46,115.83 C 44.46,116.5905 42.5295,116.5905 41.769,115.83 C 41.0085,115.0695 38.376,116.4735 38.142,117.7605 C 38.025,118.287 38.727,119.574 39.7215,120.5685 C 40.716,121.563 41.535,122.499 41.535,122.6745 C 41.535,123.3765 43.641,124.5465 44.7525,124.5465 C 46.5075,124.5465 53.82,120.6855 53.82,119.7495 C 53.82,119.5155 54.2295,119.34 54.6975,119.34 C 55.1655,119.34 55.575,119.106 55.575,118.872 C 55.575,118.5795 56.277,117.9945 57.213,117.5265 C 60.489,115.83 61.4835,114.2505 62.01,109.4535 C 62.244,107.055 62.361,104.832 62.244,104.598 C 61.7175,103.7205 60.5475,104.1885 59.553,105.5925 z " />
  <path
     style="fill:#000000;stroke:none"
     id="path5960"
     d="M 354.51,109.044 L 344.8575,109.6875 L 344.916,112.7295 C 344.9745,114.66 345.384,116.1225 345.969,116.7075 C 346.554,117.2925 346.905,118.638 346.905,120.276 C 346.905,122.616 346.788,122.85 345.4425,122.85 C 343.5705,122.85 341.991,121.212 341.757,119.0475 C 341.6985,118.053 341.055,116.883 340.47,116.298 C 339.8265,115.7715 339.3,115.0695 339.3,114.7185 C 339.3,114.3675 338.832,113.139 338.3055,112.0275 C 337.3695,110.097 337.077,109.9215 335.6145,110.214 C 334.6785,110.3895 332.9235,110.565 331.695,110.565 L 329.5305,110.565 L 330.057,114.4845 C 330.3495,116.7075 330.8175,118.989 331.11,119.6325 C 331.7535,121.095 332.28,123.6105 332.6895,126.8865 L 332.982,129.4605 L 330.4665,129.1095 C 327.7755,128.7585 326.079,127.2375 325.494,124.605 C 324.6165,120.51 323.271,116.649 322.569,116.2395 C 322.1595,116.0055 321.633,114.894 321.399,113.7825 C 321.2235,112.6125 320.814,111.5595 320.5215,111.384 C 320.229,111.2085 318.2985,111.267 316.251,111.4425 L 312.5655,111.852 L 313.3845,113.5485 C 313.8525,114.4845 314.496,115.245 314.7885,115.245 C 315.081,115.245 315.315,115.713 315.315,116.298 C 315.315,116.9415 316.017,118.4625 316.953,119.691 C 317.8305,120.9195 319.293,123.4935 320.2875,125.307 C 321.3405,127.413 322.3935,128.7 322.9785,128.7 C 324.1485,128.7 325.6695,129.519 330.174,132.5025 C 332.046,133.7895 334.035,135.0765 334.503,135.4275 C 335.0295,135.72 337.1355,137.124 339.183,138.4695 C 341.2305,139.8735 343.044,140.985 343.2195,140.985 C 343.4535,140.985 344.097,141.3945 344.682,141.9795 C 345.735,142.9155 346.9635,143.7345 349.713,145.1385 C 350.8245,145.782 351.1755,145.665 351.8775,144.729 C 352.3455,144.144 352.755,143.1495 352.755,142.5645 C 352.755,141.6285 353.457,139.8735 356.031,134.1405 C 356.499,133.146 356.85,131.976 356.85,131.508 C 356.85,131.0985 357.2595,130.221 357.7275,129.636 C 358.1955,128.9925 358.605,127.998 358.605,127.413 C 358.605,126.828 358.7805,126.36 359.073,126.36 C 359.307,126.36 360.009,124.956 360.594,123.2595 C 361.179,121.6215 362.4075,118.5795 363.3435,116.532 C 364.2795,114.4845 365.2155,112.203 365.391,111.384 C 365.5665,110.6235 365.976,109.8045 366.2685,109.629 C 367.263,109.044 366.795,108.225 365.508,108.342 C 364.7475,108.4005 359.8335,108.693 354.51,109.044 z " />
  <path
     style="fill:#000000;stroke:none"
     id="path5962"
     d="M 293.202,127.881 C 288.288,137.6505 284.31,145.9575 284.31,146.25 C 284.31,146.835 289.224,149.292 293.085,150.6375 C 294.7815,151.2225 295.191,151.632 295.308,153.2115 C 295.4835,154.791 295.2495,155.142 293.787,155.6685 C 292.617,156.078 291.915,156.8385 291.5055,158.2425 L 290.862,160.2315 L 313.5015,160.407 C 325.9035,160.524 336.141,160.5825 336.1995,160.5825 C 336.1995,160.5825 336.4335,159.354 336.6675,157.833 C 337.0185,155.4345 336.96,154.9665 336.024,154.7325 C 335.3805,154.557 334.152,153.972 333.2745,153.504 C 332.3385,153.0945 331.344,152.685 331.11,152.685 C 330.8175,152.685 329.121,152.1585 327.3075,151.4565 C 324.2655,150.345 323.973,149.994 322.335,146.6595 C 319.761,141.336 315.315,133.2045 314.379,132.1515 C 313.911,131.6835 313.56,130.8645 313.56,130.3965 C 313.56,129.9285 312.975,128.6415 312.273,127.53 C 310.986,125.3655 310.5765,124.605 306.8325,117.8775 C 305.5455,115.596 303.966,112.9635 303.3225,111.969 L 302.094,110.1555 L 293.202,127.881 z " />
  <path
     style="fill:#000000;stroke:none"
     id="path5964"
     d="M 17.3745,123.201 C 15.912,123.9615 15.7365,124.371 16.146,125.658 C 16.5555,127.2375 16.731,128.817 16.9065,131.8005 C 16.9065,132.678 17.3745,133.5555 17.8425,133.731 C 18.6615,134.082 22.2885,131.9175 22.113,131.157 C 22.0545,130.923 22.23,129.519 22.464,128.0565 C 22.815,125.892 22.698,125.0145 21.9375,123.786 C 20.7675,122.031 19.7145,121.914 17.3745,123.201 z " />
  <path
     style="fill:#000000;stroke:none"
     id="path5966"
     d="M 367.497,126.36 C 367.146,127.0035 366.795,127.8225 366.795,128.232 C 366.795,128.583 366.2685,130.104 365.5665,131.5665 C 364.923,133.029 364.104,134.784 363.87,135.4275 C 363.5775,136.071 362.466,138.5865 361.3545,140.985 C 359.424,145.314 358.3125,148.6485 358.722,149.1165 C 358.839,149.2335 360.5355,149.409 362.466,149.526 C 365.3325,149.76 366.327,149.5845 367.0875,148.7655 C 367.7895,148.122 369.3105,147.7125 371.709,147.537 C 373.6395,147.42 375.9795,147.069 376.857,146.718 C 378.2025,146.1915 378.4365,145.899 378.144,144.5535 C 377.91,143.7345 377.559,142.74 377.3835,142.4475 C 377.1495,142.0965 376.623,140.8095 376.2135,139.5225 C 375.5115,137.241 375.219,136.539 372.762,131.04 C 372.1185,129.5775 371.4165,127.7055 371.241,126.7695 C 370.773,124.839 368.6085,124.605 367.497,126.36 z " />
  <path
     style="fill:#000000;stroke:none"
     id="path5968"
     d="M 90.558,127.764 C 89.973,128.1735 89.505,128.817 89.505,129.2265 C 89.505,129.5775 89.0955,129.87 88.6275,129.87 C 88.1595,129.87 87.75,130.104 87.75,130.455 C 87.75,130.7475 87.3405,131.04 86.814,131.04 C 83.8305,131.04 81.2565,135.0765 80.4375,140.8095 C 80.2035,142.506 79.794,143.91 79.5015,143.91 C 79.1505,143.91 78.975,144.261 79.0335,144.612 C 79.2675,145.782 78.3315,149.3505 77.454,150.6375 C 76.986,151.281 76.635,152.3925 76.635,153.0945 C 76.635,153.855 76.401,154.44 76.05,154.44 C 75.7575,154.44 75.465,154.9665 75.465,155.5515 C 75.465,156.195 75.114,156.78 74.763,156.897 C 73.944,157.1895 104.247,157.95 116.064,157.95 L 123.6105,157.95 L 123.2595,153.738 C 122.967,150.579 122.616,149.2335 121.68,148.356 C 121.0365,147.654 116.2395,145.4895 110.9745,143.559 L 101.4975,139.932 L 97.578,134.784 C 91.494,126.594 91.728,126.828 90.558,127.764 z " />
  <path
     style="fill:#000000;stroke:none"
     id="path5970"
     d="M 326.43,136.539 C 326.43,137.007 326.664,137.5335 326.9565,137.709 C 327.249,137.8845 328.185,139.4055 329.0625,141.102 C 329.94,142.74 330.9345,144.6705 331.344,145.314 C 332.2215,146.952 334.971,149.76 335.673,149.76 C 335.9655,149.76 337.2525,150.462 338.481,151.3395 C 340.353,152.6265 341.5815,152.919 345.5595,153.153 C 352.1115,153.504 352.9305,153.0945 350.064,151.047 C 348.777,150.111 347.373,149.2335 346.905,148.9995 C 345.9105,148.5315 344.331,147.4785 339.3,144.027 C 337.311,142.6815 335.556,141.57 335.439,141.57 C 335.322,141.57 333.567,140.4585 331.5195,139.0545 C 326.547,135.5445 326.43,135.5445 326.43,136.539 z " />
  <path
     style="fill:#000000;stroke:none"
     id="path5972"
     d="M 12.636,140.751 C 12.402,141.3945 12.6945,141.804 13.455,141.9795 C 14.0985,142.155 14.625,142.506 14.625,142.7985 C 14.625,143.091 15.0345,143.325 15.5025,143.325 C 15.9705,143.325 16.848,143.559 17.433,143.8515 C 17.9595,144.2025 19.1295,144.5535 19.9485,144.729 C 20.7675,144.9045 22.0545,145.6065 22.815,146.25 C 23.5755,146.8935 24.57,147.42 25.0965,147.42 C 25.623,147.42 26.676,147.9465 27.495,148.59 C 28.314,149.2335 29.3085,149.76 29.718,149.76 C 30.4785,149.76 32.8185,150.93 33.345,151.5735 C 33.8715,152.2755 40.365,154.089 40.7745,153.621 C 41.0085,153.387 40.8915,152.685 40.482,152.1 C 40.0725,151.4565 39.78,150.579 39.78,150.111 C 39.78,149.643 39.1365,148.7655 38.3175,148.122 C 37.4985,147.4785 36.855,146.718 36.855,146.367 C 36.855,146.016 34.866,145.314 32.4675,144.729 C 30.069,144.144 28.08,143.5005 28.08,143.2665 C 28.08,142.974 26.7345,142.9155 25.0965,143.091 C 23.283,143.325 21.879,143.1495 21.3525,142.74 C 20.943,142.389 20.241,142.155 19.773,142.2135 C 19.3635,142.3305 17.8425,141.804 16.4385,141.102 C 13.338,139.581 13.104,139.5225 12.636,140.751 z " />
  <path
     style="fill:#000000;stroke:none"
     id="path5974"
     d="M 73.71,164.9115 C 73.71,165.2625 73.944,165.6135 74.2365,165.8475 C 74.529,166.023 75.2895,167.427 75.816,168.948 C 76.401,170.469 77.337,172.224 77.922,172.809 C 78.4485,173.394 78.7995,174.1545 78.624,174.3885 C 78.4485,174.681 79.326,176.9625 80.5545,179.4195 C 81.783,181.935 82.836,184.2165 82.836,184.5675 C 82.8945,184.86 82.953,185.562 83.0115,186.03 C 83.187,187.4925 85.41,189.891 85.9365,189.072 C 86.5215,188.0775 90.207,185.445 90.9675,185.445 C 92.0205,185.445 91.026,191.178 89.4465,194.22 C 88.686,195.6825 87.9255,197.7885 87.8085,198.9 C 87.75,200.0115 87.4575,201.357 87.2235,201.825 C 86.931,202.293 86.697,203.9895 86.6385,205.5105 C 86.5215,208.3185 84.591,212.94 83.5965,212.94 C 83.304,212.94 83.07,213.4665 83.07,214.11 C 83.07,214.7535 82.836,215.28 82.485,215.28 C 82.1925,215.28 81.9,215.5725 81.9,215.9235 C 81.9,216.567 80.613,218.2635 77.1615,222.2415 C 76.2255,223.353 75.465,224.5815 75.465,225.0495 C 75.465,225.459 75.231,225.81 74.9385,225.81 C 74.646,225.81 73.827,226.746 73.0665,227.8575 C 72.306,228.969 71.3115,229.905 70.9605,229.905 C 70.551,229.905 70.2,230.4315 70.2,231.0165 C 70.2,231.6015 69.7905,232.245 69.3225,232.479 C 68.8545,232.6545 68.445,233.181 68.445,233.649 C 68.445,234.0585 68.0355,234.585 67.5675,234.819 C 67.0995,234.9945 66.69,235.521 66.69,236.0475 C 66.69,236.5155 66.2805,236.925 65.8125,236.925 C 65.3445,236.925 64.935,237.276 64.935,237.744 C 64.935,238.212 64.6425,238.68 64.2915,238.797 C 63.765,238.9725 63.765,239.5575 64.2915,241.0785 C 64.6425,242.2485 64.935,244.998 64.8765,247.221 C 64.7595,252.6615 65.2275,260.208 65.6955,260.676 C 65.9295,260.91 65.8125,261.4365 65.4615,261.9045 C 65.1105,262.314 64.935,262.665 65.169,262.665 C 65.3445,262.665 65.169,263.601 64.701,264.7125 C 64.1745,265.8825 63.9405,267.1695 64.116,267.6375 C 64.584,268.8075 62.244,273.7215 60.957,274.1895 C 60.4305,274.4235 59.3775,275.184 58.617,276.003 C 57.8565,276.7635 57.096,277.29 56.9205,277.1145 C 56.745,276.8805 55.107,277.758 53.2935,278.9865 C 49.959,281.2095 48.0285,282.204 47.268,282.087 C 46.215,281.853 43.875,283.1985 43.875,284.0175 C 43.875,285.3045 45.747,285.1875 68.0355,282.204 C 79.0335,280.7415 91.4355,279.1035 95.6475,278.5185 L 103.2525,277.524 L 103.662,275.2425 C 103.896,273.9555 104.0715,248.508 104.0715,218.6145 L 104.13,164.385 L 88.92,164.385 C 79.794,164.385 73.71,164.619 73.71,164.9115 z " />
  <path
     style="fill:#000000;stroke:none"
     id="path5976"
     d="M 108.342,220.311 C 108.459,250.965 108.6345,276.1785 108.81,276.2955 C 108.9855,276.471 111.5595,276.2955 114.543,276.003 C 118.872,275.4765 119.925,275.184 119.925,274.4235 C 119.925,273.897 119.2815,255.06 118.4625,232.5375 C 117.117,194.22 116.3565,182.403 115.1865,181.0575 C 114.426,180.297 114.543,178.191 115.362,177.372 C 116.181,176.553 118.521,176.436 119.0475,177.255 C 119.574,178.074 132.795,183.69 134.2575,183.69 C 134.433,183.69 134.55,179.3025 134.55,173.979 L 134.55,164.3265 L 121.3875,164.502 L 108.225,164.6775 L 108.342,220.311 z " />
  <path
     style="fill:#000000;stroke:none"
     id="path5978"
     d="M 138.762,174.7395 L 138.9375,185.094 L 141.8625,185.796 C 144.9045,186.615 159.1785,189.2475 163.9755,189.891 L 166.725,190.242 L 166.725,177.3135 L 166.725,164.385 L 152.685,164.385 L 138.645,164.385 L 138.762,174.7395 z " />
  <path
     style="fill:#000000;stroke:none"
     id="path5980"
     d="M 170.82,177.489 L 170.82,190.6515 L 173.3355,191.0025 C 181.584,192.114 191.5875,192.582 215.163,192.8745 L 241.605,193.2255 L 241.605,178.776 L 241.605,164.385 L 206.2125,164.385 L 170.82,164.385 L 170.82,177.489 z " />
  <path
     style="fill:#000000;stroke:none"
     id="path5982"
     d="M 245.7,178.425 L 245.7,192.465 L 249.678,192.465 C 251.8425,192.465 255.0015,192.2895 256.698,192.114 L 259.74,191.7045 L 259.74,178.074 L 259.74,164.385 L 252.72,164.385 L 245.7,164.385 L 245.7,178.425 z " />
  <path
     style="fill:#000000;stroke:none"
     id="path5984"
     d="M 263.835,178.074 L 263.835,191.763 L 266.3505,191.529 C 285.6555,189.8325 305.604,187.317 310.9275,185.9715 C 312.2145,185.6205 314.847,185.0355 316.7775,184.743 C 318.708,184.392 321.633,183.807 323.2125,183.3975 L 326.1375,182.754 L 326.313,173.5695 L 326.4885,164.385 L 295.1325,164.385 L 263.835,164.385 L 263.835,178.074 z " />
  <path
     style="fill:#000000;stroke:none"
     id="path5986"
     d="M 330.525,171.405 C 330.525,176.6115 330.7005,178.425 331.2855,178.425 C 331.9875,178.425 334.035,175.3245 334.035,174.213 C 334.035,173.862 335.205,172.2825 336.6675,170.7615 C 338.598,168.714 339.3,167.4855 339.3,166.14 L 339.3,164.385 L 334.9125,164.385 L 330.525,164.385 L 330.525,171.405 z " />
  <path
     style="fill:#000000;stroke:none"
     id="path5988"
     d="M 369.369,175.5 C 368.4915,176.3775 359.3655,177.1965 358.6635,176.4945 C 358.4295,176.2605 357.2595,176.2605 356.2065,176.4945 L 354.2175,177.021 L 354.042,187.7265 C 353.925,198.198 353.925,198.3735 355.0365,197.3205 C 355.6215,196.7355 356.5575,194.9805 357.084,193.401 C 358.5465,189.072 361.296,185.2695 364.221,183.3975 C 365.6835,182.4615 367.38,180.999 368.0235,180.1215 C 368.784,179.0685 369.486,178.6005 370.2465,178.8345 C 371.5335,179.1855 374.2245,176.8455 373.464,176.085 C 372.528,175.2075 370.0125,174.8565 369.369,175.5 z " />
  <path
     style="fill:#000000;stroke:none"
     id="path5990"
     d="M 35.1,186.147 C 33.9885,186.498 30.654,186.9075 27.6705,187.1415 C 22.932,187.434 22.113,187.668 20.6505,189.0135 C 18.369,191.178 16.7895,191.88 14.391,191.88 C 12.4605,191.88 12.285,192.0555 12.285,193.4595 C 12.285,197.145 12.8115,197.73 15.795,197.73 C 17.316,197.73 20.124,197.262 21.996,196.6185 C 23.9265,196.0335 26.9685,195.2145 28.8405,194.805 C 30.7125,194.337 32.3505,193.8105 32.526,193.518 C 32.7015,193.284 33.93,193.05 35.334,193.05 C 38.61,193.05 41.7105,190.3005 41.418,187.551 C 41.2425,185.913 41.0085,185.7375 39.195,185.6205 C 38.0835,185.562 36.2115,185.796 35.1,186.147 z " />
  <path
     style="fill:#000000;stroke:none"
     id="path5992"
     d="M 381.42,191.295 C 381.42,191.646 380.7765,192.1725 380.016,192.5235 C 379.2555,192.8745 378.3195,193.8105 377.9685,194.571 C 377.676,195.3315 376.6815,196.092 375.8625,196.326 C 375.0435,196.5015 374.4,196.911 374.4,197.2035 C 374.4,197.496 373.7565,198.081 372.9375,198.432 C 372.1185,198.783 371.475,199.5435 371.475,200.187 C 371.475,200.8305 371.0655,201.24 370.305,201.24 C 369.72,201.24 368.9595,201.591 368.7255,202.0005 C 368.4915,202.3515 367.5555,203.0535 366.678,203.5215 C 365.742,203.9895 365.04,204.6915 365.04,205.1595 C 365.04,205.569 364.5135,205.92 363.87,205.92 C 363.2265,205.92 362.7,206.154 362.7,206.505 C 362.7,206.7975 362.349,207.09 361.881,207.09 C 361.413,207.09 360.945,207.3825 360.828,207.675 C 360.711,208.026 359.307,208.4355 357.669,208.611 C 355.68,208.845 354.4515,209.3715 354.042,210.0735 C 353.574,210.834 353.223,216.801 352.9305,227.916 L 352.5795,244.647 L 354.5685,244.296 C 355.68,244.1205 358.6635,243.711 361.2375,243.4185 C 372.2355,241.956 379.4895,240.9615 381.303,240.669 L 383.175,240.3765 L 383.175,228.9105 L 383.175,217.4445 L 382.005,218.79 C 381.3615,219.5505 380.835,220.6035 380.835,221.247 C 380.835,221.832 380.601,222.3 380.3085,222.3 C 380.016,222.3 379.6065,223.47 379.431,224.9325 C 379.197,226.395 378.7875,227.565 378.4365,227.565 C 378.144,227.565 377.91,227.799 377.91,228.15 C 377.91,229.3785 375.5115,231.075 373.815,231.075 C 372.294,231.075 372.06,230.841 372.06,229.437 C 372.06,228.5595 372.3525,226.863 372.7035,225.576 C 373.347,223.1775 374.3415,218.205 374.634,216.0405 C 374.6925,215.28 374.985,214.5195 375.1605,214.2855 C 375.3945,214.11 375.57,213.291 375.57,212.5305 C 375.57,211.77 375.8625,211.185 376.155,211.185 C 376.506,211.185 376.74,210.8925 376.74,210.6 C 376.74,210.249 377.2665,209.3715 377.9685,208.6695 C 378.612,207.9675 379.314,206.6805 379.4895,205.7445 C 379.7235,204.6915 380.1915,204.165 380.8935,204.165 C 381.654,204.165 382.005,203.7555 382.005,202.761 C 382.005,201.942 382.2975,201.123 382.59,200.9475 C 382.941,200.772 383.175,198.3735 383.175,195.624 C 383.175,191.646 382.9995,190.71 382.2975,190.71 C 381.8295,190.71 381.42,191.0025 381.42,191.295 z " />
  <path
     style="fill:#000000;stroke:none"
     id="path5994"
     d="M 411.84,204.282 C 410.3775,204.984 409.149,205.803 409.032,206.037 C 408.915,206.271 408.33,206.505 407.6865,206.505 C 405.99,206.505 400.608,211.302 398.6775,214.578 C 397.6245,216.2745 396.981,216.7425 393.588,218.1465 C 392.535,218.556 391.95,219.1995 391.95,219.96 C 391.95,221.7735 390.429,223.0605 388.7325,222.7095 L 387.27,222.4755 L 387.27,233.2395 C 387.27,241.3125 387.0945,244.062 386.568,244.2375 C 386.1585,244.413 378.3195,245.583 369.1935,246.87 C 360.0675,248.157 352.521,249.2685 352.4625,249.327 C 352.3455,249.561 348.0165,420.381 348.1335,422.37 C 348.192,423.657 348.2505,423.657 348.7185,421.9605 C 349.011,420.9075 349.7715,419.796 350.415,419.445 C 351.0585,419.094 351.585,418.392 351.585,417.924 C 351.585,417.3975 351.9945,416.637 352.4625,416.169 C 352.9305,415.701 353.1645,414.999 352.989,414.5895 C 352.872,414.18 353.574,412.893 354.6855,411.7815 C 357.2595,409.149 359.775,403.7085 359.775,400.7835 C 359.775,399.4965 360.0675,398.268 360.36,398.0925 C 360.711,397.917 360.945,397.098 360.945,396.3375 C 360.945,395.577 361.413,394.641 361.998,394.3485 C 362.5245,393.9975 362.6415,393.705 362.2905,393.705 C 361.881,393.705 361.53,393.4125 361.53,393.12 C 361.53,392.769 361.881,392.535 362.2905,392.535 C 363.051,392.4765 365.04,388.6155 365.04,387.036 C 365.04,386.5095 365.391,385.9245 365.859,385.749 C 366.327,385.5735 366.795,384.696 366.9705,383.8185 C 367.146,382.8825 367.731,381.7125 368.2575,381.2445 C 368.7255,380.718 369.135,379.9575 369.135,379.431 C 369.135,378.963 369.6615,378.261 370.305,377.91 C 370.9485,377.559 371.475,376.9155 371.475,376.4475 C 371.475,375.9795 371.709,375.57 372.0015,375.57 C 372.528,375.57 374.517,374.049 377.1495,371.592 C 377.91,370.89 379.0215,370.305 379.665,370.305 C 380.25,370.305 380.835,370.071 380.952,369.837 C 381.303,368.9595 389.9025,365.04 391.365,365.04 C 392.769,365.04 396.1035,364.0455 402.363,361.764 C 404.0595,361.1205 404.82,360.477 404.82,359.775 C 404.82,359.19 405.2295,358.3125 405.6975,357.786 C 406.1655,357.318 406.575,356.4405 406.575,355.8555 C 406.575,354.1005 409.968,350.415 411.606,350.415 C 412.425,350.415 413.01,350.064 413.01,349.596 C 413.01,349.128 414.0045,348.1335 415.233,347.4315 C 416.403,346.671 417.6315,345.735 417.8655,345.3255 C 418.0995,344.916 418.86,344.565 419.445,344.565 C 420.0885,344.565 420.615,344.1555 420.615,343.6875 C 420.615,342.8685 421.9605,342.5175 424.359,342.7515 C 426.0555,342.8685 427.518,344.448 427.986,346.4955 C 428.1615,347.49 428.7465,348.66 429.156,349.128 C 429.624,349.5375 429.975,350.532 429.975,351.2925 C 429.975,352.053 430.2675,352.755 430.6185,352.872 C 430.9695,352.989 431.379,354.393 431.5545,355.9725 C 432.0225,359.9505 432.4905,360.477 434.9475,359.424 C 436.059,358.956 437.1705,358.605 437.463,358.605 C 438.2235,358.605 441.675,361.881 441.675,362.583 C 441.675,362.9925 441.909,363.285 442.2015,363.285 C 443.079,363.285 444.015,366.795 444.015,370.071 C 444.015,373.698 444.6585,374.166 447.408,372.528 C 449.3385,371.358 450.6255,371.2995 455.598,372.3525 L 457.47,372.762 L 457.47,355.446 C 457.47,338.3055 457.47,338.0715 456.3,338.715 C 455.6565,339.066 454.9545,340.002 454.779,340.7625 C 454.545,341.8155 454.0185,342.225 453.0825,342.225 C 451.854,342.225 451.737,341.874 451.503,339.3 C 451.386,337.2525 451.5615,336.375 452.088,336.375 C 452.6145,336.375 452.79,334.737 452.79,330.2325 C 452.79,326.547 453.024,324.09 453.375,324.09 C 453.726,324.09 453.96,323.4465 453.96,322.6275 C 453.96,320.8725 456.066,316.485 456.885,316.485 C 457.236,316.485 457.47,312.9165 457.4115,307.242 C 457.4115,299.4615 457.236,298.2915 456.651,299.6955 C 455.6565,301.9185 455.13,301.0995 455.13,297.18 C 455.13,295.3665 454.9545,293.7285 454.779,293.4945 C 454.545,293.319 453.5505,293.787 452.4975,294.5475 C 451.503,295.3665 450.333,296.01 449.982,296.01 C 448.929,296.01 445.77,298.0575 445.77,298.7595 C 445.77,299.1105 445.0095,299.5785 444.0735,299.8125 C 443.1375,299.988 442.026,300.573 441.6165,301.041 C 441.2655,301.509 440.622,301.86 440.154,301.86 C 439.7445,301.86 439.101,302.3865 438.75,303.03 C 438.399,303.6735 437.814,304.2 437.4045,304.2 C 436.995,304.2 436.3515,304.7265 435.942,305.37 C 435.474,306.189 434.5965,306.54 433.1925,306.54 C 431.7885,306.54 431.145,306.8325 431.145,307.4175 C 431.145,308.1195 430.2675,308.295 426.699,308.295 L 422.1945,308.295 L 422.5455,304.3755 C 422.721,302.211 423.1305,300.339 423.4815,300.222 C 423.8325,300.105 424.125,299.637 424.125,299.169 C 424.125,298.701 424.4175,298.35 424.71,298.35 C 425.061,298.35 425.295,297.8235 425.295,297.18 C 425.295,296.4195 426.0555,295.542 427.3425,294.7815 C 428.805,293.904 429.39,293.1435 429.39,292.0905 C 429.39,290.6865 429.273,290.628 427.2255,290.9205 C 425.997,291.1545 424.3005,291.8565 423.423,292.5 C 422.5455,293.1435 421.551,293.67 421.2,293.67 C 420.9075,293.67 420.615,293.904 420.615,294.255 C 420.615,294.5475 420.0885,294.84 419.3865,294.84 C 417.69,294.84 414.8235,296.595 414.414,297.882 C 414.0045,299.169 411.255,300.69 409.3245,300.69 C 407.8035,300.69 404.82,301.9185 404.82,302.562 C 404.82,302.8545 404.2935,303.03 403.7085,303.03 C 402.0705,303.03 401.661,301.275 403.065,300.2805 C 404.001,299.637 404.235,298.9935 404.001,297.7065 C 403.8255,296.7705 403.4745,295.191 403.299,294.255 C 403.065,292.968 403.182,292.5 403.8255,292.5 C 404.703,292.5 405.405,291.33 405.405,289.7505 C 405.405,287.937 408.0375,283.608 409.6755,282.789 C 411.8985,281.619 416.52,276.9975 416.52,275.886 C 416.52,275.3595 417.0465,274.6575 417.69,274.248 C 418.3335,273.8385 418.86,273.195 418.86,272.7855 C 418.86,272.376 419.094,272.025 419.3865,272.025 C 419.679,272.025 420.147,271.4985 420.3225,270.855 C 420.498,270.2115 421.083,269.685 421.551,269.685 C 422.253,269.685 424.008,268.398 426.231,266.292 C 426.6405,265.941 427.3425,265.59 427.752,265.59 C 428.7465,265.59 434.655,260.2665 434.655,259.389 C 434.655,258.57 439.218,253.89 440.037,253.89 C 440.388,253.89 441.324,253.422 442.143,252.7785 C 443.0205,252.1935 444.366,251.4915 445.185,251.2575 C 449.397,250.029 451.035,248.976 451.035,247.455 C 451.035,246.636 450.6255,245.4075 450.1575,244.764 C 449.631,244.062 449.3385,242.307 449.28,239.967 L 449.28,236.34 L 446.706,236.34 C 444.7755,236.34 443.8395,235.989 442.611,234.819 C 441.792,233.9415 441.09,232.7715 441.09,232.1865 C 441.09,231.6015 440.5635,231.0165 439.9785,230.7825 C 438.6915,230.373 438.9255,228.735 440.271,228.735 C 441.4995,228.735 441.2655,226.2195 439.92,224.64 C 439.1595,223.821 438.75,222.4755 438.75,221.013 C 438.75,219.1995 438.5745,218.79 437.58,218.79 C 436.9365,218.79 436.41,219.1995 436.41,219.6675 C 436.41,220.1355 436.059,220.545 435.591,220.545 C 435.123,220.545 434.187,221.1885 433.4265,222.0075 C 432.666,222.768 431.6715,223.47 431.3205,223.47 C 430.911,223.47 430.56,224.1135 430.56,224.9325 C 430.56,225.81 430.209,226.395 429.741,226.395 C 429.273,226.395 428.6295,227.1555 428.2785,228.15 C 427.986,229.086 427.3425,229.905 426.8745,229.905 C 426.1725,229.905 425.3535,231.192 422.4285,236.6325 C 421.785,237.861 421.434,240.669 421.2,246.285 C 420.966,253.422 420.7905,254.1825 419.796,254.358 C 418.2165,254.709 415.935,253.305 415.935,252.018 C 415.935,249.795 413.0685,246.051 411.5475,246.402 C 411.021,246.4605 410.1435,247.338 409.617,248.3325 C 409.0905,249.2685 408.2715,250.3215 407.9205,250.5555 C 407.511,250.7895 407.16,251.3745 407.16,251.784 C 407.16,252.252 406.809,252.8955 406.341,253.2465 C 405.2295,254.1825 401.895,261.3195 401.895,262.7235 C 401.895,263.367 401.6025,263.835 401.31,263.835 C 400.959,263.835 400.023,265.2975 399.1455,267.0525 C 397.917,269.568 397.2735,270.27 396.2205,270.27 C 394.9335,270.27 394.875,270.0945 394.875,264.8295 C 394.758,235.8135 394.992,232.245 397.0395,230.022 C 397.449,229.6125 397.9755,228.5595 398.151,227.682 C 398.385,226.8045 398.853,225.81 399.2625,225.5175 C 399.6135,225.1665 400.3155,224.289 400.725,223.47 C 401.1345,222.651 401.9535,221.6565 402.5385,221.3055 C 403.065,220.896 403.7085,219.492 403.9425,218.2635 C 404.1765,216.801 404.8785,215.5725 405.756,214.8705 C 406.5165,214.2855 407.16,213.525 407.16,213.1155 C 407.16,212.706 407.4525,212.355 407.745,212.355 C 408.096,212.355 408.33,212.121 408.33,211.8285 C 408.33,211.068 410.9625,208.26 411.606,208.26 C 412.1325,208.26 415.35,203.9895 415.35,203.346 C 415.35,202.761 414.531,202.9365 411.84,204.282 z " />
  <path
     style="fill:#000000;stroke:none"
     id="path5996"
     d="M 220.3695,208.26 C 209.43,212.1795 197.4375,215.4555 182.988,218.3805 L 170.82,220.779 L 170.82,240.2595 C 170.82,250.965 170.937,259.74 171.054,259.74 C 171.171,259.74 171.756,258.219 172.2825,256.347 C 173.745,251.316 175.0905,249.093 178.1325,246.987 C 180.5895,245.349 181.35,245.115 184.8015,245.115 C 188.3115,245.115 188.8965,245.2905 190.3005,246.753 C 192.4065,248.9175 195.039,255.06 196.209,260.442 C 197.3205,265.5315 197.0865,265.356 202.4685,264.4785 C 204.2235,264.186 213.1155,262.9575 222.3,261.7875 C 231.4845,260.6175 239.5575,259.5645 240.318,259.389 L 241.605,259.155 L 241.605,233.2395 L 241.605,207.324 L 236.808,206.5635 C 234.117,206.154 231.192,205.7445 230.1975,205.6275 C 229.086,205.452 225.459,206.4465 220.3695,208.26 z " />
  <path
     style="fill:#000000;stroke:none"
     id="path5998"
     d="M 335.4975,206.9145 C 334.2105,207.0315 332.5725,207.2655 331.8705,207.3825 L 330.525,207.675 L 330.525,227.6235 L 330.525,247.572 L 332.4555,247.2795 C 333.45,247.104 335.556,246.753 337.1355,246.519 L 339.885,246.168 L 339.885,226.3365 C 339.885,207.792 339.8265,206.505 338.8905,206.622 C 338.3055,206.6805 336.7845,206.7975 335.4975,206.9145 z " />
  <path
     style="fill:#000000;stroke:none"
     id="path6000"
     d="M 245.7,233.415 L 245.7,258.687 L 249.3855,258.2775 C 251.3745,258.0435 253.071,257.8095 253.188,257.6925 C 253.2465,257.634 253.539,255.762 253.8315,253.5975 C 254.1825,250.3215 254.592,249.3855 255.879,248.2155 C 256.7565,247.5135 257.868,246.87 258.336,246.87 C 259.038,246.87 259.155,244.062 259.155,228.2085 L 259.155,209.547 L 257.868,209.2545 C 257.1075,209.079 254.0655,208.728 251.1405,208.494 L 245.7,208.0845 L 245.7,233.415 z " />
  <path
     style="fill:#000000;stroke:none"
     id="path6002"
     d="M 313.8525,208.9035 C 310.635,209.196 304.668,209.547 300.573,209.781 L 293.202,210.132 L 294.021,212.121 C 294.8985,214.227 295.1325,221.481 294.3135,221.949 C 294.0795,222.1245 293.67,223.587 293.436,225.1665 C 293.085,228.033 291.7395,231.3675 290.6865,231.9525 C 289.692,232.596 290.1015,234.585 291.2715,234.585 C 291.8565,234.585 293.202,235.521 294.138,236.6325 C 296.0685,238.797 298.2915,239.9085 305.604,242.3655 C 310.752,244.1205 315.081,246.636 315.6075,248.157 C 316.017,249.3855 316.953,249.444 322.3935,248.5665 L 326.43,247.8645 L 326.43,228.0915 L 326.43,208.26 L 323.0955,208.3185 C 321.2235,208.377 317.07,208.6695 313.8525,208.9035 z " />
  <path
     style="fill:#000000;stroke:none"
     id="path6004"
     d="M 263.601,211.185 C 263.3085,212.94 263.0745,244.53 263.4255,244.53 C 264.537,244.53 273.4875,240.201 274.014,239.382 C 274.131,239.148 273.4875,237.3345 272.5515,235.4625 C 271.4985,233.298 270.972,231.426 271.1475,230.607 C 271.323,229.8465 270.9135,227.097 270.2115,224.523 C 269.0415,220.2525 268.983,219.4335 269.6265,215.9235 C 270.036,213.8175 270.7965,211.5945 271.2645,211.068 C 272.142,210.0735 272.0835,210.015 270.738,210.015 C 269.919,210.015 268.1055,209.8395 266.643,209.664 C 264.069,209.313 264.0105,209.313 263.601,211.185 z " />
  <path
     style="fill:#000000;stroke:none"
     id="path6006"
     d="M 44.0505,217.503 C 41.301,218.8485 40.7745,218.9655 39.0195,218.322 C 36.7965,217.503 34.5735,217.4445 33.5205,218.088 C 32.5845,218.673 31.005,222.534 31.005,224.2305 C 31.005,226.6875 32.4675,227.2725 37.6155,226.9215 C 38.5515,226.863 39.429,226.4535 39.6045,226.044 C 39.78,225.576 40.248,225.225 40.716,225.225 C 41.184,225.225 41.535,224.8155 41.535,224.289 C 41.535,223.821 41.769,223.587 42.12,223.7625 C 42.4125,223.938 43.1145,223.587 43.6995,222.885 C 44.2845,222.2415 45.045,221.715 45.513,221.715 C 46.8585,221.715 52.65,217.6785 52.65,216.7425 C 52.65,215.28 47.619,215.6895 44.0505,217.503 z " />
  <path
     style="fill:#000000;stroke:none"
     id="path6008"
     d="M 162.045,222.0075 C 159.6465,222.417 153.387,223.236 148.1805,223.821 L 138.645,224.8155 L 138.645,248.742 C 138.645,270.972 138.7035,272.61 139.6395,272.61 C 140.8095,272.61 156.897,270.504 162.8055,269.6265 L 166.725,268.983 L 166.725,245.0565 C 166.725,231.894 166.6665,221.1885 166.608,221.1885 C 166.491,221.247 164.4435,221.598 162.045,222.0075 z " />
  <path
     style="fill:#000000;stroke:none"
     id="path6010"
     d="M 127.9395,225.6345 L 125.7165,225.8685 L 126.0675,231.8355 C 126.4185,238.329 127.53,269.1 127.53,272.376 C 127.53,273.9555 127.764,274.365 128.6415,274.365 C 129.285,274.365 129.987,274.0725 130.1625,273.78 C 130.338,273.429 131.4495,273.195 132.561,273.195 L 134.55,273.195 L 134.55,249.21 L 134.55,225.225 L 132.3855,225.342 C 131.157,225.4005 129.168,225.5175 127.9395,225.6345 z " />
  <path
     style="fill:#000000;stroke:none"
     id="path6012"
     d="M 47.6775,246.1095 C 44.694,249.21 44.4015,249.678 44.577,251.8425 C 44.7525,254.1825 44.7525,254.1825 47.4435,254.358 C 50.0175,254.5335 50.1345,254.475 53.118,251.0235 C 54.8145,249.093 56.6865,247.338 57.33,247.1625 C 58.851,246.6945 58.851,244.179 57.3885,243.36 C 56.745,243.0675 55.0485,242.775 53.586,242.775 C 51.129,242.775 50.7195,243.009 47.6775,246.1095 z " />
  <path
     style="fill:#000000;stroke:none"
     id="path6014"
     d="M 329.6475,252.252 C 322.92,253.2465 317.2455,254.124 317.1285,254.241 C 317.0115,254.358 317.3625,256.23 317.889,258.3945 C 319.7025,265.8825 318.24,301.041 315.6075,312.6825 C 314.0865,319.3515 312.9165,326.9565 312.5655,332.28 C 312.273,337.2525 311.3955,339.3 309.6405,339.3 C 309.231,339.3 308.88,339.768 308.88,340.2945 C 309.114,347.8995 308.178,394.9335 307.7685,397.0395 C 307.476,398.5605 307.0665,403.9425 306.8325,408.915 C 306.657,413.8875 306.189,419.1525 305.838,420.615 C 305.5455,422.0775 305.253,426.2895 305.253,429.975 C 305.253,435.1815 305.019,436.9365 304.317,437.7555 C 303.7905,438.3405 303.2055,440.0955 303.03,441.675 L 302.679,444.6 L 312.507,444.6 C 323.3295,444.6 322.5105,444.834 327.132,440.271 C 329.2965,438.1065 329.589,438.048 332.2215,438.3405 C 334.971,438.6915 335.0295,438.633 336.4335,436.41 C 337.194,435.123 338.13,434.07 338.5395,434.07 C 339.417,434.07 340.236,429.2145 339.3585,428.922 C 339.0075,428.805 338.715,428.454 338.715,428.103 C 338.715,427.752 339.066,427.635 339.534,427.8105 C 340.1775,428.103 340.353,426.816 340.4115,421.0245 C 340.47,417.105 341.406,378.495 342.5175,335.205 C 343.629,291.915 344.565,255.1185 344.565,253.422 C 344.565,249.795 346.203,249.912 329.6475,252.252 z " />
  <path
     style="fill:#000000;stroke:none"
     id="path6016"
     d="M 224.2305,266.9355 C 208.611,269.1585 198.9,270.7965 198.9,271.1475 C 198.9,273.0195 201.4155,276.7635 203.1705,277.4655 C 206.739,278.9865 208.4355,281.736 210.249,288.756 C 213.525,301.6845 214.578,304.3755 219.6675,312.39 C 221.013,314.496 223.353,319.0005 224.991,322.452 C 227.8575,328.7115 227.8575,328.77 229.905,328.77 C 231.3675,328.77 232.479,328.302 233.883,326.9565 C 236.3985,324.6165 237.3345,322.569 239.0895,316.251 C 239.9085,313.326 241.137,309.582 241.8975,308.0025 C 242.658,306.3645 244.062,302.0355 245.0565,298.35 C 246.051,294.6645 247.689,288.873 248.625,285.48 C 250.7895,277.992 251.55,273.9555 251.55,270.036 C 251.55,268.398 251.784,266.175 252.0765,265.122 C 252.603,263.3085 252.5445,263.25 251.082,263.3085 C 250.2045,263.367 238.095,265.005 224.2305,266.9355 z " />
  <path
     style="fill:#000000;stroke:none"
     id="path6018"
     d="M 146.835,277.758 L 127.8225,280.449 L 129.402,324.6165 C 131.859,395.226 132.8535,421.434 132.9705,421.4925 C 136.8315,422.955 139.23,425.529 139.23,428.22 C 139.23,429.4485 139.9905,431.7885 140.985,433.836 C 141.9795,435.708 143.208,438.9255 143.7345,440.9145 L 144.612,444.6 L 153.621,444.6 C 159.6465,444.6 162.6885,444.366 162.981,443.9565 C 163.566,442.962 164.2095,421.434 164.619,389.61 L 165.0285,361.8225 L 162.8055,360.828 C 159.003,359.1315 158.2425,357.0255 158.3595,349.5375 C 158.4765,345.969 158.2425,340.353 157.95,336.96 C 157.599,333.567 157.3065,321.867 157.248,310.869 C 157.131,288.3465 157.014,288.8145 161.577,283.7835 C 163.1565,282.087 164.7945,279.981 165.204,279.1035 C 166.374,276.8805 166.9005,274.95 166.3155,275.0085 C 166.0815,275.067 157.3065,276.2955 146.835,277.758 z " />
  <path
     style="fill:#000000;stroke:none"
     id="path6020"
     d="M 118.17,281.853 C 117.351,281.9115 111.2085,282.789 104.4225,283.725 C 97.695,284.661 81.6075,286.884 68.7375,288.6975 C 55.8675,290.4525 43.29,292.2075 40.833,292.5585 C 38.3175,292.9095 35.919,293.085 35.3925,292.851 C 34.2225,292.4415 34.281,293.4945 35.5095,294.138 C 36.621,294.7815 36.6795,298.7595 35.685,300.69 C 35.1585,301.743 35.3925,301.977 37.9665,303.0885 C 39.78,303.9075 41.0085,304.8435 41.184,305.604 C 41.3595,306.306 41.301,306.891 41.0085,307.008 C 40.7745,307.0665 40.6575,307.7685 40.7745,308.529 C 41.1255,310.284 39.78,312.7995 37.1475,315.549 C 36.036,316.719 35.1,318.006 35.1,318.4155 C 35.1,318.825 34.8075,319.4685 34.4565,319.8195 C 33.9885,320.2875 34.047,320.814 34.5735,321.8085 C 35.6265,323.856 36.855,324.558 39.195,324.441 C 41.418,324.2655 43.29,324.9675 43.29,325.845 C 43.29,326.196 42.8805,326.43 42.4125,326.43 C 41.9445,326.43 41.535,326.7225 41.535,327.015 C 41.535,327.366 40.3065,328.185 38.727,328.9455 C 37.206,329.6475 35.802,330.4665 35.6265,330.759 C 34.9245,331.695 30.186,331.578 28.665,330.525 C 27.846,329.9985 26.3835,329.238 25.3305,328.8285 C 24.336,328.419 23.3415,327.717 23.2245,327.3075 C 23.049,326.898 22.1715,326.3715 21.294,326.196 C 20.4165,325.962 18.954,325.26 18.0765,324.6165 C 17.199,324.0315 16.2045,323.505 15.8535,323.505 C 15.5025,323.505 15.21,323.154 15.21,322.686 C 15.21,322.2765 14.742,321.6915 14.2155,321.516 C 11.8755,320.6385 10.5885,319.7025 10.3545,318.708 C 10.179,318.123 9.6525,317.655 9.126,317.655 C 8.3655,317.655 8.19,318.357 8.19,321.3405 C 8.19,324.441 8.424,325.26 9.5355,326.313 C 10.764,327.483 10.998,327.483 12.1095,326.7225 C 13.572,325.6695 13.806,325.9035 14.3325,329.0625 C 14.5665,330.3495 15.2685,331.929 15.8535,332.5725 C 16.4385,333.216 17.0235,334.737 17.1405,336.024 C 17.2575,337.2525 17.7255,338.481 18.135,338.715 C 18.5445,339.0075 18.954,340.47 19.071,342.108 C 19.2465,345.9105 19.8315,348.66 20.5335,348.66 C 20.826,348.66 21.06,349.011 21.06,349.479 C 21.06,349.8885 21.5865,350.883 22.1715,351.702 C 22.815,352.4625 23.4585,354.393 23.6925,355.9725 C 23.868,357.6105 24.2775,359.424 24.57,360.0675 C 25.155,361.3545 27.378,367.029 28.0215,368.8425 C 28.2555,369.486 29.016,371.1825 29.718,372.645 C 30.42,374.1075 31.005,375.7455 31.005,376.272 C 31.005,376.857 31.239,377.325 31.5315,377.325 C 31.824,377.325 32.76,379.0215 33.6375,381.1275 C 34.5735,383.2335 35.5095,384.93 35.802,384.93 C 36.036,384.93 36.27,385.3395 36.27,385.8075 C 36.27,387.036 37.8495,387.6795 42.1785,388.089 C 47.385,388.674 47.9115,389.5515 46.8585,395.928 C 45.864,401.661 45.9225,402.8895 47.034,404.703 C 47.6775,405.756 54.4635,408.8565 56.5695,409.0905 C 57.5055,409.2075 58.5585,409.4415 58.9095,409.6755 C 59.7285,410.202 60.489,409.149 59.9625,408.33 C 59.787,407.979 59.904,407.745 60.255,407.745 C 61.074,407.745 60.606,404.352 59.7285,403.4745 C 59.3775,403.1235 59.085,402.246 59.085,401.4855 C 59.085,400.725 58.851,400.14 58.617,400.14 C 58.0905,400.14 55.6335,395.46 54.405,391.95 C 53.937,390.8385 53.4105,389.61 53.118,389.259 C 52.884,388.908 52.533,387.855 52.416,386.919 C 52.065,384.0525 51.4215,380.601 51.0705,379.665 C 50.8365,379.197 50.661,376.389 50.6025,373.5225 C 50.31,361.7055 50.3685,359.307 51.1875,344.8575 C 51.48,340.6455 51.714,336.5505 51.714,335.6145 C 51.7725,334.737 51.948,334.035 52.182,334.035 C 52.416,334.035 52.4745,333.684 52.299,333.216 C 52.1235,332.748 52.4745,332.1045 53.0595,331.7535 C 53.703,331.461 54.522,330.1155 54.99,328.8285 C 55.3995,327.483 56.043,326.43 56.394,326.43 C 56.745,326.43 57.564,325.3185 58.2075,323.9145 C 59.8455,320.463 61.3665,320.4045 63.0045,323.622 C 63.7065,325.026 64.2915,326.547 64.2915,327.015 C 64.2915,327.8925 64.5255,329.6475 65.2275,334.62 C 65.403,336.0825 65.988,338.715 66.5145,340.47 C 66.9825,342.225 67.392,345.384 67.392,347.49 C 67.392,349.5375 67.5675,351.6435 67.86,352.17 C 68.1525,352.6965 68.1525,353.457 67.86,353.8665 C 67.626,354.276 67.626,355.329 67.8015,356.2065 C 68.0355,357.0255 67.977,359.0145 67.743,360.594 C 67.392,362.349 67.392,363.636 67.743,363.987 C 68.094,364.338 68.1525,365.274 67.86,366.2685 C 67.5675,367.146 67.3335,369.486 67.3335,371.475 C 67.3335,373.4055 67.158,375.2775 66.9825,375.57 C 66.573,376.272 67.6845,378.495 68.445,378.495 C 68.796,378.495 69.03,378.0855 69.03,377.6175 C 69.03,377.1495 69.5565,376.2135 70.2,375.57 C 70.8435,374.9265 71.37,373.9905 71.37,373.464 C 71.37,372.4695 72.072,371.592 76.8105,366.678 L 79.56,363.8115 L 79.677,365.742 C 79.677,366.795 79.7355,368.082 79.677,368.55 C 79.2675,372.8205 78.9165,375.1605 78.6825,375.57 C 78.507,375.8625 78.273,377.208 78.156,378.612 C 77.7465,383.058 76.05,391.5405 74.997,394.29 C 74.8215,394.758 74.3535,396.864 73.8855,398.97 C 73.125,402.7725 72.7155,404.5275 72.54,404.5275 C 72.423,404.5275 72.072,406.1655 71.604,408.9735 C 71.253,411.138 72.54,414.18 73.827,414.18 C 74.178,414.18 75.4065,414.999 76.6935,415.935 C 78.4485,417.339 79.443,417.7485 81.432,417.69 C 82.836,417.69 85.293,417.807 86.8725,417.9825 C 90.3825,418.392 92.43,417.9825 92.43,416.8125 C 92.43,416.3445 92.9565,415.0575 93.6,413.8875 C 94.2435,412.7175 94.77,411.4305 94.77,410.9625 C 94.77,410.4945 95.0625,410.085 95.355,410.085 C 95.706,410.085 95.94,409.5585 95.94,408.9735 C 95.94,408.33 96.2325,407.628 96.5835,407.4525 C 96.9345,407.2185 97.0515,406.692 96.876,406.2825 C 96.759,405.873 96.993,405.3465 97.461,405.171 C 97.929,404.9955 98.28,404.4105 98.28,403.884 C 98.28,402.8895 102.609,397.332 104.0715,396.396 C 104.5395,396.1035 105.7095,395.109 106.704,394.173 C 107.6985,393.1785 109.2195,392.067 110.1555,391.599 C 111.033,391.131 111.735,390.4875 111.735,390.195 C 111.735,389.844 112.2615,389.61 112.905,389.61 C 113.5485,389.61 114.2505,389.2005 114.426,388.7325 C 114.66,388.2645 115.1865,387.855 115.6545,387.855 C 116.1225,387.855 117.468,387.2115 118.638,386.3925 C 119.808,385.5735 121.0365,384.93 121.3875,384.93 C 122.499,384.93 123.903,382.7655 123.669,381.3615 C 123.552,380.601 122.7915,358.488 121.9725,332.28 C 121.095,306.072 120.276,283.959 120.042,283.14 C 119.7495,282.0285 119.2815,281.736 118.17,281.853 z " />
  <path
     style="fill:#000000;stroke:none"
     id="path6022"
     d="M 258.921,302.328 C 258.3945,304.1415 257.517,306.657 257.1075,307.827 C 256.6395,309.0555 255.8205,311.1615 255.294,312.507 C 254.7675,313.911 252.7785,318.24 250.9065,322.1595 C 248.976,326.079 247.455,329.5305 247.455,329.823 C 247.455,330.993 245.232,332.3385 243.8865,331.9875 C 242.658,331.695 242.2485,332.046 240.903,334.737 C 239.967,336.4335 239.265,338.3055 239.265,338.832 C 239.265,341.289 238.68,341.6985 235.5795,341.289 C 233.0055,340.938 232.713,340.9965 233.0055,341.8155 C 233.5905,343.395 232.479,343.4535 229.8465,342.108 C 227.799,341.055 226.863,339.9435 225.0495,336.6675 C 223.821,334.386 221.715,331.5195 220.3695,330.2325 C 217.5615,327.5415 211.8285,320.8725 210.7755,319.1175 C 210.4245,318.474 208.3185,314.4375 206.154,310.167 C 202.4685,303.03 202.059,302.562 201.6495,304.0245 C 200.8305,307.008 199.5435,315.6075 199.719,317.07 C 200.0115,319.0005 200.655,320.58 201.24,320.58 C 201.5325,320.58 201.942,321.399 202.1175,322.452 C 202.3515,323.505 202.761,324.7335 203.0535,325.26 C 203.58,326.2545 206.388,337.662 207.09,341.757 C 207.3825,343.278 207.8505,344.9745 208.143,345.5595 C 208.4355,346.1445 208.845,348.192 209.0205,350.1225 C 209.2545,352.053 209.547,354.6855 209.7225,355.9725 C 209.898,357.2595 210.3075,360.4185 210.6585,362.9925 C 210.951,365.5665 211.3605,371.241 211.536,375.57 C 211.7115,379.899 212.0625,385.6905 212.4135,388.44 C 212.706,391.1895 213.408,396.6885 213.876,400.725 C 214.344,404.7615 214.9875,411.3135 215.28,415.35 C 215.5725,419.3865 216.099,423.7155 216.45,425.0025 C 216.7425,426.2895 217.035,429.039 217.035,431.145 C 217.035,433.251 217.2105,437.112 217.4445,439.7445 L 217.7955,444.6 L 234.7605,444.6 C 253.539,444.6 251.8425,444.951 250.614,441.207 C 250.0875,439.452 252.1935,437.697 255.879,436.7025 C 259.9155,435.708 260.91,435.006 259.857,433.953 C 258.7455,432.8415 259.038,430.794 260.6175,427.5765 C 262.548,423.8325 263.0745,416.1105 262.08,406.575 C 261.729,402.8895 261.261,398.4435 261.0855,396.747 C 260.8515,394.407 261.0855,392.769 262.08,390.078 C 263.484,386.2755 263.484,384.7545 262.1385,376.155 C 261.7875,374.049 261.495,370.2465 261.495,367.6725 C 261.495,365.0985 261.027,359.0145 260.559,354.2175 C 259.4475,343.863 258.921,317.9475 259.6815,306.9495 C 259.9155,302.679 260.091,299.169 260.0325,299.1105 C 259.974,298.9935 259.506,300.456 258.921,302.328 z " />
  <path
     style="fill:#000000;stroke:none"
     id="path6024"
     d="M 166.491,311.6295 C 166.257,315.783 165.8475,322.686 165.555,327.015 C 164.4435,341.991 164.268,347.49 164.853,347.49 C 165.4965,347.49 165.6135,347.1975 167.31,337.8375 C 168.714,330.291 169.8255,325.728 171.171,322.1595 C 172.2825,319.1175 172.224,316.134 170.82,311.805 C 169.8255,308.646 167.6025,304.2 167.0175,304.2 C 166.9005,304.2 166.6665,307.5345 166.491,311.6295 z " />
  <path
     style="fill:#000000;stroke:none"
     id="path6026"
     d="M 283.725,359.775 C 283.6665,359.9505 283.374,364.2795 283.14,369.4275 C 282.906,374.5755 282.438,381.42 282.0285,384.6375 C 281.6775,387.855 281.0925,393.7635 280.7415,397.8 C 280.3905,401.8365 279.747,406.2825 279.3375,407.745 C 278.1675,411.7815 277.2315,419.445 277.2315,424.827 C 277.2315,427.518 276.9975,431.262 276.705,433.1925 C 276.4125,435.123 276.0615,438.516 275.886,440.6805 L 275.5935,444.6585 L 279.162,444.483 L 282.7305,444.3075 L 283.5495,441.3825 C 284.0175,439.7445 285.48,436.2345 286.767,433.485 C 288.9315,428.9805 289.1655,428.0445 289.3995,422.6625 C 289.575,418.392 289.3995,415.935 288.756,413.595 C 286.65,406.3995 285.831,400.725 286.533,397.8585 C 288.3465,390.312 288.639,384.813 287.586,377.8515 C 287.001,374.166 286.299,370.1295 286.0065,368.8425 C 284.6025,362.5245 283.842,359.4825 283.725,359.775 z " />
  <path
     style="fill:#000000;stroke:none"
     id="path6028"
     d="M 122.9085,388.323 C 122.4405,390.0195 121.563,391.833 120.978,392.3595 C 120.393,392.886 119.925,393.705 119.925,394.173 C 119.925,395.0505 117.6435,398.5605 116.883,398.853 C 116.649,398.97 116.415,399.438 116.415,399.8475 C 116.415,400.257 116.0055,400.725 115.5375,400.959 C 115.0695,401.1345 114.66,401.661 114.66,402.1875 C 114.66,403.182 113.607,405.171 112.4955,406.458 C 112.086,406.8675 111.735,407.628 111.735,408.0375 C 111.735,408.5055 111.2085,409.149 110.565,409.5 C 109.9215,409.851 109.395,410.4945 109.395,410.904 C 109.395,412.191 107.757,415.584 105.651,418.509 C 104.013,420.7905 104.7735,421.785 108.0495,421.785 C 111.033,421.785 112.905,420.498 113.724,417.8655 C 113.958,417.222 114.4845,416.4615 114.9525,416.286 C 115.4205,416.1105 115.83,415.467 115.83,414.882 C 115.83,414.297 116.0055,413.595 116.298,413.361 C 116.532,413.127 116.7075,412.7175 116.7075,412.4835 C 116.7075,412.2495 117.4095,411.372 118.287,410.6115 C 119.1645,409.851 120.393,408.213 121.0365,406.9845 C 121.7385,405.8145 122.733,403.9425 123.318,402.8895 C 124.254,401.2515 124.371,400.0815 124.0785,393.12 L 123.7275,385.2225 L 122.9085,388.323 z " />
  <path
     style="fill:#000000;stroke:none"
     id="path6030"
     d="M 398.97,386.9775 C 398.97,387.4455 398.619,387.855 398.268,387.855 C 397.7415,387.855 397.8,388.089 398.385,388.44 C 398.97,388.791 399.0285,389.025 398.5605,389.025 C 398.151,389.025 397.6245,389.727 397.449,390.6045 C 397.215,391.482 396.6885,392.5935 396.2205,393.003 C 395.811,393.4125 395.46,394.6995 395.46,395.811 C 395.46,396.9225 395.226,397.8 394.875,397.8 C 394.056,397.8 394.173,400.6665 395.0505,401.544 C 395.4015,402.012 396.162,402.948 396.63,403.65 C 397.098,404.4105 398.0925,405.6975 398.853,406.575 C 399.555,407.4525 400.14,408.3885 400.14,408.564 C 400.14,409.149 410.319,419.2695 411.723,419.9715 C 412.8345,420.5565 413.0685,420.498 413.361,419.7375 C 413.829,418.626 412.7175,415.935 411.84,415.935 C 411.5475,415.935 411.255,415.5255 411.255,415.0575 C 411.255,414.5895 410.904,414.18 410.436,414.18 C 409.968,414.18 409.4415,413.478 409.266,412.659 C 409.032,411.84 408.33,410.6115 407.745,409.9095 C 407.1015,409.266 406.575,408.33 406.575,407.9205 C 406.575,407.511 406.341,407.16 405.99,407.16 C 405.6975,407.16 405.288,406.5165 405.054,405.6975 C 404.8785,404.8785 404.469,404.235 404.235,404.235 C 403.9425,404.235 403.533,402.714 403.299,400.842 C 403.065,399.0285 402.6555,397.3905 402.4215,397.1565 C 401.661,396.6885 400.7835,391.3065 401.1345,389.4345 C 401.427,387.9135 400.5495,386.1 399.4965,386.1 C 399.204,386.1 398.97,386.5095 398.97,386.9775 z " />
</svg>
