<?xml version="1.0" standalone="no"?>
<!DOCTYPE svg PUBLIC "-//W3C//DTD SVG 20010904//EN"
 "http://www.w3.org/TR/2001/REC-SVG-20010904/DTD/svg10.dtd">
<svg version="1.0" xmlns="http://www.w3.org/2000/svg"
 width="468pt" height="468pt" viewBox="0 0 468 468"
 preserveAspectRatio="xMidYMid meet">
<metadata>
Created by potrace 1.7, written by Peter Selinger 2001-2005
</metadata>
<g transform="translate(0,468) scale(0.058500,-0.058500)"
fill="#000000" stroke="none">
<path d="M2380 7473 c0 -51 -4 -48 175 -87 94 -20 330 -72 435 -96 47 -11 180
-40 295 -65 116 -26 311 -69 435 -96 124 -27 254 -56 290 -64 305 -66 294 -63
398 -133 35 -23 65 -42 68 -42 2 0 32 -19 67 -43 34 -24 69 -47 77 -51 23 -11
49 -27 116 -72 33 -22 101 -58 150 -78 49 -21 107 -47 130 -57 22 -10 43 -19
47 -19 4 0 36 -13 72 -30 36 -16 68 -30 70 -30 2 0 33 -13 67 -29 35 -15 74
-32 88 -36 14 -4 41 -16 60 -26 19 -11 40 -19 46 -19 7 0 14 40 18 112 4 62
16 144 26 183 10 38 21 86 24 105 3 19 17 48 31 64 14 16 25 33 25 38 0 4 7 8
15 8 8 0 15 7 15 15 0 8 4 15 9 15 5 0 13 9 16 20 3 11 14 20 23 20 9 0 28 16
41 35 13 19 27 35 32 35 5 0 9 5 9 11 0 9 -32 10 -112 6 -104 -4 -119 -8 -188
-41 -121 -59 -151 -76 -173 -96 -11 -11 -42 -23 -69 -26 -26 -4 -48 -10 -48
-15 0 -5 -21 -9 -46 -9 l-46 0 5 68 c6 83 20 155 41 207 8 22 15 48 16 57 0
10 9 23 20 30 27 17 25 38 -3 38 -27 0 -117 -30 -162 -54 -16 -9 -35 -16 -41
-16 -6 0 -24 -7 -41 -15 -17 -8 -51 -19 -76 -24 -25 -4 -57 -18 -72 -30 -15
-11 -41 -21 -56 -21 -16 0 -29 -4 -29 -9 0 -12 -56 -31 -92 -31 -17 0 -43 -10
-60 -21 -34 -25 -84 -27 -105 -6 -12 11 -12 22 -1 63 7 27 18 53 25 57 7 4 13
21 13 37 0 17 5 30 10 30 6 0 10 4 10 10 0 20 152 170 173 170 14 0 47 35 47
49 0 5 17 13 38 19 25 7 -343 10 -1155 11 l-1193 1 0 -27z"/>
<path d="M2074 7362 c-60 -49 -136 -92 -164 -92 -9 0 -20 -3 -24 -7 -10 -11
-88 -33 -97 -28 -3 3 -33 -4 -65 -14 -39 -12 -88 -19 -143 -18 -67 0 -87 -4
-96 -17 -7 -9 -21 -16 -31 -16 -29 -1 -74 -46 -74 -73 0 -30 21 -50 44 -41 9
3 16 1 16 -5 0 -6 11 -11 25 -11 14 0 34 -5 44 -12 15 -9 28 -7 65 10 25 12
52 22 60 22 8 0 18 5 21 11 4 5 30 21 58 35 66 31 90 46 100 62 4 6 15 12 23
12 52 0 284 148 284 181 0 23 -18 24 -46 1z"/>
<path d="M2376 7290 c-4 -27 -11 -52 -16 -55 -6 -4 -17 -22 -25 -40 -7 -19
-18 -40 -24 -47 -41 -50 -61 -77 -61 -82 0 -8 39 14 64 37 25 22 94 57 114 57
9 0 11 -7 7 -19 -26 -83 -41 -151 -34 -158 5 -5 5 -22 0 -38 -4 -17 -6 -60 -4
-97 2 -41 -1 -68 -7 -68 -5 0 -10 -9 -10 -19 0 -11 -4 -21 -9 -23 -8 -3 -61
-150 -57 -155 2 -2 61 4 132 12 71 8 298 33 504 55 206 22 411 45 454 50 117
15 115 16 137 -35 11 -25 23 -45 28 -45 4 0 17 -18 30 -40 12 -22 30 -47 39
-57 9 -9 21 -24 27 -34 43 -74 78 -131 89 -142 6 -6 47 -68 91 -135 44 -68 87
-134 95 -146 8 -13 28 -45 44 -72 16 -27 37 -58 46 -69 10 -11 25 -33 34 -50
25 -46 37 -65 84 -127 23 -31 42 -58 42 -61 0 -2 22 -38 49 -79 46 -69 54 -76
123 -107 40 -19 98 -45 128 -60 50 -24 68 -26 200 -29 146 -4 161 1 90 28
-100 37 -117 50 -205 152 -50 56 -122 137 -161 178 -39 41 -79 87 -90 101 -17
25 -175 198 -293 325 -51 54 -66 87 -47 104 7 5 215 26 462 45 247 19 511 40
587 46 155 13 155 13 192 -58 10 -21 37 -69 59 -107 39 -67 40 -68 75 -62 20
3 55 6 79 6 l42 0 0 64 c0 39 -5 68 -12 74 -7 5 -58 29 -113 52 -55 23 -118
51 -141 61 -22 10 -43 19 -47 19 -4 0 -36 14 -72 30 -36 17 -68 30 -70 30 -2
0 -34 14 -70 30 -36 17 -68 30 -70 30 -15 0 -147 67 -197 100 -33 22 -61 40
-63 40 -2 0 -32 19 -67 42 -35 24 -71 47 -80 53 -9 5 -49 30 -88 55 -124 78
-144 88 -185 95 -22 4 -67 13 -100 20 -33 8 -123 28 -200 45 -77 17 -178 40
-225 50 -47 11 -179 40 -295 65 -115 26 -309 68 -430 95 -395 88 -544 120
-558 120 -10 0 -17 -17 -21 -50z"/>
<path d="M7066 7189 c-16 -16 -35 -29 -41 -29 -7 0 -26 -7 -41 -15 -16 -8 -39
-15 -52 -15 -12 0 -30 -10 -40 -21 -9 -12 -29 -36 -44 -54 -16 -18 -28 -37
-28 -41 1 -19 -66 -134 -77 -134 -7 0 -10 7 -6 16 5 14 -7 16 -116 13 -75 -3
-124 -8 -129 -15 -4 -6 -18 -14 -32 -18 -21 -6 -22 -5 -7 4 26 17 20 30 -13
30 -37 0 -80 -26 -80 -49 0 -9 -12 -22 -27 -29 -51 -23 -73 -37 -73 -44 0 -5
-13 -8 -30 -8 -23 0 -35 -9 -60 -45 -17 -25 -36 -45 -42 -45 -6 0 -8 -9 -5
-21 3 -12 0 -22 -8 -25 -16 -6 -72 -92 -139 -211 -30 -53 -46 -94 -46 -117 0
-33 1 -34 48 -40 303 -43 316 -47 347 -96 14 -22 25 -45 25 -51 0 -6 7 -23 15
-37 8 -15 23 -49 35 -77 11 -27 27 -63 35 -78 8 -16 15 -35 15 -43 0 -8 4 -14
10 -14 5 0 12 -12 16 -27 6 -27 22 -64 94 -215 17 -37 35 -80 39 -95 6 -22 16
-29 57 -40 27 -7 69 -14 94 -15 27 -2 50 -9 57 -19 6 -8 31 -21 55 -28 24 -7
51 -17 60 -22 10 -5 28 -9 42 -9 13 0 29 -7 36 -15 7 -8 24 -14 39 -13 14 1
41 -6 59 -16 33 -17 34 -17 28 2 -4 11 -7 45 -7 76 -1 43 -5 56 -16 56 -9 0
-30 9 -48 20 -18 11 -43 19 -56 19 -26 -2 -123 29 -181 56 -34 17 -48 34 -62
78 -3 9 -14 20 -23 23 -61 20 -77 32 -120 92 -25 36 -54 73 -64 83 -10 10 -15
26 -12 38 4 14 -3 24 -26 35 -17 9 -31 21 -31 26 0 5 -9 11 -19 15 -28 9 -34
34 -13 62 22 30 172 84 196 71 9 -5 32 -6 51 -2 30 5 40 14 60 55 14 27 25 55
25 64 0 9 7 18 15 21 8 4 15 11 15 16 0 6 13 22 29 37 17 16 33 41 37 57 4 15
22 44 41 63 18 19 33 44 33 56 0 16 9 26 30 35 16 7 38 28 49 46 12 19 28 37
36 40 9 4 22 19 31 35 13 25 13 29 0 29 -8 0 -18 -4 -21 -10 -3 -5 -28 -10
-55 -10 l-49 0 -3 38 c-7 82 8 255 23 266 8 6 21 31 28 56 20 65 64 150 78
150 12 0 33 30 33 47 0 20 -47 9 -74 -18z"/>
<path d="M420 7060 c-75 -4 -85 -7 -88 -25 -4 -32 -25 -99 -34 -111 -4 -6 -5
-14 -1 -18 4 -3 -2 -13 -13 -21 -10 -8 -14 -15 -9 -15 6 0 29 -17 52 -37 66
-62 82 -73 88 -64 3 5 3 15 0 23 -3 8 6 25 19 37 14 13 23 28 20 33 -3 5 1 17
10 27 8 9 17 26 19 37 1 10 10 34 20 53 18 35 23 78 10 83 -5 2 -46 1 -93 -2z"/>
<path d="M1788 6754 c-5 -4 -8 -16 -8 -26 0 -14 8 -18 35 -18 23 0 45 -9 67
-28 41 -34 101 -62 133 -62 21 0 25 5 25 30 0 25 -9 36 -55 66 -46 31 -66 37
-122 41 -38 3 -71 2 -75 -3z"/>
<path d="M1301 6613 c7 -10 41 -52 74 -93 34 -41 69 -87 78 -102 21 -34 37
-35 65 -5 43 46 29 64 -108 140 -30 17 -65 41 -78 54 -27 27 -51 32 -31 6z"/>
<path d="M3190 6509 c-91 -4 -311 -12 -490 -19 -179 -7 -339 -15 -357 -19
l-31 -6 216 -350 c120 -193 226 -365 238 -384 l21 -33 273 379 c150 208 284
393 298 411 16 21 20 31 11 30 -8 0 -88 -4 -179 -9z"/>
<path d="M2176 6396 c-9 -18 -30 -48 -46 -67 -17 -18 -30 -39 -30 -45 0 -5
-18 -26 -40 -45 -22 -19 -52 -44 -66 -56 -14 -13 -31 -23 -37 -23 -7 0 -27
-13 -45 -30 -18 -16 -41 -30 -51 -30 -29 0 -96 -74 -84 -93 8 -14 122 -166
140 -187 33 -39 100 -126 120 -155 18 -27 47 -41 200 -101 l178 -69 183 -3
c100 -2 182 0 181 5 0 4 -20 35 -44 68 -25 33 -52 76 -62 95 -9 19 -28 53 -42
75 -39 62 -50 79 -57 95 -4 8 -17 29 -29 45 -12 17 -25 37 -29 45 -9 20 -23
43 -71 115 -47 72 -62 95 -71 115 -4 8 -26 42 -48 75 -58 87 -65 98 -73 115
-4 8 -19 31 -33 52 l-26 36 -18 -32z"/>
<path d="M3460 6289 c-25 -39 -56 -85 -70 -102 -14 -18 -42 -57 -62 -87 -81
-121 -161 -236 -189 -271 -16 -20 -29 -42 -29 -47 0 -6 -6 -15 -13 -19 -14 -9
-131 -183 -125 -188 1 -1 44 -20 93 -41 50 -21 96 -45 103 -53 6 -8 12 -38 12
-67 0 -54 -8 -64 -51 -64 -14 0 -19 -7 -19 -29 l0 -29 163 -6 c89 -3 372 -8
628 -11 l467 -5 4 40 4 40 -71 21 c-38 11 -79 24 -90 29 -11 5 -38 14 -60 21
-45 13 -75 35 -75 56 0 7 -13 26 -28 41 -16 15 -31 34 -35 42 -4 8 -16 29 -27
45 -11 17 -23 37 -27 45 -3 8 -16 29 -28 45 -12 17 -29 47 -39 68 -9 20 -21
37 -25 37 -5 0 -11 8 -15 18 -3 9 -15 31 -26 47 -11 17 -24 39 -30 50 -6 11
-16 29 -23 40 -7 11 -25 41 -40 67 -16 26 -47 76 -70 112 -23 36 -64 101 -92
145 -27 45 -54 81 -60 81 -5 0 -30 -32 -55 -71z"/>
<path d="M4371 6220 l-225 -5 284 -315 c156 -173 286 -316 289 -317 5 -2 329
607 339 637 4 10 -247 11 -687 0z"/>
<path d="M1040 6203 c0 -13 -57 -73 -69 -73 -6 0 -11 -4 -11 -10 0 -5 -6 -10
-14 -10 -8 0 -25 -14 -37 -31 -16 -23 -27 -30 -45 -26 -15 2 -30 -3 -40 -14
-10 -11 -25 -19 -36 -19 -10 0 -18 -5 -18 -11 0 -8 -14 -10 -41 -6 -47 6 -69
1 -69 -17 0 -18 89 -106 106 -106 21 0 105 44 131 69 12 12 27 21 33 21 5 0
10 5 10 10 0 6 6 10 13 10 6 0 29 15 50 33 35 31 38 38 42 95 2 34 6 66 10 71
3 5 1 12 -5 16 -5 3 -10 3 -10 -2z"/>
<path d="M5988 6133 l-88 -4 0 -37 c1 -20 7 -55 15 -77 8 -22 15 -57 15 -77 0
-36 -2 -38 -32 -38 -37 1 -70 21 -67 42 4 31 -2 58 -16 72 -8 8 -15 17 -15 21
0 7 -42 67 -52 75 -3 3 -28 3 -55 2 l-49 -4 8 -66 c5 -37 13 -76 18 -87 12
-27 21 -70 27 -127 l5 -48 -42 0 c-34 0 -46 6 -71 33 -16 17 -32 43 -35 57
-13 60 -38 140 -45 140 -4 0 -12 20 -18 45 -12 49 -18 51 -93 39 -37 -6 -42
-24 -14 -49 6 -5 17 -21 23 -35 7 -14 26 -47 42 -75 16 -27 39 -68 51 -90 12
-24 34 -46 51 -54 16 -7 57 -32 90 -54 34 -23 68 -46 77 -52 9 -5 45 -29 80
-52 35 -24 67 -43 71 -43 5 0 15 -7 22 -16 7 -9 22 -20 34 -25 11 -5 29 -16
41 -24 24 -17 22 -20 69 100 29 73 60 146 75 180 5 11 19 45 30 75 11 30 25
64 30 75 5 11 18 43 30 70 18 43 34 79 48 108 3 7 -73 7 -260 0z"/>
<path d="M5007 5805 c-81 -162 -147 -300 -147 -305 0 -10 100 -60 150 -75 61
-18 66 -51 15 -92 -21 -17 -35 -37 -35 -50 l0 -23 333 0 c182 0 349 -3 370 -6
34 -6 37 -5 37 18 0 13 5 29 11 35 20 20 3 37 -47 52 -27 8 -56 18 -64 23 -8
4 -37 16 -65 27 -31 11 -51 26 -54 37 -3 17 -38 87 -149 294 -25 47 -53 100
-63 119 -10 19 -22 37 -26 40 -5 3 -26 41 -48 83 -72 140 -50 158 -218 -177z"/>
<path d="M307 5887 c-21 -9 -26 -15 -20 -31 4 -12 8 -30 9 -41 0 -11 5 -36 9
-57 l7 -36 28 16 c15 9 27 21 26 26 0 6 3 30 7 53 7 33 5 45 -10 62 -19 23
-17 23 -56 8z"/>
<path d="M6296 5834 c-3 -9 -6 -24 -6 -34 0 -9 -7 -23 -15 -30 -8 -7 -15 -19
-15 -26 0 -8 -13 -42 -29 -77 -37 -80 -68 -156 -76 -183 -4 -17 0 -23 17 -28
42 -11 88 -7 88 8 0 15 50 26 127 26 32 0 53 5 56 13 7 23 -15 92 -60 179 -7
14 -13 35 -13 45 0 11 -7 28 -15 39 -8 10 -15 28 -15 40 0 20 -17 44 -31 44
-4 0 -10 -7 -13 -16z"/>
<path d="M1546 5795 c-16 -15 -48 -37 -70 -50 -45 -24 -86 -91 -81 -132 1 -13
-1 -26 -5 -28 -9 -5 -24 -74 -21 -92 1 -7 -3 -13 -9 -13 -5 0 -10 -9 -10 -21
0 -11 -6 -33 -14 -47 -8 -15 -21 -43 -30 -62 l-15 -35 207 -6 c114 -3 295 -7
403 -8 215 -1 209 -3 209 57 0 62 -9 71 -119 123 -269 129 -249 115 -322 214
-37 50 -74 98 -81 108 -13 18 -15 17 -42 -8z"/>
<path d="M5600 5666 c0 -7 39 -76 60 -106 9 -14 20 -35 24 -46 7 -22 73 -74
93 -74 6 0 16 -7 23 -15 12 -14 38 -19 155 -29 l60 -6 -30 26 c-16 14 -39 30
-50 35 -23 11 -47 26 -135 87 -34 23 -64 42 -66 42 -2 0 -33 20 -69 45 -36 25
-65 44 -65 41z"/>
<path d="M210 5598 c1 -20 46 -48 114 -73 157 -58 235 -90 276 -114 26 -15 83
-31 89 -24 3 3 0 8 -6 10 -7 3 -13 12 -13 22 0 34 -54 75 -135 103 -44 14 -96
30 -115 33 -19 4 -56 18 -82 31 -51 26 -128 33 -128 12z"/>
<path d="M1270 5180 c0 -5 3 -10 8 -10 8 0 42 -73 42 -90 0 -6 4 -10 9 -10 5
0 13 -15 16 -32 4 -18 21 -58 37 -88 17 -30 32 -68 35 -85 8 -49 31 -77 56
-69 12 3 30 15 40 25 10 11 29 19 42 19 24 0 25 -1 19 -62 -4 -39 -13 -71 -24
-83 -10 -11 -23 -47 -30 -80 -6 -33 -14 -67 -17 -75 -4 -8 -8 -34 -9 -56 -3
-36 -15 -67 -59 -142 -38 -66 -84 -130 -107 -150 -16 -13 -28 -28 -28 -33 0
-16 -64 -98 -76 -99 -7 0 -14 -8 -18 -17 -8 -25 -29 -57 -43 -66 -7 -4 -13
-15 -13 -22 0 -8 -5 -15 -11 -15 -22 0 -37 -33 -28 -58 5 -14 9 -57 8 -96 -1
-87 8 -222 15 -235 3 -5 -1 -32 -10 -61 -9 -29 -14 -64 -11 -77 2 -13 1 -26
-4 -29 -5 -3 -16 -21 -26 -41 -9 -20 -25 -38 -35 -41 -10 -2 -18 -8 -18 -13 0
-5 -7 -9 -15 -9 -8 0 -15 -7 -15 -15 0 -14 -11 -19 -36 -16 -6 1 -17 -6 -24
-14 -7 -8 -19 -15 -26 -15 -8 0 -14 -4 -14 -8 0 -10 -53 -34 -112 -52 -21 -6
-38 -16 -38 -21 0 -16 60 -10 413 37 188 25 400 53 472 63 l130 17 7 39 c4 22
7 457 7 968 l1 927 -255 0 c-163 0 -255 -4 -255 -10z"/>
<path d="M1852 4234 c2 -524 5 -955 8 -957 3 -3 47 0 98 5 74 9 92 14 92 27 0
9 -11 331 -25 716 -23 655 -36 857 -56 880 -17 18 -9 55 14 70 22 14 27 13 80
-16 54 -29 207 -89 227 -89 6 0 10 63 10 161 l0 160 -226 -3 -225 -3 3 -951z"/>
<path d="M2370 5015 c0 -96 3 -175 8 -175 4 0 57 -11 119 -25 61 -14 165 -34
232 -44 l121 -18 0 218 0 219 -240 0 -240 0 0 -175z"/>
<path d="M2920 4967 l0 -224 143 -12 c258 -21 618 -32 845 -26 l222 7 0 239 0
239 -605 0 -605 0 0 -223z"/>
<path d="M4200 4949 l0 -242 38 7 c20 3 74 6 120 6 l82 0 0 235 0 235 -120 0
-120 0 0 -241z"/>
<path d="M4510 4960 c0 -177 3 -230 13 -230 6 0 84 7 173 15 310 28 574 68
817 122 l67 15 0 154 0 154 -535 0 -535 0 0 -230z"/>
<path d="M5650 5075 c0 -65 4 -115 9 -115 14 0 41 41 41 61 0 9 23 40 50 69
31 33 50 62 50 76 0 23 -3 24 -75 24 l-75 0 0 -115z"/>
<path d="M6317 4993 c-13 -12 -165 -30 -181 -21 -9 5 -32 6 -51 2 l-35 -6 0
-164 c0 -100 4 -164 10 -164 10 0 44 57 45 75 2 20 66 135 76 135 12 0 71 41
82 57 4 6 28 19 53 29 50 19 74 48 48 58 -21 8 -39 8 -47 -1z"/>
<path d="M600 4818 c-19 -6 -76 -13 -127 -17 -81 -5 -95 -9 -120 -32 -39 -37
-66 -49 -107 -49 -33 0 -36 -3 -36 -27 0 -62 9 -73 56 -73 41 0 188 36 267 66
20 8 54 14 75 14 52 0 104 49 100 94 -3 28 -7 31 -38 33 -19 1 -51 -3 -70 -9z"/>
<path d="M6530 4719 c0 -5 -13 -15 -30 -20 -16 -6 -32 -20 -35 -30 -4 -11 -18
-25 -31 -31 -13 -6 -24 -15 -24 -20 0 -5 -13 -14 -30 -19 -16 -6 -30 -17 -30
-25 0 -8 -7 -14 -15 -14 -7 0 -18 -6 -22 -13 -4 -7 -23 -19 -40 -26 -18 -8
-33 -20 -33 -27 0 -8 -7 -14 -15 -14 -8 0 -15 -4 -15 -10 0 -5 -6 -10 -14 -10
-8 0 -16 -4 -18 -10 -1 -5 -25 -14 -52 -19 -88 -16 -85 -8 -93 -330 l-6 -283
34 6 c19 3 70 10 114 15 188 25 312 42 343 47 l32 5 0 179 c0 116 -4 180 -10
180 -6 0 -13 -13 -16 -30 -4 -16 -10 -30 -14 -30 -4 0 -10 -17 -14 -37 -3 -21
-17 -48 -31 -62 -14 -13 -25 -27 -25 -32 0 -5 -20 -9 -45 -9 -42 0 -45 2 -45
25 0 14 7 56 15 93 9 37 19 84 24 104 5 24 4 41 -3 48 -8 8 -6 15 7 24 9 7 17
20 17 28 0 9 7 21 15 28 8 7 15 16 15 21 0 5 9 18 20 29 11 11 20 29 20 39 0
11 9 23 20 26 11 4 20 15 20 26 0 11 7 22 15 25 12 5 15 24 15 85 0 46 -4 79
-10 79 -5 0 -10 -5 -10 -11z"/>
<path d="M7052 4510 c-18 -11 -39 -20 -47 -20 -8 0 -15 -4 -15 -10 0 -5 -9
-10 -19 -10 -11 0 -21 -3 -23 -7 -1 -5 -20 -21 -41 -36 -21 -16 -54 -53 -73
-82 -32 -48 -81 -85 -113 -85 -6 0 -11 -10 -11 -23 0 -30 -36 -60 -66 -54
l-24 4 0 -179 c0 -134 -3 -180 -12 -183 -7 -3 -141 -23 -297 -45 -156 -22
-285 -41 -286 -42 -1 -2 -16 -577 -34 -1278 -17 -701 -35 -1365 -38 -1475 l-6
-200 31 32 c18 17 32 37 32 43 0 6 7 18 15 26 8 8 12 20 9 27 -2 7 10 29 29
48 44 45 87 138 87 188 0 22 5 43 10 46 6 3 10 17 10 30 0 13 8 29 18 34 9 6
11 11 5 11 -7 0 -13 5 -13 10 0 6 6 10 13 10 13 1 47 67 47 94 0 9 6 19 14 22
8 3 16 18 19 33 3 16 13 36 22 44 8 9 15 22 15 31 0 8 9 20 20 26 11 6 20 17
20 25 0 8 7 15 15 15 8 0 15 6 15 13 0 7 16 21 35 30 20 9 38 24 41 32 4 8 17
15 29 15 13 0 25 4 27 8 6 15 150 82 177 82 25 0 81 17 189 56 29 11 42 22 42
34 0 10 7 25 15 34 8 8 15 23 15 33 0 30 58 93 86 93 14 0 24 6 24 14 0 8 17
25 38 37 20 13 41 29 45 36 4 7 17 13 27 13 11 0 20 6 20 14 0 21 59 29 86 11
25 -16 74 -113 74 -144 0 -11 5 -21 11 -23 6 -2 13 -26 16 -53 8 -68 16 -77
58 -59 19 8 38 14 43 14 13 0 72 -56 72 -68 0 -7 4 -12 9 -12 15 0 31 -60 31
-116 0 -62 11 -70 58 -42 33 21 55 21 140 3 l32 -8 0 287 c-1 281 -1 286 -20
276 -11 -6 -20 -20 -20 -30 0 -30 -56 -28 -64 3 -9 35 -7 97 4 97 6 0 10 40
10 99 0 56 4 103 10 106 6 3 10 15 10 25 0 31 32 89 52 96 16 5 18 18 17 152
-1 81 -4 137 -6 125 -5 -24 -27 -31 -39 -11 -4 6 -8 34 -10 62 -1 28 -3 52 -3
53 -2 3 -73 -32 -108 -53 -18 -10 -33 -25 -33 -32 0 -7 -13 -15 -30 -18 -16
-4 -35 -13 -41 -20 -6 -8 -16 -14 -21 -14 -5 0 -27 -18 -48 -40 -29 -30 -46
-40 -69 -40 -21 0 -31 -5 -31 -15 0 -12 -16 -15 -86 -15 l-87 0 5 77 c3 45 10
79 17 81 6 2 11 16 11 32 0 23 9 33 45 54 46 28 60 56 26 56 -23 0 -111 -48
-111 -61 0 -5 -12 -9 -28 -9 -26 0 -47 -16 -106 -79 -11 -12 -32 -21 -47 -21
-33 0 -81 -19 -92 -37 -4 -7 -14 -10 -22 -7 -8 4 -15 1 -15 -5 0 -25 -18 -8
-23 22 -3 21 0 36 9 43 12 9 13 26 8 78 -6 57 -5 66 10 66 11 0 16 9 16 30 0
17 3 30 8 30 4 0 16 18 26 40 11 22 29 46 40 54 12 8 36 28 54 45 18 17 37 31
42 31 5 0 13 12 16 27 4 15 27 46 51 70 23 24 43 48 43 53 0 6 7 10 15 10 8 0
15 3 15 8 0 4 16 16 35 26 19 11 35 23 35 28 0 4 7 8 15 8 8 0 15 7 15 16 0
10 6 14 15 10 8 -3 15 -1 15 4 0 6 7 10 16 10 19 0 37 20 59 65 16 32 138 123
190 141 105 37 113 48 75 97 -14 18 -20 40 -20 80 0 59 -7 67 -59 67 -28 0
-81 42 -81 63 0 6 -7 18 -15 27 -15 17 -11 50 6 50 17 0 9 50 -11 67 -12 11
-20 30 -20 50 0 18 -4 33 -10 33 -5 0 -10 -7 -10 -15 0 -8 -8 -15 -18 -15 -25
0 -82 -55 -82 -79 0 -12 -5 -21 -10 -21 -15 0 -68 -57 -91 -96 -10 -19 -29
-51 -41 -71 -19 -32 -23 -58 -28 -173 -5 -133 -5 -135 -29 -138 -33 -5 -71 17
-72 42 -1 26 -29 76 -51 90 -13 8 -21 5 -37 -15 -11 -13 -20 -30 -21 -36 0 -7
-4 -13 -10 -13 -5 0 -10 -5 -10 -10 0 -6 -8 -23 -19 -38 -50 -73 -81 -127 -81
-142 0 -8 -16 -46 -36 -83 -29 -55 -40 -67 -60 -67 -24 0 -24 1 -24 89 0 50
-4 93 -10 96 -5 3 -10 15 -10 26 0 10 5 19 10 19 6 0 10 71 10 193 0 171 2
198 21 247 11 30 23 64 26 75 4 11 17 31 30 44 12 13 23 27 23 31 0 4 9 17 19
29 11 12 22 40 26 62 5 29 14 43 36 56 16 10 29 23 29 30 0 7 5 13 10 13 6 0
10 7 10 15 0 8 4 15 9 15 5 0 13 9 16 20 3 11 11 20 17 20 12 0 68 59 68 72 0
11 0 11 -38 -12z"/>
<path d="M3899 4481 c-73 -45 -581 -187 -842 -235 -70 -13 -130 -26 -133 -28
-2 -3 -3 -153 -2 -334 l3 -329 18 60 c27 90 50 127 102 163 42 28 55 32 115
32 65 0 69 -2 97 -34 30 -33 93 -170 93 -200 0 -9 5 -36 12 -61 13 -50 14 -50
99 -36 30 5 182 26 339 46 157 20 295 38 308 41 l22 4 0 443 0 443 -82 12
c-46 7 -94 15 -108 17 -14 3 -32 1 -41 -4z"/>
<path d="M5745 4463 c-16 -2 -45 -6 -62 -9 l-33 -5 0 -341 0 -340 33 5 c17 3
53 9 80 13 l47 6 0 339 c0 376 7 341 -65 332z"/>
<path d="M4200 4010 l0 -433 46 7 c26 3 55 6 65 6 14 0 19 11 24 48 15 115 14
113 56 131 l39 16 0 316 0 317 -28 5 c-15 3 -67 9 -115 13 l-87 7 0 -433z"/>
<path d="M5375 4429 c-49 -4 -151 -11 -227 -15 l-136 -6 14 -34 c15 -36 19
-160 5 -168 -4 -3 -11 -27 -14 -53 -6 -48 -30 -107 -48 -118 -17 -11 -10 -45
10 -45 10 0 32 -15 48 -33 38 -44 35 -42 163 -87 114 -40 210 -93 210 -117 0
-16 21 -16 111 -2 l69 12 0 338 0 339 -57 -1 c-32 -1 -98 -5 -148 -10z"/>
<path d="M4506 4390 c-8 -41 -8 -570 0 -570 14 0 172 78 178 89 4 6 -1 23 -12
39 -28 41 -45 90 -38 109 4 9 -3 56 -16 105 -20 80 -21 94 -9 151 7 34 20 70
28 80 15 16 14 17 -9 17 -14 0 -45 3 -70 6 -44 6 -45 6 -52 -26z"/>
<path d="M753 4282 c-47 -23 -56 -25 -86 -14 -38 14 -76 15 -94 4 -16 -10 -43
-76 -43 -105 0 -28 17 -47 42 -47 27 0 98 24 98 32 0 5 6 8 14 8 8 0 16 4 18
10 2 5 46 31 98 57 112 57 130 83 53 82 -31 0 -66 -10 -100 -27z"/>
<path d="M2819 4206 c-2 -2 -85 -13 -184 -25 -99 -12 -199 -24 -222 -27 l-43
-5 0 -405 c0 -376 1 -404 17 -404 20 0 295 36 396 51 l67 11 0 404 c0 330 -2
404 -13 404 -8 0 -16 -2 -18 -4z"/>
<path d="M2157 4133 c-3 -5 1 -168 9 -363 7 -195 13 -379 14 -407 0 -46 3 -53
19 -53 11 0 23 5 26 10 3 6 22 10 41 10 l34 0 0 405 0 405 -69 0 c-39 0 -72
-3 -74 -7z"/>
<path d="M815 3793 c-51 -53 -56 -61 -53 -98 3 -40 3 -40 49 -43 44 -3 46 -2
97 57 29 33 61 63 72 66 26 8 26 51 1 65 -11 5 -40 10 -65 10 -42 0 -49 -4
-101 -57z"/>
<path d="M5635 3688 c-115 -17 -212 -32 -214 -34 -2 -2 3 -31 13 -64 13 -49
16 -106 17 -288 0 -125 -5 -240 -10 -257 -5 -16 -12 -82 -15 -145 -2 -63 -14
-160 -26 -215 -33 -157 -51 -273 -57 -365 -5 -85 -20 -120 -50 -120 -10 0 -13
-45 -13 -232 -1 -345 -9 -672 -20 -763 -5 -44 -12 -138 -15 -210 -3 -71 -11
-157 -17 -190 -6 -33 -10 -107 -10 -165 1 -83 -2 -108 -15 -123 -9 -10 -20
-40 -23 -67 l-6 -50 168 0 c185 0 171 -4 250 74 37 37 41 38 88 33 43 -5 50
-3 55 14 4 10 10 19 15 19 5 0 12 9 15 20 3 11 12 20 20 20 17 0 32 83 16 88
-6 2 -11 8 -11 14 0 6 6 8 14 5 11 -5 14 17 15 116 1 67 17 727 36 1467 19
740 35 1369 35 1398 0 62 28 60 -255 20z"/>
<path d="M3833 3437 c-267 -38 -433 -66 -433 -72 0 -6 9 -30 20 -52 14 -29 32
-47 62 -62 58 -28 82 -68 113 -191 51 -200 84 -283 155 -390 35 -53 120 -221
134 -267 11 -36 72 -32 114 8 42 40 60 75 88 179 12 48 34 111 47 142 25 56
70 202 82 268 4 19 18 69 31 110 33 104 54 211 54 273 0 29 4 67 9 85 9 31 8
32 -17 31 -15 -1 -222 -29 -459 -62z"/>
<path d="M2510 3252 l-325 -46 27 -755 c42 -1207 59 -1655 61 -1656 66 -25
107 -69 107 -115 0 -21 13 -61 30 -96 17 -32 38 -87 47 -121 l15 -63 154 0
c103 0 155 4 160 11 10 17 21 385 28 929 l7 475 -38 18 c-67 31 -78 57 -76
172 1 55 -2 154 -8 220 -5 66 -10 276 -11 466 -2 381 -2 383 62 444 51 48 118
167 93 164 -4 -1 -154 -22 -333 -47z"/>
<path d="M2020 3182 c-14 -1 -119 -16 -235 -32 -115 -16 -390 -54 -610 -85
-220 -30 -437 -60 -482 -67 l-81 -11 15 -23 c15 -24 11 -76 -9 -101 -6 -8 4
-17 36 -31 24 -11 49 -29 55 -40 10 -19 7 -86 -7 -121 -10 -26 -74 -101 -87
-101 -5 0 -15 -11 -22 -25 -6 -14 -7 -25 -2 -25 5 0 9 -7 9 -16 0 -20 58 -43
96 -37 25 4 35 0 48 -19 16 -22 16 -24 -10 -45 -15 -12 -46 -30 -68 -39 -23
-10 -43 -21 -46 -25 -3 -3 -29 -9 -58 -13 -44 -6 -57 -3 -81 14 -16 11 -34 20
-39 20 -6 0 -23 10 -39 23 -15 13 -47 31 -70 41 -24 11 -43 23 -43 28 0 4 -9
8 -20 8 -11 0 -20 7 -20 15 0 8 -6 15 -13 15 -7 0 -27 14 -45 30 -18 17 -37
30 -43 30 -5 0 -9 -18 -9 -39 0 -52 39 -103 64 -82 24 20 43 7 49 -37 4 -21
15 -50 25 -63 11 -13 22 -42 26 -64 4 -22 16 -49 27 -60 14 -16 17 -27 10 -50
-8 -32 6 -105 20 -105 5 0 9 -6 9 -14 0 -7 9 -25 20 -39 11 -14 20 -37 20 -50
0 -14 5 -29 10 -32 6 -4 8 -11 4 -16 -3 -5 1 -21 10 -34 9 -13 16 -35 16 -49
0 -13 6 -37 14 -53 8 -15 31 -64 51 -108 20 -44 45 -97 56 -118 10 -22 19 -47
19 -58 0 -10 4 -19 9 -19 5 0 18 -20 29 -44 l21 -43 69 -7 c90 -9 97 -20 89
-148 -7 -107 4 -137 59 -159 19 -7 34 -15 34 -19 0 -3 8 -6 18 -7 9 -1 35 -6
58 -11 39 -8 40 -8 42 21 3 38 -17 95 -45 125 -13 14 -23 31 -23 38 0 7 -9 29
-20 49 -11 19 -17 35 -14 35 3 0 -3 16 -15 36 -12 19 -21 50 -21 67 0 18 -7
56 -14 86 -15 56 -24 187 -13 197 3 4 2 14 -2 23 -5 9 -7 50 -5 91 2 41 4 87
4 103 0 66 8 232 10 232 1 0 3 23 5 50 6 103 16 149 35 167 10 9 24 33 31 53
7 19 18 35 24 35 11 0 35 46 35 67 0 17 37 35 58 28 20 -6 75 -93 67 -105 -3
-4 8 -86 24 -182 16 -95 29 -184 29 -198 3 -71 2 -296 -2 -377 -3 -85 -2 -91
14 -83 10 5 21 21 24 35 4 14 14 34 24 44 9 10 42 46 71 80 66 74 77 69 74
-32 -2 -63 -9 -132 -13 -132 -1 0 -3 -16 -6 -35 -2 -19 -9 -60 -15 -90 -6 -30
-12 -66 -13 -80 -2 -22 -17 -79 -33 -120 -4 -8 -5 -18 -5 -22 1 -4 -12 -62
-29 -128 -29 -113 -30 -123 -15 -145 9 -14 21 -25 27 -25 6 0 28 -13 49 -30
32 -25 42 -28 68 -21 18 6 34 5 40 -1 5 -5 37 -12 71 -14 53 -5 62 -3 67 13 3
10 13 34 22 53 9 19 15 38 14 42 -1 4 7 24 18 43 11 20 20 42 20 50 0 8 4 15
9 15 5 0 13 10 17 23 7 23 75 110 109 140 52 45 92 74 108 80 9 4 17 11 17 17
0 5 7 10 15 10 8 0 23 9 32 20 10 11 22 20 28 20 17 0 104 44 105 54 0 5 8 14
17 21 15 11 15 68 -11 841 -15 456 -30 840 -34 854 -5 19 -13 24 -32 22z"/>
<path d="M4418 2808 c-35 -115 -47 -144 -127 -310 -33 -69 -61 -131 -61 -136
0 -20 -39 -44 -62 -39 -20 5 -27 -1 -51 -46 -15 -29 -27 -60 -27 -69 0 -42
-10 -49 -61 -42 -42 6 -48 4 -44 -9 11 -26 -12 -28 -56 -5 -35 18 -51 37 -82
93 -21 39 -57 88 -80 110 -99 94 -163 182 -237 328 -68 134 -76 144 -83 119
-14 -50 -36 -197 -33 -222 5 -33 16 -60 26 -60 5 0 12 -14 15 -32 4 -18 11
-39 16 -48 9 -17 57 -212 69 -282 5 -26 13 -55 18 -65 5 -10 12 -45 16 -78 3
-33 13 -112 22 -175 8 -63 17 -178 20 -255 3 -77 9 -178 15 -225 6 -47 17
-141 25 -210 9 -69 19 -174 23 -235 5 -60 13 -144 20 -185 6 -41 14 -132 17
-202 l6 -128 289 0 c176 0 289 4 289 10 0 5 -5 20 -11 34 -18 38 8 70 68 85
85 22 95 28 83 50 -16 31 -12 65 15 113 32 58 42 197 26 353 -25 230 -25 219
-1 294 23 70 23 70 7 183 -10 62 -17 149 -17 194 0 44 -9 170 -20 280 -18 171
-20 246 -17 532 3 182 4 332 3 332 -2 0 -10 -24 -18 -52z"/>
<path d="M2846 2673 c-4 -71 -11 -189 -17 -263 -5 -74 -11 -184 -14 -245 -6
-145 11 -125 43 51 25 135 43 210 69 282 17 46 13 146 -6 165 -6 6 -11 20 -11
31 0 17 -45 106 -54 106 -2 0 -7 -57 -10 -127z"/>
<path d="M4850 1850 c-1 -3 -6 -79 -10 -170 -5 -91 -13 -208 -19 -260 -6 -52
-16 -151 -22 -220 -6 -69 -17 -145 -24 -170 -20 -71 -36 -202 -36 -297 0 -48
-4 -113 -9 -143 -5 -30 -11 -86 -14 -123 l-5 -68 61 3 61 3 14 50 c8 28 33 88
55 135 37 78 41 94 45 185 3 73 0 115 -11 155 -27 92 -48 211 -43 239 28 146
37 234 32 291 -10 106 -68 408 -75 390z"/>
<path d="M6820 1385 c0 -8 -6 -15 -12 -15 -9 0 -8 -4 2 -10 10 -6 11 -10 3
-10 -7 0 -16 -12 -19 -27 -4 -15 -13 -33 -19 -40 -7 -6 -15 -39 -19 -72 -7
-57 -1 -82 25 -115 5 -6 20 -25 34 -42 14 -18 25 -35 25 -38 0 -10 174 -183
198 -195 19 -10 23 -9 28 4 8 19 -11 65 -26 65 -5 0 -10 7 -10 15 0 8 -6 15
-14 15 -8 0 -17 14 -21 30 -4 17 -11 30 -16 30 -5 0 -15 12 -22 28 -6 15 -17
33 -24 40 -7 7 -13 20 -13 28 0 8 -4 14 -9 14 -5 0 -13 26 -17 58 -4 31 -11
59 -15 63 -13 8 -28 100 -22 132 5 26 -10 57 -28 57 -5 0 -9 -7 -9 -15z"/>
<path d="M2106 1334 c-4 -17 -16 -41 -28 -53 -11 -12 -18 -25 -14 -28 5 -5
-31 -58 -70 -102 -12 -12 -27 -41 -34 -62 -7 -21 -17 -39 -21 -39 -4 0 -12
-13 -18 -30 -5 -16 -14 -30 -20 -30 -5 0 -14 -15 -21 -34 -6 -18 -26 -58 -44
-89 -37 -61 -33 -69 24 -62 29 4 38 12 87 74 7 9 13 24 13 34 0 10 6 20 14 23
8 3 13 11 10 18 -3 7 6 21 20 30 14 9 37 38 51 65 13 27 29 52 34 56 6 3 8 12
5 19 -3 8 3 17 14 20 18 6 19 14 15 104 -5 115 -8 127 -17 86z"/>
</g>
</svg>
