<?xml version="1.0" encoding="UTF-8" standalone="no"?>
<svg
   xmlns:dc="http://purl.org/dc/elements/1.1/"
   xmlns:cc="http://web.resource.org/cc/"
   xmlns:rdf="http://www.w3.org/1999/02/22-rdf-syntax-ns#"
   xmlns:svg="http://www.w3.org/2000/svg"
   xmlns="http://www.w3.org/2000/svg"
   xmlns:sodipodi="http://inkscape.sourceforge.net/DTD/sodipodi-0.dtd"
   xmlns:inkscape="http://www.inkscape.org/namespaces/inkscape"
   version="1.0"
   width="4in"
   height="4in"
   viewBox="0 0 468 468"
   preserveAspectRatio="xMidYMid meet"
   id="svg6783"
   sodipodi:version="0.32"
   inkscape:version="0.43"
   sodipodi:docbase="/my/proj/xpcs"
   sodipodi:docname="out8.svg">
  <defs
     id="defs6886" />
  <sodipodi:namedview
     inkscape:window-height="1087"
     inkscape:window-width="1042"
     inkscape:pageshadow="2"
     inkscape:pageopacity="0.0"
     borderopacity="1.0"
     bordercolor="#666666"
     pagecolor="#ffffff"
     id="base"
     inkscape:zoom="1.948472"
     inkscape:cx="180.05598"
     inkscape:cy="170.04468"
     inkscape:window-x="2396"
     inkscape:window-y="241"
     inkscape:current-layer="svg6783" />
  <metadata
     id="metadata6785">
Created by potrace 1.7, written by Peter Selinger 2001-2005
<rdf:RDF>
  <cc:Work
     rdf:about="">
    <dc:format>image/svg+xml</dc:format>
    <dc:type
       rdf:resource="http://purl.org/dc/dcmitype/StillImage" />
  </cc:Work>
</rdf:RDF>
</metadata>
  <path
     style="fill:#000000;stroke:none"
     id="path6789"
     d="M 139.23,30.8295 C 139.23,33.813 138.996,33.6375 149.4675,35.919 C 154.9665,37.089 168.7725,40.131 174.915,41.535 C 177.6645,42.1785 185.445,43.875 192.1725,45.3375 C 198.9585,46.8585 210.366,49.374 217.62,50.9535 C 224.874,52.533 232.479,54.2295 234.585,54.6975 C 252.4275,58.5585 251.784,58.383 257.868,62.478 C 259.9155,63.8235 261.6705,64.935 261.846,64.935 C 261.963,64.935 263.718,66.0465 265.7655,67.4505 C 267.7545,68.8545 269.802,70.2 270.27,70.434 C 271.6155,71.0775 273.1365,72.0135 277.056,74.646 C 278.9865,75.933 282.9645,78.039 285.831,79.209 C 288.6975,80.4375 292.0905,81.9585 293.436,82.5435 C 294.723,83.1285 295.9515,83.655 296.1855,83.655 C 296.4195,83.655 298.2915,84.4155 300.3975,85.41 C 302.5035,86.346 304.3755,87.165 304.4925,87.165 C 304.6095,87.165 306.423,87.9255 308.412,88.8615 C 310.4595,89.739 312.741,90.7335 313.56,90.9675 C 314.379,91.2015 315.9585,91.9035 317.07,92.4885 C 318.1815,93.132 319.41,93.6 319.761,93.6 C 320.1705,93.6 320.58,91.26 320.814,87.048 C 321.048,83.421 321.75,78.624 322.335,76.3425 C 322.92,74.1195 323.5635,71.3115 323.739,70.2 C 323.9145,69.0885 324.7335,67.392 325.5525,66.456 C 326.3715,65.52 327.015,64.5255 327.015,64.233 C 327.015,63.999 327.4245,63.765 327.8925,63.765 C 328.3605,63.765 328.77,63.3555 328.77,62.8875 C 328.77,62.4195 329.004,62.01 329.2965,62.01 C 329.589,62.01 330.057,61.4835 330.2325,60.84 C 330.408,60.1965 331.0515,59.67 331.578,59.67 C 332.1045,59.67 333.216,58.734 333.9765,57.6225 C 334.737,56.511 335.556,55.575 335.8485,55.575 C 336.141,55.575 336.375,55.2825 336.375,54.9315 C 336.375,54.405 334.503,54.3465 329.823,54.5805 C 323.739,54.8145 322.8615,55.0485 318.825,56.979 C 311.7465,60.4305 309.9915,61.425 308.7045,62.595 C 308.061,63.2385 306.2475,63.9405 304.668,64.116 C 303.147,64.35 301.86,64.701 301.86,64.9935 C 301.86,65.286 300.6315,65.52 299.169,65.52 L 296.478,65.52 L 296.7705,61.542 C 297.1215,56.6865 297.9405,52.4745 299.169,49.4325 C 299.637,48.1455 300.0465,46.6245 300.105,46.098 C 300.105,45.513 300.6315,44.7525 301.275,44.343 C 302.8545,43.3485 302.7375,42.12 301.0995,42.12 C 299.52,42.12 294.255,43.875 291.6225,45.279 C 290.6865,45.8055 289.575,46.215 289.224,46.215 C 288.873,46.215 287.82,46.6245 286.8255,47.0925 C 285.831,47.5605 283.842,48.204 282.3795,48.4965 C 280.917,48.7305 279.045,49.5495 278.1675,50.2515 C 277.29,50.895 275.769,51.48 274.8915,51.48 C 273.9555,51.48 273.195,51.714 273.195,52.0065 C 273.195,52.7085 269.919,53.82 267.813,53.82 C 266.8185,53.82 265.2975,54.405 264.303,55.0485 C 262.314,56.511 259.389,56.628 258.1605,55.3995 C 257.4585,54.756 257.4585,54.1125 258.102,51.714 C 258.5115,50.1345 259.155,48.6135 259.5645,48.3795 C 259.974,48.1455 260.325,47.151 260.325,46.215 C 260.325,45.2205 260.6175,44.46 260.91,44.46 C 261.261,44.46 261.495,44.226 261.495,43.875 C 261.495,42.705 270.387,33.93 271.6155,33.93 C 272.4345,33.93 274.365,31.8825 274.365,31.0635 C 274.365,30.771 275.3595,30.303 276.588,29.952 C 278.0505,29.5425 256.5225,29.367 209.0205,29.3085 L 139.23,29.25 L 139.23,30.8295 z " />
  <path
     style="fill:#000000;stroke:none"
     id="path6791"
     d="M 121.329,37.323 C 117.819,40.1895 113.373,42.705 111.735,42.705 C 111.2085,42.705 110.565,42.8805 110.331,43.1145 C 109.746,43.758 105.183,45.045 104.6565,44.7525 C 104.481,44.577 102.726,44.9865 100.854,45.5715 C 98.5725,46.2735 95.706,46.683 92.4885,46.6245 C 88.569,46.6245 87.399,46.8585 86.8725,47.619 C 86.463,48.1455 85.644,48.555 85.059,48.555 C 83.3625,48.6135 80.73,51.246 80.73,52.8255 C 80.73,54.5805 81.9585,55.7505 83.304,55.224 C 83.8305,55.0485 84.24,55.1655 84.24,55.5165 C 84.24,55.8675 84.8835,56.16 85.7025,56.16 C 86.5215,56.16 87.6915,56.4525 88.2765,56.862 C 89.154,57.3885 89.9145,57.2715 92.079,56.277 C 93.5415,55.575 95.121,54.99 95.589,54.99 C 96.057,54.99 96.642,54.6975 96.8175,54.3465 C 97.0515,54.054 98.5725,53.118 100.2105,52.299 C 104.0715,50.4855 105.4755,49.608 106.0605,48.672 C 106.2945,48.321 106.938,47.97 107.406,47.97 C 110.448,47.97 124.02,39.312 124.02,37.3815 C 124.02,36.036 122.967,35.9775 121.329,37.323 z " />
  <path
     style="fill:#000000;stroke:none"
     id="path6793"
     d="M 138.996,41.535 C 138.762,43.1145 138.3525,44.577 138.06,44.7525 C 137.709,44.9865 137.0655,46.0395 136.5975,47.0925 C 136.188,48.204 135.5445,49.4325 135.1935,49.842 C 132.795,52.767 131.625,54.3465 131.625,54.639 C 131.625,55.107 133.9065,53.82 135.369,52.4745 C 136.8315,51.1875 140.868,49.14 142.038,49.14 C 142.5645,49.14 142.6815,49.5495 142.4475,50.2515 C 140.9265,55.107 140.049,59.085 140.4585,59.4945 C 140.751,59.787 140.751,60.7815 140.4585,61.7175 C 140.2245,62.712 140.1075,65.2275 140.2245,67.392 C 140.3415,69.7905 140.166,71.37 139.815,71.37 C 139.5225,71.37 139.23,71.8965 139.23,72.4815 C 139.23,73.125 138.996,73.71 138.7035,73.827 C 138.2355,74.0025 135.135,82.602 135.369,82.8945 C 135.486,83.0115 138.9375,82.6605 143.091,82.1925 C 147.2445,81.7245 160.524,80.262 172.575,78.975 C 184.626,77.688 196.6185,76.3425 199.134,76.05 C 205.9785,75.1725 205.8615,75.114 207.1485,78.0975 C 207.792,79.56 208.494,80.73 208.7865,80.73 C 209.0205,80.73 209.781,81.783 210.5415,83.07 C 211.2435,84.357 212.2965,85.8195 212.823,86.4045 C 213.3495,86.931 214.0515,87.8085 214.4025,88.3935 C 216.918,92.7225 218.9655,96.057 219.609,96.7005 C 219.96,97.0515 222.3585,100.6785 224.9325,104.598 C 227.5065,108.576 230.022,112.437 230.49,113.139 C 230.958,113.8995 232.128,115.7715 233.064,117.351 C 234,118.9305 235.2285,120.744 235.755,121.3875 C 236.34,122.031 237.2175,123.318 237.744,124.3125 C 239.2065,127.0035 239.9085,128.115 242.658,131.742 C 244.0035,133.5555 245.115,135.135 245.115,135.3105 C 245.115,135.4275 246.402,137.5335 247.9815,139.932 C 250.6725,143.9685 251.1405,144.378 255.177,146.1915 C 257.517,147.303 260.91,148.824 262.665,149.7015 C 265.59,151.1055 266.643,151.2225 274.365,151.398 C 282.906,151.632 283.7835,151.3395 279.63,149.76 C 273.78,147.5955 272.7855,146.835 267.6375,140.868 C 264.7125,137.592 260.5005,132.8535 258.219,130.455 C 255.9375,128.0565 253.5975,125.3655 252.954,124.5465 C 251.9595,123.084 242.7165,112.9635 235.8135,105.534 C 232.83,102.375 231.9525,100.4445 233.064,99.45 C 233.4735,99.1575 245.6415,97.929 260.091,96.8175 C 274.5405,95.706 289.9845,94.4775 294.4305,94.1265 C 303.498,93.366 303.498,93.366 305.6625,97.5195 C 306.2475,98.748 307.827,101.556 309.114,103.779 C 311.3955,107.6985 311.454,107.757 313.5015,107.406 C 314.6715,107.2305 316.719,107.055 318.123,107.055 L 320.58,107.055 L 320.58,103.311 C 320.58,101.0295 320.2875,99.333 319.878,98.982 C 319.4685,98.6895 316.485,97.2855 313.2675,95.94 C 310.05,94.5945 306.3645,92.9565 305.019,92.3715 C 303.732,91.7865 302.5035,91.26 302.2695,91.26 C 302.0355,91.26 300.1635,90.441 298.0575,89.505 C 295.9515,88.5105 294.0795,87.75 293.9625,87.75 C 293.8455,87.75 291.9735,86.931 289.8675,85.995 C 287.7615,85.0005 285.8895,84.24 285.7725,84.24 C 284.895,84.24 277.173,80.3205 274.248,78.39 C 272.3175,77.103 270.6795,76.05 270.5625,76.05 C 270.4455,76.05 268.6905,74.9385 266.643,73.593 C 264.5955,72.189 262.4895,70.8435 261.963,70.4925 C 261.4365,70.2 259.0965,68.7375 256.815,67.275 C 249.561,62.712 248.391,62.127 245.9925,61.7175 C 244.7055,61.4835 242.073,60.957 240.1425,60.5475 C 238.212,60.0795 232.947,58.9095 228.4425,57.915 C 223.938,56.9205 218.0295,55.575 215.28,54.99 C 212.5305,54.3465 204.8085,52.65 198.0225,51.1875 C 191.295,49.6665 179.946,47.2095 172.8675,45.63 C 149.76,40.482 141.0435,38.61 140.2245,38.61 C 139.6395,38.61 139.23,39.6045 138.996,41.535 z " />
  <path
     style="fill:#000000;stroke:none"
     id="path6795"
     d="M 413.361,47.4435 C 412.425,48.3795 411.3135,49.14 410.9625,49.14 C 410.553,49.14 409.4415,49.5495 408.564,50.0175 C 407.628,50.4855 406.2825,50.895 405.522,50.895 C 404.82,50.895 403.767,51.48 403.182,52.1235 C 402.6555,52.8255 401.4855,54.2295 400.608,55.2825 C 399.672,56.3355 398.97,57.447 398.97,57.681 C 399.0285,58.7925 395.109,65.52 394.4655,65.52 C 394.056,65.52 393.8805,65.1105 394.1145,64.584 C 394.407,63.765 393.705,63.648 387.3285,63.8235 C 382.941,63.999 380.0745,64.2915 379.782,64.701 C 379.548,65.052 378.729,65.52 377.91,65.754 C 376.6815,66.105 376.623,66.0465 377.5005,65.52 C 379.0215,64.5255 378.6705,63.765 376.74,63.765 C 374.5755,63.765 372.06,65.286 372.06,66.6315 C 372.06,67.158 371.358,67.9185 370.4805,68.328 C 367.497,69.6735 366.21,70.4925 366.21,70.902 C 366.21,71.1945 365.4495,71.37 364.455,71.37 C 363.1095,71.37 362.4075,71.8965 360.945,74.0025 C 359.9505,75.465 358.839,76.635 358.488,76.635 C 358.137,76.635 358.02,77.1615 358.1955,77.8635 C 358.371,78.5655 358.1955,79.1505 357.7275,79.326 C 356.7915,79.677 353.5155,84.708 349.596,91.6695 C 347.841,94.77 346.905,97.1685 346.905,98.514 C 346.905,100.4445 346.9635,100.503 349.713,100.854 C 367.4385,103.3695 368.199,103.6035 370.0125,106.47 C 370.8315,107.757 371.475,109.1025 371.475,109.4535 C 371.475,109.8045 371.8845,110.799 372.3525,111.618 C 372.8205,112.4955 373.698,114.4845 374.4,116.1225 C 375.0435,117.702 375.9795,119.808 376.4475,120.6855 C 376.9155,121.6215 377.325,122.733 377.325,123.201 C 377.325,123.669 377.559,124.02 377.91,124.02 C 378.2025,124.02 378.612,124.722 378.846,125.5995 C 379.197,127.179 380.133,129.3435 384.345,138.177 C 385.3395,140.3415 386.3925,142.857 386.6265,143.7345 C 386.9775,145.0215 387.5625,145.431 389.961,146.0745 C 391.5405,146.484 393.9975,146.8935 395.46,146.952 C 397.0395,147.069 398.385,147.4785 398.7945,148.0635 C 399.1455,148.5315 400.608,149.292 402.012,149.7015 C 403.416,150.111 404.9955,150.696 405.522,150.9885 C 406.107,151.281 407.16,151.515 407.979,151.515 C 408.7395,151.515 409.6755,151.9245 410.085,152.3925 C 410.4945,152.8605 411.489,153.2115 412.3665,153.153 C 413.1855,153.0945 414.765,153.504 415.818,154.089 C 417.7485,155.0835 417.807,155.0835 417.456,153.972 C 417.222,153.3285 417.0465,151.3395 417.0465,149.526 C 416.988,147.0105 416.754,146.25 416.1105,146.25 C 415.584,146.25 414.3555,145.7235 413.3025,145.08 C 412.2495,144.4365 410.787,143.9685 410.0265,143.9685 C 408.5055,144.0855 402.831,142.272 399.438,140.6925 C 397.449,139.698 396.63,138.7035 395.811,136.1295 C 395.6355,135.603 394.992,134.9595 394.4655,134.784 C 390.897,133.614 389.961,132.912 387.4455,129.402 C 385.983,127.296 384.2865,125.1315 383.7015,124.5465 C 383.1165,123.9615 382.824,123.0255 382.9995,122.3235 C 383.2335,121.5045 382.824,120.9195 381.4785,120.276 C 380.484,119.7495 379.665,119.0475 379.665,118.755 C 379.665,118.4625 379.1385,118.1115 378.5535,117.8775 C 376.9155,117.351 376.5645,115.8885 377.793,114.2505 C 379.08,112.4955 387.855,109.3365 389.259,110.097 C 389.7855,110.3895 391.131,110.448 392.2425,110.214 C 393.9975,109.9215 394.5825,109.395 395.7525,106.9965 C 396.5715,105.417 397.215,103.779 397.215,103.2525 C 397.215,102.726 397.6245,102.1995 398.0925,102.024 C 398.5605,101.79 398.97,101.3805 398.97,101.088 C 398.97,100.737 399.7305,99.801 400.6665,98.9235 C 401.661,97.9875 402.597,96.525 402.831,95.589 C 403.065,94.7115 404.118,93.015 405.2295,91.9035 C 406.2825,90.792 407.16,89.3295 407.16,88.6275 C 407.16,87.6915 407.6865,87.1065 408.915,86.58 C 409.851,86.1705 411.138,84.942 411.7815,83.889 C 412.4835,82.7775 413.4195,81.7245 413.8875,81.549 C 414.414,81.315 415.1745,80.4375 415.701,79.5015 C 416.4615,78.039 416.4615,77.805 415.701,77.805 C 415.233,77.805 414.648,78.039 414.4725,78.39 C 414.297,78.6825 412.8345,78.975 411.255,78.975 L 408.3885,78.975 L 408.213,76.752 C 407.8035,71.955 408.681,61.8345 409.5585,61.191 C 410.0265,60.84 410.787,59.3775 411.1965,57.915 C 412.3665,54.1125 414.9405,49.14 415.7595,49.14 C 416.4615,49.14 417.69,47.385 417.69,46.3905 C 417.69,45.2205 414.9405,45.864 413.361,47.4435 z " />
  <path
     style="fill:#000000;stroke:none"
     id="path6797"
     d="M 24.57,54.99 C 20.1825,55.224 19.5975,55.3995 19.422,56.4525 C 19.188,58.3245 17.9595,62.244 17.433,62.946 C 17.199,63.297 17.1405,63.765 17.3745,63.999 C 17.6085,64.1745 17.2575,64.7595 16.614,65.2275 C 16.029,65.6955 15.795,66.105 16.0875,66.105 C 16.4385,66.105 17.784,67.0995 19.1295,68.2695 C 22.9905,71.8965 23.9265,72.54 24.2775,72.0135 C 24.453,71.721 24.453,71.136 24.2775,70.668 C 24.102,70.2 24.6285,69.2055 25.389,68.5035 C 26.208,67.743 26.7345,66.8655 26.559,66.573 C 26.3835,66.2805 26.6175,65.5785 27.144,64.9935 C 27.612,64.467 28.1385,63.4725 28.2555,62.829 C 28.314,62.244 28.8405,60.84 29.4255,59.7285 C 30.4785,57.681 30.771,55.1655 30.0105,54.873 C 29.718,54.756 27.3195,54.8145 24.57,54.99 z " />
  <path
     style="fill:#000000;stroke:none"
     id="path6799"
     d="M 104.598,72.891 C 104.3055,73.125 104.13,73.827 104.13,74.412 C 104.13,75.231 104.598,75.465 106.1775,75.465 C 107.523,75.465 108.81,75.9915 110.097,77.103 C 112.4955,79.092 116.0055,80.73 117.8775,80.73 C 119.106,80.73 119.34,80.4375 119.34,78.975 C 119.34,77.5125 118.8135,76.869 116.1225,75.114 C 113.4315,73.3005 112.2615,72.9495 108.9855,72.7155 C 106.7625,72.54 104.832,72.5985 104.598,72.891 z " />
  <path
     style="fill:#000000;stroke:none"
     id="path6801"
     d="M 76.1085,81.1395 C 76.518,81.7245 78.507,84.1815 80.4375,86.58 C 82.4265,88.9785 84.474,91.6695 85.0005,92.547 C 86.229,94.536 87.165,94.5945 88.803,92.8395 C 91.3185,90.1485 90.4995,89.0955 82.485,84.6495 C 80.73,83.655 78.6825,82.251 77.922,81.4905 C 76.3425,79.911 74.9385,79.6185 76.1085,81.1395 z " />
  <path
     style="fill:#000000;stroke:none"
     id="path6803"
     d="M 186.615,87.2235 C 181.2915,87.4575 168.4215,87.9255 157.95,88.335 C 147.4785,88.7445 138.1185,89.2125 137.0655,89.4465 L 135.252,89.7975 L 147.888,110.2725 C 154.908,121.563 161.109,131.625 161.811,132.7365 L 163.0395,134.667 L 179.01,112.4955 C 187.785,100.3275 195.624,89.505 196.443,88.452 C 197.379,87.2235 197.613,86.6385 197.0865,86.697 C 196.6185,86.697 191.9385,86.931 186.615,87.2235 z " />
  <path
     style="fill:#000000;stroke:none"
     id="path6805"
     d="M 127.296,93.834 C 126.7695,94.887 125.541,96.642 124.605,97.7535 C 123.6105,98.8065 122.85,100.035 122.85,100.386 C 122.85,100.6785 121.797,101.907 120.51,103.0185 C 119.223,104.13 117.468,105.5925 116.649,106.2945 C 115.83,107.055 114.8355,107.64 114.4845,107.64 C 114.075,107.64 112.905,108.4005 111.852,109.395 C 110.799,110.331 109.4535,111.15 108.8685,111.15 C 107.172,111.15 103.2525,115.479 103.9545,116.5905 C 104.4225,117.4095 111.0915,126.3015 112.1445,127.53 C 114.075,129.8115 117.9945,134.901 119.1645,136.5975 C 120.2175,138.177 121.914,138.996 130.8645,142.506 L 141.2775,146.5425 L 151.983,146.718 C 157.833,146.835 162.63,146.718 162.5715,146.4255 C 162.5715,146.1915 161.4015,144.378 159.9975,142.4475 C 158.535,140.517 156.9555,138.0015 156.3705,136.89 C 155.844,135.7785 154.7325,133.7895 153.9135,132.5025 C 151.632,128.8755 150.9885,127.881 150.579,126.945 C 150.345,126.477 149.5845,125.2485 148.8825,124.3125 C 148.1805,123.318 147.42,122.148 147.186,121.68 C 146.6595,120.51 145.8405,119.1645 143.0325,114.9525 C 140.283,110.7405 139.4055,109.395 138.879,108.225 C 138.645,107.757 137.358,105.768 136.071,103.8375 C 132.678,98.748 132.2685,98.1045 131.8005,97.11 C 131.5665,96.642 130.689,95.2965 129.87,94.068 L 128.349,91.962 L 127.296,93.834 z " />
  <path
     style="fill:#000000;stroke:none"
     id="path6807"
     d="M 202.41,100.0935 C 200.9475,102.375 199.134,105.066 198.315,106.0605 C 197.496,107.1135 195.858,109.395 194.688,111.15 C 189.9495,118.2285 185.2695,124.956 183.6315,127.0035 C 182.6955,128.1735 181.935,129.4605 181.935,129.753 C 181.935,130.104 181.584,130.6305 181.1745,130.8645 C 180.3555,131.391 173.511,141.57 173.862,141.8625 C 173.9205,141.921 176.436,143.0325 179.3025,144.261 C 182.2275,145.4895 184.9185,146.8935 185.328,147.3615 C 185.679,147.8295 186.03,149.5845 186.03,151.281 C 186.03,154.44 185.562,155.025 183.0465,155.025 C 182.2275,155.025 181.935,155.4345 181.935,156.7215 L 181.935,158.418 L 191.4705,158.769 C 196.677,158.9445 213.2325,159.237 228.2085,159.4125 L 255.528,159.705 L 255.762,157.365 L 255.996,155.025 L 251.8425,153.7965 C 249.6195,153.153 247.221,152.3925 246.5775,152.1 C 245.934,151.8075 244.3545,151.281 243.0675,150.8715 C 240.435,150.111 238.68,148.824 238.68,147.5955 C 238.68,147.186 237.9195,146.0745 237.042,145.197 C 236.106,144.3195 235.2285,143.208 234.9945,142.74 C 234.7605,142.272 234.0585,141.0435 233.415,140.1075 C 232.7715,139.113 232.0695,137.943 231.8355,137.475 C 231.66,137.007 230.8995,135.7785 230.1975,134.8425 C 229.4955,133.848 228.501,132.093 227.916,130.8645 C 227.3895,129.6945 226.6875,128.7 226.4535,128.7 C 226.161,128.7 225.81,128.232 225.576,127.647 C 225.4005,127.1205 224.6985,125.8335 224.055,124.8975 C 223.4115,123.903 222.651,122.616 222.3,121.9725 C 221.949,121.329 221.364,120.276 220.9545,119.6325 C 220.545,118.989 219.492,117.234 218.6145,115.713 C 217.6785,114.192 215.865,111.267 214.5195,109.161 C 213.174,107.055 210.7755,103.2525 209.1375,100.6785 C 207.558,98.046 205.9785,95.94 205.6275,95.94 C 205.335,95.94 203.8725,97.812 202.41,100.0935 z " />
  <path
     style="fill:#000000;stroke:none"
     id="path6809"
     d="M 255.7035,104.13 L 242.541,104.4225 L 259.155,122.85 C 268.281,132.9705 275.886,141.336 276.0615,141.3945 C 276.354,141.5115 295.308,105.885 295.893,104.13 C 296.127,103.545 281.4435,103.4865 255.7035,104.13 z " />
  <path
     style="fill:#000000;stroke:none"
     id="path6811"
     d="M 60.84,105.1245 C 60.84,105.885 57.5055,109.395 56.8035,109.395 C 56.4525,109.395 56.16,109.629 56.16,109.98 C 56.16,110.2725 55.809,110.565 55.341,110.565 C 54.873,110.565 53.8785,111.384 53.1765,112.3785 C 52.2405,113.724 51.597,114.1335 50.544,113.8995 C 49.6665,113.7825 48.789,114.075 48.204,114.7185 C 47.619,115.362 46.7415,115.83 46.098,115.83 C 45.513,115.83 45.045,116.1225 45.045,116.4735 C 45.045,116.9415 44.226,117.0585 42.6465,116.8245 C 39.897,116.4735 38.61,116.766 38.61,117.819 C 38.61,118.872 43.8165,124.02 44.811,124.02 C 46.0395,124.02 50.9535,121.446 52.4745,119.9835 C 53.1765,119.2815 54.054,118.755 54.405,118.755 C 54.6975,118.755 54.99,118.4625 54.99,118.17 C 54.99,117.819 55.341,117.585 55.7505,117.585 C 56.1015,117.585 57.447,116.7075 58.6755,115.6545 C 60.723,113.841 60.8985,113.4315 61.1325,110.097 C 61.2495,108.108 61.4835,106.236 61.7175,105.9435 C 61.893,105.651 61.776,105.2415 61.425,105.0075 C 61.1325,104.832 60.84,104.832 60.84,105.1245 z " />
  <path
     style="fill:#000000;stroke:none"
     id="path6813"
     d="M 350.298,109.2195 L 345.15,109.4535 L 345.15,111.618 C 345.2085,112.788 345.5595,114.8355 346.0275,116.1225 C 346.4955,117.4095 346.905,119.457 346.905,120.627 C 346.905,122.733 346.788,122.85 345.033,122.85 C 342.8685,122.7915 340.938,121.6215 341.1135,120.393 C 341.3475,118.5795 340.9965,117 340.1775,116.181 C 339.7095,115.713 339.3,115.1865 339.3,114.9525 C 339.3,114.543 336.843,111.033 336.258,110.565 C 336.0825,110.3895 334.62,110.3895 333.0405,110.448 L 330.174,110.682 L 330.642,114.543 C 330.9345,116.7075 331.4025,118.989 331.695,119.6325 C 332.397,121.212 332.9235,123.7275 333.2745,127.062 L 333.567,129.87 L 331.11,129.87 C 329.121,129.87 328.419,129.519 326.9565,127.9395 C 326.0205,126.945 325.0845,125.424 324.909,124.605 C 324.1485,121.095 322.686,116.415 322.2765,116.415 C 322.0425,116.415 321.5745,115.245 321.2235,113.7825 C 320.5215,110.916 320.1705,110.799 315.783,111.501 C 313.6185,111.852 313.326,112.905 314.964,114.3675 C 315.315,114.66 315.9585,115.596 316.3095,116.415 C 316.719,117.234 317.8305,119.1645 318.7665,120.8025 C 319.7025,122.382 321.048,124.7805 321.75,126.0675 C 322.452,127.4715 323.739,128.7585 324.7335,129.2265 C 325.6695,129.636 328.068,131.0985 329.9985,132.3855 C 331.9875,133.731 333.9765,135.0765 334.503,135.4275 C 335.0295,135.72 337.1355,137.124 339.183,138.4695 C 341.2305,139.8735 343.1025,140.985 343.3365,140.985 C 343.629,140.985 344.214,141.3945 344.6235,141.921 C 345.033,142.4475 345.9105,143.091 346.6125,143.3835 C 347.256,143.676 348.309,144.3195 349.011,144.7875 C 350.415,145.782 350.298,145.9575 353.0475,138.9375 C 354.744,134.667 356.5575,130.3965 357.435,128.4075 C 357.7275,127.764 358.5465,125.775 359.19,124.02 C 359.8335,122.265 360.6525,120.276 360.945,119.6325 C 361.2375,118.989 361.998,117.117 362.7,115.5375 C 363.753,113.022 364.689,110.916 365.508,109.2195 C 365.6835,108.81 361.2375,108.81 350.298,109.2195 z " />
  <path
     style="fill:#000000;stroke:none"
     id="path6815"
     d="M 452.4975,111.618 C 447.759,113.1975 444.015,115.128 444.015,115.947 C 444.015,116.181 443.7225,116.415 443.3715,116.415 C 443.0205,116.415 441.9675,116.9415 441.0315,117.6435 C 439.7445,118.5795 439.335,119.2815 439.335,120.861 L 439.335,122.85 L 443.6055,122.85 C 447.408,122.85 448.227,123.084 450.801,124.6635 C 452.3805,125.7165 454.545,127.0035 455.598,127.5885 L 457.47,128.7 L 457.47,119.34 C 457.47,114.192 457.4115,109.98 457.353,110.0385 C 457.236,110.0385 455.0715,110.7405 452.4975,111.618 z " />
  <path
     style="fill:#000000;stroke:none"
     id="path6817"
     d="M 292.9095,128.4075 C 288.171,137.8845 284.31,145.9575 284.31,146.25 C 284.31,146.835 290.16,149.76 293.085,150.6375 C 296.6535,151.6905 296.946,153.621 293.9625,156.0195 C 292.734,157.014 291.915,158.184 291.915,158.9445 L 291.915,160.29 L 311.3955,160.29 C 322.0425,160.29 331.812,160.4655 333.0405,160.641 C 335.0295,160.992 335.205,160.9335 335.205,159.588 C 335.205,158.8275 335.4975,157.8915 335.8485,157.5405 C 337.0185,156.3705 336.024,155.376 333.099,154.4985 C 331.5195,154.0305 329.823,153.4455 329.355,153.153 C 328.887,152.919 327.1905,152.217 325.5525,151.5735 C 323.739,150.93 322.569,150.0525 322.3935,149.409 C 322.218,148.4145 320.1705,144.3195 313.677,132.21 C 312.2145,129.4605 310.5765,126.36 309.9915,125.2485 C 309.4065,124.137 308.7045,123.084 308.4705,122.9085 C 308.178,122.733 306.9495,120.51 305.6625,118.053 C 301.4505,109.863 302.7375,108.81 292.9095,128.4075 z " />
  <path
     style="fill:#000000;stroke:none"
     id="path6819"
     d="M 368.316,126.711 C 368.1405,127.2375 367.965,128.115 367.965,128.7 C 367.965,129.2265 367.5555,130.0455 367.0875,130.455 C 366.6195,130.8645 366.21,131.5665 366.21,131.976 C 366.21,132.444 365.4495,134.433 364.5135,136.4805 C 362.349,141.1605 360.5355,145.6065 360.0675,147.186 C 359.8335,148.1805 360.0675,148.5315 361.062,148.824 C 363.519,149.4675 366.21,149.2335 366.21,148.356 C 366.21,147.4785 369.135,146.835 373.6395,146.835 C 375.5115,146.835 376.74,146.5425 376.9155,146.0745 C 377.325,144.729 376.038,140.6925 373.4055,135.603 C 372.996,134.784 372.645,133.5555 372.645,132.9705 C 372.645,132.327 372.2355,131.3325 371.7675,130.689 C 371.2995,130.104 370.89,129.051 370.89,128.349 C 370.89,127.179 369.8955,125.775 369.0765,125.775 C 368.8425,125.775 368.4915,126.1845 368.316,126.711 z " />
  <path
     style="fill:#000000;stroke:none"
     id="path6821"
     d="M 90.441,128.9925 C 89.505,129.87 87.633,131.157 86.346,131.9175 C 83.7135,133.3215 81.315,137.241 81.6075,139.6395 C 81.666,140.4 81.549,141.1605 81.315,141.2775 C 80.7885,141.57 79.911,145.6065 80.0865,146.6595 C 80.145,147.069 79.911,147.42 79.56,147.42 C 79.2675,147.42 78.975,147.9465 78.975,148.6485 C 78.975,149.292 78.624,150.579 78.156,151.398 C 77.688,152.2755 76.9275,153.9135 76.401,155.025 L 75.5235,157.0725 L 87.633,157.4235 C 94.302,157.599 104.8905,157.833 111.2085,157.8915 C 123.786,157.95 123.435,158.067 123.435,154.557 C 123.435,150.93 122.9085,150.4035 116.4735,147.3615 C 100.737,139.815 101.907,140.634 97.6365,134.8425 C 95.472,131.9175 93.3075,129.1095 92.898,128.5245 C 92.1375,127.4715 92.0205,127.53 90.441,128.9925 z " />
  <path
     style="fill:#000000;stroke:none"
     id="path6823"
     d="M 327.6,136.539 C 327.6,136.9485 329.8815,140.985 331.11,142.74 C 331.6365,143.559 332.28,144.7875 332.514,145.431 C 332.9235,146.718 336.7845,149.76 337.9545,149.76 C 338.3055,149.76 338.8905,150.1695 339.3,150.6375 C 340.002,151.4565 341.523,151.749 348.3675,152.334 L 351.8775,152.685 L 350.1225,151.164 C 349.1865,150.345 347.841,149.409 347.1975,149.1165 C 345.852,148.473 344.448,147.5955 339.3,144.027 C 337.311,142.6815 335.556,141.57 335.439,141.57 C 335.322,141.57 333.5085,140.4 331.4025,138.9375 C 329.2965,137.475 327.6,136.3635 327.6,136.539 z " />
  <path
     style="fill:#000000;stroke:none"
     id="path6825"
     d="M 12.285,140.517 C 12.3435,141.687 14.976,143.325 18.954,144.7875 C 28.1385,148.1805 32.7015,150.0525 35.1,151.4565 C 36.621,152.334 39.9555,153.27 40.3065,152.8605 C 40.482,152.685 40.3065,152.3925 39.9555,152.2755 C 39.546,152.1 39.195,151.5735 39.195,150.9885 C 39.195,148.9995 36.036,146.601 31.2975,144.963 C 28.7235,144.144 25.6815,143.208 24.57,143.0325 C 23.4585,142.7985 21.294,141.9795 19.773,141.219 C 16.7895,139.698 12.285,139.2885 12.285,140.517 z " />
  <path
     style="fill:#000000;stroke:none"
     id="path6827"
     d="M 74.295,164.97 C 74.295,165.2625 74.4705,165.555 74.763,165.555 C 75.231,165.555 77.22,169.8255 77.22,170.82 C 77.22,171.171 77.454,171.405 77.7465,171.405 C 78.039,171.405 78.507,172.2825 78.6825,173.277 C 78.9165,174.33 79.911,176.67 80.847,178.425 C 81.8415,180.18 82.719,182.403 82.8945,183.3975 C 83.3625,186.264 84.708,187.902 86.1705,187.434 C 86.8725,187.2585 87.9255,186.5565 88.5105,185.9715 C 89.0955,185.328 90.207,184.86 90.9675,184.86 C 92.3715,184.86 92.43,184.9185 92.079,188.487 C 91.845,190.7685 91.3185,192.6405 90.675,193.3425 C 90.09,193.986 89.3295,196.092 88.92,198.0225 C 88.569,199.953 88.101,201.942 87.9255,202.41 C 87.6915,202.878 87.4575,204.399 87.399,205.686 C 87.2235,207.792 86.5215,209.6055 83.9475,213.993 C 81.7245,217.854 79.0335,221.598 77.688,222.768 C 76.752,223.5285 76.05,224.406 76.05,224.6985 C 76.05,225.6345 72.306,230.4315 71.604,230.49 C 71.1945,230.49 70.785,230.958 70.551,231.4845 C 70.083,232.947 68.8545,234.819 68.0355,235.3455 C 67.626,235.5795 67.275,236.223 67.275,236.6325 C 67.275,237.1005 66.9825,237.51 66.6315,237.51 C 65.3445,237.51 64.467,239.4405 64.9935,240.903 C 65.286,241.722 65.52,244.2375 65.4615,246.519 C 65.403,251.6085 65.9295,259.506 66.339,260.2665 C 66.5145,260.559 66.2805,262.1385 65.754,263.835 C 65.2275,265.5315 64.935,267.579 65.1105,268.3395 C 65.2275,269.1 65.169,269.8605 64.8765,270.036 C 64.584,270.2115 63.9405,271.2645 63.3555,272.4345 C 62.829,273.6045 61.893,274.6575 61.308,274.833 C 60.723,274.95 60.255,275.301 60.255,275.5935 C 60.255,275.886 59.8455,276.12 59.3775,276.12 C 58.9095,276.12 58.5,276.5295 58.5,276.9975 C 58.5,277.8165 57.8565,278.109 56.394,277.9335 C 56.043,277.875 55.3995,278.2845 54.99,278.7525 C 54.5805,279.2205 53.8785,279.63 53.469,279.63 C 53.001,279.63 52.65,279.864 52.65,280.098 C 52.65,280.683 49.5495,282.087 46.098,283.14 C 44.8695,283.491 43.875,284.076 43.875,284.3685 C 43.875,285.3045 47.385,284.9535 68.0355,282.204 C 79.0335,280.7415 91.4355,279.1035 95.6475,278.5185 L 103.2525,277.524 L 103.662,275.2425 C 103.896,273.9555 104.0715,248.508 104.0715,218.6145 L 104.13,164.385 L 89.2125,164.385 C 79.677,164.385 74.295,164.619 74.295,164.97 z " />
  <path
     style="fill:#000000;stroke:none"
     id="path6829"
     d="M 108.342,220.311 C 108.459,250.965 108.6345,276.1785 108.81,276.2955 C 108.9855,276.471 111.5595,276.2955 114.543,276.003 C 118.872,275.4765 119.925,275.184 119.925,274.4235 C 119.925,273.897 119.2815,255.06 118.4625,232.5375 C 117.117,194.22 116.3565,182.403 115.1865,181.0575 C 114.192,180.0045 114.66,177.84 116.0055,176.9625 C 117.2925,176.1435 117.585,176.202 120.6855,177.8985 C 123.8445,179.595 132.795,183.105 133.965,183.105 C 134.316,183.105 134.55,179.4195 134.55,173.6865 L 134.55,164.3265 L 121.329,164.502 L 108.1665,164.6775 L 108.342,220.311 z " />
  <path
     style="fill:#000000;stroke:none"
     id="path6831"
     d="M 138.645,174.6225 C 138.645,180.2385 138.8205,184.86 139.113,184.86 C 139.347,184.86 142.4475,185.5035 146.0745,186.3225 C 149.643,187.1415 155.727,188.3115 159.6465,188.8965 L 166.725,189.9495 L 166.725,177.1965 L 166.725,164.385 L 152.685,164.385 L 138.645,164.385 L 138.645,174.6225 z " />
  <path
     style="fill:#000000;stroke:none"
     id="path6833"
     d="M 170.82,177.4305 L 170.82,190.5345 L 179.1855,191.2365 C 194.2785,192.465 215.3385,193.1085 228.618,192.7575 L 241.605,192.348 L 241.605,178.3665 L 241.605,164.385 L 206.2125,164.385 L 170.82,164.385 L 170.82,177.4305 z " />
  <path
     style="fill:#000000;stroke:none"
     id="path6835"
     d="M 245.7,178.4835 L 245.7,192.6405 L 247.923,192.231 C 249.093,192.0555 252.252,191.88 254.943,191.88 L 259.74,191.88 L 259.74,178.1325 L 259.74,164.385 L 252.72,164.385 L 245.7,164.385 L 245.7,178.4835 z " />
  <path
     style="fill:#000000;stroke:none"
     id="path6837"
     d="M 263.835,177.84 C 263.835,188.1945 264.0105,191.295 264.5955,191.295 C 264.9465,191.295 269.5095,190.8855 274.716,190.4175 C 292.851,188.7795 308.295,186.4395 322.5105,183.2805 L 326.43,182.403 L 326.43,173.394 L 326.43,164.385 L 295.1325,164.385 L 263.835,164.385 L 263.835,177.84 z " />
  <path
     style="fill:#000000;stroke:none"
     id="path6839"
     d="M 330.525,171.1125 C 330.525,174.915 330.759,177.84 331.0515,177.84 C 331.8705,177.84 333.45,175.4415 333.45,174.2715 C 333.45,173.745 334.7955,171.9315 336.375,170.235 C 338.1885,168.3045 339.3,166.608 339.3,165.789 C 339.3,164.4435 339.1245,164.385 334.9125,164.385 L 330.525,164.385 L 330.525,171.1125 z " />
  <path
     style="fill:#000000;stroke:none"
     id="path6841"
     d="M 438.867,173.511 C 436.5855,176.2605 435.825,179.4195 435.825,186.264 C 435.825,190.359 436.0005,191.88 436.5855,191.88 C 437.2875,191.88 438.75,189.306 438.75,188.019 C 438.75,187.6095 438.9255,187.2 439.218,187.083 C 439.452,186.966 440.505,185.2695 441.558,183.339 C 443.1375,180.2385 443.43,179.127 443.43,175.5585 C 443.43,171.522 443.3715,171.405 442.026,171.405 C 441.09,171.405 439.9785,172.1655 438.867,173.511 z " />
  <path
     style="fill:#000000;stroke:none"
     id="path6843"
     d="M 369.5445,175.9095 C 368.784,176.6115 359.892,177.6645 358.956,177.138 C 358.4295,176.8455 357.084,176.787 355.9725,177.021 L 353.925,177.372 L 353.925,186.966 C 353.925,192.816 354.159,196.56 354.51,196.56 C 355.095,196.56 357.084,193.2255 357.1425,192.1725 C 357.2595,191.0025 361.0035,184.275 361.5885,184.275 C 362.2905,184.275 365.742,181.8765 366.3855,180.9405 C 366.6195,180.5895 368.0235,179.829 369.486,179.244 C 372.411,178.1325 373.815,176.436 372.294,175.851 C 371.0655,175.383 370.0125,175.383 369.5445,175.9095 z " />
  <path
     style="fill:#000000;stroke:none"
     id="path6845"
     d="M 35.1,186.147 C 33.9885,186.498 30.654,186.9075 27.6705,187.1415 C 22.932,187.434 22.113,187.668 20.6505,189.0135 C 18.369,191.178 16.7895,191.88 14.391,191.88 C 12.4605,191.88 12.285,192.0555 12.285,193.4595 C 12.285,197.0865 12.8115,197.73 15.561,197.73 C 17.9595,197.73 26.559,195.624 31.1805,193.869 C 32.3505,193.401 34.3395,193.05 35.568,193.05 C 38.61,193.05 41.652,190.1835 41.418,187.551 C 41.2425,185.913 41.0085,185.7375 39.195,185.6205 C 38.0835,185.562 36.2115,185.796 35.1,186.147 z " />
  <path
     style="fill:#000000;stroke:none"
     id="path6847"
     d="M 382.005,191.9385 C 382.005,192.231 381.2445,192.816 380.25,193.1085 C 379.314,193.4595 378.378,194.2785 378.2025,194.8635 C 377.9685,195.507 377.1495,196.326 376.389,196.677 C 375.6285,197.028 374.985,197.5545 374.985,197.847 C 374.985,198.1395 374.2245,198.666 373.23,198.9585 C 372.294,199.3095 371.475,199.953 371.475,200.421 C 371.475,200.889 371.0655,201.24 370.5975,201.24 C 370.188,201.24 369.5445,201.591 369.3105,202.0005 C 369.0765,202.41 367.965,203.112 366.9705,203.5215 C 365.9175,203.9895 365.04,204.6915 365.04,205.101 C 365.04,205.569 364.6305,205.92 364.1625,205.92 C 363.6945,205.92 363.285,206.154 363.285,206.505 C 363.285,206.7975 362.934,207.09 362.466,207.09 C 361.998,207.09 361.53,207.324 361.413,207.675 C 361.3545,207.9675 359.9505,208.494 358.371,208.7865 C 353.223,209.7225 353.3985,209.2545 352.9305,228.0915 L 352.5795,244.647 L 354.5685,244.296 C 355.68,244.1205 358.6635,243.711 361.2375,243.4185 C 372.2355,241.956 379.4895,240.9615 381.303,240.669 L 383.175,240.3765 L 383.175,229.905 C 383.175,223.119 382.941,219.375 382.59,219.375 C 382.239,219.375 381.8295,220.1355 381.654,221.13 C 381.42,222.066 381.069,222.885 380.835,222.885 C 380.601,222.885 380.25,223.8795 380.016,225.0495 C 379.8405,226.278 379.0215,227.8575 378.2025,228.6765 C 377.3835,229.437 376.74,230.256 376.74,230.5485 C 376.74,230.841 375.57,231.075 374.1075,231.075 C 371.6505,231.075 371.475,230.958 371.475,229.6125 C 371.475,228.7935 371.8845,226.3365 372.3525,224.172 C 372.879,222.0075 373.464,219.258 373.7565,218.088 C 374.049,216.684 373.9905,215.6895 373.581,215.28 C 373.113,214.812 373.23,214.4025 373.9905,213.876 C 374.517,213.4665 374.985,212.706 374.985,212.238 C 374.985,211.7115 375.3945,211.0095 375.8625,210.6 C 376.3305,210.1905 376.74,209.664 376.74,209.3715 C 376.74,209.079 377.2665,208.3185 377.91,207.675 C 378.5535,207.0315 379.08,205.9785 379.08,205.3935 C 379.08,204.75 379.6065,204.048 380.25,203.8725 C 380.8935,203.6385 381.42,202.995 381.42,202.3515 C 381.42,201.708 381.8295,201.0645 382.2975,200.889 C 382.9995,200.5965 383.175,199.485 383.175,195.9165 C 383.175,193.2255 382.941,191.295 382.59,191.295 C 382.2975,191.295 382.005,191.5875 382.005,191.9385 z " />
  <path
     style="fill:#000000;stroke:none"
     id="path6849"
     d="M 412.542,204.165 C 411.489,204.8085 410.2605,205.335 409.7925,205.335 C 409.3245,205.335 408.915,205.569 408.915,205.92 C 408.915,206.2125 408.3885,206.505 407.8035,206.505 C 407.16,206.505 406.575,206.6805 406.458,206.9145 C 406.3995,207.207 405.288,208.143 404.0595,209.0205 C 402.831,209.9565 400.9005,212.121 399.789,213.8175 C 397.917,216.6255 395.0505,218.79 393.1785,218.79 C 392.8275,218.79 392.535,219.375 392.535,220.1355 C 392.535,221.8905 390.429,223.6455 388.674,223.2945 L 387.27,223.0605 L 387.27,233.532 C 387.27,241.371 387.0945,244.062 386.568,244.2375 C 386.1585,244.413 378.3195,245.583 369.1935,246.87 C 360.0675,248.157 352.521,249.2685 352.4625,249.327 C 352.404,249.444 351.5265,283.0815 350.4735,324.09 C 349.479,365.0985 348.426,403.9425 348.2505,410.3775 L 347.8995,422.0775 L 349.713,420.2055 C 350.766,419.211 351.585,418.041 351.585,417.69 C 351.585,417.339 351.9945,416.637 352.4625,416.169 C 352.9305,415.701 353.1645,414.999 352.989,414.5895 C 352.872,414.18 353.574,412.893 354.6855,411.7815 C 357.2595,409.149 359.775,403.7085 359.775,400.7835 C 359.775,399.4965 360.0675,398.268 360.36,398.0925 C 360.711,397.917 360.945,397.098 360.945,396.3375 C 360.945,395.577 361.413,394.641 361.998,394.3485 C 362.5245,393.9975 362.6415,393.705 362.2905,393.705 C 361.881,393.705 361.53,393.4125 361.53,393.12 C 361.53,392.769 361.881,392.535 362.2905,392.535 C 363.051,392.4765 365.04,388.6155 365.04,387.036 C 365.04,386.5095 365.391,385.9245 365.859,385.749 C 366.327,385.5735 366.795,384.696 366.9705,383.8185 C 367.146,382.8825 367.731,381.7125 368.2575,381.2445 C 368.7255,380.718 369.135,379.9575 369.135,379.431 C 369.135,378.963 369.6615,378.261 370.305,377.91 C 370.9485,377.559 371.475,376.9155 371.475,376.4475 C 371.475,375.9795 371.8845,375.57 372.3525,375.57 C 372.8205,375.57 373.23,375.219 373.23,374.8095 C 373.23,374.4 374.166,373.581 375.2775,373.0545 C 376.4475,372.528 377.5005,371.6505 377.676,371.1825 C 377.91,370.7145 378.6705,370.305 379.3725,370.305 C 380.133,370.305 380.835,370.071 380.952,369.837 C 381.303,368.9595 389.727,365.04 391.3065,365.04 C 392.769,365.04 396.045,364.0455 402.363,361.764 C 404.0595,361.1205 404.82,360.477 404.82,359.775 C 404.82,359.19 405.2295,358.3125 405.6975,357.786 C 406.1655,357.318 406.575,356.4405 406.575,355.8555 C 406.575,354.1005 409.968,350.415 411.606,350.415 C 412.425,350.415 413.01,350.064 413.01,349.596 C 413.01,349.128 414.0045,348.1335 415.233,347.4315 C 416.403,346.671 417.6315,345.735 417.8655,345.3255 C 418.0995,344.916 418.86,344.565 419.445,344.565 C 420.0885,344.565 420.615,344.214 420.615,343.746 C 420.615,342.5175 424.0665,342.0495 425.646,343.1025 C 427.1085,344.0385 429.975,349.713 429.975,351.5265 C 429.975,352.17 430.2675,352.755 430.6185,352.872 C 430.9695,352.989 431.379,354.393 431.5545,355.9725 C 432.0225,359.9505 432.4905,360.477 434.9475,359.424 C 436.059,358.956 437.1705,358.605 437.463,358.605 C 438.2235,358.605 441.675,361.881 441.675,362.583 C 441.675,362.9925 441.909,363.285 442.2015,363.285 C 443.079,363.285 444.015,366.795 444.015,370.071 C 444.015,373.698 444.6585,374.166 447.408,372.528 C 449.3385,371.2995 450.6255,371.2995 455.598,372.3525 L 457.47,372.8205 L 457.47,356.031 C 457.4115,339.5925 457.4115,339.3 456.3,339.885 C 455.6565,340.236 455.13,341.055 455.13,341.64 C 455.13,343.395 451.854,343.278 451.386,341.4645 C 450.8595,339.417 450.9765,335.79 451.62,335.79 C 451.971,335.79 452.205,333.45 452.205,329.9985 C 452.205,326.7225 452.439,323.973 452.79,323.7975 C 453.141,323.622 453.375,322.92 453.375,322.335 C 453.375,320.5215 455.247,317.1285 456.417,316.719 C 457.353,316.4265 457.47,315.666 457.4115,307.827 C 457.353,303.0885 457.1775,299.8125 457.0605,300.5145 C 456.768,301.9185 455.481,302.328 454.779,301.158 C 454.545,300.807 454.311,299.169 454.194,297.531 C 454.1355,295.893 454.0185,294.489 454.0185,294.4305 C 453.9015,294.255 449.748,296.3025 447.7005,297.531 C 446.6475,298.116 445.77,298.9935 445.77,299.403 C 445.77,299.8125 445.0095,300.2805 444.015,300.456 C 443.079,300.69 441.9675,301.2165 441.6165,301.626 C 441.2655,302.094 440.6805,302.445 440.388,302.445 C 440.0955,302.445 438.8085,303.498 437.58,304.785 C 435.8835,306.54 434.889,307.125 433.5435,307.125 C 432.315,307.125 431.73,307.4175 431.73,308.0025 C 431.73,308.7045 430.794,308.88 426.699,308.88 L 421.6095,308.88 L 421.902,304.3755 C 422.0775,301.743 422.487,299.754 422.8965,299.637 C 423.2475,299.52 423.54,298.701 423.54,297.765 C 423.54,296.4195 424.0665,295.8345 426.1725,294.606 C 428.8635,292.968 429.6825,291.33 427.6935,291.33 C 426.348,291.33 421.2,294.138 421.2,294.8985 C 421.2,295.191 420.498,295.425 419.562,295.425 C 418.041,295.425 416.8125,296.361 413.361,300.0465 C 412.7175,300.7485 411.489,301.275 410.6115,301.275 C 408.681,301.275 405.873,302.3865 405.2295,303.4395 C 404.9955,303.849 404.4105,304.0245 403.9425,303.849 C 403.4745,303.615 403.065,303.7905 403.065,304.1415 C 403.065,305.604 402.012,304.6095 401.7195,302.8545 C 401.544,301.626 401.7195,300.7485 402.246,300.339 C 402.948,299.8125 403.0065,298.818 402.714,295.776 C 402.363,292.4415 402.4215,291.915 403.299,291.915 C 403.9425,291.915 404.235,291.3885 404.235,290.16 C 404.235,289.1655 404.4105,288.405 404.703,288.405 C 404.937,288.405 405.639,287.352 406.224,286.065 C 406.8675,284.778 407.9205,283.374 408.564,282.906 C 409.266,282.438 410.67,281.268 411.723,280.2735 C 412.776,279.279 413.8875,278.46 414.18,278.46 C 414.4725,278.46 414.9405,277.758 415.116,276.8805 C 415.35,276.003 416.6955,274.1895 418.0995,272.7855 C 419.445,271.3815 420.615,269.9775 420.615,269.685 C 420.615,269.334 421.0245,269.1 421.4925,269.1 C 421.9605,269.1 422.37,268.9245 422.37,268.632 C 422.37,268.398 423.306,267.696 424.4175,267.111 C 425.529,266.4675 426.465,265.7655 426.465,265.473 C 426.465,265.239 426.8745,265.005 427.3425,265.005 C 427.8105,265.005 428.22,264.5955 428.22,264.069 C 428.22,263.484 428.571,263.25 429.0975,263.484 C 429.5655,263.6595 429.975,263.5425 429.975,263.25 C 429.975,262.899 430.3845,262.665 430.911,262.665 C 432.0225,262.665 433.0755,261.495 434.3625,258.8625 C 435.2985,256.9905 442.4355,251.667 445.4775,250.614 C 451.62,248.4495 452.088,247.806 449.865,244.9395 C 449.046,243.8865 448.695,242.5995 448.695,240.2595 C 448.695,236.808 448.2855,236.34 445.2435,236.34 C 443.6055,236.34 440.505,233.883 440.505,232.6545 C 440.505,232.3035 440.0955,231.6015 439.6275,231.075 C 438.75,230.0805 438.984,228.15 439.9785,228.15 C 440.973,228.15 440.505,225.225 439.335,224.2305 C 438.633,223.587 438.165,222.4755 438.165,221.3055 C 438.165,220.2525 437.931,219.375 437.58,219.375 C 437.2875,219.375 436.995,219.7845 436.995,220.2525 C 436.995,220.7205 436.527,221.13 435.942,221.13 C 434.4795,221.13 431.145,224.3475 431.145,225.7515 C 431.145,226.4535 430.8525,226.98 430.56,226.98 C 429.6825,226.98 426.582,230.3145 425.2365,232.596 C 424.6515,233.7075 423.54,235.5795 422.838,236.7495 C 421.7265,238.6215 421.4925,240.1425 421.2,246.87 C 420.9075,254.6505 420.9075,254.7675 419.5035,254.943 C 417.573,255.2355 415.35,253.9485 415.2915,252.486 C 415.233,250.965 413.595,248.04 412.308,247.221 C 411.5475,246.753 411.0795,246.9285 410.1435,248.0985 C 409.5,248.859 408.9735,249.8535 408.915,250.2045 C 408.915,250.614 408.681,250.965 408.33,250.965 C 408.0375,250.965 407.745,251.2575 407.745,251.55 C 407.745,251.901 407.277,252.8955 406.6335,253.773 C 403.7085,258.0435 401.895,261.2025 401.895,262.08 C 401.895,262.548 400.959,264.771 399.789,266.9355 C 398.0925,270.153 397.449,270.855 396.279,270.855 C 394.875,270.855 394.875,270.7965 394.875,265.6485 C 394.875,262.7235 394.641,260.208 394.29,260.0325 C 393.9975,259.857 393.705,259.155 393.705,258.5115 C 393.705,257.9265 393.9975,257.4 394.29,257.4 C 394.641,257.4 394.875,253.2465 394.875,246.1095 C 394.875,236.106 394.992,234.5265 396.1035,231.66 C 396.747,229.905 397.449,227.916 397.6245,227.2725 C 397.8585,226.629 398.619,225.459 399.3795,224.6985 C 400.0815,223.938 400.725,223.119 400.725,222.885 C 400.725,222.651 401.2515,221.8905 401.8365,221.1885 C 402.48,220.4865 403.1235,218.8485 403.3575,217.5615 C 403.65,215.865 404.1765,215.046 405.4635,214.2855 C 406.3995,213.7005 407.16,212.94 407.16,212.5305 C 407.16,212.121 407.4525,211.77 407.745,211.77 C 408.096,211.77 408.33,211.3605 408.33,210.8925 C 408.33,210.4245 408.564,210.015 408.8565,210.015 C 409.149,210.015 409.617,209.4885 409.7925,208.845 C 409.968,208.2015 410.436,207.675 410.787,207.675 C 411.489,207.675 414.765,204.2235 414.765,203.463 C 414.765,202.8195 414.765,202.8195 412.542,204.165 z " />
  <path
     style="fill:#000000;stroke:none"
     id="path6851"
     d="M 228.0915,205.8615 C 223.821,208.494 194.103,216.801 178.8345,219.609 C 174.7395,220.3695 171.2295,221.13 171.054,221.247 C 170.937,221.4225 170.8785,230.1975 170.937,240.786 L 171.1125,260.0325 L 172.1655,256.5225 C 173.745,251.2575 175.0905,249.093 178.1325,246.987 C 180.5895,245.349 181.35,245.115 184.86,245.115 C 188.6625,245.115 188.8965,245.232 190.5345,247.104 C 192.2895,249.0345 195.975,257.049 195.975,258.804 C 195.975,259.3305 196.2675,260.91 196.677,262.3725 C 197.4375,265.2975 197.496,265.2975 202.4685,264.4785 C 204.2235,264.186 213.1155,262.9575 222.3,261.7875 C 231.4845,260.6175 239.5575,259.5645 240.318,259.389 L 241.605,259.155 L 241.605,233.2395 L 241.605,207.324 L 236.808,206.622 C 234.117,206.2125 231.309,205.7445 230.49,205.6275 C 229.671,205.452 228.618,205.569 228.0915,205.8615 z " />
  <path
     style="fill:#000000;stroke:none"
     id="path6853"
     d="M 336.0825,206.9145 C 335.1465,207.0315 333.45,207.2655 332.4555,207.441 L 330.525,207.7335 L 330.525,227.682 L 330.525,247.572 L 332.4555,247.2795 C 333.45,247.104 335.556,246.753 337.1355,246.519 L 339.885,246.168 L 339.885,226.3365 C 339.885,204.3405 340.2945,206.388 336.0825,206.9145 z " />
  <path
     style="fill:#000000;stroke:none"
     id="path6855"
     d="M 245.7,233.415 L 245.7,258.7455 L 248.391,258.336 C 249.912,258.1605 251.6085,257.985 252.1935,257.985 C 253.0125,257.985 253.305,257.3415 253.5975,255.177 C 254.475,248.4495 254.4165,248.5665 256.8735,247.5135 L 259.155,246.5775 L 259.155,228.0915 L 259.155,209.547 L 257.517,209.2545 C 256.6395,209.079 253.5975,208.728 250.7895,208.494 L 245.7,208.0845 L 245.7,233.415 z " />
  <path
     style="fill:#000000;stroke:none"
     id="path6857"
     d="M 314.4375,208.9035 C 311.571,209.1375 305.604,209.547 301.158,209.781 L 293.202,210.132 L 294.021,212.121 C 294.8985,214.227 295.1325,221.481 294.3135,221.949 C 294.0795,222.1245 293.67,223.5285 293.4945,225.0495 C 293.1435,227.8575 291.7395,231.309 290.6865,231.9525 C 289.692,232.596 290.1015,234.585 291.2715,234.585 C 291.8565,234.585 293.1435,235.4625 294.0795,236.5155 C 296.3025,239.0895 296.127,238.9725 303.615,241.605 C 310.284,243.945 315.9,247.0455 315.9,248.4495 C 315.9,249.3855 317.1285,249.3855 322.3935,248.5665 L 326.43,247.8645 L 326.43,228.0915 L 326.43,208.26 L 323.0955,208.3185 C 321.2235,208.377 317.3625,208.611 314.4375,208.9035 z " />
  <path
     style="fill:#000000;stroke:none"
     id="path6859"
     d="M 263.601,211.185 C 263.133,213.5835 263.133,244.53 263.601,244.53 C 264.42,244.53 273.663,239.967 274.014,239.3235 C 274.248,238.9725 273.9555,237.978 273.312,237.042 C 271.674,234.6435 270.6795,231.777 271.089,230.6655 C 271.323,230.139 270.9135,227.3895 270.153,224.523 C 268.983,219.843 268.9245,219.024 269.6265,215.6895 C 270.036,213.7005 270.7965,211.5945 271.2645,211.0095 C 272.142,210.0735 272.0835,210.015 270.738,210.015 C 269.919,210.015 268.1055,209.8395 266.643,209.664 C 264.069,209.313 264.0105,209.313 263.601,211.185 z " />
  <path
     style="fill:#000000;stroke:none"
     id="path6861"
     d="M 44.0505,217.503 C 41.301,218.8485 40.7745,218.9655 39.0195,218.322 C 36.7965,217.503 34.5735,217.4445 33.5205,218.088 C 32.5845,218.673 31.005,222.534 31.005,224.2305 C 31.005,225.8685 31.9995,226.98 33.462,226.98 C 35.0415,226.98 39.195,225.576 39.195,225.108 C 39.195,224.8155 39.546,224.64 40.014,224.64 C 40.482,224.64 40.95,224.406 41.067,224.055 C 41.184,223.7625 43.758,222.2415 46.8,220.7205 C 53.352,217.386 54.405,215.865 49.9005,215.9235 C 48.087,215.9235 46.0395,216.5085 44.0505,217.503 z " />
  <path
     style="fill:#000000;stroke:none"
     id="path6863"
     d="M 164.9115,221.949 C 164.7945,222.066 159.939,222.7095 154.1475,223.4115 C 148.356,224.1135 142.506,224.8155 141.1605,224.991 L 138.645,225.2835 L 138.645,248.976 C 138.645,270.972 138.7035,272.61 139.6395,272.61 C 140.8095,272.61 156.897,270.504 162.8055,269.6265 L 166.725,268.983 L 166.725,245.349 C 166.725,226.044 166.608,221.715 165.9645,221.715 C 165.4965,221.715 165.0285,221.832 164.9115,221.949 z " />
  <path
     style="fill:#000000;stroke:none"
     id="path6865"
     d="M 126.1845,226.2195 C 126.009,226.512 126.243,236.0475 126.711,247.455 C 127.1205,258.8625 127.4715,269.6265 127.53,271.2645 C 127.53,273.9555 127.7055,274.365 128.6415,274.365 C 129.285,274.365 129.987,274.0725 130.1625,273.78 C 130.338,273.429 131.4495,273.195 132.561,273.195 L 134.55,273.195 L 134.55,249.5025 L 134.55,225.81 L 130.5135,225.81 C 128.232,225.81 126.3015,225.9855 126.1845,226.2195 z " />
  <path
     style="fill:#000000;stroke:none"
     id="path6867"
     d="M 329.6475,252.252 C 322.92,253.2465 317.2455,254.124 317.1285,254.241 C 317.0115,254.358 317.304,256.0545 317.889,257.985 C 318.6495,260.8515 318.825,264.186 318.8835,274.833 C 318.8835,282.1455 318.591,288.873 318.2985,289.8675 C 318.006,290.8035 317.5965,294.6645 317.421,298.35 C 317.304,302.0355 316.602,307.71 315.9,310.9275 C 313.9695,320.112 312.9165,326.898 312.5655,332.28 C 312.273,337.2525 311.3955,339.3 309.6405,339.3 C 309.0555,339.3 308.88,341.9325 308.88,352.872 C 308.8215,373.0545 308.3535,392.184 307.71,397.5075 C 307.4175,400.0815 307.008,405.5805 306.8325,409.7925 C 306.657,413.946 306.189,418.977 305.838,420.9075 C 305.487,422.838 305.253,427.167 305.253,430.56 C 305.3115,435.4155 305.136,436.878 304.3755,437.7555 C 303.849,438.3405 303.2055,440.0955 303.03,441.675 L 302.679,444.6 L 312.507,444.6 C 323.3295,444.6 322.5105,444.834 327.132,440.271 C 329.2965,438.1065 329.5305,438.048 332.28,438.3405 C 334.7955,438.633 335.205,438.516 335.4975,437.5215 C 335.7315,436.9365 336.0825,436.41 336.375,436.41 C 336.6675,436.41 337.077,435.8835 337.2525,435.24 C 337.428,434.5965 337.9545,434.07 338.4225,434.07 C 339.417,434.07 340.2945,429.2145 339.3585,428.922 C 339.0075,428.805 338.715,428.454 338.715,428.103 C 338.715,427.752 339.066,427.635 339.534,427.8105 C 340.1775,428.103 340.353,426.816 340.4115,421.0245 C 340.47,417.105 341.406,378.495 342.5175,335.205 C 343.629,291.915 344.565,255.1185 344.565,253.422 C 344.565,249.795 346.203,249.912 329.6475,252.252 z " />
  <path
     style="fill:#000000;stroke:none"
     id="path6869"
     d="M 224.2305,266.9355 C 208.611,269.1585 198.9,270.7965 198.9,271.1475 C 198.9,271.4985 199.4265,272.9025 200.07,274.1895 C 200.889,275.886 201.942,276.939 203.697,277.8165 C 207.09,279.4545 208.494,281.7945 210.3075,288.99 C 213.291,300.69 215.2215,305.5455 219.375,311.805 C 221.4225,314.9055 226.395,324.7335 227.214,327.4245 C 227.8575,329.5305 231.426,329.2965 233.883,326.9565 C 236.34,324.6165 237.393,322.569 239.031,316.485 C 239.733,313.677 241.02,309.9915 241.7805,308.178 C 243.243,304.902 245.8755,296.361 246.5775,292.5 C 246.8115,291.3885 247.6305,288.4635 248.391,286.065 C 250.3215,279.981 251.55,273.7215 251.55,270.0945 C 251.55,268.398 251.784,266.175 252.0765,265.122 C 252.603,263.3085 252.5445,263.25 251.082,263.3085 C 250.2045,263.367 238.095,265.005 224.2305,266.9355 z " />
  <path
     style="fill:#000000;stroke:none"
     id="path6871"
     d="M 146.835,277.758 L 127.8225,280.449 L 129.402,324.6165 C 131.859,395.226 132.8535,421.434 132.9705,421.4925 C 136.8315,422.955 139.23,425.529 139.23,428.22 C 139.23,429.4485 139.9905,431.7885 140.985,433.836 C 141.9795,435.708 143.208,438.9255 143.7345,440.9145 L 144.612,444.6 L 153.621,444.6 C 159.6465,444.6 162.6885,444.366 162.981,443.9565 C 163.566,442.962 164.2095,421.434 164.619,389.61 L 165.0285,361.8225 L 162.8055,360.7695 C 158.886,358.956 158.2425,357.435 158.3595,350.7075 C 158.418,347.49 158.2425,341.6985 157.8915,337.8375 C 157.599,333.9765 157.3065,321.6915 157.248,310.5765 C 157.131,288.288 157.131,288.171 160.875,284.6025 C 163.8585,281.7945 167.778,274.833 166.3155,275.0085 C 166.0815,275.067 157.3065,276.2955 146.835,277.758 z " />
  <path
     style="fill:#000000;stroke:none"
     id="path6873"
     d="M 118.17,281.853 C 117.351,281.9115 111.2085,282.789 104.4225,283.725 C 97.695,284.661 81.6075,286.884 68.7375,288.6975 C 55.8675,290.4525 43.173,292.2075 40.5405,292.617 L 35.802,293.2605 L 36.6795,294.606 C 37.557,296.01 37.323,299.052 36.153,300.5145 C 35.802,300.9825 36.387,301.509 38.259,302.328 C 39.663,302.9715 41.1255,304.0245 41.4765,304.668 C 42.0615,305.7795 41.886,309.699 41.067,311.7465 C 40.482,313.2675 36.738,317.655 35.9775,317.655 C 35.685,317.655 35.1,318.2985 34.6905,319.1175 C 34.3395,319.9365 34.281,320.58 34.5735,320.58 C 34.866,320.58 35.1,320.9895 35.1,321.516 C 35.1,322.686 38.493,324.0315 40.716,323.6805 C 42.1785,323.4465 42.7635,323.6805 43.524,324.792 C 44.46,326.079 44.46,326.196 42.939,327.4245 C 42.0615,328.1265 40.248,329.1795 38.961,329.706 C 37.6155,330.291 36.4455,330.9345 36.27,331.1685 C 36.0945,331.344 34.5735,331.695 32.877,331.929 C 30.303,332.28 29.5425,332.1045 28.1385,331.11 C 27.2025,330.4665 26.1495,329.94 25.857,329.94 C 25.506,329.94 24.5115,329.355 23.5755,328.5945 C 22.698,327.834 20.826,326.781 19.4805,326.196 C 18.0765,325.5525 16.965,324.8505 16.965,324.558 C 16.965,324.324 16.4385,324.09 15.795,324.09 C 15.1515,324.09 14.625,323.6805 14.625,323.2125 C 14.625,322.7445 14.274,322.335 13.8645,322.335 C 13.455,322.335 12.285,321.516 11.232,320.58 C 10.179,319.5855 9.0675,318.825 8.7165,318.825 C 8.424,318.825 8.19,319.878 8.19,321.1065 C 8.19,324.1485 10.4715,327.132 11.934,325.9035 C 13.338,324.7335 14.4495,325.494 14.8005,328.068 C 15.0345,329.2965 15.678,330.993 16.263,331.7535 C 16.9065,332.514 17.55,334.2105 17.784,335.4975 C 18.018,336.7845 18.72,338.364 19.3635,339.0075 C 20.1825,339.9435 20.358,340.587 19.9485,341.9325 C 19.4805,343.8045 20.2995,348.075 21.1185,348.075 C 21.411,348.075 21.645,348.426 21.645,348.894 C 21.645,349.3035 22.1715,350.3565 22.815,351.1755 C 23.4585,351.9945 23.985,353.34 23.985,354.1005 C 23.985,354.9195 24.2775,355.797 24.57,355.9725 C 24.921,356.2065 25.038,356.616 24.804,356.9085 C 24.6285,357.201 24.8625,358.137 25.389,358.8975 C 25.9155,359.658 26.325,360.945 26.325,361.764 C 26.325,362.5245 26.676,363.9285 27.144,364.8645 C 27.612,365.742 28.9575,368.6085 30.1275,371.1825 C 31.2975,373.7565 32.76,376.857 33.4035,378.0855 C 33.9885,379.3725 34.515,380.835 34.515,381.4785 C 34.515,382.0635 34.749,382.59 35.0415,382.59 C 35.334,382.59 36.0945,383.76 36.738,385.164 L 37.9665,387.6795 L 42.003,388.089 C 47.268,388.6155 47.6775,389.259 47.2095,396.747 C 46.8,403.0065 47.4435,404.7615 50.661,406.0485 C 51.7725,406.458 52.65,406.926 52.65,407.16 C 52.65,407.3355 53.118,407.511 53.703,407.5695 C 54.2295,407.628 55.7505,407.9205 57.096,408.213 C 59.3775,408.681 59.436,408.681 59.553,406.9845 C 59.7285,404.7615 58.5585,401.427 56.9205,399.672 C 56.16,398.853 55.575,397.8585 55.575,397.449 C 55.575,397.0395 55.0485,395.7525 54.405,394.5825 C 53.7615,393.471 53.4105,392.535 53.586,392.535 C 53.7615,392.535 53.4105,391.599 52.7085,390.429 C 52.0065,389.3175 51.48,387.504 51.48,386.5095 C 51.48,385.4565 51.0705,383.2335 50.661,381.4785 C 49.7835,378.2025 49.257,370.539 49.9005,369.954 C 50.076,369.72 50.0175,369.135 49.7835,368.6085 C 49.491,368.082 49.374,365.6835 49.491,363.285 C 49.608,360.8865 49.725,358.1955 49.725,357.2595 C 49.725,353.3985 50.193,343.6875 50.31,343.6875 C 50.3685,343.6875 50.4855,342.342 50.6025,340.7625 C 50.9535,334.737 51.5385,332.046 52.65,330.993 C 53.235,330.4665 54.054,329.0625 54.4635,327.8925 C 54.873,326.781 55.5165,325.845 55.8675,325.845 C 56.511,325.845 57.915,323.154 57.915,321.9255 C 57.915,320.931 60.0795,319.878 61.308,320.2875 C 62.478,320.6385 65.6955,325.728 65.2275,326.43 C 65.052,326.664 65.6955,331.461 66.6315,337.077 C 67.5675,342.6345 68.328,347.841 68.328,348.66 C 68.5035,352.8135 68.445,365.976 68.211,370.7145 C 68.0355,375.687 68.094,376.038 69.03,375.57 C 69.615,375.2775 70.2585,374.3415 70.434,373.5225 C 70.668,372.7035 71.253,371.5335 71.838,370.9485 C 72.3645,370.3635 74.295,368.2575 75.9915,366.2685 C 79.8525,361.9395 80.496,362.232 80.3205,368.1405 C 80.2035,371.826 79.794,375.8625 79.56,375.8625 C 79.5015,375.8625 79.3845,376.7985 79.209,377.91 C 79.092,379.0215 78.6825,381.42 78.3315,383.175 C 77.9805,384.93 77.6295,387.036 77.571,387.855 C 77.454,389.142 76.5765,392.4765 75.6405,394.875 C 75.4065,395.343 75.348,395.928 75.348,396.162 C 75.4065,396.396 74.646,399.789 73.6515,403.65 C 71.955,410.2605 71.8965,410.8455 72.774,412.1325 C 73.3005,412.9515 74.0025,413.595 74.3535,413.595 C 74.7045,413.595 75.9915,414.3555 77.22,415.35 C 79.092,416.8125 79.677,416.988 81.198,416.5785 C 82.251,416.2275 83.187,416.286 83.538,416.637 C 83.8305,416.9295 85.7025,417.339 87.6915,417.456 C 90.792,417.7485 91.3185,417.6315 91.611,416.6955 C 91.7865,416.1105 92.3715,414.7065 92.898,413.595 C 93.4245,412.4835 93.7755,411.372 93.717,411.138 C 93.6585,410.904 94.1265,409.734 94.77,408.6225 C 95.4135,407.4525 95.94,406.1655 95.94,405.6975 C 95.94,405.2295 96.174,404.82 96.4665,404.82 C 96.759,404.82 97.227,404.235 97.461,403.4745 C 97.8705,402.129 101.8485,397.0395 103.8375,395.2845 C 106.8795,392.652 109.2195,390.9555 110.1555,390.6045 C 110.682,390.3705 111.15,389.961 111.15,389.61 C 111.15,389.3175 111.5595,389.025 112.0275,389.025 C 112.4955,389.025 113.373,388.4985 113.8995,387.855 C 114.4845,387.2115 115.1865,386.685 115.5375,386.685 C 116.532,386.685 121.6215,384.111 121.68,383.526 C 121.68,383.2335 122.148,382.707 122.6745,382.2975 C 123.552,381.654 123.552,378.3195 122.031,333.099 C 121.1535,306.423 120.276,283.959 120.042,283.14 C 119.7495,282.0285 119.2815,281.736 118.17,281.853 z " />
  <path
     style="fill:#000000;stroke:none"
     id="path6875"
     d="M 258.453,303.732 C 256.4055,310.4595 255.7035,312.156 251.0235,321.867 C 249.093,325.9035 247.455,329.5305 247.455,329.823 C 247.455,330.993 245.1735,332.397 243.828,332.1045 C 242.658,331.812 242.2485,332.163 240.8445,334.7955 C 239.967,336.492 239.265,338.3055 239.265,338.832 C 239.265,341.289 238.68,341.6985 235.6965,341.289 C 233.2395,340.938 232.8885,341.055 233.1225,341.8155 C 233.766,343.3365 232.4205,343.4535 229.8465,342.108 C 227.799,341.055 226.863,339.9435 225.0495,336.6675 C 223.821,334.386 221.715,331.5195 220.3695,330.2325 C 214.578,324.7335 210.834,319.5855 206.505,311.0445 C 202.527,303.2055 202.059,302.6205 201.6495,304.083 C 200.8305,307.008 199.5435,315.6075 199.719,317.07 C 200.0115,319.0005 200.655,320.58 201.24,320.58 C 201.5325,320.58 201.942,321.399 202.1175,322.452 C 202.3515,323.505 202.761,324.7335 203.0535,325.26 C 203.58,326.2545 206.388,337.662 207.09,341.757 C 207.3825,343.278 207.8505,344.9745 208.143,345.5595 C 208.4355,346.1445 208.845,348.192 209.079,350.1225 C 209.2545,352.053 209.8395,356.6745 210.366,360.36 C 210.834,364.0455 211.3605,370.773 211.536,375.2775 C 211.7115,379.782 212.0625,385.6905 212.4135,388.44 C 212.7645,391.1895 213.408,396.6885 213.876,400.725 C 214.4025,404.7615 214.9875,410.904 215.2215,414.4725 C 215.514,417.9825 215.982,422.8965 216.3915,425.295 C 216.7425,427.6935 217.2105,433.017 217.386,437.112 L 217.737,444.6 L 234.6435,444.6 C 244.9395,444.6 251.55,444.366 251.55,444.015 C 251.55,443.7225 251.2575,442.845 250.9065,442.026 C 249.8535,439.803 251.3745,437.931 254.8845,437.0535 C 259.857,435.7665 260.442,435.4155 259.74,434.1285 C 258.804,432.315 259.038,430.326 260.6175,427.518 C 262.4895,424.125 263.0745,415.9935 262.1385,406.8675 C 260.676,393.4125 260.676,394.056 262.08,389.6685 C 263.4255,385.5735 263.4255,385.5735 262.4895,378.963 C 261.9045,375.336 261.495,370.2465 261.495,367.614 C 261.495,365.04 260.9685,357.669 260.325,351.234 C 259.272,341.2305 259.155,336.843 259.3305,320.112 C 259.506,309.465 259.5645,300.69 259.506,300.69 C 259.389,300.69 258.921,302.094 258.453,303.732 z " />
  <path
     style="fill:#000000;stroke:none"
     id="path6877"
     d="M 166.491,311.6295 C 166.257,315.783 165.8475,322.686 165.4965,327.015 C 165.204,331.344 164.853,337.779 164.6775,341.3475 C 164.3265,349.83 165.321,348.66 167.193,338.364 C 168.6555,330.4665 169.7085,326.079 171.2295,321.867 C 172.224,319.176 171.99,313.326 170.8785,312.2145 C 170.5275,311.8635 170.235,311.0445 170.235,310.401 C 170.235,309.4065 167.6025,304.2 167.076,304.2 C 166.959,304.2 166.6665,307.5345 166.491,311.6295 z " />
  <path
     style="fill:#000000;stroke:none"
     id="path6879"
     d="M 283.725,359.775 C 283.6665,359.9505 283.374,364.3965 283.14,369.72 C 282.8475,375.0435 282.3795,381.888 282.0285,384.93 C 281.6775,387.972 281.0925,393.7635 280.7415,397.8 C 280.3905,401.8365 279.747,406.2825 279.3375,407.745 C 278.1675,411.8985 277.2315,419.562 277.2315,425.1195 C 277.2315,427.9275 276.9975,431.73 276.705,433.485 C 276.4125,435.24 276.0615,438.516 275.886,440.6805 L 275.5935,444.6585 L 279.162,444.483 L 282.7305,444.3075 L 283.5495,441.3825 C 284.0175,439.7445 285.48,436.2345 286.767,433.485 C 288.9315,428.922 289.1655,427.986 289.3995,422.6625 C 289.575,418.392 289.3995,415.935 288.756,413.595 C 287.1765,408.213 285.948,401.2515 286.2405,399.6135 C 287.8785,391.0725 288.405,385.9245 288.1125,382.59 C 287.5275,376.389 284.1345,358.722 283.725,359.775 z " />
  <path
     style="fill:#000000;stroke:none"
     id="path6881"
     d="M 398.97,386.9775 C 398.97,387.4455 398.619,387.855 398.268,387.855 C 397.7415,387.855 397.8,388.089 398.385,388.44 C 398.97,388.791 399.0285,389.025 398.5605,389.025 C 398.151,389.025 397.6245,389.727 397.449,390.6045 C 397.215,391.482 396.6885,392.535 396.3375,392.9445 C 395.928,393.2955 395.46,395.226 395.226,397.1565 C 394.8165,400.491 395.1675,401.9535 396.6885,403.884 C 396.981,404.235 397.8585,405.3465 398.6775,406.341 C 399.4965,407.394 400.14,408.3885 400.14,408.564 C 400.14,409.149 410.319,419.2695 411.723,419.9715 C 412.8345,420.5565 413.0685,420.498 413.361,419.7375 C 413.829,418.626 412.7175,415.935 411.84,415.935 C 411.5475,415.935 411.255,415.5255 411.255,415.0575 C 411.255,414.5895 410.904,414.18 410.436,414.18 C 409.968,414.18 409.4415,413.361 409.2075,412.425 C 408.9735,411.4305 408.564,410.67 408.2715,410.67 C 407.979,410.67 407.394,409.968 406.9845,409.032 C 406.6335,408.1545 405.99,407.1015 405.5805,406.692 C 405.171,406.2825 404.82,405.522 404.82,405.054 C 404.82,404.586 404.586,404.235 404.2935,404.235 C 404.001,404.235 403.533,402.714 403.299,400.842 C 403.065,399.0285 402.6555,397.3905 402.4215,397.1565 C 401.661,396.6885 400.7835,391.3065 401.1345,389.4345 C 401.427,387.9135 400.5495,386.1 399.4965,386.1 C 399.204,386.1 398.97,386.5095 398.97,386.9775 z " />
  <path
     style="fill:#000000;stroke:none"
     id="path6883"
     d="M 123.201,389.961 C 122.967,390.9555 122.265,392.3595 121.563,393.0615 C 120.9195,393.7635 120.51,394.524 120.744,394.6995 C 121.0365,394.992 118.9305,398.0925 116.649,400.6665 C 115.947,401.3685 115.0695,403.065 114.66,404.2935 C 114.2505,405.522 113.6655,406.575 113.4315,406.575 C 113.1975,406.575 112.7295,407.3355 112.3785,408.33 C 112.086,409.266 111.5595,410.085 111.2085,410.085 C 110.916,410.085 110.3895,410.9625 109.98,412.074 C 109.629,413.127 108.459,415.467 107.406,417.2805 C 105.2415,420.849 105.4755,421.317 108.81,420.9075 C 110.5065,420.6735 111.033,420.2055 113.8995,416.5785 C 114.309,416.052 114.66,415.1745 114.66,414.5895 C 114.66,414.0045 115.011,413.4195 115.479,413.244 C 115.947,413.0685 116.2395,412.6005 116.064,412.191 C 115.8885,411.7815 116.415,410.9625 117.234,410.436 C 118.053,409.9095 119.3985,408.213 120.2175,406.6335 C 120.978,405.054 121.914,403.5915 122.2065,403.3575 C 122.5575,403.182 122.6745,402.6555 122.499,402.246 C 122.3235,401.778 122.6745,401.2515 123.318,401.076 C 124.371,400.725 124.4295,400.257 124.1955,394.992 C 123.903,388.2645 123.7275,387.5625 123.201,389.961 z " />
</svg>
