<?xml version="1.0" encoding="UTF-8" standalone="no"?>
<svg
   xmlns:dc="http://purl.org/dc/elements/1.1/"
   xmlns:cc="http://web.resource.org/cc/"
   xmlns:rdf="http://www.w3.org/1999/02/22-rdf-syntax-ns#"
   xmlns:svg="http://www.w3.org/2000/svg"
   xmlns="http://www.w3.org/2000/svg"
   xmlns:sodipodi="http://inkscape.sourceforge.net/DTD/sodipodi-0.dtd"
   xmlns:inkscape="http://www.inkscape.org/namespaces/inkscape"
   version="1.0"
   width="4in"
   height="4in"
   viewBox="0 0 468 468"
   preserveAspectRatio="xMidYMid meet"
   id="svg6783"
   sodipodi:version="0.32"
   inkscape:version="0.43"
   sodipodi:docbase="/my/proj/xpcs"
   sodipodi:docname="out8-flip2.svg">
  <defs
     id="defs6886" />
  <sodipodi:namedview
     inkscape:window-height="1175"
     inkscape:window-width="1443"
     inkscape:pageshadow="2"
     inkscape:pageopacity="0.0"
     borderopacity="1.0"
     bordercolor="#666666"
     pagecolor="#ffffff"
     id="base"
     inkscape:zoom="5.5111111"
     inkscape:cx="161.74977"
     inkscape:cy="220.02684"
     inkscape:window-x="1995"
     inkscape:window-y="241"
     inkscape:current-layer="svg6783" />
  <metadata
     id="metadata6785">
Created by potrace 1.7, written by Peter Selinger 2001-2005
<rdf:RDF>
  <cc:Work
     rdf:about="">
    <dc:format>image/svg+xml</dc:format>
    <dc:type
       rdf:resource="http://purl.org/dc/dcmitype/StillImage" />
  </cc:Work>
</rdf:RDF>
</metadata>
  <path
     style="fill:#000000;stroke:none"
     id="path6789"
     d="M 326.43,30.8295 C 326.43,33.813 326.664,33.6375 316.1925,35.919 C 310.6935,37.089 296.8875,40.131 290.745,41.535 C 287.9955,42.1785 280.215,43.875 273.4875,45.3375 C 266.7015,46.8585 255.294,49.374 248.04,50.9535 C 240.786,52.533 233.181,54.2295 231.075,54.6975 C 213.2325,58.5585 213.876,58.383 207.792,62.478 C 205.7445,63.8235 203.9895,64.935 203.814,64.935 C 203.697,64.935 201.942,66.0465 199.8945,67.4505 C 197.9055,68.8545 195.858,70.2 195.39,70.434 C 194.0445,71.0775 192.5235,72.0135 188.604,74.646 C 186.6735,75.933 182.6955,78.039 179.829,79.209 C 176.9625,80.4375 173.5695,81.9585 172.224,82.5435 C 170.937,83.1285 169.7085,83.655 169.4745,83.655 C 169.2405,83.655 167.3685,84.4155 165.2625,85.41 C 163.1565,86.346 161.2845,87.165 161.1675,87.165 C 161.0505,87.165 159.237,87.9255 157.248,88.8615 C 155.2005,89.739 152.919,90.7335 152.1,90.9675 C 151.281,91.2015 149.7015,91.9035 148.59,92.4885 C 147.4785,93.132 146.25,93.6 145.899,93.6 C 145.4895,93.6 145.08,91.26 144.846,87.048 C 144.612,83.421 143.91,78.624 143.325,76.3425 C 142.74,74.1195 142.0965,71.3115 141.921,70.2 C 141.7455,69.0885 140.9265,67.392 140.1075,66.456 C 139.2885,65.52 138.645,64.5255 138.645,64.233 C 138.645,63.999 138.2355,63.765 137.7675,63.765 C 137.2995,63.765 136.89,63.3555 136.89,62.8875 C 136.89,62.4195 136.656,62.01 136.3635,62.01 C 136.071,62.01 135.603,61.4835 135.4275,60.84 C 135.252,60.1965 134.6085,59.67 134.082,59.67 C 133.5555,59.67 132.444,58.734 131.6835,57.6225 C 130.923,56.511 130.104,55.575 129.8115,55.575 C 129.519,55.575 129.285,55.2825 129.285,54.9315 C 129.285,54.405 131.157,54.3465 135.837,54.5805 C 141.921,54.8145 142.7985,55.0485 146.835,56.979 C 153.9135,60.4305 155.6685,61.425 156.9555,62.595 C 157.599,63.2385 159.4125,63.9405 160.992,64.116 C 162.513,64.35 163.8,64.701 163.8,64.9935 C 163.8,65.286 165.0285,65.52 166.491,65.52 L 169.182,65.52 L 168.8895,61.542 C 168.5385,56.6865 167.7195,52.4745 166.491,49.4325 C 166.023,48.1455 165.6135,46.6245 165.555,46.098 C 165.555,45.513 165.0285,44.7525 164.385,44.343 C 162.8055,43.3485 162.9225,42.12 164.5605,42.12 C 166.14,42.12 171.405,43.875 174.0375,45.279 C 174.9735,45.8055 176.085,46.215 176.436,46.215 C 176.787,46.215 177.84,46.6245 178.8345,47.0925 C 179.829,47.5605 181.818,48.204 183.2805,48.4965 C 184.743,48.7305 186.615,49.5495 187.4925,50.2515 C 188.37,50.895 189.891,51.48 190.7685,51.48 C 191.7045,51.48 192.465,51.714 192.465,52.0065 C 192.465,52.7085 195.741,53.82 197.847,53.82 C 198.8415,53.82 200.3625,54.405 201.357,55.0485 C 203.346,56.511 206.271,56.628 207.4995,55.3995 C 208.2015,54.756 208.2015,54.1125 207.558,51.714 C 207.1485,50.1345 206.505,48.6135 206.0955,48.3795 C 205.686,48.1455 205.335,47.151 205.335,46.215 C 205.335,45.2205 205.0425,44.46 204.75,44.46 C 204.399,44.46 204.165,44.226 204.165,43.875 C 204.165,42.705 195.273,33.93 194.0445,33.93 C 193.2255,33.93 191.295,31.8825 191.295,31.0635 C 191.295,30.771 190.3005,30.303 189.072,29.952 C 187.6095,29.5425 209.1375,29.367 256.6395,29.3085 L 326.43,29.25 L 326.43,30.8295 z " />
  <path
     style="fill:#000000;stroke:none"
     id="path6791"
     d="M 344.331,37.323 C 347.841,40.1895 352.287,42.705 353.925,42.705 C 354.4515,42.705 355.095,42.8805 355.329,43.1145 C 355.914,43.758 360.477,45.045 361.0035,44.7525 C 361.179,44.577 362.934,44.9865 364.806,45.5715 C 367.0875,46.2735 369.954,46.683 373.1715,46.6245 C 377.091,46.6245 378.261,46.8585 378.7875,47.619 C 379.197,48.1455 380.016,48.555 380.601,48.555 C 382.2975,48.6135 384.93,51.246 384.93,52.8255 C 384.93,54.5805 383.7015,55.7505 382.356,55.224 C 381.8295,55.0485 381.42,55.1655 381.42,55.5165 C 381.42,55.8675 380.7765,56.16 379.9575,56.16 C 379.1385,56.16 377.9685,56.4525 377.3835,56.862 C 376.506,57.3885 375.7455,57.2715 373.581,56.277 C 372.1185,55.575 370.539,54.99 370.071,54.99 C 369.603,54.99 369.018,54.6975 368.8425,54.3465 C 368.6085,54.054 367.0875,53.118 365.4495,52.299 C 361.5885,50.4855 360.1845,49.608 359.5995,48.672 C 359.3655,48.321 358.722,47.97 358.254,47.97 C 355.212,47.97 341.64,39.312 341.64,37.3815 C 341.64,36.036 342.693,35.9775 344.331,37.323 z " />
  <path
     style="fill:#000000;stroke:none"
     id="path6793"
     d="M 326.664,41.535 C 326.898,43.1145 327.3075,44.577 327.6,44.7525 C 327.951,44.9865 328.5945,46.0395 329.0625,47.0925 C 329.472,48.204 330.1155,49.4325 330.4665,49.842 C 332.865,52.767 334.035,54.3465 334.035,54.639 C 334.035,55.107 331.7535,53.82 330.291,52.4745 C 328.8285,51.1875 324.792,49.14 323.622,49.14 C 323.0955,49.14 322.9785,49.5495 323.2125,50.2515 C 324.7335,55.107 325.611,59.085 325.2015,59.4945 C 324.909,59.787 324.909,60.7815 325.2015,61.7175 C 325.4355,62.712 325.5525,65.2275 325.4355,67.392 C 325.3185,69.7905 325.494,71.37 325.845,71.37 C 326.1375,71.37 326.43,71.8965 326.43,72.4815 C 326.43,73.125 326.664,73.71 326.9565,73.827 C 327.4245,74.0025 330.525,82.602 330.291,82.8945 C 330.174,83.0115 326.7225,82.6605 322.569,82.1925 C 318.4155,81.7245 305.136,80.262 293.085,78.975 C 281.034,77.688 269.0415,76.3425 266.526,76.05 C 259.6815,75.1725 259.7985,75.114 258.5115,78.0975 C 257.868,79.56 257.166,80.73 256.8735,80.73 C 256.6395,80.73 255.879,81.783 255.1185,83.07 C 254.4165,84.357 253.3635,85.8195 252.837,86.4045 C 252.3105,86.931 251.6085,87.8085 251.2575,88.3935 C 248.742,92.7225 246.6945,96.057 246.051,96.7005 C 245.7,97.0515 243.3015,100.6785 240.7275,104.598 C 238.1535,108.576 235.638,112.437 235.17,113.139 C 234.702,113.8995 233.532,115.7715 232.596,117.351 C 231.66,118.9305 230.4315,120.744 229.905,121.3875 C 229.32,122.031 228.4425,123.318 227.916,124.3125 C 226.4535,127.0035 225.7515,128.115 223.002,131.742 C 221.6565,133.5555 220.545,135.135 220.545,135.3105 C 220.545,135.4275 219.258,137.5335 217.6785,139.932 C 214.9875,143.9685 214.5195,144.378 210.483,146.1915 C 208.143,147.303 204.75,148.824 202.995,149.7015 C 200.07,151.1055 199.017,151.2225 191.295,151.398 C 182.754,151.632 181.8765,151.3395 186.03,149.76 C 191.88,147.5955 192.8745,146.835 198.0225,140.868 C 200.9475,137.592 205.1595,132.8535 207.441,130.455 C 209.7225,128.0565 212.0625,125.3655 212.706,124.5465 C 213.7005,123.084 222.9435,112.9635 229.8465,105.534 C 232.83,102.375 233.7075,100.4445 232.596,99.45 C 232.1865,99.1575 220.0185,97.929 205.569,96.8175 C 191.1195,95.706 175.6755,94.4775 171.2295,94.1265 C 162.162,93.366 162.162,93.366 159.9975,97.5195 C 159.4125,98.748 157.833,101.556 156.546,103.779 C 154.2645,107.6985 154.206,107.757 152.1585,107.406 C 150.9885,107.2305 148.941,107.055 147.537,107.055 L 145.08,107.055 L 145.08,103.311 C 145.08,101.0295 145.3725,99.333 145.782,98.982 C 146.1915,98.6895 149.175,97.2855 152.3925,95.94 C 155.61,94.5945 159.2955,92.9565 160.641,92.3715 C 161.928,91.7865 163.1565,91.26 163.3905,91.26 C 163.6245,91.26 165.4965,90.441 167.6025,89.505 C 169.7085,88.5105 171.5805,87.75 171.6975,87.75 C 171.8145,87.75 173.6865,86.931 175.7925,85.995 C 177.8985,85.0005 179.7705,84.24 179.8875,84.24 C 180.765,84.24 188.487,80.3205 191.412,78.39 C 193.3425,77.103 194.9805,76.05 195.0975,76.05 C 195.2145,76.05 196.9695,74.9385 199.017,73.593 C 201.0645,72.189 203.1705,70.8435 203.697,70.4925 C 204.2235,70.2 206.5635,68.7375 208.845,67.275 C 216.099,62.712 217.269,62.127 219.6675,61.7175 C 220.9545,61.4835 223.587,60.957 225.5175,60.5475 C 227.448,60.0795 232.713,58.9095 237.2175,57.915 C 241.722,56.9205 247.6305,55.575 250.38,54.99 C 253.1295,54.3465 260.8515,52.65 267.6375,51.1875 C 274.365,49.6665 285.714,47.2095 292.7925,45.63 C 315.9,40.482 324.6165,38.61 325.4355,38.61 C 326.0205,38.61 326.43,39.6045 326.664,41.535 z " />
  <path
     style="fill:#000000;stroke:none"
     id="path6795"
     d="M 52.299,47.4435 C 53.235,48.3795 54.3465,49.14 54.6975,49.14 C 55.107,49.14 56.2185,49.5495 57.096,50.0175 C 58.032,50.4855 59.3775,50.895 60.138,50.895 C 60.84,50.895 61.893,51.48 62.478,52.1235 C 63.0045,52.8255 64.1745,54.2295 65.052,55.2825 C 65.988,56.3355 66.69,57.447 66.69,57.681 C 66.6315,58.7925 70.551,65.52 71.1945,65.52 C 71.604,65.52 71.7795,65.1105 71.5455,64.584 C 71.253,63.765 71.955,63.648 78.3315,63.8235 C 82.719,63.999 85.5855,64.2915 85.878,64.701 C 86.112,65.052 86.931,65.52 87.75,65.754 C 88.9785,66.105 89.037,66.0465 88.1595,65.52 C 86.6385,64.5255 86.9895,63.765 88.92,63.765 C 91.0845,63.765 93.6,65.286 93.6,66.6315 C 93.6,67.158 94.302,67.9185 95.1795,68.328 C 98.163,69.6735 99.45,70.4925 99.45,70.902 C 99.45,71.1945 100.2105,71.37 101.205,71.37 C 102.5505,71.37 103.2525,71.8965 104.715,74.0025 C 105.7095,75.465 106.821,76.635 107.172,76.635 C 107.523,76.635 107.64,77.1615 107.4645,77.8635 C 107.289,78.5655 107.4645,79.1505 107.9325,79.326 C 108.8685,79.677 112.1445,84.708 116.064,91.6695 C 117.819,94.77 118.755,97.1685 118.755,98.514 C 118.755,100.4445 118.6965,100.503 115.947,100.854 C 98.2215,103.3695 97.461,103.6035 95.6475,106.47 C 94.8285,107.757 94.185,109.1025 94.185,109.4535 C 94.185,109.8045 93.7755,110.799 93.3075,111.618 C 92.8395,112.4955 91.962,114.4845 91.26,116.1225 C 90.6165,117.702 89.6805,119.808 89.2125,120.6855 C 88.7445,121.6215 88.335,122.733 88.335,123.201 C 88.335,123.669 88.101,124.02 87.75,124.02 C 87.4575,124.02 87.048,124.722 86.814,125.5995 C 86.463,127.179 85.527,129.3435 81.315,138.177 C 80.3205,140.3415 79.2675,142.857 79.0335,143.7345 C 78.6825,145.0215 78.0975,145.431 75.699,146.0745 C 74.1195,146.484 71.6625,146.8935 70.2,146.952 C 68.6205,147.069 67.275,147.4785 66.8655,148.0635 C 66.5145,148.5315 65.052,149.292 63.648,149.7015 C 62.244,150.111 60.6645,150.696 60.138,150.9885 C 59.553,151.281 58.5,151.515 57.681,151.515 C 56.9205,151.515 55.9845,151.9245 55.575,152.3925 C 55.1655,152.8605 54.171,153.2115 53.2935,153.153 C 52.4745,153.0945 50.895,153.504 49.842,154.089 C 47.9115,155.0835 47.853,155.0835 48.204,153.972 C 48.438,153.3285 48.6135,151.3395 48.6135,149.526 C 48.672,147.0105 48.906,146.25 49.5495,146.25 C 50.076,146.25 51.3045,145.7235 52.3575,145.08 C 53.4105,144.4365 54.873,143.9685 55.6335,143.9685 C 57.1545,144.0855 62.829,142.272 66.222,140.6925 C 68.211,139.698 69.03,138.7035 69.849,136.1295 C 70.0245,135.603 70.668,134.9595 71.1945,134.784 C 74.763,133.614 75.699,132.912 78.2145,129.402 C 79.677,127.296 81.3735,125.1315 81.9585,124.5465 C 82.5435,123.9615 82.836,123.0255 82.6605,122.3235 C 82.4265,121.5045 82.836,120.9195 84.1815,120.276 C 85.176,119.7495 85.995,119.0475 85.995,118.755 C 85.995,118.4625 86.5215,118.1115 87.1065,117.8775 C 88.7445,117.351 89.0955,115.8885 87.867,114.2505 C 86.58,112.4955 77.805,109.3365 76.401,110.097 C 75.8745,110.3895 74.529,110.448 73.4175,110.214 C 71.6625,109.9215 71.0775,109.395 69.9075,106.9965 C 69.0885,105.417 68.445,103.779 68.445,103.2525 C 68.445,102.726 68.0355,102.1995 67.5675,102.024 C 67.0995,101.79 66.69,101.3805 66.69,101.088 C 66.69,100.737 65.9295,99.801 64.9935,98.9235 C 63.999,97.9875 63.063,96.525 62.829,95.589 C 62.595,94.7115 61.542,93.015 60.4305,91.9035 C 59.3775,90.792 58.5,89.3295 58.5,88.6275 C 58.5,87.6915 57.9735,87.1065 56.745,86.58 C 55.809,86.1705 54.522,84.942 53.8785,83.889 C 53.1765,82.7775 52.2405,81.7245 51.7725,81.549 C 51.246,81.315 50.4855,80.4375 49.959,79.5015 C 49.1985,78.039 49.1985,77.805 49.959,77.805 C 50.427,77.805 51.012,78.039 51.1875,78.39 C 51.363,78.6825 52.8255,78.975 54.405,78.975 L 57.2715,78.975 L 57.447,76.752 C 57.8565,71.955 56.979,61.8345 56.1015,61.191 C 55.6335,60.84 54.873,59.3775 54.4635,57.915 C 53.2935,54.1125 50.7195,49.14 49.9005,49.14 C 49.1985,49.14 47.97,47.385 47.97,46.3905 C 47.97,45.2205 50.7195,45.864 52.299,47.4435 z " />
  <path
     style="fill:#000000;stroke:none"
     id="path6797"
     d="M 441.09,54.99 C 445.4775,55.224 446.0625,55.3995 446.238,56.4525 C 446.472,58.3245 447.7005,62.244 448.227,62.946 C 448.461,63.297 448.5195,63.765 448.2855,63.999 C 448.0515,64.1745 448.4025,64.7595 449.046,65.2275 C 449.631,65.6955 449.865,66.105 449.5725,66.105 C 449.2215,66.105 447.876,67.0995 446.5305,68.2695 C 442.6695,71.8965 441.7335,72.54 441.3825,72.0135 C 441.207,71.721 441.207,71.136 441.3825,70.668 C 441.558,70.2 441.0315,69.2055 440.271,68.5035 C 439.452,67.743 438.9255,66.8655 439.101,66.573 C 439.2765,66.2805 439.0425,65.5785 438.516,64.9935 C 438.048,64.467 437.5215,63.4725 437.4045,62.829 C 437.346,62.244 436.8195,60.84 436.2345,59.7285 C 435.1815,57.681 434.889,55.1655 435.6495,54.873 C 435.942,54.756 438.3405,54.8145 441.09,54.99 z " />
  <path
     style="fill:#000000;stroke:none"
     id="path6799"
     d="M 361.062,72.891 C 361.3545,73.125 361.53,73.827 361.53,74.412 C 361.53,75.231 361.062,75.465 359.4825,75.465 C 358.137,75.465 356.85,75.9915 355.563,77.103 C 353.1645,79.092 349.6545,80.73 347.7825,80.73 C 346.554,80.73 346.32,80.4375 346.32,78.975 C 346.32,77.5125 346.8465,76.869 349.5375,75.114 C 352.2285,73.3005 353.3985,72.9495 356.6745,72.7155 C 358.8975,72.54 360.828,72.5985 361.062,72.891 z " />
  <path
     style="fill:#000000;stroke:none"
     id="path6801"
     d="M 389.5515,81.1395 C 389.142,81.7245 387.153,84.1815 385.2225,86.58 C 383.2335,88.9785 381.186,91.6695 380.6595,92.547 C 379.431,94.536 378.495,94.5945 376.857,92.8395 C 374.3415,90.1485 375.1605,89.0955 383.175,84.6495 C 384.93,83.655 386.9775,82.251 387.738,81.4905 C 389.3175,79.911 390.7215,79.6185 389.5515,81.1395 z " />
  <path
     style="fill:#000000;stroke:none"
     id="path6803"
     d="M 279.045,87.2235 C 284.3685,87.4575 297.2385,87.9255 307.71,88.335 C 318.1815,88.7445 327.5415,89.2125 328.5945,89.4465 L 330.408,89.7975 L 317.772,110.2725 C 310.752,121.563 304.551,131.625 303.849,132.7365 L 302.6205,134.667 L 286.65,112.4955 C 277.875,100.3275 270.036,89.505 269.217,88.452 C 268.281,87.2235 268.047,86.6385 268.5735,86.697 C 269.0415,86.697 273.7215,86.931 279.045,87.2235 z " />
  <path
     style="fill:#000000;stroke:none"
     id="path6805"
     d="M 338.364,93.834 C 338.8905,94.887 340.119,96.642 341.055,97.7535 C 342.0495,98.8065 342.81,100.035 342.81,100.386 C 342.81,100.6785 343.863,101.907 345.15,103.0185 C 346.437,104.13 348.192,105.5925 349.011,106.2945 C 349.83,107.055 350.8245,107.64 351.1755,107.64 C 351.585,107.64 352.755,108.4005 353.808,109.395 C 354.861,110.331 356.2065,111.15 356.7915,111.15 C 358.488,111.15 362.4075,115.479 361.7055,116.5905 C 361.2375,117.4095 354.5685,126.3015 353.5155,127.53 C 351.585,129.8115 347.6655,134.901 346.4955,136.5975 C 345.4425,138.177 343.746,138.996 334.7955,142.506 L 324.3825,146.5425 L 313.677,146.718 C 307.827,146.835 303.03,146.718 303.0885,146.4255 C 303.0885,146.1915 304.2585,144.378 305.6625,142.4475 C 307.125,140.517 308.7045,138.0015 309.2895,136.89 C 309.816,135.7785 310.9275,133.7895 311.7465,132.5025 C 314.028,128.8755 314.6715,127.881 315.081,126.945 C 315.315,126.477 316.0755,125.2485 316.7775,124.3125 C 317.4795,123.318 318.24,122.148 318.474,121.68 C 319.0005,120.51 319.8195,119.1645 322.6275,114.9525 C 325.377,110.7405 326.2545,109.395 326.781,108.225 C 327.015,107.757 328.302,105.768 329.589,103.8375 C 332.982,98.748 333.3915,98.1045 333.8595,97.11 C 334.0935,96.642 334.971,95.2965 335.79,94.068 L 337.311,91.962 L 338.364,93.834 z " />
  <path
     style="fill:#000000;stroke:none"
     id="path6807"
     d="M 263.25,100.0935 C 264.7125,102.375 266.526,105.066 267.345,106.0605 C 268.164,107.1135 269.802,109.395 270.972,111.15 C 275.7105,118.2285 280.3905,124.956 282.0285,127.0035 C 282.9645,128.1735 283.725,129.4605 283.725,129.753 C 283.725,130.104 284.076,130.6305 284.4855,130.8645 C 285.3045,131.391 292.149,141.57 291.798,141.8625 C 291.7395,141.921 289.224,143.0325 286.3575,144.261 C 283.4325,145.4895 280.7415,146.8935 280.332,147.3615 C 279.981,147.8295 279.63,149.5845 279.63,151.281 C 279.63,154.44 280.098,155.025 282.6135,155.025 C 283.4325,155.025 283.725,155.4345 283.725,156.7215 L 283.725,158.418 L 274.1895,158.769 C 268.983,158.9445 252.19161,158.52934 237.21561,158.70484 L 210.54899,158.53742 L 209.898,157.365 L 209.664,155.025 L 213.8175,153.7965 C 216.0405,153.153 218.439,152.3925 219.0825,152.1 C 219.726,151.8075 221.3055,151.281 222.5925,150.8715 C 225.225,150.111 226.98,148.824 226.98,147.5955 C 226.98,147.186 227.7405,146.0745 228.618,145.197 C 229.554,144.3195 230.4315,143.208 230.6655,142.74 C 230.8995,142.272 231.6015,141.0435 232.245,140.1075 C 232.8885,139.113 233.5905,137.943 233.8245,137.475 C 234,137.007 234.7605,135.7785 235.4625,134.8425 C 236.1645,133.848 237.159,132.093 237.744,130.8645 C 238.2705,129.6945 238.9725,128.7 239.2065,128.7 C 239.499,128.7 239.85,128.232 240.084,127.647 C 240.2595,127.1205 240.9615,125.8335 241.605,124.8975 C 242.2485,123.903 243.009,122.616 243.36,121.9725 C 243.711,121.329 244.296,120.276 244.7055,119.6325 C 245.115,118.989 246.168,117.234 247.0455,115.713 C 247.9815,114.192 249.795,111.267 251.1405,109.161 C 252.486,107.055 254.8845,103.2525 256.5225,100.6785 C 258.102,98.046 259.6815,95.94 260.0325,95.94 C 260.325,95.94 261.7875,97.812 263.25,100.0935 z "
     sodipodi:nodetypes="cccsscsccssccccccccscscsccccsccsscscsc" />
  <path
     style="fill:#000000;stroke:none"
     id="path6809"
     d="M 209.9565,104.13 L 223.119,104.4225 L 206.505,122.85 C 197.379,132.9705 189.774,141.336 189.5985,141.3945 C 189.306,141.5115 170.352,105.885 169.767,104.13 C 169.533,103.545 184.2165,103.4865 209.9565,104.13 z " />
  <path
     style="fill:#000000;stroke:none"
     id="path6811"
     d="M 404.82,105.1245 C 404.82,105.885 408.1545,109.395 408.8565,109.395 C 409.2075,109.395 409.5,109.629 409.5,109.98 C 409.5,110.2725 409.851,110.565 410.319,110.565 C 410.787,110.565 411.7815,111.384 412.4835,112.3785 C 413.4195,113.724 414.063,114.1335 415.116,113.8995 C 415.9935,113.7825 416.871,114.075 417.456,114.7185 C 418.041,115.362 418.9185,115.83 419.562,115.83 C 420.147,115.83 420.615,116.1225 420.615,116.4735 C 420.615,116.9415 421.434,117.0585 423.0135,116.8245 C 425.763,116.4735 427.05,116.766 427.05,117.819 C 427.05,118.872 421.8435,124.02 420.849,124.02 C 419.6205,124.02 414.7065,121.446 413.1855,119.9835 C 412.4835,119.2815 411.606,118.755 411.255,118.755 C 410.9625,118.755 410.67,118.4625 410.67,118.17 C 410.67,117.819 410.319,117.585 409.9095,117.585 C 409.5585,117.585 408.213,116.7075 406.9845,115.6545 C 404.937,113.841 404.7615,113.4315 404.5275,110.097 C 404.4105,108.108 404.1765,106.236 403.9425,105.9435 C 403.767,105.651 403.884,105.2415 404.235,105.0075 C 404.5275,104.832 404.82,104.832 404.82,105.1245 z " />
  <path
     style="fill:#000000;stroke:none"
     id="path6813"
     d="M 115.362,109.2195 L 120.51,109.4535 L 120.51,111.618 C 120.4515,112.788 120.1005,114.8355 119.6325,116.1225 C 119.1645,117.4095 118.755,119.457 118.755,120.627 C 118.755,122.733 118.872,122.85 120.627,122.85 C 122.7915,122.7915 124.722,121.6215 124.5465,120.393 C 124.3125,118.5795 124.6635,117 125.4825,116.181 C 125.9505,115.713 126.36,115.1865 126.36,114.9525 C 126.36,114.543 128.817,111.033 129.402,110.565 C 129.5775,110.3895 131.04,110.3895 132.6195,110.448 L 135.486,110.682 L 135.018,114.543 C 134.7255,116.7075 134.2575,118.989 133.965,119.6325 C 133.263,121.212 132.7365,123.7275 132.3855,127.062 L 132.093,129.87 L 134.55,129.87 C 136.539,129.87 137.241,129.519 138.7035,127.9395 C 139.6395,126.945 140.5755,125.424 140.751,124.605 C 141.5115,121.095 142.974,116.415 143.3835,116.415 C 143.6175,116.415 144.0855,115.245 144.4365,113.7825 C 145.1385,110.916 145.4895,110.799 149.877,111.501 C 152.0415,111.852 152.334,112.905 150.696,114.3675 C 150.345,114.66 149.7015,115.596 149.3505,116.415 C 148.941,117.234 147.8295,119.1645 146.8935,120.8025 C 145.9575,122.382 144.612,124.7805 143.91,126.0675 C 143.208,127.4715 141.921,128.7585 140.9265,129.2265 C 139.9905,129.636 137.592,131.0985 135.6615,132.3855 C 133.6725,133.731 131.6835,135.0765 131.157,135.4275 C 130.6305,135.72 128.5245,137.124 126.477,138.4695 C 124.4295,139.8735 122.5575,140.985 122.3235,140.985 C 122.031,140.985 121.446,141.3945 121.0365,141.921 C 120.627,142.4475 119.7495,143.091 119.0475,143.3835 C 118.404,143.676 117.351,144.3195 116.649,144.7875 C 115.245,145.782 115.362,145.9575 112.6125,138.9375 C 110.916,134.667 109.1025,130.3965 108.225,128.4075 C 107.9325,127.764 107.1135,125.775 106.47,124.02 C 105.8265,122.265 105.0075,120.276 104.715,119.6325 C 104.4225,118.989 103.662,117.117 102.96,115.5375 C 101.907,113.022 100.971,110.916 100.152,109.2195 C 99.9765,108.81 104.4225,108.81 115.362,109.2195 z " />
  <path
     style="fill:#000000;stroke:none"
     id="path6815"
     d="M 13.1625,111.618 C 17.901,113.1975 21.645,115.128 21.645,115.947 C 21.645,116.181 21.9375,116.415 22.2885,116.415 C 22.6395,116.415 23.6925,116.9415 24.6285,117.6435 C 25.9155,118.5795 26.325,119.2815 26.325,120.861 L 26.325,122.85 L 22.0545,122.85 C 18.252,122.85 17.433,123.084 14.859,124.6635 C 13.2795,125.7165 11.115,127.0035 10.062,127.5885 L 8.19,128.7 L 8.19,119.34 C 8.19,114.192 8.2485,109.98 8.307,110.0385 C 8.424,110.0385 10.5885,110.7405 13.1625,111.618 z " />
  <path
     style="fill:#000000;stroke:none"
     id="path6817"
     d="M 172.7505,128.4075 C 177.489,137.8845 181.35,145.9575 181.35,146.25 C 181.35,146.835 175.5,149.76 172.575,150.6375 C 169.0065,151.6905 168.714,153.621 171.6975,156.0195 C 172.926,157.014 173.745,158.184 173.745,158.9445 L 173.745,160.29 L 154.2645,160.29 C 143.6175,160.29 133.848,160.4655 132.6195,160.641 C 130.6305,160.992 130.455,160.9335 130.455,159.588 C 130.455,158.8275 130.1625,157.8915 129.8115,157.5405 C 128.6415,156.3705 129.636,155.376 132.561,154.4985 C 134.1405,154.0305 135.837,153.4455 136.305,153.153 C 136.773,152.919 138.4695,152.217 140.1075,151.5735 C 141.921,150.93 143.091,150.0525 143.2665,149.409 C 143.442,148.4145 145.4895,144.3195 151.983,132.21 C 153.4455,129.4605 155.0835,126.36 155.6685,125.2485 C 156.2535,124.137 156.9555,123.084 157.1895,122.9085 C 157.482,122.733 158.7105,120.51 159.9975,118.053 C 164.2095,109.863 162.9225,108.81 172.7505,128.4075 z " />
  <path
     style="fill:#000000;stroke:none"
     id="path6819"
     d="M 97.344,126.711 C 97.5195,127.2375 97.695,128.115 97.695,128.7 C 97.695,129.2265 98.1045,130.0455 98.5725,130.455 C 99.0405,130.8645 99.45,131.5665 99.45,131.976 C 99.45,132.444 100.2105,134.433 101.1465,136.4805 C 103.311,141.1605 105.1245,145.6065 105.5925,147.186 C 105.8265,148.1805 105.5925,148.5315 104.598,148.824 C 102.141,149.4675 99.45,149.2335 99.45,148.356 C 99.45,147.4785 96.525,146.835 92.0205,146.835 C 90.1485,146.835 88.92,146.5425 88.7445,146.0745 C 88.335,144.729 89.622,140.6925 92.2545,135.603 C 92.664,134.784 93.015,133.5555 93.015,132.9705 C 93.015,132.327 93.4245,131.3325 93.8925,130.689 C 94.3605,130.104 94.77,129.051 94.77,128.349 C 94.77,127.179 95.7645,125.775 96.5835,125.775 C 96.8175,125.775 97.1685,126.1845 97.344,126.711 z " />
  <path
     style="fill:#000000;stroke:none"
     id="path6821"
     d="M 375.219,128.9925 C 376.155,129.87 378.027,131.157 379.314,131.9175 C 381.9465,133.3215 384.345,137.241 384.0525,139.6395 C 383.994,140.4 384.111,141.1605 384.345,141.2775 C 384.8715,141.57 385.749,145.6065 385.5735,146.6595 C 385.515,147.069 385.749,147.42 386.1,147.42 C 386.3925,147.42 386.685,147.9465 386.685,148.6485 C 386.685,149.292 387.036,150.579 387.504,151.398 C 387.972,152.2755 388.7325,153.9135 389.259,155.025 L 390.1365,157.0725 L 378.027,157.4235 C 371.358,157.599 360.7695,157.833 354.4515,157.8915 C 341.874,157.95 342.225,158.067 342.225,154.557 C 342.225,150.93 342.7515,150.4035 349.1865,147.3615 C 364.923,139.815 363.753,140.634 368.0235,134.8425 C 370.188,131.9175 372.3525,129.1095 372.762,128.5245 C 373.5225,127.4715 373.6395,127.53 375.219,128.9925 z " />
  <path
     style="fill:#000000;stroke:none"
     id="path6823"
     d="M 138.06,136.539 C 138.06,136.9485 135.7785,140.985 134.55,142.74 C 134.0235,143.559 133.38,144.7875 133.146,145.431 C 132.7365,146.718 128.8755,149.76 127.7055,149.76 C 127.3545,149.76 126.7695,150.1695 126.36,150.6375 C 125.658,151.4565 124.137,151.749 117.2925,152.334 L 113.7825,152.685 L 115.5375,151.164 C 116.4735,150.345 117.819,149.409 118.4625,149.1165 C 119.808,148.473 121.212,147.5955 126.36,144.027 C 128.349,142.6815 130.104,141.57 130.221,141.57 C 130.338,141.57 132.1515,140.4 134.2575,138.9375 C 136.3635,137.475 138.06,136.3635 138.06,136.539 z " />
  <path
     style="fill:#000000;stroke:none"
     id="path6825"
     d="M 453.375,140.517 C 453.3165,141.687 450.684,143.325 446.706,144.7875 C 437.5215,148.1805 432.9585,150.0525 430.56,151.4565 C 429.039,152.334 425.7045,153.27 425.3535,152.8605 C 425.178,152.685 425.3535,152.3925 425.7045,152.2755 C 426.114,152.1 426.465,151.5735 426.465,150.9885 C 426.465,148.9995 429.624,146.601 434.3625,144.963 C 436.9365,144.144 439.9785,143.208 441.09,143.0325 C 442.2015,142.7985 444.366,141.9795 445.887,141.219 C 448.8705,139.698 453.375,139.2885 453.375,140.517 z " />
  <path
     style="fill:#000000;stroke:none"
     id="path6827"
     d="M 391.365,164.97 C 391.365,165.2625 391.1895,165.555 390.897,165.555 C 390.429,165.555 388.44,169.8255 388.44,170.82 C 388.44,171.171 388.206,171.405 387.9135,171.405 C 387.621,171.405 387.153,172.2825 386.9775,173.277 C 386.7435,174.33 385.749,176.67 384.813,178.425 C 383.8185,180.18 382.941,182.403 382.7655,183.3975 C 382.2975,186.264 380.952,187.902 379.4895,187.434 C 378.7875,187.2585 377.7345,186.5565 377.1495,185.9715 C 376.5645,185.328 375.453,184.86 374.6925,184.86 C 373.2885,184.86 373.23,184.9185 373.581,188.487 C 373.815,190.7685 374.3415,192.6405 374.985,193.3425 C 375.57,193.986 376.3305,196.092 376.74,198.0225 C 377.091,199.953 377.559,201.942 377.7345,202.41 C 377.9685,202.878 378.2025,204.399 378.261,205.686 C 378.4365,207.792 379.1385,209.6055 381.7125,213.993 C 383.9355,217.854 386.6265,221.598 387.972,222.768 C 388.908,223.5285 389.61,224.406 389.61,224.6985 C 389.61,225.6345 393.354,230.4315 394.056,230.49 C 394.4655,230.49 394.875,230.958 395.109,231.4845 C 395.577,232.947 396.8055,234.819 397.6245,235.3455 C 398.034,235.5795 398.385,236.223 398.385,236.6325 C 398.385,237.1005 398.6775,237.51 399.0285,237.51 C 400.3155,237.51 401.193,239.4405 400.6665,240.903 C 400.374,241.722 400.14,244.2375 400.1985,246.519 C 400.257,251.6085 399.7305,259.506 399.321,260.2665 C 399.1455,260.559 399.3795,262.1385 399.906,263.835 C 400.4325,265.5315 400.725,267.579 400.5495,268.3395 C 400.4325,269.1 400.491,269.8605 400.7835,270.036 C 401.076,270.2115 401.7195,271.2645 402.3045,272.4345 C 402.831,273.6045 403.767,274.6575 404.352,274.833 C 404.937,274.95 405.405,275.301 405.405,275.5935 C 405.405,275.886 405.8145,276.12 406.2825,276.12 C 406.7505,276.12 407.16,276.5295 407.16,276.9975 C 407.16,277.8165 407.8035,278.109 409.266,277.9335 C 409.617,277.875 410.2605,278.2845 410.67,278.7525 C 411.0795,279.2205 411.7815,279.63 412.191,279.63 C 412.659,279.63 413.01,279.864 413.01,280.098 C 413.01,280.683 416.1105,282.087 419.562,283.14 C 420.7905,283.491 421.785,284.076 421.785,284.3685 C 421.785,285.3045 418.275,284.9535 397.6245,282.204 C 386.6265,280.7415 374.2245,279.1035 370.0125,278.5185 L 362.4075,277.524 L 361.998,275.2425 C 361.764,273.9555 361.5885,248.508 361.5885,218.6145 L 361.53,164.385 L 376.4475,164.385 C 385.983,164.385 391.365,164.619 391.365,164.97 z " />
  <path
     style="fill:#000000;stroke:none"
     id="path6829"
     d="M 357.318,220.311 C 357.201,250.965 357.0255,276.1785 356.85,276.2955 C 356.6745,276.471 354.1005,276.2955 351.117,276.003 C 346.788,275.4765 345.735,275.184 345.735,274.4235 C 345.735,273.897 346.3785,255.06 347.1975,232.5375 C 348.543,194.22 349.3035,182.403 350.4735,181.0575 C 351.468,180.0045 351,177.84 349.6545,176.9625 C 348.3675,176.1435 348.075,176.202 344.9745,177.8985 C 341.8155,179.595 332.865,183.105 331.695,183.105 C 331.344,183.105 331.11,179.4195 331.11,173.6865 L 331.11,164.3265 L 344.331,164.502 L 357.4935,164.6775 L 357.318,220.311 z " />
  <path
     style="fill:#000000;stroke:none"
     id="path6831"
     d="M 327.015,174.6225 C 327.015,180.2385 326.8395,184.86 326.547,184.86 C 326.313,184.86 323.2125,185.5035 319.5855,186.3225 C 316.017,187.1415 309.933,188.3115 306.0135,188.8965 L 298.935,189.9495 L 298.935,177.1965 L 298.935,164.385 L 312.975,164.385 L 327.015,164.385 L 327.015,174.6225 z " />
  <path
     style="fill:#000000;stroke:none"
     id="path6833"
     d="M 294.84,177.4305 L 294.84,190.5345 L 286.4745,191.2365 C 271.3815,192.465 250.3215,193.1085 237.042,192.7575 L 224.055,192.348 L 224.055,178.3665 L 224.055,164.385 L 259.4475,164.385 L 294.84,164.385 L 294.84,177.4305 z " />
  <path
     style="fill:#000000;stroke:none"
     id="path6835"
     d="M 219.96,178.4835 L 219.96,192.6405 L 217.737,192.231 C 216.567,192.0555 213.408,191.88 210.717,191.88 L 205.92,191.88 L 205.92,178.1325 L 205.92,164.385 L 212.94,164.385 L 219.96,164.385 L 219.96,178.4835 z " />
  <path
     style="fill:#000000;stroke:none"
     id="path6837"
     d="M 201.825,177.84 C 201.825,188.1945 201.6495,191.295 201.0645,191.295 C 200.7135,191.295 196.1505,190.8855 190.944,190.4175 C 172.809,188.7795 157.365,186.4395 143.1495,183.2805 L 139.23,182.403 L 139.23,173.394 L 139.23,164.385 L 170.5275,164.385 L 201.825,164.385 L 201.825,177.84 z " />
  <path
     style="fill:#000000;stroke:none"
     id="path6839"
     d="M 135.135,171.1125 C 135.135,174.915 134.901,177.84 134.6085,177.84 C 133.7895,177.84 132.21,175.4415 132.21,174.2715 C 132.21,173.745 130.8645,171.9315 129.285,170.235 C 127.4715,168.3045 126.36,166.608 126.36,165.789 C 126.36,164.4435 126.5355,164.385 130.7475,164.385 L 135.135,164.385 L 135.135,171.1125 z " />
  <path
     style="fill:#000000;stroke:none"
     id="path6841"
     d="M 26.793,173.511 C 29.0745,176.2605 29.835,179.4195 29.835,186.264 C 29.835,190.359 29.6595,191.88 29.0745,191.88 C 28.3725,191.88 26.91,189.306 26.91,188.019 C 26.91,187.6095 26.7345,187.2 26.442,187.083 C 26.208,186.966 25.155,185.2695 24.102,183.339 C 22.5225,180.2385 22.23,179.127 22.23,175.5585 C 22.23,171.522 22.2885,171.405 23.634,171.405 C 24.57,171.405 25.6815,172.1655 26.793,173.511 z " />
  <path
     style="fill:#000000;stroke:none"
     id="path6843"
     d="M 96.1155,175.9095 C 96.876,176.6115 105.768,177.6645 106.704,177.138 C 107.2305,176.8455 108.576,176.787 109.6875,177.021 L 111.735,177.372 L 111.735,186.966 C 111.735,192.816 111.501,196.56 111.15,196.56 C 110.565,196.56 108.576,193.2255 108.5175,192.1725 C 108.4005,191.0025 104.6565,184.275 104.0715,184.275 C 103.3695,184.275 99.918,181.8765 99.2745,180.9405 C 99.0405,180.5895 97.6365,179.829 96.174,179.244 C 93.249,178.1325 91.845,176.436 93.366,175.851 C 94.5945,175.383 95.6475,175.383 96.1155,175.9095 z " />
  <path
     style="fill:#000000;stroke:none"
     id="path6845"
     d="M 430.56,186.147 C 431.6715,186.498 435.006,186.9075 437.9895,187.1415 C 442.728,187.434 443.547,187.668 445.0095,189.0135 C 447.291,191.178 448.8705,191.88 451.269,191.88 C 453.1995,191.88 453.375,192.0555 453.375,193.4595 C 453.375,197.0865 452.8485,197.73 450.099,197.73 C 447.7005,197.73 439.101,195.624 434.4795,193.869 C 433.3095,193.401 431.3205,193.05 430.092,193.05 C 427.05,193.05 424.008,190.1835 424.242,187.551 C 424.4175,185.913 424.6515,185.7375 426.465,185.6205 C 427.5765,185.562 429.4485,185.796 430.56,186.147 z " />
  <path
     style="fill:#000000;stroke:none"
     id="path6847"
     d="M 83.655,191.9385 C 83.655,192.231 84.4155,192.816 85.41,193.1085 C 86.346,193.4595 87.282,194.2785 87.4575,194.8635 C 87.6915,195.507 88.5105,196.326 89.271,196.677 C 90.0315,197.028 90.675,197.5545 90.675,197.847 C 90.675,198.1395 91.4355,198.666 92.43,198.9585 C 93.366,199.3095 94.185,199.953 94.185,200.421 C 94.185,200.889 94.5945,201.24 95.0625,201.24 C 95.472,201.24 96.1155,201.591 96.3495,202.0005 C 96.5835,202.41 97.695,203.112 98.6895,203.5215 C 99.7425,203.9895 100.62,204.6915 100.62,205.101 C 100.62,205.569 101.0295,205.92 101.4975,205.92 C 101.9655,205.92 102.375,206.154 102.375,206.505 C 102.375,206.7975 102.726,207.09 103.194,207.09 C 103.662,207.09 104.13,207.324 104.247,207.675 C 104.3055,207.9675 105.7095,208.494 107.289,208.7865 C 112.437,209.7225 112.2615,209.2545 112.7295,228.0915 L 113.0805,244.647 L 111.0915,244.296 C 109.98,244.1205 106.9965,243.711 104.4225,243.4185 C 93.4245,241.956 86.1705,240.9615 84.357,240.669 L 82.485,240.3765 L 82.485,229.905 C 82.485,223.119 82.719,219.375 83.07,219.375 C 83.421,219.375 83.8305,220.1355 84.006,221.13 C 84.24,222.066 84.591,222.885 84.825,222.885 C 85.059,222.885 85.41,223.8795 85.644,225.0495 C 85.8195,226.278 86.6385,227.8575 87.4575,228.6765 C 88.2765,229.437 88.92,230.256 88.92,230.5485 C 88.92,230.841 90.09,231.075 91.5525,231.075 C 94.0095,231.075 94.185,230.958 94.185,229.6125 C 94.185,228.7935 93.7755,226.3365 93.3075,224.172 C 92.781,222.0075 92.196,219.258 91.9035,218.088 C 91.611,216.684 91.6695,215.6895 92.079,215.28 C 92.547,214.812 92.43,214.4025 91.6695,213.876 C 91.143,213.4665 90.675,212.706 90.675,212.238 C 90.675,211.7115 90.2655,211.0095 89.7975,210.6 C 89.3295,210.1905 88.92,209.664 88.92,209.3715 C 88.92,209.079 88.3935,208.3185 87.75,207.675 C 87.1065,207.0315 86.58,205.9785 86.58,205.3935 C 86.58,204.75 86.0535,204.048 85.41,203.8725 C 84.7665,203.6385 84.24,202.995 84.24,202.3515 C 84.24,201.708 83.8305,201.0645 83.3625,200.889 C 82.6605,200.5965 82.485,199.485 82.485,195.9165 C 82.485,193.2255 82.719,191.295 83.07,191.295 C 83.3625,191.295 83.655,191.5875 83.655,191.9385 z " />
  <path
     style="fill:#000000;stroke:none"
     id="path6849"
     d="M 53.118,204.165 C 54.171,204.8085 55.3995,205.335 55.8675,205.335 C 56.3355,205.335 56.745,205.569 56.745,205.92 C 56.745,206.2125 57.2715,206.505 57.8565,206.505 C 58.5,206.505 59.085,206.6805 59.202,206.9145 C 59.2605,207.207 60.372,208.143 61.6005,209.0205 C 62.829,209.9565 64.7595,212.121 65.871,213.8175 C 67.743,216.6255 70.6095,218.79 72.4815,218.79 C 72.8325,218.79 73.125,219.375 73.125,220.1355 C 73.125,221.8905 75.231,223.6455 76.986,223.2945 L 78.39,223.0605 L 78.39,233.532 C 78.39,241.371 78.5655,244.062 79.092,244.2375 C 79.5015,244.413 87.3405,245.583 96.4665,246.87 C 105.5925,248.157 113.139,249.2685 113.1975,249.327 C 113.256,249.444 114.1335,283.0815 115.1865,324.09 C 116.181,365.0985 117.234,403.9425 117.4095,410.3775 L 117.7605,422.0775 L 115.947,420.2055 C 114.894,419.211 114.075,418.041 114.075,417.69 C 114.075,417.339 113.6655,416.637 113.1975,416.169 C 112.7295,415.701 112.4955,414.999 112.671,414.5895 C 112.788,414.18 112.086,412.893 110.9745,411.7815 C 108.4005,409.149 105.885,403.7085 105.885,400.7835 C 105.885,399.4965 105.5925,398.268 105.3,398.0925 C 104.949,397.917 104.715,397.098 104.715,396.3375 C 104.715,395.577 104.247,394.641 103.662,394.3485 C 103.1355,393.9975 103.0185,393.705 103.3695,393.705 C 103.779,393.705 104.13,393.4125 104.13,393.12 C 104.13,392.769 103.779,392.535 103.3695,392.535 C 102.609,392.4765 100.62,388.6155 100.62,387.036 C 100.62,386.5095 100.269,385.9245 99.801,385.749 C 99.333,385.5735 98.865,384.696 98.6895,383.8185 C 98.514,382.8825 97.929,381.7125 97.4025,381.2445 C 96.9345,380.718 96.525,379.9575 96.525,379.431 C 96.525,378.963 95.9985,378.261 95.355,377.91 C 94.7115,377.559 94.185,376.9155 94.185,376.4475 C 94.185,375.9795 93.7755,375.57 93.3075,375.57 C 92.8395,375.57 92.43,375.219 92.43,374.8095 C 92.43,374.4 91.494,373.581 90.3825,373.0545 C 89.2125,372.528 88.1595,371.6505 87.984,371.1825 C 87.75,370.7145 86.9895,370.305 86.2875,370.305 C 85.527,370.305 84.825,370.071 84.708,369.837 C 84.357,368.9595 75.933,365.04 74.3535,365.04 C 72.891,365.04 69.615,364.0455 63.297,361.764 C 61.6005,361.1205 60.84,360.477 60.84,359.775 C 60.84,359.19 60.4305,358.3125 59.9625,357.786 C 59.4945,357.318 59.085,356.4405 59.085,355.8555 C 59.085,354.1005 55.692,350.415 54.054,350.415 C 53.235,350.415 52.65,350.064 52.65,349.596 C 52.65,349.128 51.6555,348.1335 50.427,347.4315 C 49.257,346.671 48.0285,345.735 47.7945,345.3255 C 47.5605,344.916 46.8,344.565 46.215,344.565 C 45.5715,344.565 45.045,344.214 45.045,343.746 C 45.045,342.5175 41.5935,342.0495 40.014,343.1025 C 38.5515,344.0385 35.685,349.713 35.685,351.5265 C 35.685,352.17 35.3925,352.755 35.0415,352.872 C 34.6905,352.989 34.281,354.393 34.1055,355.9725 C 33.6375,359.9505 33.1695,360.477 30.7125,359.424 C 29.601,358.956 28.4895,358.605 28.197,358.605 C 27.4365,358.605 23.985,361.881 23.985,362.583 C 23.985,362.9925 23.751,363.285 23.4585,363.285 C 22.581,363.285 21.645,366.795 21.645,370.071 C 21.645,373.698 21.0015,374.166 18.252,372.528 C 16.3215,371.2995 15.0345,371.2995 10.062,372.3525 L 8.19,372.8205 L 8.19,356.031 C 8.2485,339.5925 8.2485,339.3 9.36,339.885 C 10.0035,340.236 10.53,341.055 10.53,341.64 C 10.53,343.395 13.806,343.278 14.274,341.4645 C 14.8005,339.417 14.6835,335.79 14.04,335.79 C 13.689,335.79 13.455,333.45 13.455,329.9985 C 13.455,326.7225 13.221,323.973 12.87,323.7975 C 12.519,323.622 12.285,322.92 12.285,322.335 C 12.285,320.5215 10.413,317.1285 9.243,316.719 C 8.307,316.4265 8.19,315.666 8.2485,307.827 C 8.307,303.0885 8.4825,299.8125 8.5995,300.5145 C 8.892,301.9185 10.179,302.328 10.881,301.158 C 11.115,300.807 11.349,299.169 11.466,297.531 C 11.5245,295.893 11.6415,294.489 11.6415,294.4305 C 11.7585,294.255 15.912,296.3025 17.9595,297.531 C 19.0125,298.116 19.89,298.9935 19.89,299.403 C 19.89,299.8125 20.6505,300.2805 21.645,300.456 C 22.581,300.69 23.6925,301.2165 24.0435,301.626 C 24.3945,302.094 24.9795,302.445 25.272,302.445 C 25.5645,302.445 26.8515,303.498 28.08,304.785 C 29.7765,306.54 30.771,307.125 32.1165,307.125 C 33.345,307.125 33.93,307.4175 33.93,308.0025 C 33.93,308.7045 34.866,308.88 38.961,308.88 L 44.0505,308.88 L 43.758,304.3755 C 43.5825,301.743 43.173,299.754 42.7635,299.637 C 42.4125,299.52 42.12,298.701 42.12,297.765 C 42.12,296.4195 41.5935,295.8345 39.4875,294.606 C 36.7965,292.968 35.9775,291.33 37.9665,291.33 C 39.312,291.33 44.46,294.138 44.46,294.8985 C 44.46,295.191 45.162,295.425 46.098,295.425 C 47.619,295.425 48.8475,296.361 52.299,300.0465 C 52.9425,300.7485 54.171,301.275 55.0485,301.275 C 56.979,301.275 59.787,302.3865 60.4305,303.4395 C 60.6645,303.849 61.2495,304.0245 61.7175,303.849 C 62.1855,303.615 62.595,303.7905 62.595,304.1415 C 62.595,305.604 63.648,304.6095 63.9405,302.8545 C 64.116,301.626 63.9405,300.7485 63.414,300.339 C 62.712,299.8125 62.6535,298.818 62.946,295.776 C 63.297,292.4415 63.2385,291.915 62.361,291.915 C 61.7175,291.915 61.425,291.3885 61.425,290.16 C 61.425,289.1655 61.2495,288.405 60.957,288.405 C 60.723,288.405 60.021,287.352 59.436,286.065 C 58.7925,284.778 57.7395,283.374 57.096,282.906 C 56.394,282.438 54.99,281.268 53.937,280.2735 C 52.884,279.279 51.7725,278.46 51.48,278.46 C 51.1875,278.46 50.7195,277.758 50.544,276.8805 C 50.31,276.003 48.9645,274.1895 47.5605,272.7855 C 46.215,271.3815 45.045,269.9775 45.045,269.685 C 45.045,269.334 44.6355,269.1 44.1675,269.1 C 43.6995,269.1 43.29,268.9245 43.29,268.632 C 43.29,268.398 42.354,267.696 41.2425,267.111 C 40.131,266.4675 39.195,265.7655 39.195,265.473 C 39.195,265.239 38.7855,265.005 38.3175,265.005 C 37.8495,265.005 37.44,264.5955 37.44,264.069 C 37.44,263.484 37.089,263.25 36.5625,263.484 C 36.0945,263.6595 35.685,263.5425 35.685,263.25 C 35.685,262.899 35.2755,262.665 34.749,262.665 C 33.6375,262.665 32.5845,261.495 31.2975,258.8625 C 30.3615,256.9905 23.2245,251.667 20.1825,250.614 C 14.04,248.4495 13.572,247.806 15.795,244.9395 C 16.614,243.8865 16.965,242.5995 16.965,240.2595 C 16.965,236.808 17.3745,236.34 20.4165,236.34 C 22.0545,236.34 25.155,233.883 25.155,232.6545 C 25.155,232.3035 25.5645,231.6015 26.0325,231.075 C 26.91,230.0805 26.676,228.15 25.6815,228.15 C 24.687,228.15 25.155,225.225 26.325,224.2305 C 27.027,223.587 27.495,222.4755 27.495,221.3055 C 27.495,220.2525 27.729,219.375 28.08,219.375 C 28.3725,219.375 28.665,219.7845 28.665,220.2525 C 28.665,220.7205 29.133,221.13 29.718,221.13 C 31.1805,221.13 34.515,224.3475 34.515,225.7515 C 34.515,226.4535 34.8075,226.98 35.1,226.98 C 35.9775,226.98 39.078,230.3145 40.4235,232.596 C 41.0085,233.7075 42.12,235.5795 42.822,236.7495 C 43.9335,238.6215 44.1675,240.1425 44.46,246.87 C 44.7525,254.6505 44.7525,254.7675 46.1565,254.943 C 48.087,255.2355 50.31,253.9485 50.3685,252.486 C 50.427,250.965 52.065,248.04 53.352,247.221 C 54.1125,246.753 54.5805,246.9285 55.5165,248.0985 C 56.16,248.859 56.6865,249.8535 56.745,250.2045 C 56.745,250.614 56.979,250.965 57.33,250.965 C 57.6225,250.965 57.915,251.2575 57.915,251.55 C 57.915,251.901 58.383,252.8955 59.0265,253.773 C 61.9515,258.0435 63.765,261.2025 63.765,262.08 C 63.765,262.548 64.701,264.771 65.871,266.9355 C 67.5675,270.153 68.211,270.855 69.381,270.855 C 70.785,270.855 70.785,270.7965 70.785,265.6485 C 70.785,262.7235 71.019,260.208 71.37,260.0325 C 71.6625,259.857 71.955,259.155 71.955,258.5115 C 71.955,257.9265 71.6625,257.4 71.37,257.4 C 71.019,257.4 70.785,253.2465 70.785,246.1095 C 70.785,236.106 70.668,234.5265 69.5565,231.66 C 68.913,229.905 68.211,227.916 68.0355,227.2725 C 67.8015,226.629 67.041,225.459 66.2805,224.6985 C 65.5785,223.938 64.935,223.119 64.935,222.885 C 64.935,222.651 64.4085,221.8905 63.8235,221.1885 C 63.18,220.4865 62.5365,218.8485 62.3025,217.5615 C 62.01,215.865 61.4835,215.046 60.1965,214.2855 C 59.2605,213.7005 58.5,212.94 58.5,212.5305 C 58.5,212.121 58.2075,211.77 57.915,211.77 C 57.564,211.77 57.33,211.3605 57.33,210.8925 C 57.33,210.4245 57.096,210.015 56.8035,210.015 C 56.511,210.015 56.043,209.4885 55.8675,208.845 C 55.692,208.2015 55.224,207.675 54.873,207.675 C 54.171,207.675 50.895,204.2235 50.895,203.463 C 50.895,202.8195 50.895,202.8195 53.118,204.165 z " />
  <path
     style="fill:#000000;stroke:none"
     id="path6851"
     d="M 237.5685,205.8615 C 241.839,208.494 271.557,216.801 286.8255,219.609 C 290.9205,220.3695 294.4305,221.13 294.606,221.247 C 294.723,221.4225 294.7815,230.1975 294.723,240.786 L 294.5475,260.0325 L 293.4945,256.5225 C 291.915,251.2575 290.5695,249.093 287.5275,246.987 C 285.0705,245.349 284.31,245.115 280.8,245.115 C 276.9975,245.115 276.7635,245.232 275.1255,247.104 C 273.3705,249.0345 269.685,257.049 269.685,258.804 C 269.685,259.3305 269.3925,260.91 268.983,262.3725 C 268.2225,265.2975 268.164,265.2975 263.1915,264.4785 C 261.4365,264.186 252.5445,262.9575 243.36,261.7875 C 234.1755,260.6175 226.1025,259.5645 225.342,259.389 L 224.055,259.155 L 224.055,233.2395 L 224.055,207.324 L 228.852,206.622 C 231.543,206.2125 234.351,205.7445 235.17,205.6275 C 235.989,205.452 237.042,205.569 237.5685,205.8615 z " />
  <path
     style="fill:#000000;stroke:none"
     id="path6853"
     d="M 129.5775,206.9145 C 130.5135,207.0315 132.21,207.2655 133.2045,207.441 L 135.135,207.7335 L 135.135,227.682 L 135.135,247.572 L 133.2045,247.2795 C 132.21,247.104 130.104,246.753 128.5245,246.519 L 125.775,246.168 L 125.775,226.3365 C 125.775,204.3405 125.3655,206.388 129.5775,206.9145 z " />
  <path
     style="fill:#000000;stroke:none"
     id="path6855"
     d="M 219.96,233.415 L 219.96,258.7455 L 217.269,258.336 C 215.748,258.1605 214.0515,257.985 213.4665,257.985 C 212.6475,257.985 212.355,257.3415 212.0625,255.177 C 211.185,248.4495 211.2435,248.5665 208.7865,247.5135 L 206.505,246.5775 L 206.505,228.0915 L 206.505,209.547 L 208.143,209.2545 C 209.0205,209.079 212.0625,208.728 214.8705,208.494 L 219.96,208.0845 L 219.96,233.415 z " />
  <path
     style="fill:#000000;stroke:none"
     id="path6857"
     d="M 151.2225,208.9035 C 154.089,209.1375 160.056,209.547 164.502,209.781 L 172.458,210.132 L 171.639,212.121 C 170.7615,214.227 170.5275,221.481 171.3465,221.949 C 171.5805,222.1245 171.99,223.5285 172.1655,225.0495 C 172.5165,227.8575 173.9205,231.309 174.9735,231.9525 C 175.968,232.596 175.5585,234.585 174.3885,234.585 C 173.8035,234.585 172.5165,235.4625 171.5805,236.5155 C 169.3575,239.0895 169.533,238.9725 162.045,241.605 C 155.376,243.945 149.76,247.0455 149.76,248.4495 C 149.76,249.3855 148.5315,249.3855 143.2665,248.5665 L 139.23,247.8645 L 139.23,228.0915 L 139.23,208.26 L 142.5645,208.3185 C 144.4365,208.377 148.2975,208.611 151.2225,208.9035 z " />
  <path
     style="fill:#000000;stroke:none"
     id="path6859"
     d="M 202.059,211.185 C 202.527,213.5835 202.527,244.53 202.059,244.53 C 201.24,244.53 191.997,239.967 191.646,239.3235 C 191.412,238.9725 191.7045,237.978 192.348,237.042 C 193.986,234.6435 194.9805,231.777 194.571,230.6655 C 194.337,230.139 194.7465,227.3895 195.507,224.523 C 196.677,219.843 196.7355,219.024 196.0335,215.6895 C 195.624,213.7005 194.8635,211.5945 194.3955,211.0095 C 193.518,210.0735 193.5765,210.015 194.922,210.015 C 195.741,210.015 197.5545,209.8395 199.017,209.664 C 201.591,209.313 201.6495,209.313 202.059,211.185 z " />
  <path
     style="fill:#000000;stroke:none"
     id="path6861"
     d="M 421.6095,217.503 C 424.359,218.8485 424.8855,218.9655 426.6405,218.322 C 428.8635,217.503 431.0865,217.4445 432.1395,218.088 C 433.0755,218.673 434.655,222.534 434.655,224.2305 C 434.655,225.8685 433.6605,226.98 432.198,226.98 C 430.6185,226.98 426.465,225.576 426.465,225.108 C 426.465,224.8155 426.114,224.64 425.646,224.64 C 425.178,224.64 424.71,224.406 424.593,224.055 C 424.476,223.7625 421.902,222.2415 418.86,220.7205 C 412.308,217.386 411.255,215.865 415.7595,215.9235 C 417.573,215.9235 419.6205,216.5085 421.6095,217.503 z " />
  <path
     style="fill:#000000;stroke:none"
     id="path6863"
     d="M 300.7485,221.949 C 300.8655,222.066 305.721,222.7095 311.5125,223.4115 C 317.304,224.1135 323.154,224.8155 324.4995,224.991 L 327.015,225.2835 L 327.015,248.976 C 327.015,270.972 326.9565,272.61 326.0205,272.61 C 324.8505,272.61 308.763,270.504 302.8545,269.6265 L 298.935,268.983 L 298.935,245.349 C 298.935,226.044 299.052,221.715 299.6955,221.715 C 300.1635,221.715 300.6315,221.832 300.7485,221.949 z " />
  <path
     style="fill:#000000;stroke:none"
     id="path6865"
     d="M 339.4755,226.2195 C 339.651,226.512 339.417,236.0475 338.949,247.455 C 338.5395,258.8625 338.1885,269.6265 338.13,271.2645 C 338.13,273.9555 337.9545,274.365 337.0185,274.365 C 336.375,274.365 335.673,274.0725 335.4975,273.78 C 335.322,273.429 334.2105,273.195 333.099,273.195 L 331.11,273.195 L 331.11,249.5025 L 331.11,225.81 L 335.1465,225.81 C 337.428,225.81 339.3585,225.9855 339.4755,226.2195 z " />
  <path
     style="fill:#000000;stroke:none"
     id="path6867"
     d="M 136.0125,252.252 C 142.74,253.2465 148.4145,254.124 148.5315,254.241 C 148.6485,254.358 148.356,256.0545 147.771,257.985 C 147.0105,260.8515 146.835,264.186 146.7765,274.833 C 146.7765,282.1455 147.069,288.873 147.3615,289.8675 C 147.654,290.8035 148.0635,294.6645 148.239,298.35 C 148.356,302.0355 149.058,307.71 149.76,310.9275 C 151.6905,320.112 152.7435,326.898 153.0945,332.28 C 153.387,337.2525 154.2645,339.3 156.0195,339.3 C 156.6045,339.3 156.78,341.9325 156.78,352.872 C 156.8385,373.0545 157.3065,392.184 157.95,397.5075 C 158.2425,400.0815 158.652,405.5805 158.8275,409.7925 C 159.003,413.946 159.471,418.977 159.822,420.9075 C 160.173,422.838 160.407,427.167 160.407,430.56 C 160.3485,435.4155 160.524,436.878 161.2845,437.7555 C 161.811,438.3405 162.4545,440.0955 162.63,441.675 L 162.981,444.6 L 153.153,444.6 C 142.3305,444.6 143.1495,444.834 138.528,440.271 C 136.3635,438.1065 136.1295,438.048 133.38,438.3405 C 130.8645,438.633 130.455,438.516 130.1625,437.5215 C 129.9285,436.9365 129.5775,436.41 129.285,436.41 C 128.9925,436.41 128.583,435.8835 128.4075,435.24 C 128.232,434.5965 127.7055,434.07 127.2375,434.07 C 126.243,434.07 125.3655,429.2145 126.3015,428.922 C 126.6525,428.805 126.945,428.454 126.945,428.103 C 126.945,427.752 126.594,427.635 126.126,427.8105 C 125.4825,428.103 125.307,426.816 125.2485,421.0245 C 125.19,417.105 124.254,378.495 123.1425,335.205 C 122.031,291.915 121.095,255.1185 121.095,253.422 C 121.095,249.795 119.457,249.912 136.0125,252.252 z " />
  <path
     style="fill:#000000;stroke:none"
     id="path6869"
     d="M 241.4295,266.9355 C 257.049,269.1585 266.76,270.7965 266.76,271.1475 C 266.76,271.4985 266.2335,272.9025 265.59,274.1895 C 264.771,275.886 263.718,276.939 261.963,277.8165 C 258.57,279.4545 257.166,281.7945 255.3525,288.99 C 252.369,300.69 250.4385,305.5455 246.285,311.805 C 244.2375,314.9055 239.265,324.7335 238.446,327.4245 C 237.8025,329.5305 234.234,329.2965 231.777,326.9565 C 229.32,324.6165 228.267,322.569 226.629,316.485 C 225.927,313.677 224.64,309.9915 223.8795,308.178 C 222.417,304.902 219.7845,296.361 219.0825,292.5 C 218.8485,291.3885 218.0295,288.4635 217.269,286.065 C 215.3385,279.981 214.11,273.7215 214.11,270.0945 C 214.11,268.398 213.876,266.175 213.5835,265.122 C 213.057,263.3085 213.1155,263.25 214.578,263.3085 C 215.4555,263.367 227.565,265.005 241.4295,266.9355 z " />
  <path
     style="fill:#000000;stroke:none"
     id="path6871"
     d="M 318.825,277.758 L 337.8375,280.449 L 336.258,324.6165 C 333.801,395.226 332.8065,421.434 332.6895,421.4925 C 328.8285,422.955 326.43,425.529 326.43,428.22 C 326.43,429.4485 325.6695,431.7885 324.675,433.836 C 323.6805,435.708 322.452,438.9255 321.9255,440.9145 L 321.048,444.6 L 312.039,444.6 C 306.0135,444.6 302.9715,444.366 302.679,443.9565 C 302.094,442.962 301.4505,421.434 301.041,389.61 L 300.6315,361.8225 L 302.8545,360.7695 C 306.774,358.956 307.4175,357.435 307.3005,350.7075 C 307.242,347.49 307.4175,341.6985 307.7685,337.8375 C 308.061,333.9765 308.3535,321.6915 308.412,310.5765 C 308.529,288.288 308.529,288.171 304.785,284.6025 C 301.8015,281.7945 297.882,274.833 299.3445,275.0085 C 299.5785,275.067 308.3535,276.2955 318.825,277.758 z " />
  <path
     style="fill:#000000;stroke:none"
     id="path6873"
     d="M 347.49,281.853 C 348.309,281.9115 354.4515,282.789 361.2375,283.725 C 367.965,284.661 384.0525,286.884 396.9225,288.6975 C 409.7925,290.4525 422.487,292.2075 425.1195,292.617 L 429.858,293.2605 L 428.9805,294.606 C 428.103,296.01 428.337,299.052 429.507,300.5145 C 429.858,300.9825 429.273,301.509 427.401,302.328 C 425.997,302.9715 424.5345,304.0245 424.1835,304.668 C 423.5985,305.7795 423.774,309.699 424.593,311.7465 C 425.178,313.2675 428.922,317.655 429.6825,317.655 C 429.975,317.655 430.56,318.2985 430.9695,319.1175 C 431.3205,319.9365 431.379,320.58 431.0865,320.58 C 430.794,320.58 430.56,320.9895 430.56,321.516 C 430.56,322.686 427.167,324.0315 424.944,323.6805 C 423.4815,323.4465 422.8965,323.6805 422.136,324.792 C 421.2,326.079 421.2,326.196 422.721,327.4245 C 423.5985,328.1265 425.412,329.1795 426.699,329.706 C 428.0445,330.291 429.2145,330.9345 429.39,331.1685 C 429.5655,331.344 431.0865,331.695 432.783,331.929 C 435.357,332.28 436.1175,332.1045 437.5215,331.11 C 438.4575,330.4665 439.5105,329.94 439.803,329.94 C 440.154,329.94 441.1485,329.355 442.0845,328.5945 C 442.962,327.834 444.834,326.781 446.1795,326.196 C 447.5835,325.5525 448.695,324.8505 448.695,324.558 C 448.695,324.324 449.2215,324.09 449.865,324.09 C 450.5085,324.09 451.035,323.6805 451.035,323.2125 C 451.035,322.7445 451.386,322.335 451.7955,322.335 C 452.205,322.335 453.375,321.516 454.428,320.58 C 455.481,319.5855 456.5925,318.825 456.9435,318.825 C 457.236,318.825 457.47,319.878 457.47,321.1065 C 457.47,324.1485 455.1885,327.132 453.726,325.9035 C 452.322,324.7335 451.2105,325.494 450.8595,328.068 C 450.6255,329.2965 449.982,330.993 449.397,331.7535 C 448.7535,332.514 448.11,334.2105 447.876,335.4975 C 447.642,336.7845 446.94,338.364 446.2965,339.0075 C 445.4775,339.9435 445.302,340.587 445.7115,341.9325 C 446.1795,343.8045 445.3605,348.075 444.5415,348.075 C 444.249,348.075 444.015,348.426 444.015,348.894 C 444.015,349.3035 443.4885,350.3565 442.845,351.1755 C 442.2015,351.9945 441.675,353.34 441.675,354.1005 C 441.675,354.9195 441.3825,355.797 441.09,355.9725 C 440.739,356.2065 440.622,356.616 440.856,356.9085 C 441.0315,357.201 440.7975,358.137 440.271,358.8975 C 439.7445,359.658 439.335,360.945 439.335,361.764 C 439.335,362.5245 438.984,363.9285 438.516,364.8645 C 438.048,365.742 436.7025,368.6085 435.5325,371.1825 C 434.3625,373.7565 432.9,376.857 432.2565,378.0855 C 431.6715,379.3725 431.145,380.835 431.145,381.4785 C 431.145,382.0635 430.911,382.59 430.6185,382.59 C 430.326,382.59 429.5655,383.76 428.922,385.164 L 427.6935,387.6795 L 423.657,388.089 C 418.392,388.6155 417.9825,389.259 418.4505,396.747 C 418.86,403.0065 418.2165,404.7615 414.999,406.0485 C 413.8875,406.458 413.01,406.926 413.01,407.16 C 413.01,407.3355 412.542,407.511 411.957,407.5695 C 411.4305,407.628 409.9095,407.9205 408.564,408.213 C 406.2825,408.681 406.224,408.681 406.107,406.9845 C 405.9315,404.7615 407.1015,401.427 408.7395,399.672 C 409.5,398.853 410.085,397.8585 410.085,397.449 C 410.085,397.0395 410.6115,395.7525 411.255,394.5825 C 411.8985,393.471 412.2495,392.535 412.074,392.535 C 411.8985,392.535 412.2495,391.599 412.9515,390.429 C 413.6535,389.3175 414.18,387.504 414.18,386.5095 C 414.18,385.4565 414.5895,383.2335 414.999,381.4785 C 415.8765,378.2025 416.403,370.539 415.7595,369.954 C 415.584,369.72 415.6425,369.135 415.8765,368.6085 C 416.169,368.082 416.286,365.6835 416.169,363.285 C 416.052,360.8865 415.935,358.1955 415.935,357.2595 C 415.935,353.3985 415.467,343.6875 415.35,343.6875 C 415.2915,343.6875 415.1745,342.342 415.0575,340.7625 C 414.7065,334.737 414.1215,332.046 413.01,330.993 C 412.425,330.4665 411.606,329.0625 411.1965,327.8925 C 410.787,326.781 410.1435,325.845 409.7925,325.845 C 409.149,325.845 407.745,323.154 407.745,321.9255 C 407.745,320.931 405.5805,319.878 404.352,320.2875 C 403.182,320.6385 399.9645,325.728 400.4325,326.43 C 400.608,326.664 399.9645,331.461 399.0285,337.077 C 398.0925,342.6345 397.332,347.841 397.332,348.66 C 397.1565,352.8135 397.215,365.976 397.449,370.7145 C 397.6245,375.687 397.566,376.038 396.63,375.57 C 396.045,375.2775 395.4015,374.3415 395.226,373.5225 C 394.992,372.7035 394.407,371.5335 393.822,370.9485 C 393.2955,370.3635 391.365,368.2575 389.6685,366.2685 C 385.8075,361.9395 385.164,362.232 385.3395,368.1405 C 385.4565,371.826 385.866,375.8625 386.1,375.8625 C 386.1585,375.8625 386.2755,376.7985 386.451,377.91 C 386.568,379.0215 386.9775,381.42 387.3285,383.175 C 387.6795,384.93 388.0305,387.036 388.089,387.855 C 388.206,389.142 389.0835,392.4765 390.0195,394.875 C 390.2535,395.343 390.312,395.928 390.312,396.162 C 390.2535,396.396 391.014,399.789 392.0085,403.65 C 393.705,410.2605 393.7635,410.8455 392.886,412.1325 C 392.3595,412.9515 391.6575,413.595 391.3065,413.595 C 390.9555,413.595 389.6685,414.3555 388.44,415.35 C 386.568,416.8125 385.983,416.988 384.462,416.5785 C 383.409,416.2275 382.473,416.286 382.122,416.637 C 381.8295,416.9295 379.9575,417.339 377.9685,417.456 C 374.868,417.7485 374.3415,417.6315 374.049,416.6955 C 373.8735,416.1105 373.2885,414.7065 372.762,413.595 C 372.2355,412.4835 371.8845,411.372 371.943,411.138 C 372.0015,410.904 371.5335,409.734 370.89,408.6225 C 370.2465,407.4525 369.72,406.1655 369.72,405.6975 C 369.72,405.2295 369.486,404.82 369.1935,404.82 C 368.901,404.82 368.433,404.235 368.199,403.4745 C 367.7895,402.129 363.8115,397.0395 361.8225,395.2845 C 358.7805,392.652 356.4405,390.9555 355.5045,390.6045 C 354.978,390.3705 354.51,389.961 354.51,389.61 C 354.51,389.3175 354.1005,389.025 353.6325,389.025 C 353.1645,389.025 352.287,388.4985 351.7605,387.855 C 351.1755,387.2115 350.4735,386.685 350.1225,386.685 C 349.128,386.685 344.0385,384.111 343.98,383.526 C 343.98,383.2335 343.512,382.707 342.9855,382.2975 C 342.108,381.654 342.108,378.3195 343.629,333.099 C 344.5065,306.423 345.384,283.959 345.618,283.14 C 345.9105,282.0285 346.3785,281.736 347.49,281.853 z " />
  <path
     style="fill:#000000;stroke:none"
     id="path6875"
     d="M 207.207,303.732 C 209.2545,310.4595 209.9565,312.156 214.6365,321.867 C 216.567,325.9035 218.205,329.5305 218.205,329.823 C 218.205,330.993 220.4865,332.397 221.832,332.1045 C 223.002,331.812 223.4115,332.163 224.8155,334.7955 C 225.693,336.492 226.395,338.3055 226.395,338.832 C 226.395,341.289 226.98,341.6985 229.9635,341.289 C 232.4205,340.938 232.7715,341.055 232.5375,341.8155 C 231.894,343.3365 233.2395,343.4535 235.8135,342.108 C 237.861,341.055 238.797,339.9435 240.6105,336.6675 C 241.839,334.386 243.945,331.5195 245.2905,330.2325 C 251.082,324.7335 254.826,319.5855 259.155,311.0445 C 263.133,303.2055 263.601,302.6205 264.0105,304.083 C 264.8295,307.008 266.1165,315.6075 265.941,317.07 C 265.6485,319.0005 265.005,320.58 264.42,320.58 C 264.1275,320.58 263.718,321.399 263.5425,322.452 C 263.3085,323.505 262.899,324.7335 262.6065,325.26 C 262.08,326.2545 259.272,337.662 258.57,341.757 C 258.2775,343.278 257.8095,344.9745 257.517,345.5595 C 257.2245,346.1445 256.815,348.192 256.581,350.1225 C 256.4055,352.053 255.8205,356.6745 255.294,360.36 C 254.826,364.0455 254.2995,370.773 254.124,375.2775 C 253.9485,379.782 253.5975,385.6905 253.2465,388.44 C 252.8955,391.1895 252.252,396.6885 251.784,400.725 C 251.2575,404.7615 250.6725,410.904 250.4385,414.4725 C 250.146,417.9825 249.678,422.8965 249.2685,425.295 C 248.9175,427.6935 248.4495,433.017 248.274,437.112 L 247.923,444.6 L 231.0165,444.6 C 220.7205,444.6 214.11,444.366 214.11,444.015 C 214.11,443.7225 214.4025,442.845 214.7535,442.026 C 215.8065,439.803 214.2855,437.931 210.7755,437.0535 C 205.803,435.7665 205.218,435.4155 205.92,434.1285 C 206.856,432.315 206.622,430.326 205.0425,427.518 C 203.1705,424.125 202.5855,415.9935 203.5215,406.8675 C 204.984,393.4125 204.984,394.056 203.58,389.6685 C 202.2345,385.5735 202.2345,385.5735 203.1705,378.963 C 203.7555,375.336 204.165,370.2465 204.165,367.614 C 204.165,365.04 204.6915,357.669 205.335,351.234 C 206.388,341.2305 206.505,336.843 206.3295,320.112 C 206.154,309.465 206.0955,300.69 206.154,300.69 C 206.271,300.69 206.739,302.094 207.207,303.732 z " />
  <path
     style="fill:#000000;stroke:none"
     id="path6877"
     d="M 299.169,311.6295 C 299.403,315.783 299.8125,322.686 300.1635,327.015 C 300.456,331.344 300.807,337.779 300.9825,341.3475 C 301.3335,349.83 300.339,348.66 298.467,338.364 C 297.0045,330.4665 295.9515,326.079 294.4305,321.867 C 293.436,319.176 293.67,313.326 294.7815,312.2145 C 295.1325,311.8635 295.425,311.0445 295.425,310.401 C 295.425,309.4065 298.0575,304.2 298.584,304.2 C 298.701,304.2 298.9935,307.5345 299.169,311.6295 z " />
  <path
     style="fill:#000000;stroke:none"
     id="path6879"
     d="M 181.935,359.775 C 181.9935,359.9505 182.286,364.3965 182.52,369.72 C 182.8125,375.0435 183.2805,381.888 183.6315,384.93 C 183.9825,387.972 184.5675,393.7635 184.9185,397.8 C 185.2695,401.8365 185.913,406.2825 186.3225,407.745 C 187.4925,411.8985 188.4285,419.562 188.4285,425.1195 C 188.4285,427.9275 188.6625,431.73 188.955,433.485 C 189.2475,435.24 189.5985,438.516 189.774,440.6805 L 190.0665,444.6585 L 186.498,444.483 L 182.9295,444.3075 L 182.1105,441.3825 C 181.6425,439.7445 180.18,436.2345 178.893,433.485 C 176.7285,428.922 176.4945,427.986 176.2605,422.6625 C 176.085,418.392 176.2605,415.935 176.904,413.595 C 178.4835,408.213 179.712,401.2515 179.4195,399.6135 C 177.7815,391.0725 177.255,385.9245 177.5475,382.59 C 178.1325,376.389 181.5255,358.722 181.935,359.775 z " />
  <path
     style="fill:#000000;stroke:none"
     id="path6881"
     d="M 66.69,386.9775 C 66.69,387.4455 67.041,387.855 67.392,387.855 C 67.9185,387.855 67.86,388.089 67.275,388.44 C 66.69,388.791 66.6315,389.025 67.0995,389.025 C 67.509,389.025 68.0355,389.727 68.211,390.6045 C 68.445,391.482 68.9715,392.535 69.3225,392.9445 C 69.732,393.2955 70.2,395.226 70.434,397.1565 C 70.8435,400.491 70.4925,401.9535 68.9715,403.884 C 68.679,404.235 67.8015,405.3465 66.9825,406.341 C 66.1635,407.394 65.52,408.3885 65.52,408.564 C 65.52,409.149 55.341,419.2695 53.937,419.9715 C 52.8255,420.5565 52.5915,420.498 52.299,419.7375 C 51.831,418.626 52.9425,415.935 53.82,415.935 C 54.1125,415.935 54.405,415.5255 54.405,415.0575 C 54.405,414.5895 54.756,414.18 55.224,414.18 C 55.692,414.18 56.2185,413.361 56.4525,412.425 C 56.6865,411.4305 57.096,410.67 57.3885,410.67 C 57.681,410.67 58.266,409.968 58.6755,409.032 C 59.0265,408.1545 59.67,407.1015 60.0795,406.692 C 60.489,406.2825 60.84,405.522 60.84,405.054 C 60.84,404.586 61.074,404.235 61.3665,404.235 C 61.659,404.235 62.127,402.714 62.361,400.842 C 62.595,399.0285 63.0045,397.3905 63.2385,397.1565 C 63.999,396.6885 64.8765,391.3065 64.5255,389.4345 C 64.233,387.9135 65.1105,386.1 66.1635,386.1 C 66.456,386.1 66.69,386.5095 66.69,386.9775 z " />
  <path
     style="fill:#000000;stroke:none"
     id="path6883"
     d="M 342.459,389.961 C 342.693,390.9555 343.395,392.3595 344.097,393.0615 C 344.7405,393.7635 345.15,394.524 344.916,394.6995 C 344.6235,394.992 346.7295,398.0925 349.011,400.6665 C 349.713,401.3685 350.5905,403.065 351,404.2935 C 351.4095,405.522 351.9945,406.575 352.2285,406.575 C 352.4625,406.575 352.9305,407.3355 353.2815,408.33 C 353.574,409.266 354.1005,410.085 354.4515,410.085 C 354.744,410.085 355.2705,410.9625 355.68,412.074 C 356.031,413.127 357.201,415.467 358.254,417.2805 C 360.4185,420.849 360.1845,421.317 356.85,420.9075 C 355.1535,420.6735 354.627,420.2055 351.7605,416.5785 C 351.351,416.052 351,415.1745 351,414.5895 C 351,414.0045 350.649,413.4195 350.181,413.244 C 349.713,413.0685 349.4205,412.6005 349.596,412.191 C 349.7715,411.7815 349.245,410.9625 348.426,410.436 C 347.607,409.9095 346.2615,408.213 345.4425,406.6335 C 344.682,405.054 343.746,403.5915 343.4535,403.3575 C 343.1025,403.182 342.9855,402.6555 343.161,402.246 C 343.3365,401.778 342.9855,401.2515 342.342,401.076 C 341.289,400.725 341.2305,400.257 341.4645,394.992 C 341.757,388.2645 341.9325,387.5625 342.459,389.961 z " />
</svg>
